G04 #@! TF.GenerationSoftware,KiCad,Pcbnew,(5.1.4)-1*
G04 #@! TF.CreationDate,2020-09-16T16:25:40+03:00*
G04 #@! TF.ProjectId,MacroBoardPcb,4d616372-6f42-46f6-9172-645063622e6b,rev?*
G04 #@! TF.SameCoordinates,Original*
G04 #@! TF.FileFunction,Copper,L1,Top*
G04 #@! TF.FilePolarity,Positive*
%FSLAX46Y46*%
G04 Gerber Fmt 4.6, Leading zero omitted, Abs format (unit mm)*
G04 Created by KiCad (PCBNEW (5.1.4)-1) date 2020-09-16 16:25:40*
%MOMM*%
%LPD*%
G04 APERTURE LIST*
%ADD10C,1.397000*%
%ADD11O,2.100000X1.000000*%
%ADD12O,1.600000X1.000000*%
%ADD13R,2.000000X2.000000*%
%ADD14C,2.000000*%
%ADD15R,2.000000X3.200000*%
%ADD16C,2.700000*%
%ADD17C,1.750000*%
%ADD18R,1.750000X1.750000*%
%ADD19C,2.250000*%
%ADD20C,2.250000*%
%ADD21O,1.700000X1.700000*%
%ADD22R,1.700000X1.700000*%
%ADD23R,1.200000X0.900000*%
%ADD24C,0.800000*%
%ADD25C,0.381000*%
%ADD26C,0.254000*%
G04 APERTURE END LIST*
D10*
X158134193Y-93433132D03*
X158134193Y-90893132D03*
X158134193Y-88353132D03*
X158134193Y-85813132D03*
D11*
X118430000Y-86530000D03*
X118430000Y-77890000D03*
D12*
X114250000Y-86530000D03*
X114250000Y-77890000D03*
D13*
X98484193Y-118648132D03*
D14*
X100984193Y-118648132D03*
X103484193Y-118648132D03*
D15*
X95384193Y-111148132D03*
X106584193Y-111148132D03*
D14*
X98484193Y-104148132D03*
X103484193Y-104148132D03*
D16*
X187009193Y-76298132D03*
X121809193Y-76298132D03*
X185809193Y-67898132D03*
X123009193Y-67898132D03*
D17*
X191159193Y-70348132D03*
X117659193Y-73848132D03*
D18*
X117659193Y-70348132D03*
D19*
X159584193Y-107148132D03*
X158929194Y-107878132D03*
D20*
X158274193Y-108608132D02*
X159584195Y-107148132D01*
D19*
X164624193Y-106068132D03*
X164604193Y-106358132D03*
D20*
X164584193Y-106648132D02*
X164624193Y-106068132D01*
D19*
X140534193Y-107148132D03*
X139879194Y-107878132D03*
D20*
X139224193Y-108608132D02*
X140534195Y-107148132D01*
D19*
X145574193Y-106068132D03*
X145554193Y-106358132D03*
D20*
X145534193Y-106648132D02*
X145574193Y-106068132D01*
D19*
X121484193Y-107148132D03*
X120829194Y-107878132D03*
D20*
X120174193Y-108608132D02*
X121484195Y-107148132D01*
D19*
X126524193Y-106068132D03*
X126504193Y-106358132D03*
D20*
X126484193Y-106648132D02*
X126524193Y-106068132D01*
D19*
X178634193Y-107148132D03*
X177979194Y-107878132D03*
D20*
X177324193Y-108608132D02*
X178634195Y-107148132D01*
D19*
X183674193Y-106068132D03*
X183654193Y-106358132D03*
D20*
X183634193Y-106648132D02*
X183674193Y-106068132D01*
D19*
X140534193Y-88098132D03*
X139879194Y-88828132D03*
D20*
X139224193Y-89558132D02*
X140534195Y-88098132D01*
D19*
X145574193Y-87018132D03*
X145554193Y-87308132D03*
D20*
X145534193Y-87598132D02*
X145574193Y-87018132D01*
D19*
X121484193Y-88098132D03*
X120829194Y-88828132D03*
D20*
X120174193Y-89558132D02*
X121484195Y-88098132D01*
D19*
X126524193Y-87018132D03*
X126504193Y-87308132D03*
D20*
X126484193Y-87598132D02*
X126524193Y-87018132D01*
D21*
X169560000Y-78990000D03*
X169560000Y-81530000D03*
X172100000Y-78990000D03*
X172100000Y-81530000D03*
X174640000Y-78990000D03*
D22*
X174640000Y-81530000D03*
D23*
X111379000Y-109727000D03*
X111379000Y-106427000D03*
X170060000Y-109475000D03*
X170060000Y-112775000D03*
X151140000Y-109475000D03*
X151140000Y-112775000D03*
X131790000Y-109475000D03*
X131790000Y-112775000D03*
X188912500Y-109475000D03*
X188912500Y-112775000D03*
X151160000Y-90380000D03*
X151160000Y-93680000D03*
X131762500Y-90425000D03*
X131762500Y-93725000D03*
D24*
X132334000Y-85471000D03*
X184658000Y-113157000D03*
X178308000Y-103759000D03*
X130175000Y-81026000D03*
X166751000Y-79502000D03*
X180848000Y-75946000D03*
X170303500Y-88903500D03*
X173841000Y-96130000D03*
X180848000Y-80137000D03*
X131064000Y-86233000D03*
X149953341Y-95285000D03*
X176657000Y-103251000D03*
X180213000Y-87045500D03*
X160302825Y-88724500D03*
X163011690Y-83622346D03*
X161417000Y-98552000D03*
X153670000Y-96012000D03*
X168529000Y-100330000D03*
X173863000Y-84836000D03*
X173101000Y-85598000D03*
X175006000Y-85725000D03*
X139954000Y-103435121D03*
X120174193Y-102775193D03*
X180594000Y-93726000D03*
X161294747Y-87507747D03*
X181483000Y-94615000D03*
X161294565Y-86491565D03*
X168529000Y-84836000D03*
X131188899Y-81917101D03*
X167528997Y-84836000D03*
X132461000Y-82677000D03*
X168000000Y-88800000D03*
X168700000Y-91200000D03*
X191008000Y-113792000D03*
X185039000Y-100076000D03*
X174879000Y-89281000D03*
X110800000Y-114400000D03*
X171500000Y-92000000D03*
X169100000Y-94400000D03*
X105568031Y-106231969D03*
X109500000Y-110000000D03*
D25*
X119460000Y-77009000D02*
X119460000Y-77890000D01*
X119460000Y-73404939D02*
X119460000Y-77009000D01*
X117659193Y-71604132D02*
X119460000Y-73404939D01*
X117659193Y-70348132D02*
X117659193Y-71604132D01*
X184658000Y-113157000D02*
X184658000Y-110109000D01*
X184658000Y-110109000D02*
X178308000Y-103759000D01*
X150172061Y-85471000D02*
X158134193Y-93433132D01*
X132334000Y-85471000D02*
X150172061Y-85471000D01*
X130175000Y-83312000D02*
X132334000Y-85471000D01*
X130175000Y-81026000D02*
X130175000Y-83312000D01*
X166751000Y-79502000D02*
X170307000Y-75946000D01*
X170307000Y-75946000D02*
X180848000Y-75946000D01*
X175787000Y-80137000D02*
X174640000Y-78990000D01*
X180848000Y-80137000D02*
X175787000Y-80137000D01*
X180848000Y-78867000D02*
X189921757Y-70348132D01*
X180848000Y-80137000D02*
X180848000Y-78867000D01*
X189921757Y-70348132D02*
X191159193Y-70348132D01*
X138592000Y-95285000D02*
X149953341Y-95285000D01*
X131064000Y-86233000D02*
X131064000Y-87757000D01*
X131064000Y-87757000D02*
X138592000Y-95285000D01*
X182273501Y-89106001D02*
X180213000Y-87045500D01*
X182273501Y-97634499D02*
X182273501Y-89106001D01*
X176657000Y-103251000D02*
X182273501Y-97634499D01*
X159991499Y-88413174D02*
X160302825Y-88724500D01*
X163011690Y-83622346D02*
X162446005Y-83622346D01*
X162446005Y-83622346D02*
X159991499Y-86076852D01*
X159991499Y-86076852D02*
X159991499Y-88413174D01*
X160302825Y-97437825D02*
X160302825Y-88724500D01*
X161417000Y-98552000D02*
X160302825Y-97437825D01*
D26*
X127104193Y-87598132D02*
X126484193Y-87598132D01*
X129931061Y-90425000D02*
X127104193Y-87598132D01*
X131762500Y-90425000D02*
X129931061Y-90425000D01*
X149532000Y-96012000D02*
X132715000Y-96012000D01*
X132715000Y-96012000D02*
X131762500Y-95059500D01*
X131762500Y-95059500D02*
X131762500Y-93725000D01*
X132715000Y-96012000D02*
X123854500Y-96012000D01*
X149606000Y-96012000D02*
X149569000Y-95975000D01*
X149569000Y-95975000D02*
X149532000Y-96012000D01*
X151160000Y-95026000D02*
X152146000Y-96012000D01*
X151160000Y-93680000D02*
X151160000Y-95026000D01*
X153670000Y-96012000D02*
X152146000Y-96012000D01*
X152146000Y-96012000D02*
X149606000Y-96012000D01*
X113439500Y-106427000D02*
X111379000Y-106427000D01*
X123854500Y-96012000D02*
X113439500Y-106427000D01*
X146154193Y-87598132D02*
X145534193Y-87598132D01*
X148936061Y-90380000D02*
X146154193Y-87598132D01*
X151160000Y-90380000D02*
X148936061Y-90380000D01*
X184254193Y-106648132D02*
X183634193Y-106648132D01*
X187081061Y-109475000D02*
X184254193Y-106648132D01*
X188912500Y-109475000D02*
X187081061Y-109475000D01*
X129311061Y-109475000D02*
X131790000Y-109475000D01*
X126484193Y-106648132D02*
X129311061Y-109475000D01*
X170060000Y-112775000D02*
X169910000Y-112775000D01*
X151994000Y-112775000D02*
X151140000Y-112775000D01*
X154789000Y-115570000D02*
X151994000Y-112775000D01*
X133881000Y-115570000D02*
X154789000Y-115570000D01*
X131790000Y-113479000D02*
X133881000Y-115570000D01*
X131790000Y-112775000D02*
X131790000Y-113479000D01*
X172974000Y-115539000D02*
X172974000Y-115570000D01*
X170210000Y-112775000D02*
X172974000Y-115539000D01*
X170060000Y-112775000D02*
X170210000Y-112775000D01*
X172974000Y-115570000D02*
X154789000Y-115570000D01*
X186852500Y-115539000D02*
X172974000Y-115539000D01*
X188912500Y-113479000D02*
X186852500Y-115539000D01*
X188912500Y-112775000D02*
X188912500Y-113479000D01*
X172974000Y-105340685D02*
X172974000Y-115539000D01*
X168529000Y-100895685D02*
X172974000Y-105340685D01*
X168529000Y-100330000D02*
X168529000Y-100895685D01*
X148361061Y-109475000D02*
X151140000Y-109475000D01*
X145534193Y-106648132D02*
X148361061Y-109475000D01*
X168031061Y-109475000D02*
X164624193Y-106068132D01*
X170060000Y-109475000D02*
X168031061Y-109475000D01*
X110398000Y-109727000D02*
X111379000Y-109727000D01*
X106146133Y-105475133D02*
X110398000Y-109727000D01*
X98484193Y-104148132D02*
X99811194Y-105475133D01*
X99811194Y-105475133D02*
X106146133Y-105475133D01*
X173277001Y-84250001D02*
X173863000Y-84836000D01*
X172100000Y-78990000D02*
X173277001Y-80167001D01*
X173277001Y-80167001D02*
X173277001Y-84250001D01*
X172100000Y-81530000D02*
X172100000Y-84597000D01*
X172100000Y-84597000D02*
X173101000Y-85598000D01*
X174640000Y-81530000D02*
X174640000Y-85359000D01*
X174640000Y-85359000D02*
X175006000Y-85725000D01*
X120834121Y-103435121D02*
X120174193Y-102775193D01*
X139954000Y-103435121D02*
X120834121Y-103435121D01*
X139224193Y-108458132D02*
X140534193Y-107148132D01*
X139224193Y-108608132D02*
X139224193Y-108458132D01*
X174498000Y-87630000D02*
X180594000Y-93726000D01*
X161294747Y-87507747D02*
X174498000Y-87630000D01*
X181483000Y-93055864D02*
X181483000Y-94615000D01*
X175041136Y-86614000D02*
X181483000Y-93055864D01*
X161294565Y-86491565D02*
X175041136Y-86614000D01*
X166300150Y-82111850D02*
X168529000Y-84836000D01*
X131188899Y-81917101D02*
X166300150Y-82111850D01*
X165862000Y-82804000D02*
X167528997Y-84836000D01*
X132461000Y-82677000D02*
X165862000Y-82804000D01*
X168700000Y-89500000D02*
X168000000Y-88800000D01*
X168700000Y-91200000D02*
X168700000Y-89500000D01*
X191008000Y-106553000D02*
X191008000Y-113792000D01*
X185039000Y-100076000D02*
X191008000Y-106553000D01*
X174313315Y-89281000D02*
X174879000Y-89281000D01*
X174313315Y-89281000D02*
X174219000Y-89281000D01*
X174219000Y-89281000D02*
X171500000Y-92000000D01*
X121037878Y-104162122D02*
X110800000Y-114400000D01*
X169100000Y-94400000D02*
X159337878Y-104162122D01*
X159337878Y-104162122D02*
X121037878Y-104162122D01*
X105731969Y-106231969D02*
X105568031Y-106231969D01*
X109500000Y-110000000D02*
X105731969Y-106231969D01*
G36*
X121250108Y-66957882D02*
G01*
X121100475Y-67319129D01*
X121024193Y-67702627D01*
X121024193Y-68093637D01*
X121100475Y-68477135D01*
X121250108Y-68838382D01*
X121467342Y-69163496D01*
X121743829Y-69439983D01*
X122068943Y-69657217D01*
X122430190Y-69806850D01*
X122813688Y-69883132D01*
X123204698Y-69883132D01*
X123588196Y-69806850D01*
X123949443Y-69657217D01*
X124274557Y-69439983D01*
X124551044Y-69163496D01*
X124768278Y-68838382D01*
X124917911Y-68477135D01*
X124994193Y-68093637D01*
X124994193Y-67702627D01*
X124917911Y-67319129D01*
X124768278Y-66957882D01*
X124702875Y-66860000D01*
X184115511Y-66860000D01*
X184050108Y-66957882D01*
X183900475Y-67319129D01*
X183824193Y-67702627D01*
X183824193Y-68093637D01*
X183900475Y-68477135D01*
X184050108Y-68838382D01*
X184267342Y-69163496D01*
X184543829Y-69439983D01*
X184868943Y-69657217D01*
X185230190Y-69806850D01*
X185613688Y-69883132D01*
X186004698Y-69883132D01*
X186388196Y-69806850D01*
X186749443Y-69657217D01*
X187074557Y-69439983D01*
X187351044Y-69163496D01*
X187568278Y-68838382D01*
X187717911Y-68477135D01*
X187794193Y-68093637D01*
X187794193Y-67702627D01*
X187717911Y-67319129D01*
X187568278Y-66957882D01*
X187502875Y-66860000D01*
X194067721Y-66860000D01*
X194165424Y-66869580D01*
X194228356Y-66888580D01*
X194286405Y-66919445D01*
X194337343Y-66960989D01*
X194379248Y-67011644D01*
X194410515Y-67069471D01*
X194429956Y-67132272D01*
X194440000Y-67227835D01*
X194440001Y-119867711D01*
X194430420Y-119965424D01*
X194411420Y-120028357D01*
X194380554Y-120086406D01*
X194339011Y-120137343D01*
X194288356Y-120179248D01*
X194230529Y-120210515D01*
X194167728Y-120229956D01*
X194072165Y-120240000D01*
X103862066Y-120240000D01*
X103961105Y-120220300D01*
X104258656Y-120097050D01*
X104526445Y-119918119D01*
X104754180Y-119690384D01*
X104933111Y-119422595D01*
X105056361Y-119125044D01*
X105119193Y-118809165D01*
X105119193Y-118487099D01*
X105056361Y-118171220D01*
X104933111Y-117873669D01*
X104754180Y-117605880D01*
X104526445Y-117378145D01*
X104258656Y-117199214D01*
X103961105Y-117075964D01*
X103645226Y-117013132D01*
X103323160Y-117013132D01*
X103007281Y-117075964D01*
X102709730Y-117199214D01*
X102441941Y-117378145D01*
X102214206Y-117605880D01*
X102149268Y-117703067D01*
X102119606Y-117692324D01*
X101163798Y-118648132D01*
X102119606Y-119603940D01*
X102149268Y-119593197D01*
X102214206Y-119690384D01*
X102441941Y-119918119D01*
X102709730Y-120097050D01*
X103007281Y-120220300D01*
X103106320Y-120240000D01*
X101383505Y-120240000D01*
X101670281Y-120140927D01*
X101844237Y-120047946D01*
X101940001Y-119783545D01*
X100984193Y-118827737D01*
X100970051Y-118841880D01*
X100790446Y-118662275D01*
X100804588Y-118648132D01*
X100790446Y-118633990D01*
X100970051Y-118454385D01*
X100984193Y-118468527D01*
X101940001Y-117512719D01*
X101844237Y-117248318D01*
X101554622Y-117107428D01*
X101243085Y-117025748D01*
X100921598Y-117006414D01*
X100602518Y-117050171D01*
X100298105Y-117155337D01*
X100124149Y-117248318D01*
X100070169Y-117397355D01*
X100014730Y-117293638D01*
X99935378Y-117196947D01*
X99838687Y-117117595D01*
X99728373Y-117058630D01*
X99608675Y-117022320D01*
X99484193Y-117010060D01*
X97484193Y-117010060D01*
X97359711Y-117022320D01*
X97240013Y-117058630D01*
X97129699Y-117117595D01*
X97033008Y-117196947D01*
X96953656Y-117293638D01*
X96894691Y-117403952D01*
X96858381Y-117523650D01*
X96846121Y-117648132D01*
X96846121Y-119648132D01*
X96858381Y-119772614D01*
X96894691Y-119892312D01*
X96953656Y-120002626D01*
X97033008Y-120099317D01*
X97129699Y-120178669D01*
X97240013Y-120237634D01*
X97247813Y-120240000D01*
X94732279Y-120240000D01*
X94634576Y-120230420D01*
X94571643Y-120211420D01*
X94513594Y-120180554D01*
X94462657Y-120139011D01*
X94420752Y-120088356D01*
X94389485Y-120030529D01*
X94370044Y-119967728D01*
X94360000Y-119872165D01*
X94360000Y-114298061D01*
X109765000Y-114298061D01*
X109765000Y-114501939D01*
X109804774Y-114701898D01*
X109882795Y-114890256D01*
X109996063Y-115059774D01*
X110140226Y-115203937D01*
X110309744Y-115317205D01*
X110498102Y-115395226D01*
X110698061Y-115435000D01*
X110901939Y-115435000D01*
X111101898Y-115395226D01*
X111290256Y-115317205D01*
X111459774Y-115203937D01*
X111603937Y-115059774D01*
X111717205Y-114890256D01*
X111795226Y-114701898D01*
X111835000Y-114501939D01*
X111835000Y-114442630D01*
X119032945Y-107244686D01*
X118806477Y-107497085D01*
X118652751Y-107706546D01*
X118506094Y-108020688D01*
X118423542Y-108357406D01*
X118408266Y-108703758D01*
X118460854Y-109046436D01*
X118579284Y-109372271D01*
X118742068Y-109640798D01*
X118463742Y-109696161D01*
X118188940Y-109809988D01*
X117941624Y-109975239D01*
X117731300Y-110185563D01*
X117566049Y-110432879D01*
X117452222Y-110707681D01*
X117394193Y-110999410D01*
X117394193Y-111296854D01*
X117452222Y-111588583D01*
X117566049Y-111863385D01*
X117731300Y-112110701D01*
X117941624Y-112321025D01*
X118188940Y-112486276D01*
X118463742Y-112600103D01*
X118755471Y-112658132D01*
X119052915Y-112658132D01*
X119344644Y-112600103D01*
X119619446Y-112486276D01*
X119866762Y-112321025D01*
X120077086Y-112110701D01*
X120242337Y-111863385D01*
X120356164Y-111588583D01*
X120414193Y-111296854D01*
X120414193Y-110999410D01*
X120392273Y-110889208D01*
X121355293Y-110889208D01*
X121355293Y-111407056D01*
X121456320Y-111914954D01*
X121654492Y-112393383D01*
X121942193Y-112823958D01*
X122308367Y-113190132D01*
X122738942Y-113477833D01*
X123217371Y-113676005D01*
X123725269Y-113777032D01*
X124243117Y-113777032D01*
X124751015Y-113676005D01*
X125229444Y-113477833D01*
X125660019Y-113190132D01*
X126026193Y-112823958D01*
X126313894Y-112393383D01*
X126512066Y-111914954D01*
X126613093Y-111407056D01*
X126613093Y-110889208D01*
X126512066Y-110381310D01*
X126313894Y-109902881D01*
X126026193Y-109472306D01*
X125660019Y-109106132D01*
X125229444Y-108818431D01*
X124751015Y-108620259D01*
X124243117Y-108519232D01*
X123725269Y-108519232D01*
X123217371Y-108620259D01*
X122738942Y-108818431D01*
X122308367Y-109106132D01*
X121942193Y-109472306D01*
X121654492Y-109902881D01*
X121456320Y-110381310D01*
X121355293Y-110889208D01*
X120392273Y-110889208D01*
X120356164Y-110707681D01*
X120242337Y-110432879D01*
X120201007Y-110371024D01*
X120269819Y-110374059D01*
X120612497Y-110321471D01*
X120938332Y-110203041D01*
X121234800Y-110023319D01*
X121426436Y-109847874D01*
X122762393Y-108358948D01*
X122851274Y-108270067D01*
X122926020Y-108158202D01*
X123005637Y-108049719D01*
X123022172Y-108014301D01*
X123043885Y-107981805D01*
X123095368Y-107857514D01*
X123152294Y-107735577D01*
X123161603Y-107697608D01*
X123176557Y-107661505D01*
X123202803Y-107529558D01*
X123234846Y-107398859D01*
X123236568Y-107359809D01*
X123244193Y-107321477D01*
X123244193Y-107186934D01*
X123250122Y-107052506D01*
X123244193Y-107013871D01*
X123244193Y-106974787D01*
X123217944Y-106842823D01*
X123197534Y-106709828D01*
X123184182Y-106673093D01*
X123176557Y-106634759D01*
X123125067Y-106510452D01*
X123079104Y-106383993D01*
X123058843Y-106350570D01*
X123043885Y-106314459D01*
X122969128Y-106202578D01*
X122899382Y-106087525D01*
X122872991Y-106058698D01*
X122851274Y-106026197D01*
X122756127Y-105931050D01*
X122665276Y-105831815D01*
X122633768Y-105808691D01*
X122606128Y-105781051D01*
X122494243Y-105706291D01*
X122385781Y-105626690D01*
X122350369Y-105610158D01*
X122317866Y-105588440D01*
X122193546Y-105536945D01*
X122071639Y-105480033D01*
X122033679Y-105470727D01*
X121997566Y-105455768D01*
X121865581Y-105429514D01*
X121734921Y-105397481D01*
X121695882Y-105395759D01*
X121657538Y-105388132D01*
X121522951Y-105388132D01*
X121388568Y-105382205D01*
X121349946Y-105388132D01*
X121310848Y-105388132D01*
X121178837Y-105414391D01*
X121045890Y-105434793D01*
X121009169Y-105448140D01*
X120970820Y-105455768D01*
X120846462Y-105507279D01*
X120726893Y-105550738D01*
X121353509Y-104924122D01*
X125179187Y-104924122D01*
X125157112Y-104946197D01*
X125142654Y-104967835D01*
X125124812Y-104986755D01*
X125046503Y-105111734D01*
X124964501Y-105234459D01*
X124954541Y-105258504D01*
X124940734Y-105280540D01*
X124888312Y-105418396D01*
X124831829Y-105554759D01*
X124826752Y-105580284D01*
X124817509Y-105604590D01*
X124792987Y-105750030D01*
X124764193Y-105894787D01*
X124764193Y-106007518D01*
X124722416Y-106613289D01*
X124730033Y-106872994D01*
X124807606Y-107210893D01*
X124949612Y-107527166D01*
X125150589Y-107809658D01*
X125402817Y-108047513D01*
X125696601Y-108231591D01*
X126020652Y-108354816D01*
X126362516Y-108412456D01*
X126709055Y-108402292D01*
X127046954Y-108324719D01*
X127071934Y-108313503D01*
X128504134Y-109745704D01*
X128348940Y-109809988D01*
X128101624Y-109975239D01*
X127891300Y-110185563D01*
X127726049Y-110432879D01*
X127612222Y-110707681D01*
X127554193Y-110999410D01*
X127554193Y-111296854D01*
X127612222Y-111588583D01*
X127726049Y-111863385D01*
X127891300Y-112110701D01*
X128101624Y-112321025D01*
X128348940Y-112486276D01*
X128623742Y-112600103D01*
X128915471Y-112658132D01*
X129212915Y-112658132D01*
X129504644Y-112600103D01*
X129779446Y-112486276D01*
X130020812Y-112325000D01*
X130551928Y-112325000D01*
X130551928Y-113225000D01*
X130564188Y-113349482D01*
X130600498Y-113469180D01*
X130659463Y-113579494D01*
X130738815Y-113676185D01*
X130835506Y-113755537D01*
X130945820Y-113814502D01*
X131065518Y-113850812D01*
X131128006Y-113856966D01*
X131153355Y-113904392D01*
X131224721Y-113991351D01*
X131248579Y-114020422D01*
X131277649Y-114044279D01*
X133315716Y-116082346D01*
X133339578Y-116111422D01*
X133413219Y-116171857D01*
X133455607Y-116206645D01*
X133526364Y-116244465D01*
X133587985Y-116277402D01*
X133731622Y-116320974D01*
X133843574Y-116332000D01*
X133843577Y-116332000D01*
X133881000Y-116335686D01*
X133918423Y-116332000D01*
X154751577Y-116332000D01*
X154789000Y-116335686D01*
X154826423Y-116332000D01*
X172936575Y-116332000D01*
X172974000Y-116335686D01*
X173123378Y-116320974D01*
X173189223Y-116301000D01*
X186815077Y-116301000D01*
X186852500Y-116304686D01*
X186889923Y-116301000D01*
X186889926Y-116301000D01*
X187001878Y-116289974D01*
X187145515Y-116246402D01*
X187277892Y-116175645D01*
X187393922Y-116080422D01*
X187417784Y-116051346D01*
X189424852Y-114044279D01*
X189453922Y-114020422D01*
X189481272Y-113987096D01*
X189549145Y-113904393D01*
X189574495Y-113856966D01*
X189636982Y-113850812D01*
X189756680Y-113814502D01*
X189866994Y-113755537D01*
X189963685Y-113676185D01*
X189979623Y-113656764D01*
X189973000Y-113690061D01*
X189973000Y-113893939D01*
X190012774Y-114093898D01*
X190090795Y-114282256D01*
X190204063Y-114451774D01*
X190348226Y-114595937D01*
X190517744Y-114709205D01*
X190706102Y-114787226D01*
X190906061Y-114827000D01*
X191109939Y-114827000D01*
X191309898Y-114787226D01*
X191498256Y-114709205D01*
X191667774Y-114595937D01*
X191811937Y-114451774D01*
X191925205Y-114282256D01*
X192003226Y-114093898D01*
X192043000Y-113893939D01*
X192043000Y-113690061D01*
X192003226Y-113490102D01*
X191925205Y-113301744D01*
X191811937Y-113132226D01*
X191770000Y-113090289D01*
X191770000Y-106606024D01*
X191773049Y-106584226D01*
X191770000Y-106531153D01*
X191770000Y-106515574D01*
X191767852Y-106493766D01*
X191764440Y-106434372D01*
X191760510Y-106419216D01*
X191758974Y-106403622D01*
X191741697Y-106346669D01*
X191726763Y-106289077D01*
X191719949Y-106274973D01*
X191715402Y-106259985D01*
X191687356Y-106207514D01*
X191661464Y-106153925D01*
X191652027Y-106141419D01*
X191644645Y-106127608D01*
X191606898Y-106081613D01*
X191593704Y-106064128D01*
X191583150Y-106052675D01*
X191549422Y-106011578D01*
X191532407Y-105997615D01*
X186074000Y-100074663D01*
X186074000Y-99974061D01*
X186034226Y-99774102D01*
X185956205Y-99585744D01*
X185842937Y-99416226D01*
X185698774Y-99272063D01*
X185529256Y-99158795D01*
X185340898Y-99080774D01*
X185140939Y-99041000D01*
X184937061Y-99041000D01*
X184737102Y-99080774D01*
X184548744Y-99158795D01*
X184379226Y-99272063D01*
X184235063Y-99416226D01*
X184121795Y-99585744D01*
X184043774Y-99774102D01*
X184004000Y-99974061D01*
X184004000Y-100177939D01*
X184043774Y-100377898D01*
X184121795Y-100566256D01*
X184235063Y-100735774D01*
X184379226Y-100879937D01*
X184548744Y-100993205D01*
X184737102Y-101071226D01*
X184937061Y-101111000D01*
X184956591Y-101111000D01*
X190246000Y-106850572D01*
X190246001Y-113090288D01*
X190204063Y-113132226D01*
X190150572Y-113212281D01*
X190150572Y-112325000D01*
X190138312Y-112200518D01*
X190102002Y-112080820D01*
X190043037Y-111970506D01*
X189963685Y-111873815D01*
X189866994Y-111794463D01*
X189756680Y-111735498D01*
X189636982Y-111699188D01*
X189512500Y-111686928D01*
X188312500Y-111686928D01*
X188188018Y-111699188D01*
X188068320Y-111735498D01*
X187958006Y-111794463D01*
X187861315Y-111873815D01*
X187781963Y-111970506D01*
X187722998Y-112080820D01*
X187686688Y-112200518D01*
X187674428Y-112325000D01*
X187674428Y-113225000D01*
X187686688Y-113349482D01*
X187722998Y-113469180D01*
X187765387Y-113548483D01*
X186536870Y-114777000D01*
X173736000Y-114777000D01*
X173736000Y-110999410D01*
X174544193Y-110999410D01*
X174544193Y-111296854D01*
X174602222Y-111588583D01*
X174716049Y-111863385D01*
X174881300Y-112110701D01*
X175091624Y-112321025D01*
X175338940Y-112486276D01*
X175613742Y-112600103D01*
X175905471Y-112658132D01*
X176202915Y-112658132D01*
X176494644Y-112600103D01*
X176769446Y-112486276D01*
X177016762Y-112321025D01*
X177227086Y-112110701D01*
X177392337Y-111863385D01*
X177506164Y-111588583D01*
X177564193Y-111296854D01*
X177564193Y-110999410D01*
X177542273Y-110889208D01*
X178505293Y-110889208D01*
X178505293Y-111407056D01*
X178606320Y-111914954D01*
X178804492Y-112393383D01*
X179092193Y-112823958D01*
X179458367Y-113190132D01*
X179888942Y-113477833D01*
X180367371Y-113676005D01*
X180875269Y-113777032D01*
X181393117Y-113777032D01*
X181901015Y-113676005D01*
X182379444Y-113477833D01*
X182810019Y-113190132D01*
X183176193Y-112823958D01*
X183463894Y-112393383D01*
X183662066Y-111914954D01*
X183763093Y-111407056D01*
X183763093Y-110889208D01*
X183662066Y-110381310D01*
X183463894Y-109902881D01*
X183176193Y-109472306D01*
X182810019Y-109106132D01*
X182379444Y-108818431D01*
X181901015Y-108620259D01*
X181393117Y-108519232D01*
X180875269Y-108519232D01*
X180367371Y-108620259D01*
X179888942Y-108818431D01*
X179458367Y-109106132D01*
X179092193Y-109472306D01*
X178804492Y-109902881D01*
X178606320Y-110381310D01*
X178505293Y-110889208D01*
X177542273Y-110889208D01*
X177506164Y-110707681D01*
X177392337Y-110432879D01*
X177351007Y-110371024D01*
X177419819Y-110374059D01*
X177762497Y-110321471D01*
X178088332Y-110203041D01*
X178384800Y-110023319D01*
X178576436Y-109847874D01*
X179912393Y-108358948D01*
X180001274Y-108270067D01*
X180076020Y-108158202D01*
X180155637Y-108049719D01*
X180172172Y-108014301D01*
X180193885Y-107981805D01*
X180245368Y-107857514D01*
X180302294Y-107735577D01*
X180311603Y-107697608D01*
X180326557Y-107661505D01*
X180352803Y-107529558D01*
X180384846Y-107398859D01*
X180386568Y-107359809D01*
X180394193Y-107321477D01*
X180394193Y-107186934D01*
X180400122Y-107052506D01*
X180394193Y-107013871D01*
X180394193Y-106974787D01*
X180367944Y-106842823D01*
X180347534Y-106709828D01*
X180334182Y-106673093D01*
X180326557Y-106634759D01*
X180317664Y-106613289D01*
X181872416Y-106613289D01*
X181880033Y-106872994D01*
X181957606Y-107210893D01*
X182099612Y-107527166D01*
X182300589Y-107809658D01*
X182552817Y-108047513D01*
X182846601Y-108231591D01*
X183170652Y-108354816D01*
X183512516Y-108412456D01*
X183859055Y-108402292D01*
X184196954Y-108324719D01*
X184513227Y-108182713D01*
X184628870Y-108100439D01*
X186166562Y-109638132D01*
X186065471Y-109638132D01*
X185773742Y-109696161D01*
X185498940Y-109809988D01*
X185251624Y-109975239D01*
X185041300Y-110185563D01*
X184876049Y-110432879D01*
X184762222Y-110707681D01*
X184704193Y-110999410D01*
X184704193Y-111296854D01*
X184762222Y-111588583D01*
X184876049Y-111863385D01*
X185041300Y-112110701D01*
X185251624Y-112321025D01*
X185498940Y-112486276D01*
X185773742Y-112600103D01*
X186065471Y-112658132D01*
X186362915Y-112658132D01*
X186654644Y-112600103D01*
X186929446Y-112486276D01*
X187176762Y-112321025D01*
X187387086Y-112110701D01*
X187552337Y-111863385D01*
X187666164Y-111588583D01*
X187724193Y-111296854D01*
X187724193Y-110999410D01*
X187666164Y-110707681D01*
X187552337Y-110432879D01*
X187421455Y-110237000D01*
X187759249Y-110237000D01*
X187781963Y-110279494D01*
X187861315Y-110376185D01*
X187958006Y-110455537D01*
X188068320Y-110514502D01*
X188188018Y-110550812D01*
X188312500Y-110563072D01*
X189512500Y-110563072D01*
X189636982Y-110550812D01*
X189756680Y-110514502D01*
X189866994Y-110455537D01*
X189963685Y-110376185D01*
X190043037Y-110279494D01*
X190102002Y-110169180D01*
X190138312Y-110049482D01*
X190150572Y-109925000D01*
X190150572Y-109025000D01*
X190138312Y-108900518D01*
X190102002Y-108780820D01*
X190043037Y-108670506D01*
X189963685Y-108573815D01*
X189866994Y-108494463D01*
X189756680Y-108435498D01*
X189636982Y-108399188D01*
X189512500Y-108386928D01*
X188312500Y-108386928D01*
X188188018Y-108399188D01*
X188068320Y-108435498D01*
X187958006Y-108494463D01*
X187861315Y-108573815D01*
X187781963Y-108670506D01*
X187759249Y-108713000D01*
X187396692Y-108713000D01*
X185394080Y-106710388D01*
X185422292Y-106301307D01*
X185434193Y-106241477D01*
X185434193Y-106128743D01*
X185435970Y-106102976D01*
X185434193Y-106042388D01*
X185434193Y-105894787D01*
X185429115Y-105869260D01*
X185428353Y-105843269D01*
X185395352Y-105699519D01*
X185366557Y-105554759D01*
X185356600Y-105530720D01*
X185350780Y-105505370D01*
X185290370Y-105370826D01*
X185233885Y-105234459D01*
X185219423Y-105212815D01*
X185208774Y-105189098D01*
X185123289Y-105068941D01*
X185041274Y-104946197D01*
X185022871Y-104927794D01*
X185007797Y-104906606D01*
X184900504Y-104805427D01*
X184796128Y-104701051D01*
X184774487Y-104686591D01*
X184755569Y-104668751D01*
X184630600Y-104590448D01*
X184507866Y-104508440D01*
X184483821Y-104498480D01*
X184461785Y-104484673D01*
X184323933Y-104432253D01*
X184187566Y-104375768D01*
X184162039Y-104370690D01*
X184137734Y-104361448D01*
X183992301Y-104336927D01*
X183847538Y-104308132D01*
X183821516Y-104308132D01*
X183795870Y-104303808D01*
X183648430Y-104308132D01*
X183500848Y-104308132D01*
X183475326Y-104313209D01*
X183449331Y-104313971D01*
X183305568Y-104346976D01*
X183160820Y-104375768D01*
X183136780Y-104385726D01*
X183111432Y-104391545D01*
X182976882Y-104451957D01*
X182840520Y-104508440D01*
X182818880Y-104522899D01*
X182795159Y-104533550D01*
X182674989Y-104619045D01*
X182552258Y-104701051D01*
X182533855Y-104719454D01*
X182512667Y-104734528D01*
X182411481Y-104841828D01*
X182307112Y-104946197D01*
X182292654Y-104967835D01*
X182274812Y-104986755D01*
X182196503Y-105111734D01*
X182114501Y-105234459D01*
X182104541Y-105258504D01*
X182090734Y-105280540D01*
X182038312Y-105418396D01*
X181981829Y-105554759D01*
X181976752Y-105580284D01*
X181967509Y-105604590D01*
X181942987Y-105750030D01*
X181914193Y-105894787D01*
X181914193Y-106007518D01*
X181872416Y-106613289D01*
X180317664Y-106613289D01*
X180275067Y-106510452D01*
X180229104Y-106383993D01*
X180208843Y-106350570D01*
X180193885Y-106314459D01*
X180119128Y-106202578D01*
X180049382Y-106087525D01*
X180022991Y-106058698D01*
X180001274Y-106026197D01*
X179906127Y-105931050D01*
X179815276Y-105831815D01*
X179783768Y-105808691D01*
X179756128Y-105781051D01*
X179644243Y-105706291D01*
X179535781Y-105626690D01*
X179500369Y-105610158D01*
X179467866Y-105588440D01*
X179343546Y-105536945D01*
X179221639Y-105480033D01*
X179183679Y-105470727D01*
X179147566Y-105455768D01*
X179015581Y-105429514D01*
X178884921Y-105397481D01*
X178845882Y-105395759D01*
X178807538Y-105388132D01*
X178672951Y-105388132D01*
X178538568Y-105382205D01*
X178499946Y-105388132D01*
X178460848Y-105388132D01*
X178328837Y-105414391D01*
X178195890Y-105434793D01*
X178159169Y-105448140D01*
X178120820Y-105455768D01*
X177996462Y-105507279D01*
X177870056Y-105553223D01*
X177836647Y-105573476D01*
X177800520Y-105588440D01*
X177688593Y-105663227D01*
X177573587Y-105732945D01*
X177544771Y-105759327D01*
X177512258Y-105781051D01*
X177417080Y-105876229D01*
X177381951Y-105908390D01*
X177356030Y-105937279D01*
X177267112Y-106026197D01*
X177240466Y-106066075D01*
X175956477Y-107497085D01*
X175802751Y-107706546D01*
X175656094Y-108020688D01*
X175573542Y-108357406D01*
X175558266Y-108703758D01*
X175610854Y-109046436D01*
X175729284Y-109372271D01*
X175892068Y-109640798D01*
X175613742Y-109696161D01*
X175338940Y-109809988D01*
X175091624Y-109975239D01*
X174881300Y-110185563D01*
X174716049Y-110432879D01*
X174602222Y-110707681D01*
X174544193Y-110999410D01*
X173736000Y-110999410D01*
X173736000Y-105378107D01*
X173739686Y-105340684D01*
X173733762Y-105280540D01*
X173724974Y-105191307D01*
X173681402Y-105047670D01*
X173610645Y-104915293D01*
X173515422Y-104799263D01*
X173486353Y-104775407D01*
X169471100Y-100760155D01*
X169524226Y-100631898D01*
X169564000Y-100431939D01*
X169564000Y-100228061D01*
X169524226Y-100028102D01*
X169446205Y-99839744D01*
X169332937Y-99670226D01*
X169188774Y-99526063D01*
X169019256Y-99412795D01*
X168830898Y-99334774D01*
X168630939Y-99295000D01*
X168427061Y-99295000D01*
X168227102Y-99334774D01*
X168038744Y-99412795D01*
X167869226Y-99526063D01*
X167725063Y-99670226D01*
X167611795Y-99839744D01*
X167533774Y-100028102D01*
X167494000Y-100228061D01*
X167494000Y-100431939D01*
X167533774Y-100631898D01*
X167611795Y-100820256D01*
X167725063Y-100989774D01*
X167777772Y-101042483D01*
X167778026Y-101045063D01*
X167821598Y-101188700D01*
X167852870Y-101247205D01*
X167892355Y-101321077D01*
X167963721Y-101408036D01*
X167987579Y-101437107D01*
X168016649Y-101460964D01*
X172212000Y-105656316D01*
X172212001Y-113699370D01*
X171298072Y-112785442D01*
X171298072Y-112325000D01*
X171285812Y-112200518D01*
X171249502Y-112080820D01*
X171190537Y-111970506D01*
X171111185Y-111873815D01*
X171014494Y-111794463D01*
X170904180Y-111735498D01*
X170784482Y-111699188D01*
X170660000Y-111686928D01*
X169460000Y-111686928D01*
X169335518Y-111699188D01*
X169215820Y-111735498D01*
X169105506Y-111794463D01*
X169008815Y-111873815D01*
X168929463Y-111970506D01*
X168870498Y-112080820D01*
X168834188Y-112200518D01*
X168821928Y-112325000D01*
X168821928Y-113225000D01*
X168834188Y-113349482D01*
X168870498Y-113469180D01*
X168929463Y-113579494D01*
X169008815Y-113676185D01*
X169105506Y-113755537D01*
X169215820Y-113814502D01*
X169335518Y-113850812D01*
X169460000Y-113863072D01*
X170220442Y-113863072D01*
X171165369Y-114808000D01*
X155104631Y-114808000D01*
X152559284Y-112262654D01*
X152535422Y-112233578D01*
X152419392Y-112138355D01*
X152332937Y-112092144D01*
X152329502Y-112080820D01*
X152270537Y-111970506D01*
X152191185Y-111873815D01*
X152094494Y-111794463D01*
X151984180Y-111735498D01*
X151864482Y-111699188D01*
X151740000Y-111686928D01*
X150540000Y-111686928D01*
X150415518Y-111699188D01*
X150295820Y-111735498D01*
X150185506Y-111794463D01*
X150088815Y-111873815D01*
X150009463Y-111970506D01*
X149950498Y-112080820D01*
X149914188Y-112200518D01*
X149901928Y-112325000D01*
X149901928Y-113225000D01*
X149914188Y-113349482D01*
X149950498Y-113469180D01*
X150009463Y-113579494D01*
X150088815Y-113676185D01*
X150185506Y-113755537D01*
X150295820Y-113814502D01*
X150415518Y-113850812D01*
X150540000Y-113863072D01*
X151740000Y-113863072D01*
X151864482Y-113850812D01*
X151962460Y-113821091D01*
X152949369Y-114808000D01*
X134196630Y-114808000D01*
X132937113Y-113548483D01*
X132979502Y-113469180D01*
X133015812Y-113349482D01*
X133028072Y-113225000D01*
X133028072Y-112325000D01*
X133015812Y-112200518D01*
X132979502Y-112080820D01*
X132920537Y-111970506D01*
X132841185Y-111873815D01*
X132744494Y-111794463D01*
X132634180Y-111735498D01*
X132514482Y-111699188D01*
X132390000Y-111686928D01*
X131190000Y-111686928D01*
X131065518Y-111699188D01*
X130945820Y-111735498D01*
X130835506Y-111794463D01*
X130738815Y-111873815D01*
X130659463Y-111970506D01*
X130600498Y-112080820D01*
X130564188Y-112200518D01*
X130551928Y-112325000D01*
X130020812Y-112325000D01*
X130026762Y-112321025D01*
X130237086Y-112110701D01*
X130402337Y-111863385D01*
X130516164Y-111588583D01*
X130574193Y-111296854D01*
X130574193Y-110999410D01*
X136444193Y-110999410D01*
X136444193Y-111296854D01*
X136502222Y-111588583D01*
X136616049Y-111863385D01*
X136781300Y-112110701D01*
X136991624Y-112321025D01*
X137238940Y-112486276D01*
X137513742Y-112600103D01*
X137805471Y-112658132D01*
X138102915Y-112658132D01*
X138394644Y-112600103D01*
X138669446Y-112486276D01*
X138916762Y-112321025D01*
X139127086Y-112110701D01*
X139292337Y-111863385D01*
X139406164Y-111588583D01*
X139464193Y-111296854D01*
X139464193Y-110999410D01*
X139442273Y-110889208D01*
X140405293Y-110889208D01*
X140405293Y-111407056D01*
X140506320Y-111914954D01*
X140704492Y-112393383D01*
X140992193Y-112823958D01*
X141358367Y-113190132D01*
X141788942Y-113477833D01*
X142267371Y-113676005D01*
X142775269Y-113777032D01*
X143293117Y-113777032D01*
X143801015Y-113676005D01*
X144279444Y-113477833D01*
X144710019Y-113190132D01*
X145076193Y-112823958D01*
X145363894Y-112393383D01*
X145562066Y-111914954D01*
X145663093Y-111407056D01*
X145663093Y-110889208D01*
X145562066Y-110381310D01*
X145363894Y-109902881D01*
X145076193Y-109472306D01*
X144710019Y-109106132D01*
X144279444Y-108818431D01*
X143801015Y-108620259D01*
X143293117Y-108519232D01*
X142775269Y-108519232D01*
X142267371Y-108620259D01*
X141788942Y-108818431D01*
X141358367Y-109106132D01*
X140992193Y-109472306D01*
X140704492Y-109902881D01*
X140506320Y-110381310D01*
X140405293Y-110889208D01*
X139442273Y-110889208D01*
X139406164Y-110707681D01*
X139292337Y-110432879D01*
X139251007Y-110371024D01*
X139319819Y-110374059D01*
X139662497Y-110321471D01*
X139988332Y-110203041D01*
X140284800Y-110023319D01*
X140476436Y-109847874D01*
X141812393Y-108358948D01*
X141901274Y-108270067D01*
X141976020Y-108158202D01*
X142055637Y-108049719D01*
X142072172Y-108014301D01*
X142093885Y-107981805D01*
X142145368Y-107857514D01*
X142202294Y-107735577D01*
X142211603Y-107697608D01*
X142226557Y-107661505D01*
X142252803Y-107529558D01*
X142284846Y-107398859D01*
X142286568Y-107359809D01*
X142294193Y-107321477D01*
X142294193Y-107186934D01*
X142300122Y-107052506D01*
X142294193Y-107013871D01*
X142294193Y-106974787D01*
X142267944Y-106842823D01*
X142247534Y-106709828D01*
X142234182Y-106673093D01*
X142226557Y-106634759D01*
X142175067Y-106510452D01*
X142129104Y-106383993D01*
X142108843Y-106350570D01*
X142093885Y-106314459D01*
X142019128Y-106202578D01*
X141949382Y-106087525D01*
X141922991Y-106058698D01*
X141901274Y-106026197D01*
X141806127Y-105931050D01*
X141715276Y-105831815D01*
X141683768Y-105808691D01*
X141656128Y-105781051D01*
X141544243Y-105706291D01*
X141435781Y-105626690D01*
X141400369Y-105610158D01*
X141367866Y-105588440D01*
X141243546Y-105536945D01*
X141121639Y-105480033D01*
X141083679Y-105470727D01*
X141047566Y-105455768D01*
X140915581Y-105429514D01*
X140784921Y-105397481D01*
X140745882Y-105395759D01*
X140707538Y-105388132D01*
X140572951Y-105388132D01*
X140438568Y-105382205D01*
X140399946Y-105388132D01*
X140360848Y-105388132D01*
X140228837Y-105414391D01*
X140095890Y-105434793D01*
X140059169Y-105448140D01*
X140020820Y-105455768D01*
X139896462Y-105507279D01*
X139770056Y-105553223D01*
X139736647Y-105573476D01*
X139700520Y-105588440D01*
X139588593Y-105663227D01*
X139473587Y-105732945D01*
X139444771Y-105759327D01*
X139412258Y-105781051D01*
X139317080Y-105876229D01*
X139281951Y-105908390D01*
X139256030Y-105937279D01*
X139167112Y-106026197D01*
X139140466Y-106066075D01*
X137856477Y-107497085D01*
X137702751Y-107706546D01*
X137556094Y-108020688D01*
X137473542Y-108357406D01*
X137458266Y-108703758D01*
X137510854Y-109046436D01*
X137629284Y-109372271D01*
X137792068Y-109640798D01*
X137513742Y-109696161D01*
X137238940Y-109809988D01*
X136991624Y-109975239D01*
X136781300Y-110185563D01*
X136616049Y-110432879D01*
X136502222Y-110707681D01*
X136444193Y-110999410D01*
X130574193Y-110999410D01*
X130516164Y-110707681D01*
X130402337Y-110432879D01*
X130271455Y-110237000D01*
X130636749Y-110237000D01*
X130659463Y-110279494D01*
X130738815Y-110376185D01*
X130835506Y-110455537D01*
X130945820Y-110514502D01*
X131065518Y-110550812D01*
X131190000Y-110563072D01*
X132390000Y-110563072D01*
X132514482Y-110550812D01*
X132634180Y-110514502D01*
X132744494Y-110455537D01*
X132841185Y-110376185D01*
X132920537Y-110279494D01*
X132979502Y-110169180D01*
X133015812Y-110049482D01*
X133028072Y-109925000D01*
X133028072Y-109025000D01*
X133015812Y-108900518D01*
X132979502Y-108780820D01*
X132920537Y-108670506D01*
X132841185Y-108573815D01*
X132744494Y-108494463D01*
X132634180Y-108435498D01*
X132514482Y-108399188D01*
X132390000Y-108386928D01*
X131190000Y-108386928D01*
X131065518Y-108399188D01*
X130945820Y-108435498D01*
X130835506Y-108494463D01*
X130738815Y-108573815D01*
X130659463Y-108670506D01*
X130636749Y-108713000D01*
X129626692Y-108713000D01*
X128145278Y-107231587D01*
X128190877Y-107111673D01*
X128234074Y-106855471D01*
X128272292Y-106301307D01*
X128284193Y-106241477D01*
X128284193Y-106128743D01*
X128285970Y-106102976D01*
X128284193Y-106042388D01*
X128284193Y-105894787D01*
X128279115Y-105869260D01*
X128278353Y-105843269D01*
X128245352Y-105699519D01*
X128216557Y-105554759D01*
X128206600Y-105530720D01*
X128200780Y-105505370D01*
X128140370Y-105370826D01*
X128083885Y-105234459D01*
X128069423Y-105212815D01*
X128058774Y-105189098D01*
X127973289Y-105068941D01*
X127891274Y-104946197D01*
X127872871Y-104927794D01*
X127870259Y-104924122D01*
X144229187Y-104924122D01*
X144207112Y-104946197D01*
X144192654Y-104967835D01*
X144174812Y-104986755D01*
X144096503Y-105111734D01*
X144014501Y-105234459D01*
X144004541Y-105258504D01*
X143990734Y-105280540D01*
X143938312Y-105418396D01*
X143881829Y-105554759D01*
X143876752Y-105580284D01*
X143867509Y-105604590D01*
X143842987Y-105750030D01*
X143814193Y-105894787D01*
X143814193Y-106007518D01*
X143772416Y-106613289D01*
X143780033Y-106872994D01*
X143857606Y-107210893D01*
X143999612Y-107527166D01*
X144200589Y-107809658D01*
X144452817Y-108047513D01*
X144746601Y-108231591D01*
X145070652Y-108354816D01*
X145412516Y-108412456D01*
X145759055Y-108402292D01*
X146096954Y-108324719D01*
X146121934Y-108313503D01*
X147554134Y-109745704D01*
X147398940Y-109809988D01*
X147151624Y-109975239D01*
X146941300Y-110185563D01*
X146776049Y-110432879D01*
X146662222Y-110707681D01*
X146604193Y-110999410D01*
X146604193Y-111296854D01*
X146662222Y-111588583D01*
X146776049Y-111863385D01*
X146941300Y-112110701D01*
X147151624Y-112321025D01*
X147398940Y-112486276D01*
X147673742Y-112600103D01*
X147965471Y-112658132D01*
X148262915Y-112658132D01*
X148554644Y-112600103D01*
X148829446Y-112486276D01*
X149076762Y-112321025D01*
X149287086Y-112110701D01*
X149452337Y-111863385D01*
X149566164Y-111588583D01*
X149624193Y-111296854D01*
X149624193Y-110999410D01*
X155494193Y-110999410D01*
X155494193Y-111296854D01*
X155552222Y-111588583D01*
X155666049Y-111863385D01*
X155831300Y-112110701D01*
X156041624Y-112321025D01*
X156288940Y-112486276D01*
X156563742Y-112600103D01*
X156855471Y-112658132D01*
X157152915Y-112658132D01*
X157444644Y-112600103D01*
X157719446Y-112486276D01*
X157966762Y-112321025D01*
X158177086Y-112110701D01*
X158342337Y-111863385D01*
X158456164Y-111588583D01*
X158514193Y-111296854D01*
X158514193Y-110999410D01*
X158492273Y-110889208D01*
X159455293Y-110889208D01*
X159455293Y-111407056D01*
X159556320Y-111914954D01*
X159754492Y-112393383D01*
X160042193Y-112823958D01*
X160408367Y-113190132D01*
X160838942Y-113477833D01*
X161317371Y-113676005D01*
X161825269Y-113777032D01*
X162343117Y-113777032D01*
X162851015Y-113676005D01*
X163329444Y-113477833D01*
X163760019Y-113190132D01*
X164126193Y-112823958D01*
X164413894Y-112393383D01*
X164612066Y-111914954D01*
X164713093Y-111407056D01*
X164713093Y-110889208D01*
X164612066Y-110381310D01*
X164413894Y-109902881D01*
X164126193Y-109472306D01*
X163760019Y-109106132D01*
X163329444Y-108818431D01*
X162851015Y-108620259D01*
X162343117Y-108519232D01*
X161825269Y-108519232D01*
X161317371Y-108620259D01*
X160838942Y-108818431D01*
X160408367Y-109106132D01*
X160042193Y-109472306D01*
X159754492Y-109902881D01*
X159556320Y-110381310D01*
X159455293Y-110889208D01*
X158492273Y-110889208D01*
X158456164Y-110707681D01*
X158342337Y-110432879D01*
X158301007Y-110371024D01*
X158369819Y-110374059D01*
X158712497Y-110321471D01*
X159038332Y-110203041D01*
X159334800Y-110023319D01*
X159526436Y-109847874D01*
X160862393Y-108358948D01*
X160951274Y-108270067D01*
X161026020Y-108158202D01*
X161105637Y-108049719D01*
X161122172Y-108014301D01*
X161143885Y-107981805D01*
X161195368Y-107857514D01*
X161252294Y-107735577D01*
X161261603Y-107697608D01*
X161276557Y-107661505D01*
X161302803Y-107529558D01*
X161334846Y-107398859D01*
X161336568Y-107359809D01*
X161344193Y-107321477D01*
X161344193Y-107186934D01*
X161350122Y-107052506D01*
X161344193Y-107013871D01*
X161344193Y-106974787D01*
X161317944Y-106842823D01*
X161297534Y-106709828D01*
X161284182Y-106673093D01*
X161276557Y-106634759D01*
X161267664Y-106613289D01*
X162822416Y-106613289D01*
X162830033Y-106872994D01*
X162907606Y-107210893D01*
X163049612Y-107527166D01*
X163250589Y-107809658D01*
X163502817Y-108047513D01*
X163796601Y-108231591D01*
X164120652Y-108354816D01*
X164462516Y-108412456D01*
X164809055Y-108402292D01*
X165146954Y-108324719D01*
X165463227Y-108182713D01*
X165578870Y-108100440D01*
X167116562Y-109638132D01*
X167015471Y-109638132D01*
X166723742Y-109696161D01*
X166448940Y-109809988D01*
X166201624Y-109975239D01*
X165991300Y-110185563D01*
X165826049Y-110432879D01*
X165712222Y-110707681D01*
X165654193Y-110999410D01*
X165654193Y-111296854D01*
X165712222Y-111588583D01*
X165826049Y-111863385D01*
X165991300Y-112110701D01*
X166201624Y-112321025D01*
X166448940Y-112486276D01*
X166723742Y-112600103D01*
X167015471Y-112658132D01*
X167312915Y-112658132D01*
X167604644Y-112600103D01*
X167879446Y-112486276D01*
X168126762Y-112321025D01*
X168337086Y-112110701D01*
X168502337Y-111863385D01*
X168616164Y-111588583D01*
X168674193Y-111296854D01*
X168674193Y-110999410D01*
X168616164Y-110707681D01*
X168502337Y-110432879D01*
X168371455Y-110237000D01*
X168906749Y-110237000D01*
X168929463Y-110279494D01*
X169008815Y-110376185D01*
X169105506Y-110455537D01*
X169215820Y-110514502D01*
X169335518Y-110550812D01*
X169460000Y-110563072D01*
X170660000Y-110563072D01*
X170784482Y-110550812D01*
X170904180Y-110514502D01*
X171014494Y-110455537D01*
X171111185Y-110376185D01*
X171190537Y-110279494D01*
X171249502Y-110169180D01*
X171285812Y-110049482D01*
X171298072Y-109925000D01*
X171298072Y-109025000D01*
X171285812Y-108900518D01*
X171249502Y-108780820D01*
X171190537Y-108670506D01*
X171111185Y-108573815D01*
X171014494Y-108494463D01*
X170904180Y-108435498D01*
X170784482Y-108399188D01*
X170660000Y-108386928D01*
X169460000Y-108386928D01*
X169335518Y-108399188D01*
X169215820Y-108435498D01*
X169105506Y-108494463D01*
X169008815Y-108573815D01*
X168929463Y-108670506D01*
X168906749Y-108713000D01*
X168346692Y-108713000D01*
X166344080Y-106710388D01*
X166372292Y-106301307D01*
X166384193Y-106241477D01*
X166384193Y-106128743D01*
X166385970Y-106102976D01*
X166384193Y-106042388D01*
X166384193Y-105894787D01*
X166379115Y-105869260D01*
X166378353Y-105843269D01*
X166345352Y-105699519D01*
X166316557Y-105554759D01*
X166306600Y-105530720D01*
X166300780Y-105505370D01*
X166240370Y-105370826D01*
X166183885Y-105234459D01*
X166169423Y-105212815D01*
X166158774Y-105189098D01*
X166073289Y-105068941D01*
X165991274Y-104946197D01*
X165972871Y-104927794D01*
X165957797Y-104906606D01*
X165850504Y-104805427D01*
X165746128Y-104701051D01*
X165724487Y-104686591D01*
X165705569Y-104668751D01*
X165580600Y-104590448D01*
X165457866Y-104508440D01*
X165433821Y-104498480D01*
X165411785Y-104484673D01*
X165273933Y-104432253D01*
X165137566Y-104375768D01*
X165112039Y-104370690D01*
X165087734Y-104361448D01*
X164942301Y-104336927D01*
X164797538Y-104308132D01*
X164771516Y-104308132D01*
X164745870Y-104303808D01*
X164598430Y-104308132D01*
X164450848Y-104308132D01*
X164425326Y-104313209D01*
X164399331Y-104313971D01*
X164255568Y-104346976D01*
X164110820Y-104375768D01*
X164086780Y-104385726D01*
X164061432Y-104391545D01*
X163926882Y-104451957D01*
X163790520Y-104508440D01*
X163768880Y-104522899D01*
X163745159Y-104533550D01*
X163624989Y-104619045D01*
X163502258Y-104701051D01*
X163483855Y-104719454D01*
X163462667Y-104734528D01*
X163361481Y-104841828D01*
X163257112Y-104946197D01*
X163242654Y-104967835D01*
X163224812Y-104986755D01*
X163146503Y-105111734D01*
X163064501Y-105234459D01*
X163054541Y-105258504D01*
X163040734Y-105280540D01*
X162988312Y-105418396D01*
X162931829Y-105554759D01*
X162926752Y-105580284D01*
X162917509Y-105604590D01*
X162892987Y-105750030D01*
X162864193Y-105894787D01*
X162864193Y-106007518D01*
X162822416Y-106613289D01*
X161267664Y-106613289D01*
X161225067Y-106510452D01*
X161179104Y-106383993D01*
X161158843Y-106350570D01*
X161143885Y-106314459D01*
X161069128Y-106202578D01*
X160999382Y-106087525D01*
X160972991Y-106058698D01*
X160951274Y-106026197D01*
X160856127Y-105931050D01*
X160765276Y-105831815D01*
X160733768Y-105808691D01*
X160706128Y-105781051D01*
X160594243Y-105706291D01*
X160485781Y-105626690D01*
X160450369Y-105610158D01*
X160417866Y-105588440D01*
X160293546Y-105536945D01*
X160171639Y-105480033D01*
X160133679Y-105470727D01*
X160097566Y-105455768D01*
X159965581Y-105429514D01*
X159834921Y-105397481D01*
X159795882Y-105395759D01*
X159757538Y-105388132D01*
X159622951Y-105388132D01*
X159488568Y-105382205D01*
X159449946Y-105388132D01*
X159410848Y-105388132D01*
X159278837Y-105414391D01*
X159145890Y-105434793D01*
X159109169Y-105448140D01*
X159070820Y-105455768D01*
X158946462Y-105507279D01*
X158820056Y-105553223D01*
X158786647Y-105573476D01*
X158750520Y-105588440D01*
X158638593Y-105663227D01*
X158523587Y-105732945D01*
X158494771Y-105759327D01*
X158462258Y-105781051D01*
X158367080Y-105876229D01*
X158331951Y-105908390D01*
X158306030Y-105937279D01*
X158217112Y-106026197D01*
X158190466Y-106066075D01*
X156906477Y-107497085D01*
X156752751Y-107706546D01*
X156606094Y-108020688D01*
X156523542Y-108357406D01*
X156508266Y-108703758D01*
X156560854Y-109046436D01*
X156679284Y-109372271D01*
X156842068Y-109640798D01*
X156563742Y-109696161D01*
X156288940Y-109809988D01*
X156041624Y-109975239D01*
X155831300Y-110185563D01*
X155666049Y-110432879D01*
X155552222Y-110707681D01*
X155494193Y-110999410D01*
X149624193Y-110999410D01*
X149566164Y-110707681D01*
X149452337Y-110432879D01*
X149321455Y-110237000D01*
X149986749Y-110237000D01*
X150009463Y-110279494D01*
X150088815Y-110376185D01*
X150185506Y-110455537D01*
X150295820Y-110514502D01*
X150415518Y-110550812D01*
X150540000Y-110563072D01*
X151740000Y-110563072D01*
X151864482Y-110550812D01*
X151984180Y-110514502D01*
X152094494Y-110455537D01*
X152191185Y-110376185D01*
X152270537Y-110279494D01*
X152329502Y-110169180D01*
X152365812Y-110049482D01*
X152378072Y-109925000D01*
X152378072Y-109025000D01*
X152365812Y-108900518D01*
X152329502Y-108780820D01*
X152270537Y-108670506D01*
X152191185Y-108573815D01*
X152094494Y-108494463D01*
X151984180Y-108435498D01*
X151864482Y-108399188D01*
X151740000Y-108386928D01*
X150540000Y-108386928D01*
X150415518Y-108399188D01*
X150295820Y-108435498D01*
X150185506Y-108494463D01*
X150088815Y-108573815D01*
X150009463Y-108670506D01*
X149986749Y-108713000D01*
X148676692Y-108713000D01*
X147195278Y-107231587D01*
X147240877Y-107111673D01*
X147284074Y-106855471D01*
X147322292Y-106301307D01*
X147334193Y-106241477D01*
X147334193Y-106128743D01*
X147335970Y-106102976D01*
X147334193Y-106042388D01*
X147334193Y-105894787D01*
X147329115Y-105869260D01*
X147328353Y-105843269D01*
X147295352Y-105699519D01*
X147266557Y-105554759D01*
X147256600Y-105530720D01*
X147250780Y-105505370D01*
X147190370Y-105370826D01*
X147133885Y-105234459D01*
X147119423Y-105212815D01*
X147108774Y-105189098D01*
X147023289Y-105068941D01*
X146941274Y-104946197D01*
X146922871Y-104927794D01*
X146920259Y-104924122D01*
X159300455Y-104924122D01*
X159337878Y-104927808D01*
X159375301Y-104924122D01*
X159375304Y-104924122D01*
X159487256Y-104913096D01*
X159630893Y-104869524D01*
X159763270Y-104798767D01*
X159879300Y-104703544D01*
X159903162Y-104674468D01*
X169142631Y-95435000D01*
X169201939Y-95435000D01*
X169401898Y-95395226D01*
X169590256Y-95317205D01*
X169759774Y-95203937D01*
X169903937Y-95059774D01*
X170017205Y-94890256D01*
X170095226Y-94701898D01*
X170135000Y-94501939D01*
X170135000Y-94298061D01*
X170095226Y-94098102D01*
X170017205Y-93909744D01*
X169903937Y-93740226D01*
X169759774Y-93596063D01*
X169590256Y-93482795D01*
X169401898Y-93404774D01*
X169201939Y-93365000D01*
X168998061Y-93365000D01*
X168798102Y-93404774D01*
X168609744Y-93482795D01*
X168440226Y-93596063D01*
X168296063Y-93740226D01*
X168182795Y-93909744D01*
X168104774Y-94098102D01*
X168065000Y-94298061D01*
X168065000Y-94357369D01*
X159022248Y-103400122D01*
X140989000Y-103400122D01*
X140989000Y-103333182D01*
X140949226Y-103133223D01*
X140871205Y-102944865D01*
X140757937Y-102775347D01*
X140613774Y-102631184D01*
X140444256Y-102517916D01*
X140255898Y-102439895D01*
X140055939Y-102400121D01*
X139852061Y-102400121D01*
X139652102Y-102439895D01*
X139463744Y-102517916D01*
X139294226Y-102631184D01*
X139252289Y-102673121D01*
X121209167Y-102673121D01*
X121169419Y-102473295D01*
X121091398Y-102284937D01*
X120978130Y-102115419D01*
X120833967Y-101971256D01*
X120664449Y-101857988D01*
X120476091Y-101779967D01*
X120276132Y-101740193D01*
X120072254Y-101740193D01*
X119872295Y-101779967D01*
X119683937Y-101857988D01*
X119514419Y-101971256D01*
X119370256Y-102115419D01*
X119256988Y-102284937D01*
X119178967Y-102473295D01*
X119139193Y-102673254D01*
X119139193Y-102877132D01*
X119178967Y-103077091D01*
X119256988Y-103265449D01*
X119370256Y-103434967D01*
X119514419Y-103579130D01*
X119683937Y-103692398D01*
X119872295Y-103770419D01*
X120072254Y-103810193D01*
X120131562Y-103810193D01*
X120221869Y-103900500D01*
X110757370Y-113365000D01*
X110698061Y-113365000D01*
X110498102Y-113404774D01*
X110309744Y-113482795D01*
X110140226Y-113596063D01*
X109996063Y-113740226D01*
X109882795Y-113909744D01*
X109804774Y-114098102D01*
X109765000Y-114298061D01*
X94360000Y-114298061D01*
X94360000Y-113383821D01*
X94384193Y-113386204D01*
X96384193Y-113386204D01*
X96508675Y-113373944D01*
X96628373Y-113337634D01*
X96738687Y-113278669D01*
X96835378Y-113199317D01*
X96914730Y-113102626D01*
X96973695Y-112992312D01*
X97010005Y-112872614D01*
X97022265Y-112748132D01*
X97022265Y-109548132D01*
X97010005Y-109423650D01*
X96973695Y-109303952D01*
X96914730Y-109193638D01*
X96835378Y-109096947D01*
X96738687Y-109017595D01*
X96628373Y-108958630D01*
X96508675Y-108922320D01*
X96384193Y-108910060D01*
X94384193Y-108910060D01*
X94360000Y-108912443D01*
X94360000Y-103532279D01*
X94369580Y-103434576D01*
X94388580Y-103371644D01*
X94419445Y-103313595D01*
X94460989Y-103262657D01*
X94511644Y-103220752D01*
X94569471Y-103189485D01*
X94632272Y-103170044D01*
X94727835Y-103160000D01*
X97178044Y-103160000D01*
X97035275Y-103373669D01*
X96912025Y-103671220D01*
X96849193Y-103987099D01*
X96849193Y-104309165D01*
X96912025Y-104625044D01*
X97035275Y-104922595D01*
X97214206Y-105190384D01*
X97441941Y-105418119D01*
X97709730Y-105597050D01*
X98007281Y-105720300D01*
X98323160Y-105783132D01*
X98645226Y-105783132D01*
X98961105Y-105720300D01*
X98973568Y-105715138D01*
X99245914Y-105987484D01*
X99269772Y-106016555D01*
X99298842Y-106040412D01*
X99385801Y-106111778D01*
X99419949Y-106130030D01*
X99518179Y-106182535D01*
X99661816Y-106226107D01*
X99773768Y-106237133D01*
X99773771Y-106237133D01*
X99811194Y-106240819D01*
X99848617Y-106237133D01*
X104533031Y-106237133D01*
X104533031Y-106333908D01*
X104572805Y-106533867D01*
X104650826Y-106722225D01*
X104764094Y-106891743D01*
X104908257Y-107035906D01*
X105077775Y-107149174D01*
X105266133Y-107227195D01*
X105466092Y-107266969D01*
X105669970Y-107266969D01*
X105686125Y-107263755D01*
X107332430Y-108910060D01*
X105584193Y-108910060D01*
X105459711Y-108922320D01*
X105340013Y-108958630D01*
X105229699Y-109017595D01*
X105133008Y-109096947D01*
X105053656Y-109193638D01*
X104994691Y-109303952D01*
X104958381Y-109423650D01*
X104946121Y-109548132D01*
X104946121Y-112748132D01*
X104958381Y-112872614D01*
X104994691Y-112992312D01*
X105053656Y-113102626D01*
X105133008Y-113199317D01*
X105229699Y-113278669D01*
X105340013Y-113337634D01*
X105459711Y-113373944D01*
X105584193Y-113386204D01*
X107584193Y-113386204D01*
X107708675Y-113373944D01*
X107828373Y-113337634D01*
X107938687Y-113278669D01*
X108035378Y-113199317D01*
X108114730Y-113102626D01*
X108173695Y-112992312D01*
X108210005Y-112872614D01*
X108222265Y-112748132D01*
X108222265Y-109799895D01*
X108465000Y-110042630D01*
X108465000Y-110101939D01*
X108504774Y-110301898D01*
X108582795Y-110490256D01*
X108696063Y-110659774D01*
X108840226Y-110803937D01*
X109009744Y-110917205D01*
X109198102Y-110995226D01*
X109398061Y-111035000D01*
X109601939Y-111035000D01*
X109801898Y-110995226D01*
X109990256Y-110917205D01*
X110159774Y-110803937D01*
X110303937Y-110659774D01*
X110326288Y-110626324D01*
X110327815Y-110628185D01*
X110424506Y-110707537D01*
X110534820Y-110766502D01*
X110654518Y-110802812D01*
X110779000Y-110815072D01*
X111979000Y-110815072D01*
X112103482Y-110802812D01*
X112223180Y-110766502D01*
X112333494Y-110707537D01*
X112430185Y-110628185D01*
X112509537Y-110531494D01*
X112568502Y-110421180D01*
X112604812Y-110301482D01*
X112617072Y-110177000D01*
X112617072Y-109277000D01*
X112604812Y-109152518D01*
X112568502Y-109032820D01*
X112509537Y-108922506D01*
X112430185Y-108825815D01*
X112333494Y-108746463D01*
X112223180Y-108687498D01*
X112103482Y-108651188D01*
X111979000Y-108638928D01*
X110779000Y-108638928D01*
X110654518Y-108651188D01*
X110534820Y-108687498D01*
X110470506Y-108721875D01*
X107725631Y-105977000D01*
X110140928Y-105977000D01*
X110140928Y-106877000D01*
X110153188Y-107001482D01*
X110189498Y-107121180D01*
X110248463Y-107231494D01*
X110327815Y-107328185D01*
X110424506Y-107407537D01*
X110534820Y-107466502D01*
X110654518Y-107502812D01*
X110779000Y-107515072D01*
X111979000Y-107515072D01*
X112103482Y-107502812D01*
X112223180Y-107466502D01*
X112333494Y-107407537D01*
X112430185Y-107328185D01*
X112509537Y-107231494D01*
X112532251Y-107189000D01*
X113402077Y-107189000D01*
X113439500Y-107192686D01*
X113476923Y-107189000D01*
X113476926Y-107189000D01*
X113588878Y-107177974D01*
X113732515Y-107134402D01*
X113864892Y-107063645D01*
X113980922Y-106968422D01*
X114004784Y-106939346D01*
X124170131Y-96774000D01*
X132677576Y-96774000D01*
X132714999Y-96777686D01*
X132752422Y-96774000D01*
X149494577Y-96774000D01*
X149532000Y-96777686D01*
X149569000Y-96774042D01*
X149606000Y-96777686D01*
X149643423Y-96774000D01*
X152108577Y-96774000D01*
X152146000Y-96777686D01*
X152183423Y-96774000D01*
X152968289Y-96774000D01*
X153010226Y-96815937D01*
X153179744Y-96929205D01*
X153368102Y-97007226D01*
X153568061Y-97047000D01*
X153771939Y-97047000D01*
X153971898Y-97007226D01*
X154160256Y-96929205D01*
X154329774Y-96815937D01*
X154473937Y-96671774D01*
X154587205Y-96502256D01*
X154665226Y-96313898D01*
X154705000Y-96113939D01*
X154705000Y-95910061D01*
X154665226Y-95710102D01*
X154587205Y-95521744D01*
X154473937Y-95352226D01*
X154329774Y-95208063D01*
X154160256Y-95094795D01*
X153971898Y-95016774D01*
X153771939Y-94977000D01*
X153568061Y-94977000D01*
X153368102Y-95016774D01*
X153179744Y-95094795D01*
X153010226Y-95208063D01*
X152968289Y-95250000D01*
X152461630Y-95250000D01*
X151948134Y-94736504D01*
X152004180Y-94719502D01*
X152114494Y-94660537D01*
X152211185Y-94581185D01*
X152290537Y-94484494D01*
X152349502Y-94374180D01*
X152355827Y-94353329D01*
X157393601Y-94353329D01*
X157452879Y-94586944D01*
X157691068Y-94697691D01*
X157946286Y-94759843D01*
X158208726Y-94771008D01*
X158468300Y-94730761D01*
X158715035Y-94640646D01*
X158815507Y-94586944D01*
X158874785Y-94353329D01*
X158134193Y-93612737D01*
X157393601Y-94353329D01*
X152355827Y-94353329D01*
X152385812Y-94254482D01*
X152398072Y-94130000D01*
X152398072Y-93507665D01*
X156796317Y-93507665D01*
X156836564Y-93767239D01*
X156926679Y-94013974D01*
X156980381Y-94114446D01*
X157213996Y-94173724D01*
X157954588Y-93433132D01*
X158313798Y-93433132D01*
X159054390Y-94173724D01*
X159288005Y-94114446D01*
X159398752Y-93876257D01*
X159460904Y-93621039D01*
X159472069Y-93358599D01*
X159431822Y-93099025D01*
X159341707Y-92852290D01*
X159288005Y-92751818D01*
X159054390Y-92692540D01*
X158313798Y-93433132D01*
X157954588Y-93433132D01*
X157213996Y-92692540D01*
X156980381Y-92751818D01*
X156869634Y-92990007D01*
X156807482Y-93245225D01*
X156796317Y-93507665D01*
X152398072Y-93507665D01*
X152398072Y-93230000D01*
X152385812Y-93105518D01*
X152349502Y-92985820D01*
X152290537Y-92875506D01*
X152211185Y-92778815D01*
X152114494Y-92699463D01*
X152004180Y-92640498D01*
X151884482Y-92604188D01*
X151760000Y-92591928D01*
X150560000Y-92591928D01*
X150435518Y-92604188D01*
X150315820Y-92640498D01*
X150205506Y-92699463D01*
X150108815Y-92778815D01*
X150029463Y-92875506D01*
X149970498Y-92985820D01*
X149934188Y-93105518D01*
X149921928Y-93230000D01*
X149921928Y-94130000D01*
X149933747Y-94250000D01*
X149851402Y-94250000D01*
X149651443Y-94289774D01*
X149463085Y-94367795D01*
X149325838Y-94459500D01*
X144202993Y-94459500D01*
X144279444Y-94427833D01*
X144710019Y-94140132D01*
X145076193Y-93773958D01*
X145363894Y-93343383D01*
X145562066Y-92864954D01*
X145663093Y-92357056D01*
X145663093Y-91839208D01*
X145562066Y-91331310D01*
X145363894Y-90852881D01*
X145076193Y-90422306D01*
X144710019Y-90056132D01*
X144279444Y-89768431D01*
X143801015Y-89570259D01*
X143293117Y-89469232D01*
X142775269Y-89469232D01*
X142267371Y-89570259D01*
X141788942Y-89768431D01*
X141358367Y-90056132D01*
X140992193Y-90422306D01*
X140704492Y-90852881D01*
X140506320Y-91331310D01*
X140405293Y-91839208D01*
X140405293Y-92357056D01*
X140506320Y-92864954D01*
X140704492Y-93343383D01*
X140992193Y-93773958D01*
X141358367Y-94140132D01*
X141788942Y-94427833D01*
X141865393Y-94459500D01*
X138933934Y-94459500D01*
X138082566Y-93608132D01*
X138102915Y-93608132D01*
X138394644Y-93550103D01*
X138669446Y-93436276D01*
X138916762Y-93271025D01*
X139127086Y-93060701D01*
X139292337Y-92813385D01*
X139406164Y-92538583D01*
X139464193Y-92246854D01*
X139464193Y-91949410D01*
X139406164Y-91657681D01*
X139292337Y-91382879D01*
X139251007Y-91321024D01*
X139319819Y-91324059D01*
X139662497Y-91271471D01*
X139988332Y-91153041D01*
X140284800Y-90973319D01*
X140476436Y-90797874D01*
X141812393Y-89308948D01*
X141901274Y-89220067D01*
X141976020Y-89108202D01*
X142055637Y-88999719D01*
X142072172Y-88964301D01*
X142093885Y-88931805D01*
X142145368Y-88807514D01*
X142202294Y-88685577D01*
X142211603Y-88647608D01*
X142226557Y-88611505D01*
X142252803Y-88479558D01*
X142284846Y-88348859D01*
X142286568Y-88309809D01*
X142294193Y-88271477D01*
X142294193Y-88136934D01*
X142300122Y-88002506D01*
X142294193Y-87963871D01*
X142294193Y-87924787D01*
X142267944Y-87792823D01*
X142247534Y-87659828D01*
X142234182Y-87623093D01*
X142226557Y-87584759D01*
X142217664Y-87563289D01*
X143772416Y-87563289D01*
X143780033Y-87822994D01*
X143857606Y-88160893D01*
X143999612Y-88477166D01*
X144200589Y-88759658D01*
X144452817Y-88997513D01*
X144746601Y-89181591D01*
X145070652Y-89304816D01*
X145412516Y-89362456D01*
X145759055Y-89352292D01*
X146096954Y-89274719D01*
X146413227Y-89132713D01*
X146528870Y-89050439D01*
X148066562Y-90588132D01*
X147965471Y-90588132D01*
X147673742Y-90646161D01*
X147398940Y-90759988D01*
X147151624Y-90925239D01*
X146941300Y-91135563D01*
X146776049Y-91382879D01*
X146662222Y-91657681D01*
X146604193Y-91949410D01*
X146604193Y-92246854D01*
X146662222Y-92538583D01*
X146776049Y-92813385D01*
X146941300Y-93060701D01*
X147151624Y-93271025D01*
X147398940Y-93436276D01*
X147673742Y-93550103D01*
X147965471Y-93608132D01*
X148262915Y-93608132D01*
X148554644Y-93550103D01*
X148829446Y-93436276D01*
X149076762Y-93271025D01*
X149287086Y-93060701D01*
X149452337Y-92813385D01*
X149566164Y-92538583D01*
X149624193Y-92246854D01*
X149624193Y-91949410D01*
X149566164Y-91657681D01*
X149452337Y-91382879D01*
X149291387Y-91142000D01*
X150006749Y-91142000D01*
X150029463Y-91184494D01*
X150108815Y-91281185D01*
X150205506Y-91360537D01*
X150315820Y-91419502D01*
X150435518Y-91455812D01*
X150560000Y-91468072D01*
X151760000Y-91468072D01*
X151884482Y-91455812D01*
X152004180Y-91419502D01*
X152114494Y-91360537D01*
X152211185Y-91281185D01*
X152290537Y-91184494D01*
X152349502Y-91074180D01*
X152385812Y-90954482D01*
X152398072Y-90830000D01*
X152398072Y-89930000D01*
X152385812Y-89805518D01*
X152349502Y-89685820D01*
X152290537Y-89575506D01*
X152211185Y-89478815D01*
X152114494Y-89399463D01*
X152004180Y-89340498D01*
X151884482Y-89304188D01*
X151760000Y-89291928D01*
X150560000Y-89291928D01*
X150435518Y-89304188D01*
X150315820Y-89340498D01*
X150205506Y-89399463D01*
X150108815Y-89478815D01*
X150029463Y-89575506D01*
X150006749Y-89618000D01*
X149251692Y-89618000D01*
X147294080Y-87660388D01*
X147322292Y-87251307D01*
X147334193Y-87191477D01*
X147334193Y-87078743D01*
X147335970Y-87052976D01*
X147334193Y-86992388D01*
X147334193Y-86844787D01*
X147329115Y-86819260D01*
X147328353Y-86793269D01*
X147295352Y-86649519D01*
X147266557Y-86504759D01*
X147256600Y-86480720D01*
X147250780Y-86455370D01*
X147190370Y-86320826D01*
X147133885Y-86184459D01*
X147119423Y-86162815D01*
X147108774Y-86139098D01*
X147023289Y-86018941D01*
X146941274Y-85896197D01*
X146922871Y-85877794D01*
X146907797Y-85856606D01*
X146800504Y-85755427D01*
X146696128Y-85651051D01*
X146674487Y-85636591D01*
X146655569Y-85618751D01*
X146530600Y-85540448D01*
X146407866Y-85458440D01*
X146383821Y-85448480D01*
X146361785Y-85434673D01*
X146223933Y-85382253D01*
X146087566Y-85325768D01*
X146062039Y-85320690D01*
X146037734Y-85311448D01*
X145892301Y-85286927D01*
X145747538Y-85258132D01*
X145721516Y-85258132D01*
X145695870Y-85253808D01*
X145548430Y-85258132D01*
X145400848Y-85258132D01*
X145375326Y-85263209D01*
X145349331Y-85263971D01*
X145205568Y-85296976D01*
X145060820Y-85325768D01*
X145036780Y-85335726D01*
X145011432Y-85341545D01*
X144876882Y-85401957D01*
X144740520Y-85458440D01*
X144718880Y-85472899D01*
X144695159Y-85483550D01*
X144574989Y-85569045D01*
X144452258Y-85651051D01*
X144433855Y-85669454D01*
X144412667Y-85684528D01*
X144311481Y-85791828D01*
X144207112Y-85896197D01*
X144192654Y-85917835D01*
X144174812Y-85936755D01*
X144096503Y-86061734D01*
X144014501Y-86184459D01*
X144004541Y-86208504D01*
X143990734Y-86230540D01*
X143938312Y-86368396D01*
X143881829Y-86504759D01*
X143876752Y-86530284D01*
X143867509Y-86554590D01*
X143842987Y-86700030D01*
X143814193Y-86844787D01*
X143814193Y-86957518D01*
X143772416Y-87563289D01*
X142217664Y-87563289D01*
X142175067Y-87460452D01*
X142129104Y-87333993D01*
X142108843Y-87300570D01*
X142093885Y-87264459D01*
X142019128Y-87152578D01*
X141949382Y-87037525D01*
X141922991Y-87008698D01*
X141901274Y-86976197D01*
X141806127Y-86881050D01*
X141715276Y-86781815D01*
X141683768Y-86758691D01*
X141656128Y-86731051D01*
X141544243Y-86656291D01*
X141435781Y-86576690D01*
X141400369Y-86560158D01*
X141367866Y-86538440D01*
X141243546Y-86486945D01*
X141121639Y-86430033D01*
X141083679Y-86420727D01*
X141047566Y-86405768D01*
X140915581Y-86379514D01*
X140784921Y-86347481D01*
X140745882Y-86345759D01*
X140707538Y-86338132D01*
X140572951Y-86338132D01*
X140438568Y-86332205D01*
X140399946Y-86338132D01*
X140360848Y-86338132D01*
X140228837Y-86364391D01*
X140095890Y-86384793D01*
X140059169Y-86398140D01*
X140020820Y-86405768D01*
X139896462Y-86457279D01*
X139770056Y-86503223D01*
X139736647Y-86523476D01*
X139700520Y-86538440D01*
X139588593Y-86613227D01*
X139473587Y-86682945D01*
X139444771Y-86709327D01*
X139412258Y-86731051D01*
X139317080Y-86826229D01*
X139281951Y-86858390D01*
X139256030Y-86887279D01*
X139167112Y-86976197D01*
X139140466Y-87016075D01*
X137856477Y-88447085D01*
X137702751Y-88656546D01*
X137556094Y-88970688D01*
X137473542Y-89307406D01*
X137458266Y-89653758D01*
X137510854Y-89996436D01*
X137629284Y-90322271D01*
X137792068Y-90590798D01*
X137513742Y-90646161D01*
X137238940Y-90759988D01*
X136991624Y-90925239D01*
X136781300Y-91135563D01*
X136616049Y-91382879D01*
X136502222Y-91657681D01*
X136444193Y-91949410D01*
X136444193Y-91969760D01*
X131889500Y-87415068D01*
X131889500Y-86860503D01*
X131981205Y-86723256D01*
X132059226Y-86534898D01*
X132099000Y-86334939D01*
X132099000Y-86131061D01*
X132059226Y-85931102D01*
X131981205Y-85742744D01*
X131867937Y-85573226D01*
X131723774Y-85429063D01*
X131554256Y-85315795D01*
X131365898Y-85237774D01*
X131165939Y-85198000D01*
X130962061Y-85198000D01*
X130762102Y-85237774D01*
X130573744Y-85315795D01*
X130404226Y-85429063D01*
X130260063Y-85573226D01*
X130146795Y-85742744D01*
X130068774Y-85931102D01*
X130029000Y-86131061D01*
X130029000Y-86334939D01*
X130068774Y-86534898D01*
X130146795Y-86723256D01*
X130238500Y-86860503D01*
X130238501Y-87716440D01*
X130234506Y-87757000D01*
X130250445Y-87918826D01*
X130297647Y-88074433D01*
X130374301Y-88217842D01*
X130430052Y-88285774D01*
X130477460Y-88343541D01*
X130508961Y-88369393D01*
X131476496Y-89336928D01*
X131162500Y-89336928D01*
X131038018Y-89349188D01*
X130918320Y-89385498D01*
X130808006Y-89444463D01*
X130711315Y-89523815D01*
X130631963Y-89620506D01*
X130609249Y-89663000D01*
X130246692Y-89663000D01*
X128244080Y-87660388D01*
X128272292Y-87251307D01*
X128284193Y-87191477D01*
X128284193Y-87078743D01*
X128285970Y-87052976D01*
X128284193Y-86992388D01*
X128284193Y-86844787D01*
X128279115Y-86819260D01*
X128278353Y-86793269D01*
X128245352Y-86649519D01*
X128216557Y-86504759D01*
X128206600Y-86480720D01*
X128200780Y-86455370D01*
X128140370Y-86320826D01*
X128083885Y-86184459D01*
X128069423Y-86162815D01*
X128058774Y-86139098D01*
X127973289Y-86018941D01*
X127891274Y-85896197D01*
X127872871Y-85877794D01*
X127857797Y-85856606D01*
X127750504Y-85755427D01*
X127646128Y-85651051D01*
X127624487Y-85636591D01*
X127605569Y-85618751D01*
X127480600Y-85540448D01*
X127357866Y-85458440D01*
X127333821Y-85448480D01*
X127311785Y-85434673D01*
X127173933Y-85382253D01*
X127037566Y-85325768D01*
X127012039Y-85320690D01*
X126987734Y-85311448D01*
X126842301Y-85286927D01*
X126697538Y-85258132D01*
X126671516Y-85258132D01*
X126645870Y-85253808D01*
X126498430Y-85258132D01*
X126350848Y-85258132D01*
X126325326Y-85263209D01*
X126299331Y-85263971D01*
X126155568Y-85296976D01*
X126010820Y-85325768D01*
X125986780Y-85335726D01*
X125961432Y-85341545D01*
X125826882Y-85401957D01*
X125690520Y-85458440D01*
X125668880Y-85472899D01*
X125645159Y-85483550D01*
X125524989Y-85569045D01*
X125402258Y-85651051D01*
X125383855Y-85669454D01*
X125362667Y-85684528D01*
X125261481Y-85791828D01*
X125157112Y-85896197D01*
X125142654Y-85917835D01*
X125124812Y-85936755D01*
X125046503Y-86061734D01*
X124964501Y-86184459D01*
X124954541Y-86208504D01*
X124940734Y-86230540D01*
X124888312Y-86368396D01*
X124831829Y-86504759D01*
X124826752Y-86530284D01*
X124817509Y-86554590D01*
X124792987Y-86700030D01*
X124764193Y-86844787D01*
X124764193Y-86957518D01*
X124722416Y-87563289D01*
X124730033Y-87822994D01*
X124807606Y-88160893D01*
X124949612Y-88477166D01*
X125150589Y-88759658D01*
X125402817Y-88997513D01*
X125696601Y-89181591D01*
X126020652Y-89304816D01*
X126362516Y-89362456D01*
X126709055Y-89352292D01*
X127046954Y-89274719D01*
X127363227Y-89132713D01*
X127478870Y-89050439D01*
X129016562Y-90588132D01*
X128915471Y-90588132D01*
X128623742Y-90646161D01*
X128348940Y-90759988D01*
X128101624Y-90925239D01*
X127891300Y-91135563D01*
X127726049Y-91382879D01*
X127612222Y-91657681D01*
X127554193Y-91949410D01*
X127554193Y-92246854D01*
X127612222Y-92538583D01*
X127726049Y-92813385D01*
X127891300Y-93060701D01*
X128101624Y-93271025D01*
X128348940Y-93436276D01*
X128623742Y-93550103D01*
X128915471Y-93608132D01*
X129212915Y-93608132D01*
X129504644Y-93550103D01*
X129779446Y-93436276D01*
X130026762Y-93271025D01*
X130237086Y-93060701D01*
X130402337Y-92813385D01*
X130516164Y-92538583D01*
X130574193Y-92246854D01*
X130574193Y-91949410D01*
X130516164Y-91657681D01*
X130402337Y-91382879D01*
X130271455Y-91187000D01*
X130609249Y-91187000D01*
X130631963Y-91229494D01*
X130711315Y-91326185D01*
X130808006Y-91405537D01*
X130918320Y-91464502D01*
X131038018Y-91500812D01*
X131162500Y-91513072D01*
X132362500Y-91513072D01*
X132486982Y-91500812D01*
X132606680Y-91464502D01*
X132716994Y-91405537D01*
X132813685Y-91326185D01*
X132893037Y-91229494D01*
X132952002Y-91119180D01*
X132988312Y-90999482D01*
X133000572Y-90875000D01*
X133000572Y-90861005D01*
X137389566Y-95250000D01*
X133030631Y-95250000D01*
X132559457Y-94778827D01*
X132606680Y-94764502D01*
X132716994Y-94705537D01*
X132813685Y-94626185D01*
X132893037Y-94529494D01*
X132952002Y-94419180D01*
X132988312Y-94299482D01*
X133000572Y-94175000D01*
X133000572Y-93275000D01*
X132988312Y-93150518D01*
X132952002Y-93030820D01*
X132893037Y-92920506D01*
X132813685Y-92823815D01*
X132716994Y-92744463D01*
X132606680Y-92685498D01*
X132486982Y-92649188D01*
X132362500Y-92636928D01*
X131162500Y-92636928D01*
X131038018Y-92649188D01*
X130918320Y-92685498D01*
X130808006Y-92744463D01*
X130711315Y-92823815D01*
X130631963Y-92920506D01*
X130572998Y-93030820D01*
X130536688Y-93150518D01*
X130524428Y-93275000D01*
X130524428Y-94175000D01*
X130536688Y-94299482D01*
X130572998Y-94419180D01*
X130631963Y-94529494D01*
X130711315Y-94626185D01*
X130808006Y-94705537D01*
X130918320Y-94764502D01*
X131000500Y-94789431D01*
X131000500Y-95022076D01*
X130996814Y-95059500D01*
X131000500Y-95096923D01*
X131000500Y-95096925D01*
X131011526Y-95208877D01*
X131024001Y-95250000D01*
X123891922Y-95250000D01*
X123854499Y-95246314D01*
X123817076Y-95250000D01*
X123817074Y-95250000D01*
X123705122Y-95261026D01*
X123561485Y-95304598D01*
X123429108Y-95375355D01*
X123313078Y-95470578D01*
X123289221Y-95499648D01*
X113123870Y-105665000D01*
X112532251Y-105665000D01*
X112509537Y-105622506D01*
X112430185Y-105525815D01*
X112333494Y-105446463D01*
X112223180Y-105387498D01*
X112103482Y-105351188D01*
X111979000Y-105338928D01*
X110779000Y-105338928D01*
X110654518Y-105351188D01*
X110534820Y-105387498D01*
X110424506Y-105446463D01*
X110327815Y-105525815D01*
X110248463Y-105622506D01*
X110189498Y-105732820D01*
X110153188Y-105852518D01*
X110140928Y-105977000D01*
X107725631Y-105977000D01*
X106711417Y-104962787D01*
X106687555Y-104933711D01*
X106571525Y-104838488D01*
X106439148Y-104767731D01*
X106295511Y-104724159D01*
X106183559Y-104713133D01*
X106183556Y-104713133D01*
X106146133Y-104709447D01*
X106108710Y-104713133D01*
X105019873Y-104713133D01*
X105056361Y-104625044D01*
X105119193Y-104309165D01*
X105119193Y-103987099D01*
X105056361Y-103671220D01*
X104933111Y-103373669D01*
X104790342Y-103160000D01*
X113132419Y-103160000D01*
X113160674Y-103157217D01*
X113166801Y-103157260D01*
X113175972Y-103156360D01*
X113370069Y-103135959D01*
X113428658Y-103123932D01*
X113487423Y-103112723D01*
X113496245Y-103110059D01*
X113682683Y-103052347D01*
X113737838Y-103029162D01*
X113793291Y-103006758D01*
X113801427Y-103002432D01*
X113973104Y-102909607D01*
X114022699Y-102876154D01*
X114072753Y-102843400D01*
X114079894Y-102837576D01*
X114230272Y-102713172D01*
X114272411Y-102670737D01*
X114315161Y-102628874D01*
X114321034Y-102621773D01*
X114444384Y-102470531D01*
X114477477Y-102420723D01*
X114511284Y-102371349D01*
X114515667Y-102363243D01*
X114607292Y-102190920D01*
X114630090Y-102135608D01*
X114653652Y-102080634D01*
X114656377Y-102071831D01*
X114712786Y-101884994D01*
X114724405Y-101826314D01*
X114736842Y-101767804D01*
X114737805Y-101758639D01*
X114756850Y-101564406D01*
X114756850Y-101564402D01*
X114760000Y-101532419D01*
X114760000Y-91949410D01*
X117394193Y-91949410D01*
X117394193Y-92246854D01*
X117452222Y-92538583D01*
X117566049Y-92813385D01*
X117731300Y-93060701D01*
X117941624Y-93271025D01*
X118188940Y-93436276D01*
X118463742Y-93550103D01*
X118755471Y-93608132D01*
X119052915Y-93608132D01*
X119344644Y-93550103D01*
X119619446Y-93436276D01*
X119866762Y-93271025D01*
X120077086Y-93060701D01*
X120242337Y-92813385D01*
X120356164Y-92538583D01*
X120414193Y-92246854D01*
X120414193Y-91949410D01*
X120392273Y-91839208D01*
X121355293Y-91839208D01*
X121355293Y-92357056D01*
X121456320Y-92864954D01*
X121654492Y-93343383D01*
X121942193Y-93773958D01*
X122308367Y-94140132D01*
X122738942Y-94427833D01*
X123217371Y-94626005D01*
X123725269Y-94727032D01*
X124243117Y-94727032D01*
X124751015Y-94626005D01*
X125229444Y-94427833D01*
X125660019Y-94140132D01*
X126026193Y-93773958D01*
X126313894Y-93343383D01*
X126512066Y-92864954D01*
X126613093Y-92357056D01*
X126613093Y-91839208D01*
X126512066Y-91331310D01*
X126313894Y-90852881D01*
X126026193Y-90422306D01*
X125660019Y-90056132D01*
X125229444Y-89768431D01*
X124751015Y-89570259D01*
X124243117Y-89469232D01*
X123725269Y-89469232D01*
X123217371Y-89570259D01*
X122738942Y-89768431D01*
X122308367Y-90056132D01*
X121942193Y-90422306D01*
X121654492Y-90852881D01*
X121456320Y-91331310D01*
X121355293Y-91839208D01*
X120392273Y-91839208D01*
X120356164Y-91657681D01*
X120242337Y-91382879D01*
X120201007Y-91321024D01*
X120269819Y-91324059D01*
X120612497Y-91271471D01*
X120938332Y-91153041D01*
X121234800Y-90973319D01*
X121426436Y-90797874D01*
X122762393Y-89308948D01*
X122851274Y-89220067D01*
X122926020Y-89108202D01*
X123005637Y-88999719D01*
X123022172Y-88964301D01*
X123043885Y-88931805D01*
X123095368Y-88807514D01*
X123152294Y-88685577D01*
X123161603Y-88647608D01*
X123176557Y-88611505D01*
X123202803Y-88479558D01*
X123234846Y-88348859D01*
X123236568Y-88309809D01*
X123244193Y-88271477D01*
X123244193Y-88136934D01*
X123250122Y-88002506D01*
X123244193Y-87963871D01*
X123244193Y-87924787D01*
X123217944Y-87792823D01*
X123197534Y-87659828D01*
X123184182Y-87623093D01*
X123176557Y-87584759D01*
X123125067Y-87460452D01*
X123079104Y-87333993D01*
X123058843Y-87300570D01*
X123043885Y-87264459D01*
X122969128Y-87152578D01*
X122899382Y-87037525D01*
X122872991Y-87008698D01*
X122851274Y-86976197D01*
X122756127Y-86881050D01*
X122665276Y-86781815D01*
X122633768Y-86758691D01*
X122606128Y-86731051D01*
X122494243Y-86656291D01*
X122385781Y-86576690D01*
X122350369Y-86560158D01*
X122317866Y-86538440D01*
X122193546Y-86486945D01*
X122071639Y-86430033D01*
X122033679Y-86420727D01*
X121997566Y-86405768D01*
X121865581Y-86379514D01*
X121734921Y-86347481D01*
X121695882Y-86345759D01*
X121657538Y-86338132D01*
X121522951Y-86338132D01*
X121388568Y-86332205D01*
X121349946Y-86338132D01*
X121310848Y-86338132D01*
X121178837Y-86364391D01*
X121045890Y-86384793D01*
X121009169Y-86398140D01*
X120970820Y-86405768D01*
X120846462Y-86457279D01*
X120720056Y-86503223D01*
X120686647Y-86523476D01*
X120650520Y-86538440D01*
X120538593Y-86613227D01*
X120423587Y-86682945D01*
X120394771Y-86709327D01*
X120362258Y-86731051D01*
X120267080Y-86826229D01*
X120231951Y-86858390D01*
X120206030Y-86887279D01*
X120117112Y-86976197D01*
X120090466Y-87016075D01*
X118806477Y-88447085D01*
X118652751Y-88656546D01*
X118506094Y-88970688D01*
X118423542Y-89307406D01*
X118408266Y-89653758D01*
X118460854Y-89996436D01*
X118579284Y-90322271D01*
X118742068Y-90590798D01*
X118463742Y-90646161D01*
X118188940Y-90759988D01*
X117941624Y-90925239D01*
X117731300Y-91135563D01*
X117566049Y-91382879D01*
X117452222Y-91657681D01*
X117394193Y-91949410D01*
X114760000Y-91949410D01*
X114760000Y-87667581D01*
X114758048Y-87647759D01*
X114895987Y-87618415D01*
X115101678Y-87530003D01*
X115286169Y-87403161D01*
X115442369Y-87242764D01*
X115564276Y-87054976D01*
X115644119Y-86831874D01*
X116785881Y-86831874D01*
X116865724Y-87054976D01*
X116987631Y-87242764D01*
X117143831Y-87403161D01*
X117328322Y-87530003D01*
X117534013Y-87618415D01*
X117753000Y-87665000D01*
X118303000Y-87665000D01*
X118303000Y-86657000D01*
X118557000Y-86657000D01*
X118557000Y-87665000D01*
X119107000Y-87665000D01*
X119325987Y-87618415D01*
X119531678Y-87530003D01*
X119716169Y-87403161D01*
X119872369Y-87242764D01*
X119994276Y-87054976D01*
X120074119Y-86831874D01*
X119947954Y-86657000D01*
X118557000Y-86657000D01*
X118303000Y-86657000D01*
X116912046Y-86657000D01*
X116785881Y-86831874D01*
X115644119Y-86831874D01*
X115517954Y-86657000D01*
X114377000Y-86657000D01*
X114377000Y-86677000D01*
X114123000Y-86677000D01*
X114123000Y-86657000D01*
X114103000Y-86657000D01*
X114103000Y-86403000D01*
X114123000Y-86403000D01*
X114123000Y-85395000D01*
X114377000Y-85395000D01*
X114377000Y-86403000D01*
X115517954Y-86403000D01*
X115644119Y-86228126D01*
X116785881Y-86228126D01*
X116912046Y-86403000D01*
X118303000Y-86403000D01*
X118303000Y-86383000D01*
X118557000Y-86383000D01*
X118557000Y-86403000D01*
X119947954Y-86403000D01*
X120074119Y-86228126D01*
X119994276Y-86005024D01*
X119872369Y-85817236D01*
X119716169Y-85656839D01*
X119531678Y-85529997D01*
X119325987Y-85441585D01*
X119107000Y-85395000D01*
X118816904Y-85395000D01*
X118823108Y-85380022D01*
X118860000Y-85194552D01*
X118860000Y-85005448D01*
X118823108Y-84819978D01*
X118750741Y-84645269D01*
X118645681Y-84488036D01*
X118511964Y-84354319D01*
X118354731Y-84249259D01*
X118180022Y-84176892D01*
X117994552Y-84140000D01*
X117805448Y-84140000D01*
X117619978Y-84176892D01*
X117445269Y-84249259D01*
X117288036Y-84354319D01*
X117154319Y-84488036D01*
X117049259Y-84645269D01*
X116976892Y-84819978D01*
X116940000Y-85005448D01*
X116940000Y-85194552D01*
X116976892Y-85380022D01*
X117049259Y-85554731D01*
X117128206Y-85672884D01*
X116987631Y-85817236D01*
X116865724Y-86005024D01*
X116785881Y-86228126D01*
X115644119Y-86228126D01*
X115564276Y-86005024D01*
X115442369Y-85817236D01*
X115286169Y-85656839D01*
X115101678Y-85529997D01*
X114895987Y-85441585D01*
X114677000Y-85395000D01*
X114377000Y-85395000D01*
X114123000Y-85395000D01*
X113823000Y-85395000D01*
X113760000Y-85408402D01*
X113760000Y-81815162D01*
X130153899Y-81815162D01*
X130153899Y-82019040D01*
X130193673Y-82218999D01*
X130271694Y-82407357D01*
X130384962Y-82576875D01*
X130529125Y-82721038D01*
X130698643Y-82834306D01*
X130887001Y-82912327D01*
X131086960Y-82952101D01*
X131290838Y-82952101D01*
X131453989Y-82919649D01*
X131465774Y-82978898D01*
X131543795Y-83167256D01*
X131657063Y-83336774D01*
X131801226Y-83480937D01*
X131970744Y-83594205D01*
X132159102Y-83672226D01*
X132359061Y-83712000D01*
X132562939Y-83712000D01*
X132762898Y-83672226D01*
X132951256Y-83594205D01*
X133120774Y-83480937D01*
X133160048Y-83441663D01*
X161352061Y-83548857D01*
X159436465Y-85464454D01*
X159426146Y-85472923D01*
X159416447Y-85424164D01*
X159315925Y-85181483D01*
X159169990Y-84963075D01*
X158984250Y-84777335D01*
X158765842Y-84631400D01*
X158523161Y-84530878D01*
X158265531Y-84479632D01*
X158002855Y-84479632D01*
X157745225Y-84530878D01*
X157502544Y-84631400D01*
X157284136Y-84777335D01*
X157098396Y-84963075D01*
X156952461Y-85181483D01*
X156851939Y-85424164D01*
X156800693Y-85681794D01*
X156800693Y-85944470D01*
X156851939Y-86202100D01*
X156952461Y-86444781D01*
X157098396Y-86663189D01*
X157284136Y-86848929D01*
X157502544Y-86994864D01*
X157715641Y-87083132D01*
X157502544Y-87171400D01*
X157284136Y-87317335D01*
X157098396Y-87503075D01*
X156952461Y-87721483D01*
X156851939Y-87964164D01*
X156800693Y-88221794D01*
X156800693Y-88484470D01*
X156851939Y-88742100D01*
X156952461Y-88984781D01*
X157098396Y-89203189D01*
X157284136Y-89388929D01*
X157502544Y-89534864D01*
X157715641Y-89623132D01*
X157502544Y-89711400D01*
X157284136Y-89857335D01*
X157098396Y-90043075D01*
X156952461Y-90261483D01*
X156851939Y-90504164D01*
X156800693Y-90761794D01*
X156800693Y-91024470D01*
X156851939Y-91282100D01*
X156952461Y-91524781D01*
X157098396Y-91743189D01*
X157284136Y-91928929D01*
X157502544Y-92074864D01*
X157719763Y-92164839D01*
X157553351Y-92225618D01*
X157452879Y-92279320D01*
X157393601Y-92512935D01*
X158134193Y-93253527D01*
X158874785Y-92512935D01*
X158815507Y-92279320D01*
X158577318Y-92168573D01*
X158553571Y-92162790D01*
X158765842Y-92074864D01*
X158984250Y-91928929D01*
X159169990Y-91743189D01*
X159315925Y-91524781D01*
X159416447Y-91282100D01*
X159467693Y-91024470D01*
X159467693Y-90761794D01*
X159416447Y-90504164D01*
X159315925Y-90261483D01*
X159169990Y-90043075D01*
X158984250Y-89857335D01*
X158765842Y-89711400D01*
X158552745Y-89623132D01*
X158765842Y-89534864D01*
X158984250Y-89388929D01*
X159169990Y-89203189D01*
X159303130Y-89003930D01*
X159307599Y-89026398D01*
X159385620Y-89214756D01*
X159477326Y-89352004D01*
X159477325Y-97397274D01*
X159473331Y-97437825D01*
X159477325Y-97478375D01*
X159477325Y-97478377D01*
X159489269Y-97599650D01*
X159512142Y-97675051D01*
X159536472Y-97755258D01*
X159613126Y-97898667D01*
X159647039Y-97939990D01*
X159716284Y-98024366D01*
X159747791Y-98050223D01*
X160389572Y-98692004D01*
X160421774Y-98853898D01*
X160499795Y-99042256D01*
X160613063Y-99211774D01*
X160757226Y-99355937D01*
X160926744Y-99469205D01*
X161115102Y-99547226D01*
X161315061Y-99587000D01*
X161518939Y-99587000D01*
X161718898Y-99547226D01*
X161907256Y-99469205D01*
X162076774Y-99355937D01*
X162220937Y-99211774D01*
X162334205Y-99042256D01*
X162412226Y-98853898D01*
X162452000Y-98653939D01*
X162452000Y-98450061D01*
X162412226Y-98250102D01*
X162334205Y-98061744D01*
X162220937Y-97892226D01*
X162076774Y-97748063D01*
X161907256Y-97634795D01*
X161718898Y-97556774D01*
X161557004Y-97524572D01*
X161128325Y-97095893D01*
X161128325Y-89352003D01*
X161220030Y-89214756D01*
X161298051Y-89026398D01*
X161337825Y-88826439D01*
X161337825Y-88622561D01*
X161321949Y-88542747D01*
X161396686Y-88542747D01*
X161596645Y-88502973D01*
X161785003Y-88424952D01*
X161954521Y-88311684D01*
X161989989Y-88276216D01*
X167077172Y-88323320D01*
X167004774Y-88498102D01*
X166965000Y-88698061D01*
X166965000Y-88901939D01*
X167004774Y-89101898D01*
X167082795Y-89290256D01*
X167196063Y-89459774D01*
X167340226Y-89603937D01*
X167509744Y-89717205D01*
X167698102Y-89795226D01*
X167898061Y-89835000D01*
X167938001Y-89835000D01*
X167938000Y-90498289D01*
X167896063Y-90540226D01*
X167782795Y-90709744D01*
X167704774Y-90898102D01*
X167665000Y-91098061D01*
X167665000Y-91301939D01*
X167704774Y-91501898D01*
X167782795Y-91690256D01*
X167896063Y-91859774D01*
X168040226Y-92003937D01*
X168209744Y-92117205D01*
X168398102Y-92195226D01*
X168598061Y-92235000D01*
X168801939Y-92235000D01*
X169001898Y-92195226D01*
X169190256Y-92117205D01*
X169359774Y-92003937D01*
X169503937Y-91859774D01*
X169617205Y-91690256D01*
X169695226Y-91501898D01*
X169735000Y-91301939D01*
X169735000Y-91098061D01*
X169695226Y-90898102D01*
X169617205Y-90709744D01*
X169503937Y-90540226D01*
X169462000Y-90498289D01*
X169462000Y-89537415D01*
X169465685Y-89499999D01*
X169462000Y-89462583D01*
X169462000Y-89462574D01*
X169450974Y-89350622D01*
X169407402Y-89206985D01*
X169336645Y-89074608D01*
X169241422Y-88958578D01*
X169212351Y-88934720D01*
X169035000Y-88757369D01*
X169035000Y-88698061D01*
X168995226Y-88498102D01*
X168929934Y-88340475D01*
X174179452Y-88389082D01*
X174248124Y-88457754D01*
X174219226Y-88477063D01*
X174176821Y-88519468D01*
X174069622Y-88530026D01*
X173925985Y-88573598D01*
X173864364Y-88606535D01*
X173793607Y-88644355D01*
X173778753Y-88656546D01*
X173677578Y-88739578D01*
X173653716Y-88768654D01*
X171457370Y-90965000D01*
X171398061Y-90965000D01*
X171198102Y-91004774D01*
X171009744Y-91082795D01*
X170840226Y-91196063D01*
X170696063Y-91340226D01*
X170582795Y-91509744D01*
X170504774Y-91698102D01*
X170465000Y-91898061D01*
X170465000Y-92101939D01*
X170504774Y-92301898D01*
X170582795Y-92490256D01*
X170696063Y-92659774D01*
X170840226Y-92803937D01*
X171009744Y-92917205D01*
X171198102Y-92995226D01*
X171398061Y-93035000D01*
X171601939Y-93035000D01*
X171801898Y-92995226D01*
X171990256Y-92917205D01*
X172159774Y-92803937D01*
X172303937Y-92659774D01*
X172417205Y-92490256D01*
X172495226Y-92301898D01*
X172535000Y-92101939D01*
X172535000Y-92042630D01*
X174383158Y-90194472D01*
X174388744Y-90198205D01*
X174577102Y-90276226D01*
X174777061Y-90316000D01*
X174980939Y-90316000D01*
X175180898Y-90276226D01*
X175369256Y-90198205D01*
X175538774Y-90084937D01*
X175682937Y-89940774D01*
X175702246Y-89911876D01*
X179559000Y-93768631D01*
X179559000Y-93827939D01*
X179598774Y-94027898D01*
X179676795Y-94216256D01*
X179790063Y-94385774D01*
X179934226Y-94529937D01*
X180103744Y-94643205D01*
X180292102Y-94721226D01*
X180455310Y-94753690D01*
X180487774Y-94916898D01*
X180565795Y-95105256D01*
X180679063Y-95274774D01*
X180823226Y-95418937D01*
X180992744Y-95532205D01*
X181181102Y-95610226D01*
X181381061Y-95650000D01*
X181448001Y-95650000D01*
X181448001Y-97292565D01*
X176516996Y-102223571D01*
X176355102Y-102255774D01*
X176166744Y-102333795D01*
X175997226Y-102447063D01*
X175853063Y-102591226D01*
X175739795Y-102760744D01*
X175661774Y-102949102D01*
X175622000Y-103149061D01*
X175622000Y-103352939D01*
X175661774Y-103552898D01*
X175739795Y-103741256D01*
X175853063Y-103910774D01*
X175997226Y-104054937D01*
X176166744Y-104168205D01*
X176355102Y-104246226D01*
X176555061Y-104286000D01*
X176758939Y-104286000D01*
X176958898Y-104246226D01*
X177147256Y-104168205D01*
X177316774Y-104054937D01*
X177460937Y-103910774D01*
X177574205Y-103741256D01*
X177652226Y-103552898D01*
X177684429Y-103391004D01*
X182828547Y-98246887D01*
X182860042Y-98221040D01*
X182885890Y-98189544D01*
X182885893Y-98189541D01*
X182963200Y-98095342D01*
X183039854Y-97951933D01*
X183057966Y-97892226D01*
X183087057Y-97796325D01*
X183099001Y-97675052D01*
X183099001Y-97675050D01*
X183102995Y-97634499D01*
X183099001Y-97593949D01*
X183099001Y-89146543D01*
X183102994Y-89106000D01*
X183099001Y-89065457D01*
X183099001Y-89065448D01*
X183087057Y-88944175D01*
X183039854Y-88788567D01*
X182963200Y-88645159D01*
X182963199Y-88645157D01*
X182905622Y-88575000D01*
X182860042Y-88519460D01*
X182828540Y-88493607D01*
X181240429Y-86905496D01*
X181208226Y-86743602D01*
X181130205Y-86555244D01*
X181016937Y-86385726D01*
X180872774Y-86241563D01*
X180703256Y-86128295D01*
X180514898Y-86050274D01*
X180314939Y-86010500D01*
X180111061Y-86010500D01*
X179911102Y-86050274D01*
X179722744Y-86128295D01*
X179553226Y-86241563D01*
X179409063Y-86385726D01*
X179295795Y-86555244D01*
X179217774Y-86743602D01*
X179178000Y-86943561D01*
X179178000Y-87147439D01*
X179217774Y-87347398D01*
X179295795Y-87535756D01*
X179409063Y-87705274D01*
X179553226Y-87849437D01*
X179722744Y-87962705D01*
X179911102Y-88040726D01*
X180072996Y-88072929D01*
X181448002Y-89447935D01*
X181448002Y-91943235D01*
X175841821Y-86337055D01*
X175923205Y-86215256D01*
X176001226Y-86026898D01*
X176041000Y-85826939D01*
X176041000Y-85623061D01*
X176001226Y-85423102D01*
X175923205Y-85234744D01*
X175809937Y-85065226D01*
X175665774Y-84921063D01*
X175496256Y-84807795D01*
X175402000Y-84768753D01*
X175402000Y-83018072D01*
X175490000Y-83018072D01*
X175614482Y-83005812D01*
X175734180Y-82969502D01*
X175844494Y-82910537D01*
X175941185Y-82831185D01*
X176020537Y-82734494D01*
X176079502Y-82624180D01*
X176115812Y-82504482D01*
X176128072Y-82380000D01*
X176128072Y-80962500D01*
X180220497Y-80962500D01*
X180357744Y-81054205D01*
X180546102Y-81132226D01*
X180746061Y-81172000D01*
X180949939Y-81172000D01*
X181149898Y-81132226D01*
X181338256Y-81054205D01*
X181507774Y-80940937D01*
X181651937Y-80796774D01*
X181765205Y-80627256D01*
X181843226Y-80438898D01*
X181883000Y-80238939D01*
X181883000Y-80035061D01*
X181843226Y-79835102D01*
X181765205Y-79646744D01*
X181673500Y-79509497D01*
X181673500Y-79224281D01*
X185030096Y-76072952D01*
X185024193Y-76102627D01*
X185024193Y-76493637D01*
X185100475Y-76877135D01*
X185250108Y-77238382D01*
X185467342Y-77563496D01*
X185743829Y-77839983D01*
X186068943Y-78057217D01*
X186430190Y-78206850D01*
X186813688Y-78283132D01*
X187204698Y-78283132D01*
X187588196Y-78206850D01*
X187949443Y-78057217D01*
X188274557Y-77839983D01*
X188551044Y-77563496D01*
X188768278Y-77238382D01*
X188917911Y-76877135D01*
X188994193Y-76493637D01*
X188994193Y-76102627D01*
X188917911Y-75719129D01*
X188768278Y-75357882D01*
X188551044Y-75032768D01*
X188274557Y-74756281D01*
X187949443Y-74539047D01*
X187588196Y-74389414D01*
X187204698Y-74313132D01*
X186904544Y-74313132D01*
X190042589Y-71366990D01*
X190196624Y-71521025D01*
X190443940Y-71686276D01*
X190718742Y-71800103D01*
X191010471Y-71858132D01*
X191307915Y-71858132D01*
X191599644Y-71800103D01*
X191874446Y-71686276D01*
X192121762Y-71521025D01*
X192332086Y-71310701D01*
X192497337Y-71063385D01*
X192611164Y-70788583D01*
X192669193Y-70496854D01*
X192669193Y-70199410D01*
X192611164Y-69907681D01*
X192497337Y-69632879D01*
X192332086Y-69385563D01*
X192121762Y-69175239D01*
X191874446Y-69009988D01*
X191599644Y-68896161D01*
X191307915Y-68838132D01*
X191010471Y-68838132D01*
X190718742Y-68896161D01*
X190443940Y-69009988D01*
X190196624Y-69175239D01*
X189986300Y-69385563D01*
X189894736Y-69522599D01*
X189894243Y-69522632D01*
X189881204Y-69522632D01*
X189853781Y-69525333D01*
X189785658Y-69529880D01*
X189772994Y-69533289D01*
X189759931Y-69534576D01*
X189694567Y-69554404D01*
X189628640Y-69572153D01*
X189616880Y-69577970D01*
X189604323Y-69581779D01*
X189544095Y-69613972D01*
X189482886Y-69644248D01*
X189472485Y-69652248D01*
X189460915Y-69658433D01*
X189408128Y-69701754D01*
X189386297Y-69718547D01*
X189376793Y-69727470D01*
X189335216Y-69761591D01*
X189317648Y-69782998D01*
X180303037Y-78246338D01*
X180261460Y-78280459D01*
X180218144Y-78333240D01*
X180173172Y-78384644D01*
X180166622Y-78396019D01*
X180158302Y-78406158D01*
X180126123Y-78466360D01*
X180092035Y-78525565D01*
X180087831Y-78537998D01*
X180081648Y-78549566D01*
X180061827Y-78614906D01*
X180039951Y-78679607D01*
X180038254Y-78692618D01*
X180034445Y-78705174D01*
X180027752Y-78773132D01*
X180018919Y-78840850D01*
X180022501Y-78894517D01*
X180022501Y-79311500D01*
X176128933Y-79311500D01*
X176102356Y-79284924D01*
X176103513Y-79281111D01*
X176132185Y-78990000D01*
X176103513Y-78698889D01*
X176018599Y-78418966D01*
X175880706Y-78160986D01*
X175695134Y-77934866D01*
X175469014Y-77749294D01*
X175211034Y-77611401D01*
X174931111Y-77526487D01*
X174712950Y-77505000D01*
X174567050Y-77505000D01*
X174348889Y-77526487D01*
X174068966Y-77611401D01*
X173810986Y-77749294D01*
X173584866Y-77934866D01*
X173399294Y-78160986D01*
X173370000Y-78215791D01*
X173340706Y-78160986D01*
X173155134Y-77934866D01*
X172929014Y-77749294D01*
X172671034Y-77611401D01*
X172391111Y-77526487D01*
X172172950Y-77505000D01*
X172027050Y-77505000D01*
X171808889Y-77526487D01*
X171528966Y-77611401D01*
X171270986Y-77749294D01*
X171044866Y-77934866D01*
X170859294Y-78160986D01*
X170824799Y-78225523D01*
X170755178Y-78108645D01*
X170560269Y-77892412D01*
X170326920Y-77718359D01*
X170064099Y-77593175D01*
X169916890Y-77548524D01*
X169687000Y-77669845D01*
X169687000Y-78863000D01*
X169707000Y-78863000D01*
X169707000Y-79117000D01*
X169687000Y-79117000D01*
X169687000Y-79137000D01*
X169433000Y-79137000D01*
X169433000Y-79117000D01*
X168239186Y-79117000D01*
X168118519Y-79346891D01*
X168215843Y-79621252D01*
X168364822Y-79871355D01*
X168559731Y-80087588D01*
X168788756Y-80258416D01*
X168730986Y-80289294D01*
X168504866Y-80474866D01*
X168319294Y-80700986D01*
X168181401Y-80958966D01*
X168096487Y-81238889D01*
X168067815Y-81530000D01*
X168096487Y-81821111D01*
X168181401Y-82101034D01*
X168319294Y-82359014D01*
X168504866Y-82585134D01*
X168730986Y-82770706D01*
X168988966Y-82908599D01*
X169268889Y-82993513D01*
X169487050Y-83015000D01*
X169632950Y-83015000D01*
X169851111Y-82993513D01*
X170131034Y-82908599D01*
X170389014Y-82770706D01*
X170615134Y-82585134D01*
X170800706Y-82359014D01*
X170830000Y-82304209D01*
X170859294Y-82359014D01*
X171044866Y-82585134D01*
X171270986Y-82770706D01*
X171338000Y-82806526D01*
X171338001Y-84559567D01*
X171334314Y-84597000D01*
X171349027Y-84746378D01*
X171392599Y-84890015D01*
X171463355Y-85022392D01*
X171533402Y-85107744D01*
X171558579Y-85138422D01*
X171587649Y-85162279D01*
X172066000Y-85640631D01*
X172066000Y-85699939D01*
X172091014Y-85825695D01*
X168912595Y-85797386D01*
X169019256Y-85753205D01*
X169188774Y-85639937D01*
X169332937Y-85495774D01*
X169446205Y-85326256D01*
X169524226Y-85137898D01*
X169564000Y-84937939D01*
X169564000Y-84734061D01*
X169524226Y-84534102D01*
X169446205Y-84345744D01*
X169332937Y-84176226D01*
X169188774Y-84032063D01*
X169019256Y-83918795D01*
X168830898Y-83840774D01*
X168673689Y-83809504D01*
X166890771Y-81630382D01*
X166844566Y-81573440D01*
X166814435Y-81548432D01*
X166786780Y-81520693D01*
X166756814Y-81500606D01*
X166729066Y-81477575D01*
X166694633Y-81458924D01*
X166662100Y-81437116D01*
X166628800Y-81423264D01*
X166597084Y-81406085D01*
X166559668Y-81394508D01*
X166523511Y-81379468D01*
X166488148Y-81372379D01*
X166453690Y-81361717D01*
X166414740Y-81357663D01*
X166376338Y-81349964D01*
X166302943Y-81349854D01*
X131894513Y-81159004D01*
X131848673Y-81113164D01*
X131679155Y-80999896D01*
X131490797Y-80921875D01*
X131290838Y-80882101D01*
X131086960Y-80882101D01*
X130887001Y-80921875D01*
X130698643Y-80999896D01*
X130529125Y-81113164D01*
X130384962Y-81257327D01*
X130271694Y-81426845D01*
X130193673Y-81615203D01*
X130153899Y-81815162D01*
X113760000Y-81815162D01*
X113760000Y-79011598D01*
X113823000Y-79025000D01*
X114123000Y-79025000D01*
X114123000Y-78017000D01*
X114377000Y-78017000D01*
X114377000Y-79025000D01*
X114677000Y-79025000D01*
X114895987Y-78978415D01*
X115101678Y-78890003D01*
X115286169Y-78763161D01*
X115442369Y-78602764D01*
X115564276Y-78414976D01*
X115644119Y-78191874D01*
X116785881Y-78191874D01*
X116865724Y-78414976D01*
X116987631Y-78602764D01*
X117128206Y-78747116D01*
X117049259Y-78865269D01*
X116976892Y-79039978D01*
X116940000Y-79225448D01*
X116940000Y-79414552D01*
X116976892Y-79600022D01*
X117049259Y-79774731D01*
X117154319Y-79931964D01*
X117288036Y-80065681D01*
X117445269Y-80170741D01*
X117619978Y-80243108D01*
X117805448Y-80280000D01*
X117994552Y-80280000D01*
X118180022Y-80243108D01*
X118354731Y-80170741D01*
X118511964Y-80065681D01*
X118645681Y-79931964D01*
X118750741Y-79774731D01*
X118823108Y-79600022D01*
X118860000Y-79414552D01*
X118860000Y-79225448D01*
X118823108Y-79039978D01*
X118816904Y-79025000D01*
X119107000Y-79025000D01*
X119325987Y-78978415D01*
X119531678Y-78890003D01*
X119716169Y-78763161D01*
X119842818Y-78633109D01*
X168118519Y-78633109D01*
X168239186Y-78863000D01*
X169433000Y-78863000D01*
X169433000Y-77669845D01*
X169203110Y-77548524D01*
X169055901Y-77593175D01*
X168793080Y-77718359D01*
X168559731Y-77892412D01*
X168364822Y-78108645D01*
X168215843Y-78358748D01*
X168118519Y-78633109D01*
X119842818Y-78633109D01*
X119872369Y-78602764D01*
X119994276Y-78414976D01*
X120074119Y-78191874D01*
X119947954Y-78017000D01*
X118557000Y-78017000D01*
X118557000Y-78037000D01*
X118303000Y-78037000D01*
X118303000Y-78017000D01*
X116912046Y-78017000D01*
X116785881Y-78191874D01*
X115644119Y-78191874D01*
X115517954Y-78017000D01*
X114377000Y-78017000D01*
X114123000Y-78017000D01*
X114103000Y-78017000D01*
X114103000Y-77763000D01*
X114123000Y-77763000D01*
X114123000Y-77743000D01*
X114377000Y-77743000D01*
X114377000Y-77763000D01*
X115517954Y-77763000D01*
X115644119Y-77588126D01*
X116785881Y-77588126D01*
X116912046Y-77763000D01*
X118303000Y-77763000D01*
X118303000Y-76755000D01*
X118557000Y-76755000D01*
X118557000Y-77763000D01*
X119947954Y-77763000D01*
X120074119Y-77588126D01*
X119994276Y-77365024D01*
X119872369Y-77177236D01*
X119716169Y-77016839D01*
X119531678Y-76889997D01*
X119325987Y-76801585D01*
X119107000Y-76755000D01*
X118557000Y-76755000D01*
X118303000Y-76755000D01*
X117753000Y-76755000D01*
X117534013Y-76801585D01*
X117328322Y-76889997D01*
X117143831Y-77016839D01*
X116987631Y-77177236D01*
X116865724Y-77365024D01*
X116785881Y-77588126D01*
X115644119Y-77588126D01*
X115564276Y-77365024D01*
X115442369Y-77177236D01*
X115286169Y-77016839D01*
X115101678Y-76889997D01*
X114895987Y-76801585D01*
X114756122Y-76771832D01*
X114756851Y-76764400D01*
X114756851Y-76764392D01*
X114760000Y-76732419D01*
X114760000Y-76102627D01*
X119824193Y-76102627D01*
X119824193Y-76493637D01*
X119900475Y-76877135D01*
X120050108Y-77238382D01*
X120267342Y-77563496D01*
X120543829Y-77839983D01*
X120868943Y-78057217D01*
X121230190Y-78206850D01*
X121613688Y-78283132D01*
X122004698Y-78283132D01*
X122388196Y-78206850D01*
X122749443Y-78057217D01*
X123074557Y-77839983D01*
X123351044Y-77563496D01*
X123568278Y-77238382D01*
X123717911Y-76877135D01*
X123794193Y-76493637D01*
X123794193Y-76102627D01*
X123717911Y-75719129D01*
X123568278Y-75357882D01*
X123351044Y-75032768D01*
X123074557Y-74756281D01*
X122749443Y-74539047D01*
X122388196Y-74389414D01*
X122004698Y-74313132D01*
X121613688Y-74313132D01*
X121230190Y-74389414D01*
X120868943Y-74539047D01*
X120543829Y-74756281D01*
X120267342Y-75032768D01*
X120050108Y-75357882D01*
X119900475Y-75719129D01*
X119824193Y-76102627D01*
X114760000Y-76102627D01*
X114760000Y-73699410D01*
X116149193Y-73699410D01*
X116149193Y-73996854D01*
X116207222Y-74288583D01*
X116321049Y-74563385D01*
X116486300Y-74810701D01*
X116696624Y-75021025D01*
X116943940Y-75186276D01*
X117218742Y-75300103D01*
X117510471Y-75358132D01*
X117807915Y-75358132D01*
X118099644Y-75300103D01*
X118374446Y-75186276D01*
X118621762Y-75021025D01*
X118832086Y-74810701D01*
X118997337Y-74563385D01*
X119111164Y-74288583D01*
X119169193Y-73996854D01*
X119169193Y-73699410D01*
X119111164Y-73407681D01*
X118997337Y-73132879D01*
X118832086Y-72885563D01*
X118621762Y-72675239D01*
X118374446Y-72509988D01*
X118099644Y-72396161D01*
X117807915Y-72338132D01*
X117510471Y-72338132D01*
X117218742Y-72396161D01*
X116943940Y-72509988D01*
X116696624Y-72675239D01*
X116486300Y-72885563D01*
X116321049Y-73132879D01*
X116207222Y-73407681D01*
X116149193Y-73699410D01*
X114760000Y-73699410D01*
X114760000Y-71223132D01*
X116146121Y-71223132D01*
X116158381Y-71347614D01*
X116194691Y-71467312D01*
X116253656Y-71577626D01*
X116333008Y-71674317D01*
X116429699Y-71753669D01*
X116540013Y-71812634D01*
X116659711Y-71848944D01*
X116784193Y-71861204D01*
X117373443Y-71858132D01*
X117532193Y-71699382D01*
X117532193Y-70475132D01*
X117786193Y-70475132D01*
X117786193Y-71699382D01*
X117944943Y-71858132D01*
X118534193Y-71861204D01*
X118658675Y-71848944D01*
X118778373Y-71812634D01*
X118888687Y-71753669D01*
X118985378Y-71674317D01*
X119064730Y-71577626D01*
X119123695Y-71467312D01*
X119160005Y-71347614D01*
X119172265Y-71223132D01*
X119169193Y-70633882D01*
X119010443Y-70475132D01*
X117786193Y-70475132D01*
X117532193Y-70475132D01*
X116307943Y-70475132D01*
X116149193Y-70633882D01*
X116146121Y-71223132D01*
X114760000Y-71223132D01*
X114760000Y-69473132D01*
X116146121Y-69473132D01*
X116149193Y-70062382D01*
X116307943Y-70221132D01*
X117532193Y-70221132D01*
X117532193Y-68996882D01*
X117786193Y-68996882D01*
X117786193Y-70221132D01*
X119010443Y-70221132D01*
X119169193Y-70062382D01*
X119172265Y-69473132D01*
X119160005Y-69348650D01*
X119123695Y-69228952D01*
X119064730Y-69118638D01*
X118985378Y-69021947D01*
X118888687Y-68942595D01*
X118778373Y-68883630D01*
X118658675Y-68847320D01*
X118534193Y-68835060D01*
X117944943Y-68838132D01*
X117786193Y-68996882D01*
X117532193Y-68996882D01*
X117373443Y-68838132D01*
X116784193Y-68835060D01*
X116659711Y-68847320D01*
X116540013Y-68883630D01*
X116429699Y-68942595D01*
X116333008Y-69021947D01*
X116253656Y-69118638D01*
X116194691Y-69228952D01*
X116158381Y-69348650D01*
X116146121Y-69473132D01*
X114760000Y-69473132D01*
X114760000Y-67232279D01*
X114769580Y-67134576D01*
X114788580Y-67071644D01*
X114819445Y-67013595D01*
X114860989Y-66962657D01*
X114911644Y-66920752D01*
X114969471Y-66889485D01*
X115032272Y-66870044D01*
X115127835Y-66860000D01*
X121315511Y-66860000D01*
X121250108Y-66957882D01*
X121250108Y-66957882D01*
G37*
X121250108Y-66957882D02*
X121100475Y-67319129D01*
X121024193Y-67702627D01*
X121024193Y-68093637D01*
X121100475Y-68477135D01*
X121250108Y-68838382D01*
X121467342Y-69163496D01*
X121743829Y-69439983D01*
X122068943Y-69657217D01*
X122430190Y-69806850D01*
X122813688Y-69883132D01*
X123204698Y-69883132D01*
X123588196Y-69806850D01*
X123949443Y-69657217D01*
X124274557Y-69439983D01*
X124551044Y-69163496D01*
X124768278Y-68838382D01*
X124917911Y-68477135D01*
X124994193Y-68093637D01*
X124994193Y-67702627D01*
X124917911Y-67319129D01*
X124768278Y-66957882D01*
X124702875Y-66860000D01*
X184115511Y-66860000D01*
X184050108Y-66957882D01*
X183900475Y-67319129D01*
X183824193Y-67702627D01*
X183824193Y-68093637D01*
X183900475Y-68477135D01*
X184050108Y-68838382D01*
X184267342Y-69163496D01*
X184543829Y-69439983D01*
X184868943Y-69657217D01*
X185230190Y-69806850D01*
X185613688Y-69883132D01*
X186004698Y-69883132D01*
X186388196Y-69806850D01*
X186749443Y-69657217D01*
X187074557Y-69439983D01*
X187351044Y-69163496D01*
X187568278Y-68838382D01*
X187717911Y-68477135D01*
X187794193Y-68093637D01*
X187794193Y-67702627D01*
X187717911Y-67319129D01*
X187568278Y-66957882D01*
X187502875Y-66860000D01*
X194067721Y-66860000D01*
X194165424Y-66869580D01*
X194228356Y-66888580D01*
X194286405Y-66919445D01*
X194337343Y-66960989D01*
X194379248Y-67011644D01*
X194410515Y-67069471D01*
X194429956Y-67132272D01*
X194440000Y-67227835D01*
X194440001Y-119867711D01*
X194430420Y-119965424D01*
X194411420Y-120028357D01*
X194380554Y-120086406D01*
X194339011Y-120137343D01*
X194288356Y-120179248D01*
X194230529Y-120210515D01*
X194167728Y-120229956D01*
X194072165Y-120240000D01*
X103862066Y-120240000D01*
X103961105Y-120220300D01*
X104258656Y-120097050D01*
X104526445Y-119918119D01*
X104754180Y-119690384D01*
X104933111Y-119422595D01*
X105056361Y-119125044D01*
X105119193Y-118809165D01*
X105119193Y-118487099D01*
X105056361Y-118171220D01*
X104933111Y-117873669D01*
X104754180Y-117605880D01*
X104526445Y-117378145D01*
X104258656Y-117199214D01*
X103961105Y-117075964D01*
X103645226Y-117013132D01*
X103323160Y-117013132D01*
X103007281Y-117075964D01*
X102709730Y-117199214D01*
X102441941Y-117378145D01*
X102214206Y-117605880D01*
X102149268Y-117703067D01*
X102119606Y-117692324D01*
X101163798Y-118648132D01*
X102119606Y-119603940D01*
X102149268Y-119593197D01*
X102214206Y-119690384D01*
X102441941Y-119918119D01*
X102709730Y-120097050D01*
X103007281Y-120220300D01*
X103106320Y-120240000D01*
X101383505Y-120240000D01*
X101670281Y-120140927D01*
X101844237Y-120047946D01*
X101940001Y-119783545D01*
X100984193Y-118827737D01*
X100970051Y-118841880D01*
X100790446Y-118662275D01*
X100804588Y-118648132D01*
X100790446Y-118633990D01*
X100970051Y-118454385D01*
X100984193Y-118468527D01*
X101940001Y-117512719D01*
X101844237Y-117248318D01*
X101554622Y-117107428D01*
X101243085Y-117025748D01*
X100921598Y-117006414D01*
X100602518Y-117050171D01*
X100298105Y-117155337D01*
X100124149Y-117248318D01*
X100070169Y-117397355D01*
X100014730Y-117293638D01*
X99935378Y-117196947D01*
X99838687Y-117117595D01*
X99728373Y-117058630D01*
X99608675Y-117022320D01*
X99484193Y-117010060D01*
X97484193Y-117010060D01*
X97359711Y-117022320D01*
X97240013Y-117058630D01*
X97129699Y-117117595D01*
X97033008Y-117196947D01*
X96953656Y-117293638D01*
X96894691Y-117403952D01*
X96858381Y-117523650D01*
X96846121Y-117648132D01*
X96846121Y-119648132D01*
X96858381Y-119772614D01*
X96894691Y-119892312D01*
X96953656Y-120002626D01*
X97033008Y-120099317D01*
X97129699Y-120178669D01*
X97240013Y-120237634D01*
X97247813Y-120240000D01*
X94732279Y-120240000D01*
X94634576Y-120230420D01*
X94571643Y-120211420D01*
X94513594Y-120180554D01*
X94462657Y-120139011D01*
X94420752Y-120088356D01*
X94389485Y-120030529D01*
X94370044Y-119967728D01*
X94360000Y-119872165D01*
X94360000Y-114298061D01*
X109765000Y-114298061D01*
X109765000Y-114501939D01*
X109804774Y-114701898D01*
X109882795Y-114890256D01*
X109996063Y-115059774D01*
X110140226Y-115203937D01*
X110309744Y-115317205D01*
X110498102Y-115395226D01*
X110698061Y-115435000D01*
X110901939Y-115435000D01*
X111101898Y-115395226D01*
X111290256Y-115317205D01*
X111459774Y-115203937D01*
X111603937Y-115059774D01*
X111717205Y-114890256D01*
X111795226Y-114701898D01*
X111835000Y-114501939D01*
X111835000Y-114442630D01*
X119032945Y-107244686D01*
X118806477Y-107497085D01*
X118652751Y-107706546D01*
X118506094Y-108020688D01*
X118423542Y-108357406D01*
X118408266Y-108703758D01*
X118460854Y-109046436D01*
X118579284Y-109372271D01*
X118742068Y-109640798D01*
X118463742Y-109696161D01*
X118188940Y-109809988D01*
X117941624Y-109975239D01*
X117731300Y-110185563D01*
X117566049Y-110432879D01*
X117452222Y-110707681D01*
X117394193Y-110999410D01*
X117394193Y-111296854D01*
X117452222Y-111588583D01*
X117566049Y-111863385D01*
X117731300Y-112110701D01*
X117941624Y-112321025D01*
X118188940Y-112486276D01*
X118463742Y-112600103D01*
X118755471Y-112658132D01*
X119052915Y-112658132D01*
X119344644Y-112600103D01*
X119619446Y-112486276D01*
X119866762Y-112321025D01*
X120077086Y-112110701D01*
X120242337Y-111863385D01*
X120356164Y-111588583D01*
X120414193Y-111296854D01*
X120414193Y-110999410D01*
X120392273Y-110889208D01*
X121355293Y-110889208D01*
X121355293Y-111407056D01*
X121456320Y-111914954D01*
X121654492Y-112393383D01*
X121942193Y-112823958D01*
X122308367Y-113190132D01*
X122738942Y-113477833D01*
X123217371Y-113676005D01*
X123725269Y-113777032D01*
X124243117Y-113777032D01*
X124751015Y-113676005D01*
X125229444Y-113477833D01*
X125660019Y-113190132D01*
X126026193Y-112823958D01*
X126313894Y-112393383D01*
X126512066Y-111914954D01*
X126613093Y-111407056D01*
X126613093Y-110889208D01*
X126512066Y-110381310D01*
X126313894Y-109902881D01*
X126026193Y-109472306D01*
X125660019Y-109106132D01*
X125229444Y-108818431D01*
X124751015Y-108620259D01*
X124243117Y-108519232D01*
X123725269Y-108519232D01*
X123217371Y-108620259D01*
X122738942Y-108818431D01*
X122308367Y-109106132D01*
X121942193Y-109472306D01*
X121654492Y-109902881D01*
X121456320Y-110381310D01*
X121355293Y-110889208D01*
X120392273Y-110889208D01*
X120356164Y-110707681D01*
X120242337Y-110432879D01*
X120201007Y-110371024D01*
X120269819Y-110374059D01*
X120612497Y-110321471D01*
X120938332Y-110203041D01*
X121234800Y-110023319D01*
X121426436Y-109847874D01*
X122762393Y-108358948D01*
X122851274Y-108270067D01*
X122926020Y-108158202D01*
X123005637Y-108049719D01*
X123022172Y-108014301D01*
X123043885Y-107981805D01*
X123095368Y-107857514D01*
X123152294Y-107735577D01*
X123161603Y-107697608D01*
X123176557Y-107661505D01*
X123202803Y-107529558D01*
X123234846Y-107398859D01*
X123236568Y-107359809D01*
X123244193Y-107321477D01*
X123244193Y-107186934D01*
X123250122Y-107052506D01*
X123244193Y-107013871D01*
X123244193Y-106974787D01*
X123217944Y-106842823D01*
X123197534Y-106709828D01*
X123184182Y-106673093D01*
X123176557Y-106634759D01*
X123125067Y-106510452D01*
X123079104Y-106383993D01*
X123058843Y-106350570D01*
X123043885Y-106314459D01*
X122969128Y-106202578D01*
X122899382Y-106087525D01*
X122872991Y-106058698D01*
X122851274Y-106026197D01*
X122756127Y-105931050D01*
X122665276Y-105831815D01*
X122633768Y-105808691D01*
X122606128Y-105781051D01*
X122494243Y-105706291D01*
X122385781Y-105626690D01*
X122350369Y-105610158D01*
X122317866Y-105588440D01*
X122193546Y-105536945D01*
X122071639Y-105480033D01*
X122033679Y-105470727D01*
X121997566Y-105455768D01*
X121865581Y-105429514D01*
X121734921Y-105397481D01*
X121695882Y-105395759D01*
X121657538Y-105388132D01*
X121522951Y-105388132D01*
X121388568Y-105382205D01*
X121349946Y-105388132D01*
X121310848Y-105388132D01*
X121178837Y-105414391D01*
X121045890Y-105434793D01*
X121009169Y-105448140D01*
X120970820Y-105455768D01*
X120846462Y-105507279D01*
X120726893Y-105550738D01*
X121353509Y-104924122D01*
X125179187Y-104924122D01*
X125157112Y-104946197D01*
X125142654Y-104967835D01*
X125124812Y-104986755D01*
X125046503Y-105111734D01*
X124964501Y-105234459D01*
X124954541Y-105258504D01*
X124940734Y-105280540D01*
X124888312Y-105418396D01*
X124831829Y-105554759D01*
X124826752Y-105580284D01*
X124817509Y-105604590D01*
X124792987Y-105750030D01*
X124764193Y-105894787D01*
X124764193Y-106007518D01*
X124722416Y-106613289D01*
X124730033Y-106872994D01*
X124807606Y-107210893D01*
X124949612Y-107527166D01*
X125150589Y-107809658D01*
X125402817Y-108047513D01*
X125696601Y-108231591D01*
X126020652Y-108354816D01*
X126362516Y-108412456D01*
X126709055Y-108402292D01*
X127046954Y-108324719D01*
X127071934Y-108313503D01*
X128504134Y-109745704D01*
X128348940Y-109809988D01*
X128101624Y-109975239D01*
X127891300Y-110185563D01*
X127726049Y-110432879D01*
X127612222Y-110707681D01*
X127554193Y-110999410D01*
X127554193Y-111296854D01*
X127612222Y-111588583D01*
X127726049Y-111863385D01*
X127891300Y-112110701D01*
X128101624Y-112321025D01*
X128348940Y-112486276D01*
X128623742Y-112600103D01*
X128915471Y-112658132D01*
X129212915Y-112658132D01*
X129504644Y-112600103D01*
X129779446Y-112486276D01*
X130020812Y-112325000D01*
X130551928Y-112325000D01*
X130551928Y-113225000D01*
X130564188Y-113349482D01*
X130600498Y-113469180D01*
X130659463Y-113579494D01*
X130738815Y-113676185D01*
X130835506Y-113755537D01*
X130945820Y-113814502D01*
X131065518Y-113850812D01*
X131128006Y-113856966D01*
X131153355Y-113904392D01*
X131224721Y-113991351D01*
X131248579Y-114020422D01*
X131277649Y-114044279D01*
X133315716Y-116082346D01*
X133339578Y-116111422D01*
X133413219Y-116171857D01*
X133455607Y-116206645D01*
X133526364Y-116244465D01*
X133587985Y-116277402D01*
X133731622Y-116320974D01*
X133843574Y-116332000D01*
X133843577Y-116332000D01*
X133881000Y-116335686D01*
X133918423Y-116332000D01*
X154751577Y-116332000D01*
X154789000Y-116335686D01*
X154826423Y-116332000D01*
X172936575Y-116332000D01*
X172974000Y-116335686D01*
X173123378Y-116320974D01*
X173189223Y-116301000D01*
X186815077Y-116301000D01*
X186852500Y-116304686D01*
X186889923Y-116301000D01*
X186889926Y-116301000D01*
X187001878Y-116289974D01*
X187145515Y-116246402D01*
X187277892Y-116175645D01*
X187393922Y-116080422D01*
X187417784Y-116051346D01*
X189424852Y-114044279D01*
X189453922Y-114020422D01*
X189481272Y-113987096D01*
X189549145Y-113904393D01*
X189574495Y-113856966D01*
X189636982Y-113850812D01*
X189756680Y-113814502D01*
X189866994Y-113755537D01*
X189963685Y-113676185D01*
X189979623Y-113656764D01*
X189973000Y-113690061D01*
X189973000Y-113893939D01*
X190012774Y-114093898D01*
X190090795Y-114282256D01*
X190204063Y-114451774D01*
X190348226Y-114595937D01*
X190517744Y-114709205D01*
X190706102Y-114787226D01*
X190906061Y-114827000D01*
X191109939Y-114827000D01*
X191309898Y-114787226D01*
X191498256Y-114709205D01*
X191667774Y-114595937D01*
X191811937Y-114451774D01*
X191925205Y-114282256D01*
X192003226Y-114093898D01*
X192043000Y-113893939D01*
X192043000Y-113690061D01*
X192003226Y-113490102D01*
X191925205Y-113301744D01*
X191811937Y-113132226D01*
X191770000Y-113090289D01*
X191770000Y-106606024D01*
X191773049Y-106584226D01*
X191770000Y-106531153D01*
X191770000Y-106515574D01*
X191767852Y-106493766D01*
X191764440Y-106434372D01*
X191760510Y-106419216D01*
X191758974Y-106403622D01*
X191741697Y-106346669D01*
X191726763Y-106289077D01*
X191719949Y-106274973D01*
X191715402Y-106259985D01*
X191687356Y-106207514D01*
X191661464Y-106153925D01*
X191652027Y-106141419D01*
X191644645Y-106127608D01*
X191606898Y-106081613D01*
X191593704Y-106064128D01*
X191583150Y-106052675D01*
X191549422Y-106011578D01*
X191532407Y-105997615D01*
X186074000Y-100074663D01*
X186074000Y-99974061D01*
X186034226Y-99774102D01*
X185956205Y-99585744D01*
X185842937Y-99416226D01*
X185698774Y-99272063D01*
X185529256Y-99158795D01*
X185340898Y-99080774D01*
X185140939Y-99041000D01*
X184937061Y-99041000D01*
X184737102Y-99080774D01*
X184548744Y-99158795D01*
X184379226Y-99272063D01*
X184235063Y-99416226D01*
X184121795Y-99585744D01*
X184043774Y-99774102D01*
X184004000Y-99974061D01*
X184004000Y-100177939D01*
X184043774Y-100377898D01*
X184121795Y-100566256D01*
X184235063Y-100735774D01*
X184379226Y-100879937D01*
X184548744Y-100993205D01*
X184737102Y-101071226D01*
X184937061Y-101111000D01*
X184956591Y-101111000D01*
X190246000Y-106850572D01*
X190246001Y-113090288D01*
X190204063Y-113132226D01*
X190150572Y-113212281D01*
X190150572Y-112325000D01*
X190138312Y-112200518D01*
X190102002Y-112080820D01*
X190043037Y-111970506D01*
X189963685Y-111873815D01*
X189866994Y-111794463D01*
X189756680Y-111735498D01*
X189636982Y-111699188D01*
X189512500Y-111686928D01*
X188312500Y-111686928D01*
X188188018Y-111699188D01*
X188068320Y-111735498D01*
X187958006Y-111794463D01*
X187861315Y-111873815D01*
X187781963Y-111970506D01*
X187722998Y-112080820D01*
X187686688Y-112200518D01*
X187674428Y-112325000D01*
X187674428Y-113225000D01*
X187686688Y-113349482D01*
X187722998Y-113469180D01*
X187765387Y-113548483D01*
X186536870Y-114777000D01*
X173736000Y-114777000D01*
X173736000Y-110999410D01*
X174544193Y-110999410D01*
X174544193Y-111296854D01*
X174602222Y-111588583D01*
X174716049Y-111863385D01*
X174881300Y-112110701D01*
X175091624Y-112321025D01*
X175338940Y-112486276D01*
X175613742Y-112600103D01*
X175905471Y-112658132D01*
X176202915Y-112658132D01*
X176494644Y-112600103D01*
X176769446Y-112486276D01*
X177016762Y-112321025D01*
X177227086Y-112110701D01*
X177392337Y-111863385D01*
X177506164Y-111588583D01*
X177564193Y-111296854D01*
X177564193Y-110999410D01*
X177542273Y-110889208D01*
X178505293Y-110889208D01*
X178505293Y-111407056D01*
X178606320Y-111914954D01*
X178804492Y-112393383D01*
X179092193Y-112823958D01*
X179458367Y-113190132D01*
X179888942Y-113477833D01*
X180367371Y-113676005D01*
X180875269Y-113777032D01*
X181393117Y-113777032D01*
X181901015Y-113676005D01*
X182379444Y-113477833D01*
X182810019Y-113190132D01*
X183176193Y-112823958D01*
X183463894Y-112393383D01*
X183662066Y-111914954D01*
X183763093Y-111407056D01*
X183763093Y-110889208D01*
X183662066Y-110381310D01*
X183463894Y-109902881D01*
X183176193Y-109472306D01*
X182810019Y-109106132D01*
X182379444Y-108818431D01*
X181901015Y-108620259D01*
X181393117Y-108519232D01*
X180875269Y-108519232D01*
X180367371Y-108620259D01*
X179888942Y-108818431D01*
X179458367Y-109106132D01*
X179092193Y-109472306D01*
X178804492Y-109902881D01*
X178606320Y-110381310D01*
X178505293Y-110889208D01*
X177542273Y-110889208D01*
X177506164Y-110707681D01*
X177392337Y-110432879D01*
X177351007Y-110371024D01*
X177419819Y-110374059D01*
X177762497Y-110321471D01*
X178088332Y-110203041D01*
X178384800Y-110023319D01*
X178576436Y-109847874D01*
X179912393Y-108358948D01*
X180001274Y-108270067D01*
X180076020Y-108158202D01*
X180155637Y-108049719D01*
X180172172Y-108014301D01*
X180193885Y-107981805D01*
X180245368Y-107857514D01*
X180302294Y-107735577D01*
X180311603Y-107697608D01*
X180326557Y-107661505D01*
X180352803Y-107529558D01*
X180384846Y-107398859D01*
X180386568Y-107359809D01*
X180394193Y-107321477D01*
X180394193Y-107186934D01*
X180400122Y-107052506D01*
X180394193Y-107013871D01*
X180394193Y-106974787D01*
X180367944Y-106842823D01*
X180347534Y-106709828D01*
X180334182Y-106673093D01*
X180326557Y-106634759D01*
X180317664Y-106613289D01*
X181872416Y-106613289D01*
X181880033Y-106872994D01*
X181957606Y-107210893D01*
X182099612Y-107527166D01*
X182300589Y-107809658D01*
X182552817Y-108047513D01*
X182846601Y-108231591D01*
X183170652Y-108354816D01*
X183512516Y-108412456D01*
X183859055Y-108402292D01*
X184196954Y-108324719D01*
X184513227Y-108182713D01*
X184628870Y-108100439D01*
X186166562Y-109638132D01*
X186065471Y-109638132D01*
X185773742Y-109696161D01*
X185498940Y-109809988D01*
X185251624Y-109975239D01*
X185041300Y-110185563D01*
X184876049Y-110432879D01*
X184762222Y-110707681D01*
X184704193Y-110999410D01*
X184704193Y-111296854D01*
X184762222Y-111588583D01*
X184876049Y-111863385D01*
X185041300Y-112110701D01*
X185251624Y-112321025D01*
X185498940Y-112486276D01*
X185773742Y-112600103D01*
X186065471Y-112658132D01*
X186362915Y-112658132D01*
X186654644Y-112600103D01*
X186929446Y-112486276D01*
X187176762Y-112321025D01*
X187387086Y-112110701D01*
X187552337Y-111863385D01*
X187666164Y-111588583D01*
X187724193Y-111296854D01*
X187724193Y-110999410D01*
X187666164Y-110707681D01*
X187552337Y-110432879D01*
X187421455Y-110237000D01*
X187759249Y-110237000D01*
X187781963Y-110279494D01*
X187861315Y-110376185D01*
X187958006Y-110455537D01*
X188068320Y-110514502D01*
X188188018Y-110550812D01*
X188312500Y-110563072D01*
X189512500Y-110563072D01*
X189636982Y-110550812D01*
X189756680Y-110514502D01*
X189866994Y-110455537D01*
X189963685Y-110376185D01*
X190043037Y-110279494D01*
X190102002Y-110169180D01*
X190138312Y-110049482D01*
X190150572Y-109925000D01*
X190150572Y-109025000D01*
X190138312Y-108900518D01*
X190102002Y-108780820D01*
X190043037Y-108670506D01*
X189963685Y-108573815D01*
X189866994Y-108494463D01*
X189756680Y-108435498D01*
X189636982Y-108399188D01*
X189512500Y-108386928D01*
X188312500Y-108386928D01*
X188188018Y-108399188D01*
X188068320Y-108435498D01*
X187958006Y-108494463D01*
X187861315Y-108573815D01*
X187781963Y-108670506D01*
X187759249Y-108713000D01*
X187396692Y-108713000D01*
X185394080Y-106710388D01*
X185422292Y-106301307D01*
X185434193Y-106241477D01*
X185434193Y-106128743D01*
X185435970Y-106102976D01*
X185434193Y-106042388D01*
X185434193Y-105894787D01*
X185429115Y-105869260D01*
X185428353Y-105843269D01*
X185395352Y-105699519D01*
X185366557Y-105554759D01*
X185356600Y-105530720D01*
X185350780Y-105505370D01*
X185290370Y-105370826D01*
X185233885Y-105234459D01*
X185219423Y-105212815D01*
X185208774Y-105189098D01*
X185123289Y-105068941D01*
X185041274Y-104946197D01*
X185022871Y-104927794D01*
X185007797Y-104906606D01*
X184900504Y-104805427D01*
X184796128Y-104701051D01*
X184774487Y-104686591D01*
X184755569Y-104668751D01*
X184630600Y-104590448D01*
X184507866Y-104508440D01*
X184483821Y-104498480D01*
X184461785Y-104484673D01*
X184323933Y-104432253D01*
X184187566Y-104375768D01*
X184162039Y-104370690D01*
X184137734Y-104361448D01*
X183992301Y-104336927D01*
X183847538Y-104308132D01*
X183821516Y-104308132D01*
X183795870Y-104303808D01*
X183648430Y-104308132D01*
X183500848Y-104308132D01*
X183475326Y-104313209D01*
X183449331Y-104313971D01*
X183305568Y-104346976D01*
X183160820Y-104375768D01*
X183136780Y-104385726D01*
X183111432Y-104391545D01*
X182976882Y-104451957D01*
X182840520Y-104508440D01*
X182818880Y-104522899D01*
X182795159Y-104533550D01*
X182674989Y-104619045D01*
X182552258Y-104701051D01*
X182533855Y-104719454D01*
X182512667Y-104734528D01*
X182411481Y-104841828D01*
X182307112Y-104946197D01*
X182292654Y-104967835D01*
X182274812Y-104986755D01*
X182196503Y-105111734D01*
X182114501Y-105234459D01*
X182104541Y-105258504D01*
X182090734Y-105280540D01*
X182038312Y-105418396D01*
X181981829Y-105554759D01*
X181976752Y-105580284D01*
X181967509Y-105604590D01*
X181942987Y-105750030D01*
X181914193Y-105894787D01*
X181914193Y-106007518D01*
X181872416Y-106613289D01*
X180317664Y-106613289D01*
X180275067Y-106510452D01*
X180229104Y-106383993D01*
X180208843Y-106350570D01*
X180193885Y-106314459D01*
X180119128Y-106202578D01*
X180049382Y-106087525D01*
X180022991Y-106058698D01*
X180001274Y-106026197D01*
X179906127Y-105931050D01*
X179815276Y-105831815D01*
X179783768Y-105808691D01*
X179756128Y-105781051D01*
X179644243Y-105706291D01*
X179535781Y-105626690D01*
X179500369Y-105610158D01*
X179467866Y-105588440D01*
X179343546Y-105536945D01*
X179221639Y-105480033D01*
X179183679Y-105470727D01*
X179147566Y-105455768D01*
X179015581Y-105429514D01*
X178884921Y-105397481D01*
X178845882Y-105395759D01*
X178807538Y-105388132D01*
X178672951Y-105388132D01*
X178538568Y-105382205D01*
X178499946Y-105388132D01*
X178460848Y-105388132D01*
X178328837Y-105414391D01*
X178195890Y-105434793D01*
X178159169Y-105448140D01*
X178120820Y-105455768D01*
X177996462Y-105507279D01*
X177870056Y-105553223D01*
X177836647Y-105573476D01*
X177800520Y-105588440D01*
X177688593Y-105663227D01*
X177573587Y-105732945D01*
X177544771Y-105759327D01*
X177512258Y-105781051D01*
X177417080Y-105876229D01*
X177381951Y-105908390D01*
X177356030Y-105937279D01*
X177267112Y-106026197D01*
X177240466Y-106066075D01*
X175956477Y-107497085D01*
X175802751Y-107706546D01*
X175656094Y-108020688D01*
X175573542Y-108357406D01*
X175558266Y-108703758D01*
X175610854Y-109046436D01*
X175729284Y-109372271D01*
X175892068Y-109640798D01*
X175613742Y-109696161D01*
X175338940Y-109809988D01*
X175091624Y-109975239D01*
X174881300Y-110185563D01*
X174716049Y-110432879D01*
X174602222Y-110707681D01*
X174544193Y-110999410D01*
X173736000Y-110999410D01*
X173736000Y-105378107D01*
X173739686Y-105340684D01*
X173733762Y-105280540D01*
X173724974Y-105191307D01*
X173681402Y-105047670D01*
X173610645Y-104915293D01*
X173515422Y-104799263D01*
X173486353Y-104775407D01*
X169471100Y-100760155D01*
X169524226Y-100631898D01*
X169564000Y-100431939D01*
X169564000Y-100228061D01*
X169524226Y-100028102D01*
X169446205Y-99839744D01*
X169332937Y-99670226D01*
X169188774Y-99526063D01*
X169019256Y-99412795D01*
X168830898Y-99334774D01*
X168630939Y-99295000D01*
X168427061Y-99295000D01*
X168227102Y-99334774D01*
X168038744Y-99412795D01*
X167869226Y-99526063D01*
X167725063Y-99670226D01*
X167611795Y-99839744D01*
X167533774Y-100028102D01*
X167494000Y-100228061D01*
X167494000Y-100431939D01*
X167533774Y-100631898D01*
X167611795Y-100820256D01*
X167725063Y-100989774D01*
X167777772Y-101042483D01*
X167778026Y-101045063D01*
X167821598Y-101188700D01*
X167852870Y-101247205D01*
X167892355Y-101321077D01*
X167963721Y-101408036D01*
X167987579Y-101437107D01*
X168016649Y-101460964D01*
X172212000Y-105656316D01*
X172212001Y-113699370D01*
X171298072Y-112785442D01*
X171298072Y-112325000D01*
X171285812Y-112200518D01*
X171249502Y-112080820D01*
X171190537Y-111970506D01*
X171111185Y-111873815D01*
X171014494Y-111794463D01*
X170904180Y-111735498D01*
X170784482Y-111699188D01*
X170660000Y-111686928D01*
X169460000Y-111686928D01*
X169335518Y-111699188D01*
X169215820Y-111735498D01*
X169105506Y-111794463D01*
X169008815Y-111873815D01*
X168929463Y-111970506D01*
X168870498Y-112080820D01*
X168834188Y-112200518D01*
X168821928Y-112325000D01*
X168821928Y-113225000D01*
X168834188Y-113349482D01*
X168870498Y-113469180D01*
X168929463Y-113579494D01*
X169008815Y-113676185D01*
X169105506Y-113755537D01*
X169215820Y-113814502D01*
X169335518Y-113850812D01*
X169460000Y-113863072D01*
X170220442Y-113863072D01*
X171165369Y-114808000D01*
X155104631Y-114808000D01*
X152559284Y-112262654D01*
X152535422Y-112233578D01*
X152419392Y-112138355D01*
X152332937Y-112092144D01*
X152329502Y-112080820D01*
X152270537Y-111970506D01*
X152191185Y-111873815D01*
X152094494Y-111794463D01*
X151984180Y-111735498D01*
X151864482Y-111699188D01*
X151740000Y-111686928D01*
X150540000Y-111686928D01*
X150415518Y-111699188D01*
X150295820Y-111735498D01*
X150185506Y-111794463D01*
X150088815Y-111873815D01*
X150009463Y-111970506D01*
X149950498Y-112080820D01*
X149914188Y-112200518D01*
X149901928Y-112325000D01*
X149901928Y-113225000D01*
X149914188Y-113349482D01*
X149950498Y-113469180D01*
X150009463Y-113579494D01*
X150088815Y-113676185D01*
X150185506Y-113755537D01*
X150295820Y-113814502D01*
X150415518Y-113850812D01*
X150540000Y-113863072D01*
X151740000Y-113863072D01*
X151864482Y-113850812D01*
X151962460Y-113821091D01*
X152949369Y-114808000D01*
X134196630Y-114808000D01*
X132937113Y-113548483D01*
X132979502Y-113469180D01*
X133015812Y-113349482D01*
X133028072Y-113225000D01*
X133028072Y-112325000D01*
X133015812Y-112200518D01*
X132979502Y-112080820D01*
X132920537Y-111970506D01*
X132841185Y-111873815D01*
X132744494Y-111794463D01*
X132634180Y-111735498D01*
X132514482Y-111699188D01*
X132390000Y-111686928D01*
X131190000Y-111686928D01*
X131065518Y-111699188D01*
X130945820Y-111735498D01*
X130835506Y-111794463D01*
X130738815Y-111873815D01*
X130659463Y-111970506D01*
X130600498Y-112080820D01*
X130564188Y-112200518D01*
X130551928Y-112325000D01*
X130020812Y-112325000D01*
X130026762Y-112321025D01*
X130237086Y-112110701D01*
X130402337Y-111863385D01*
X130516164Y-111588583D01*
X130574193Y-111296854D01*
X130574193Y-110999410D01*
X136444193Y-110999410D01*
X136444193Y-111296854D01*
X136502222Y-111588583D01*
X136616049Y-111863385D01*
X136781300Y-112110701D01*
X136991624Y-112321025D01*
X137238940Y-112486276D01*
X137513742Y-112600103D01*
X137805471Y-112658132D01*
X138102915Y-112658132D01*
X138394644Y-112600103D01*
X138669446Y-112486276D01*
X138916762Y-112321025D01*
X139127086Y-112110701D01*
X139292337Y-111863385D01*
X139406164Y-111588583D01*
X139464193Y-111296854D01*
X139464193Y-110999410D01*
X139442273Y-110889208D01*
X140405293Y-110889208D01*
X140405293Y-111407056D01*
X140506320Y-111914954D01*
X140704492Y-112393383D01*
X140992193Y-112823958D01*
X141358367Y-113190132D01*
X141788942Y-113477833D01*
X142267371Y-113676005D01*
X142775269Y-113777032D01*
X143293117Y-113777032D01*
X143801015Y-113676005D01*
X144279444Y-113477833D01*
X144710019Y-113190132D01*
X145076193Y-112823958D01*
X145363894Y-112393383D01*
X145562066Y-111914954D01*
X145663093Y-111407056D01*
X145663093Y-110889208D01*
X145562066Y-110381310D01*
X145363894Y-109902881D01*
X145076193Y-109472306D01*
X144710019Y-109106132D01*
X144279444Y-108818431D01*
X143801015Y-108620259D01*
X143293117Y-108519232D01*
X142775269Y-108519232D01*
X142267371Y-108620259D01*
X141788942Y-108818431D01*
X141358367Y-109106132D01*
X140992193Y-109472306D01*
X140704492Y-109902881D01*
X140506320Y-110381310D01*
X140405293Y-110889208D01*
X139442273Y-110889208D01*
X139406164Y-110707681D01*
X139292337Y-110432879D01*
X139251007Y-110371024D01*
X139319819Y-110374059D01*
X139662497Y-110321471D01*
X139988332Y-110203041D01*
X140284800Y-110023319D01*
X140476436Y-109847874D01*
X141812393Y-108358948D01*
X141901274Y-108270067D01*
X141976020Y-108158202D01*
X142055637Y-108049719D01*
X142072172Y-108014301D01*
X142093885Y-107981805D01*
X142145368Y-107857514D01*
X142202294Y-107735577D01*
X142211603Y-107697608D01*
X142226557Y-107661505D01*
X142252803Y-107529558D01*
X142284846Y-107398859D01*
X142286568Y-107359809D01*
X142294193Y-107321477D01*
X142294193Y-107186934D01*
X142300122Y-107052506D01*
X142294193Y-107013871D01*
X142294193Y-106974787D01*
X142267944Y-106842823D01*
X142247534Y-106709828D01*
X142234182Y-106673093D01*
X142226557Y-106634759D01*
X142175067Y-106510452D01*
X142129104Y-106383993D01*
X142108843Y-106350570D01*
X142093885Y-106314459D01*
X142019128Y-106202578D01*
X141949382Y-106087525D01*
X141922991Y-106058698D01*
X141901274Y-106026197D01*
X141806127Y-105931050D01*
X141715276Y-105831815D01*
X141683768Y-105808691D01*
X141656128Y-105781051D01*
X141544243Y-105706291D01*
X141435781Y-105626690D01*
X141400369Y-105610158D01*
X141367866Y-105588440D01*
X141243546Y-105536945D01*
X141121639Y-105480033D01*
X141083679Y-105470727D01*
X141047566Y-105455768D01*
X140915581Y-105429514D01*
X140784921Y-105397481D01*
X140745882Y-105395759D01*
X140707538Y-105388132D01*
X140572951Y-105388132D01*
X140438568Y-105382205D01*
X140399946Y-105388132D01*
X140360848Y-105388132D01*
X140228837Y-105414391D01*
X140095890Y-105434793D01*
X140059169Y-105448140D01*
X140020820Y-105455768D01*
X139896462Y-105507279D01*
X139770056Y-105553223D01*
X139736647Y-105573476D01*
X139700520Y-105588440D01*
X139588593Y-105663227D01*
X139473587Y-105732945D01*
X139444771Y-105759327D01*
X139412258Y-105781051D01*
X139317080Y-105876229D01*
X139281951Y-105908390D01*
X139256030Y-105937279D01*
X139167112Y-106026197D01*
X139140466Y-106066075D01*
X137856477Y-107497085D01*
X137702751Y-107706546D01*
X137556094Y-108020688D01*
X137473542Y-108357406D01*
X137458266Y-108703758D01*
X137510854Y-109046436D01*
X137629284Y-109372271D01*
X137792068Y-109640798D01*
X137513742Y-109696161D01*
X137238940Y-109809988D01*
X136991624Y-109975239D01*
X136781300Y-110185563D01*
X136616049Y-110432879D01*
X136502222Y-110707681D01*
X136444193Y-110999410D01*
X130574193Y-110999410D01*
X130516164Y-110707681D01*
X130402337Y-110432879D01*
X130271455Y-110237000D01*
X130636749Y-110237000D01*
X130659463Y-110279494D01*
X130738815Y-110376185D01*
X130835506Y-110455537D01*
X130945820Y-110514502D01*
X131065518Y-110550812D01*
X131190000Y-110563072D01*
X132390000Y-110563072D01*
X132514482Y-110550812D01*
X132634180Y-110514502D01*
X132744494Y-110455537D01*
X132841185Y-110376185D01*
X132920537Y-110279494D01*
X132979502Y-110169180D01*
X133015812Y-110049482D01*
X133028072Y-109925000D01*
X133028072Y-109025000D01*
X133015812Y-108900518D01*
X132979502Y-108780820D01*
X132920537Y-108670506D01*
X132841185Y-108573815D01*
X132744494Y-108494463D01*
X132634180Y-108435498D01*
X132514482Y-108399188D01*
X132390000Y-108386928D01*
X131190000Y-108386928D01*
X131065518Y-108399188D01*
X130945820Y-108435498D01*
X130835506Y-108494463D01*
X130738815Y-108573815D01*
X130659463Y-108670506D01*
X130636749Y-108713000D01*
X129626692Y-108713000D01*
X128145278Y-107231587D01*
X128190877Y-107111673D01*
X128234074Y-106855471D01*
X128272292Y-106301307D01*
X128284193Y-106241477D01*
X128284193Y-106128743D01*
X128285970Y-106102976D01*
X128284193Y-106042388D01*
X128284193Y-105894787D01*
X128279115Y-105869260D01*
X128278353Y-105843269D01*
X128245352Y-105699519D01*
X128216557Y-105554759D01*
X128206600Y-105530720D01*
X128200780Y-105505370D01*
X128140370Y-105370826D01*
X128083885Y-105234459D01*
X128069423Y-105212815D01*
X128058774Y-105189098D01*
X127973289Y-105068941D01*
X127891274Y-104946197D01*
X127872871Y-104927794D01*
X127870259Y-104924122D01*
X144229187Y-104924122D01*
X144207112Y-104946197D01*
X144192654Y-104967835D01*
X144174812Y-104986755D01*
X144096503Y-105111734D01*
X144014501Y-105234459D01*
X144004541Y-105258504D01*
X143990734Y-105280540D01*
X143938312Y-105418396D01*
X143881829Y-105554759D01*
X143876752Y-105580284D01*
X143867509Y-105604590D01*
X143842987Y-105750030D01*
X143814193Y-105894787D01*
X143814193Y-106007518D01*
X143772416Y-106613289D01*
X143780033Y-106872994D01*
X143857606Y-107210893D01*
X143999612Y-107527166D01*
X144200589Y-107809658D01*
X144452817Y-108047513D01*
X144746601Y-108231591D01*
X145070652Y-108354816D01*
X145412516Y-108412456D01*
X145759055Y-108402292D01*
X146096954Y-108324719D01*
X146121934Y-108313503D01*
X147554134Y-109745704D01*
X147398940Y-109809988D01*
X147151624Y-109975239D01*
X146941300Y-110185563D01*
X146776049Y-110432879D01*
X146662222Y-110707681D01*
X146604193Y-110999410D01*
X146604193Y-111296854D01*
X146662222Y-111588583D01*
X146776049Y-111863385D01*
X146941300Y-112110701D01*
X147151624Y-112321025D01*
X147398940Y-112486276D01*
X147673742Y-112600103D01*
X147965471Y-112658132D01*
X148262915Y-112658132D01*
X148554644Y-112600103D01*
X148829446Y-112486276D01*
X149076762Y-112321025D01*
X149287086Y-112110701D01*
X149452337Y-111863385D01*
X149566164Y-111588583D01*
X149624193Y-111296854D01*
X149624193Y-110999410D01*
X155494193Y-110999410D01*
X155494193Y-111296854D01*
X155552222Y-111588583D01*
X155666049Y-111863385D01*
X155831300Y-112110701D01*
X156041624Y-112321025D01*
X156288940Y-112486276D01*
X156563742Y-112600103D01*
X156855471Y-112658132D01*
X157152915Y-112658132D01*
X157444644Y-112600103D01*
X157719446Y-112486276D01*
X157966762Y-112321025D01*
X158177086Y-112110701D01*
X158342337Y-111863385D01*
X158456164Y-111588583D01*
X158514193Y-111296854D01*
X158514193Y-110999410D01*
X158492273Y-110889208D01*
X159455293Y-110889208D01*
X159455293Y-111407056D01*
X159556320Y-111914954D01*
X159754492Y-112393383D01*
X160042193Y-112823958D01*
X160408367Y-113190132D01*
X160838942Y-113477833D01*
X161317371Y-113676005D01*
X161825269Y-113777032D01*
X162343117Y-113777032D01*
X162851015Y-113676005D01*
X163329444Y-113477833D01*
X163760019Y-113190132D01*
X164126193Y-112823958D01*
X164413894Y-112393383D01*
X164612066Y-111914954D01*
X164713093Y-111407056D01*
X164713093Y-110889208D01*
X164612066Y-110381310D01*
X164413894Y-109902881D01*
X164126193Y-109472306D01*
X163760019Y-109106132D01*
X163329444Y-108818431D01*
X162851015Y-108620259D01*
X162343117Y-108519232D01*
X161825269Y-108519232D01*
X161317371Y-108620259D01*
X160838942Y-108818431D01*
X160408367Y-109106132D01*
X160042193Y-109472306D01*
X159754492Y-109902881D01*
X159556320Y-110381310D01*
X159455293Y-110889208D01*
X158492273Y-110889208D01*
X158456164Y-110707681D01*
X158342337Y-110432879D01*
X158301007Y-110371024D01*
X158369819Y-110374059D01*
X158712497Y-110321471D01*
X159038332Y-110203041D01*
X159334800Y-110023319D01*
X159526436Y-109847874D01*
X160862393Y-108358948D01*
X160951274Y-108270067D01*
X161026020Y-108158202D01*
X161105637Y-108049719D01*
X161122172Y-108014301D01*
X161143885Y-107981805D01*
X161195368Y-107857514D01*
X161252294Y-107735577D01*
X161261603Y-107697608D01*
X161276557Y-107661505D01*
X161302803Y-107529558D01*
X161334846Y-107398859D01*
X161336568Y-107359809D01*
X161344193Y-107321477D01*
X161344193Y-107186934D01*
X161350122Y-107052506D01*
X161344193Y-107013871D01*
X161344193Y-106974787D01*
X161317944Y-106842823D01*
X161297534Y-106709828D01*
X161284182Y-106673093D01*
X161276557Y-106634759D01*
X161267664Y-106613289D01*
X162822416Y-106613289D01*
X162830033Y-106872994D01*
X162907606Y-107210893D01*
X163049612Y-107527166D01*
X163250589Y-107809658D01*
X163502817Y-108047513D01*
X163796601Y-108231591D01*
X164120652Y-108354816D01*
X164462516Y-108412456D01*
X164809055Y-108402292D01*
X165146954Y-108324719D01*
X165463227Y-108182713D01*
X165578870Y-108100440D01*
X167116562Y-109638132D01*
X167015471Y-109638132D01*
X166723742Y-109696161D01*
X166448940Y-109809988D01*
X166201624Y-109975239D01*
X165991300Y-110185563D01*
X165826049Y-110432879D01*
X165712222Y-110707681D01*
X165654193Y-110999410D01*
X165654193Y-111296854D01*
X165712222Y-111588583D01*
X165826049Y-111863385D01*
X165991300Y-112110701D01*
X166201624Y-112321025D01*
X166448940Y-112486276D01*
X166723742Y-112600103D01*
X167015471Y-112658132D01*
X167312915Y-112658132D01*
X167604644Y-112600103D01*
X167879446Y-112486276D01*
X168126762Y-112321025D01*
X168337086Y-112110701D01*
X168502337Y-111863385D01*
X168616164Y-111588583D01*
X168674193Y-111296854D01*
X168674193Y-110999410D01*
X168616164Y-110707681D01*
X168502337Y-110432879D01*
X168371455Y-110237000D01*
X168906749Y-110237000D01*
X168929463Y-110279494D01*
X169008815Y-110376185D01*
X169105506Y-110455537D01*
X169215820Y-110514502D01*
X169335518Y-110550812D01*
X169460000Y-110563072D01*
X170660000Y-110563072D01*
X170784482Y-110550812D01*
X170904180Y-110514502D01*
X171014494Y-110455537D01*
X171111185Y-110376185D01*
X171190537Y-110279494D01*
X171249502Y-110169180D01*
X171285812Y-110049482D01*
X171298072Y-109925000D01*
X171298072Y-109025000D01*
X171285812Y-108900518D01*
X171249502Y-108780820D01*
X171190537Y-108670506D01*
X171111185Y-108573815D01*
X171014494Y-108494463D01*
X170904180Y-108435498D01*
X170784482Y-108399188D01*
X170660000Y-108386928D01*
X169460000Y-108386928D01*
X169335518Y-108399188D01*
X169215820Y-108435498D01*
X169105506Y-108494463D01*
X169008815Y-108573815D01*
X168929463Y-108670506D01*
X168906749Y-108713000D01*
X168346692Y-108713000D01*
X166344080Y-106710388D01*
X166372292Y-106301307D01*
X166384193Y-106241477D01*
X166384193Y-106128743D01*
X166385970Y-106102976D01*
X166384193Y-106042388D01*
X166384193Y-105894787D01*
X166379115Y-105869260D01*
X166378353Y-105843269D01*
X166345352Y-105699519D01*
X166316557Y-105554759D01*
X166306600Y-105530720D01*
X166300780Y-105505370D01*
X166240370Y-105370826D01*
X166183885Y-105234459D01*
X166169423Y-105212815D01*
X166158774Y-105189098D01*
X166073289Y-105068941D01*
X165991274Y-104946197D01*
X165972871Y-104927794D01*
X165957797Y-104906606D01*
X165850504Y-104805427D01*
X165746128Y-104701051D01*
X165724487Y-104686591D01*
X165705569Y-104668751D01*
X165580600Y-104590448D01*
X165457866Y-104508440D01*
X165433821Y-104498480D01*
X165411785Y-104484673D01*
X165273933Y-104432253D01*
X165137566Y-104375768D01*
X165112039Y-104370690D01*
X165087734Y-104361448D01*
X164942301Y-104336927D01*
X164797538Y-104308132D01*
X164771516Y-104308132D01*
X164745870Y-104303808D01*
X164598430Y-104308132D01*
X164450848Y-104308132D01*
X164425326Y-104313209D01*
X164399331Y-104313971D01*
X164255568Y-104346976D01*
X164110820Y-104375768D01*
X164086780Y-104385726D01*
X164061432Y-104391545D01*
X163926882Y-104451957D01*
X163790520Y-104508440D01*
X163768880Y-104522899D01*
X163745159Y-104533550D01*
X163624989Y-104619045D01*
X163502258Y-104701051D01*
X163483855Y-104719454D01*
X163462667Y-104734528D01*
X163361481Y-104841828D01*
X163257112Y-104946197D01*
X163242654Y-104967835D01*
X163224812Y-104986755D01*
X163146503Y-105111734D01*
X163064501Y-105234459D01*
X163054541Y-105258504D01*
X163040734Y-105280540D01*
X162988312Y-105418396D01*
X162931829Y-105554759D01*
X162926752Y-105580284D01*
X162917509Y-105604590D01*
X162892987Y-105750030D01*
X162864193Y-105894787D01*
X162864193Y-106007518D01*
X162822416Y-106613289D01*
X161267664Y-106613289D01*
X161225067Y-106510452D01*
X161179104Y-106383993D01*
X161158843Y-106350570D01*
X161143885Y-106314459D01*
X161069128Y-106202578D01*
X160999382Y-106087525D01*
X160972991Y-106058698D01*
X160951274Y-106026197D01*
X160856127Y-105931050D01*
X160765276Y-105831815D01*
X160733768Y-105808691D01*
X160706128Y-105781051D01*
X160594243Y-105706291D01*
X160485781Y-105626690D01*
X160450369Y-105610158D01*
X160417866Y-105588440D01*
X160293546Y-105536945D01*
X160171639Y-105480033D01*
X160133679Y-105470727D01*
X160097566Y-105455768D01*
X159965581Y-105429514D01*
X159834921Y-105397481D01*
X159795882Y-105395759D01*
X159757538Y-105388132D01*
X159622951Y-105388132D01*
X159488568Y-105382205D01*
X159449946Y-105388132D01*
X159410848Y-105388132D01*
X159278837Y-105414391D01*
X159145890Y-105434793D01*
X159109169Y-105448140D01*
X159070820Y-105455768D01*
X158946462Y-105507279D01*
X158820056Y-105553223D01*
X158786647Y-105573476D01*
X158750520Y-105588440D01*
X158638593Y-105663227D01*
X158523587Y-105732945D01*
X158494771Y-105759327D01*
X158462258Y-105781051D01*
X158367080Y-105876229D01*
X158331951Y-105908390D01*
X158306030Y-105937279D01*
X158217112Y-106026197D01*
X158190466Y-106066075D01*
X156906477Y-107497085D01*
X156752751Y-107706546D01*
X156606094Y-108020688D01*
X156523542Y-108357406D01*
X156508266Y-108703758D01*
X156560854Y-109046436D01*
X156679284Y-109372271D01*
X156842068Y-109640798D01*
X156563742Y-109696161D01*
X156288940Y-109809988D01*
X156041624Y-109975239D01*
X155831300Y-110185563D01*
X155666049Y-110432879D01*
X155552222Y-110707681D01*
X155494193Y-110999410D01*
X149624193Y-110999410D01*
X149566164Y-110707681D01*
X149452337Y-110432879D01*
X149321455Y-110237000D01*
X149986749Y-110237000D01*
X150009463Y-110279494D01*
X150088815Y-110376185D01*
X150185506Y-110455537D01*
X150295820Y-110514502D01*
X150415518Y-110550812D01*
X150540000Y-110563072D01*
X151740000Y-110563072D01*
X151864482Y-110550812D01*
X151984180Y-110514502D01*
X152094494Y-110455537D01*
X152191185Y-110376185D01*
X152270537Y-110279494D01*
X152329502Y-110169180D01*
X152365812Y-110049482D01*
X152378072Y-109925000D01*
X152378072Y-109025000D01*
X152365812Y-108900518D01*
X152329502Y-108780820D01*
X152270537Y-108670506D01*
X152191185Y-108573815D01*
X152094494Y-108494463D01*
X151984180Y-108435498D01*
X151864482Y-108399188D01*
X151740000Y-108386928D01*
X150540000Y-108386928D01*
X150415518Y-108399188D01*
X150295820Y-108435498D01*
X150185506Y-108494463D01*
X150088815Y-108573815D01*
X150009463Y-108670506D01*
X149986749Y-108713000D01*
X148676692Y-108713000D01*
X147195278Y-107231587D01*
X147240877Y-107111673D01*
X147284074Y-106855471D01*
X147322292Y-106301307D01*
X147334193Y-106241477D01*
X147334193Y-106128743D01*
X147335970Y-106102976D01*
X147334193Y-106042388D01*
X147334193Y-105894787D01*
X147329115Y-105869260D01*
X147328353Y-105843269D01*
X147295352Y-105699519D01*
X147266557Y-105554759D01*
X147256600Y-105530720D01*
X147250780Y-105505370D01*
X147190370Y-105370826D01*
X147133885Y-105234459D01*
X147119423Y-105212815D01*
X147108774Y-105189098D01*
X147023289Y-105068941D01*
X146941274Y-104946197D01*
X146922871Y-104927794D01*
X146920259Y-104924122D01*
X159300455Y-104924122D01*
X159337878Y-104927808D01*
X159375301Y-104924122D01*
X159375304Y-104924122D01*
X159487256Y-104913096D01*
X159630893Y-104869524D01*
X159763270Y-104798767D01*
X159879300Y-104703544D01*
X159903162Y-104674468D01*
X169142631Y-95435000D01*
X169201939Y-95435000D01*
X169401898Y-95395226D01*
X169590256Y-95317205D01*
X169759774Y-95203937D01*
X169903937Y-95059774D01*
X170017205Y-94890256D01*
X170095226Y-94701898D01*
X170135000Y-94501939D01*
X170135000Y-94298061D01*
X170095226Y-94098102D01*
X170017205Y-93909744D01*
X169903937Y-93740226D01*
X169759774Y-93596063D01*
X169590256Y-93482795D01*
X169401898Y-93404774D01*
X169201939Y-93365000D01*
X168998061Y-93365000D01*
X168798102Y-93404774D01*
X168609744Y-93482795D01*
X168440226Y-93596063D01*
X168296063Y-93740226D01*
X168182795Y-93909744D01*
X168104774Y-94098102D01*
X168065000Y-94298061D01*
X168065000Y-94357369D01*
X159022248Y-103400122D01*
X140989000Y-103400122D01*
X140989000Y-103333182D01*
X140949226Y-103133223D01*
X140871205Y-102944865D01*
X140757937Y-102775347D01*
X140613774Y-102631184D01*
X140444256Y-102517916D01*
X140255898Y-102439895D01*
X140055939Y-102400121D01*
X139852061Y-102400121D01*
X139652102Y-102439895D01*
X139463744Y-102517916D01*
X139294226Y-102631184D01*
X139252289Y-102673121D01*
X121209167Y-102673121D01*
X121169419Y-102473295D01*
X121091398Y-102284937D01*
X120978130Y-102115419D01*
X120833967Y-101971256D01*
X120664449Y-101857988D01*
X120476091Y-101779967D01*
X120276132Y-101740193D01*
X120072254Y-101740193D01*
X119872295Y-101779967D01*
X119683937Y-101857988D01*
X119514419Y-101971256D01*
X119370256Y-102115419D01*
X119256988Y-102284937D01*
X119178967Y-102473295D01*
X119139193Y-102673254D01*
X119139193Y-102877132D01*
X119178967Y-103077091D01*
X119256988Y-103265449D01*
X119370256Y-103434967D01*
X119514419Y-103579130D01*
X119683937Y-103692398D01*
X119872295Y-103770419D01*
X120072254Y-103810193D01*
X120131562Y-103810193D01*
X120221869Y-103900500D01*
X110757370Y-113365000D01*
X110698061Y-113365000D01*
X110498102Y-113404774D01*
X110309744Y-113482795D01*
X110140226Y-113596063D01*
X109996063Y-113740226D01*
X109882795Y-113909744D01*
X109804774Y-114098102D01*
X109765000Y-114298061D01*
X94360000Y-114298061D01*
X94360000Y-113383821D01*
X94384193Y-113386204D01*
X96384193Y-113386204D01*
X96508675Y-113373944D01*
X96628373Y-113337634D01*
X96738687Y-113278669D01*
X96835378Y-113199317D01*
X96914730Y-113102626D01*
X96973695Y-112992312D01*
X97010005Y-112872614D01*
X97022265Y-112748132D01*
X97022265Y-109548132D01*
X97010005Y-109423650D01*
X96973695Y-109303952D01*
X96914730Y-109193638D01*
X96835378Y-109096947D01*
X96738687Y-109017595D01*
X96628373Y-108958630D01*
X96508675Y-108922320D01*
X96384193Y-108910060D01*
X94384193Y-108910060D01*
X94360000Y-108912443D01*
X94360000Y-103532279D01*
X94369580Y-103434576D01*
X94388580Y-103371644D01*
X94419445Y-103313595D01*
X94460989Y-103262657D01*
X94511644Y-103220752D01*
X94569471Y-103189485D01*
X94632272Y-103170044D01*
X94727835Y-103160000D01*
X97178044Y-103160000D01*
X97035275Y-103373669D01*
X96912025Y-103671220D01*
X96849193Y-103987099D01*
X96849193Y-104309165D01*
X96912025Y-104625044D01*
X97035275Y-104922595D01*
X97214206Y-105190384D01*
X97441941Y-105418119D01*
X97709730Y-105597050D01*
X98007281Y-105720300D01*
X98323160Y-105783132D01*
X98645226Y-105783132D01*
X98961105Y-105720300D01*
X98973568Y-105715138D01*
X99245914Y-105987484D01*
X99269772Y-106016555D01*
X99298842Y-106040412D01*
X99385801Y-106111778D01*
X99419949Y-106130030D01*
X99518179Y-106182535D01*
X99661816Y-106226107D01*
X99773768Y-106237133D01*
X99773771Y-106237133D01*
X99811194Y-106240819D01*
X99848617Y-106237133D01*
X104533031Y-106237133D01*
X104533031Y-106333908D01*
X104572805Y-106533867D01*
X104650826Y-106722225D01*
X104764094Y-106891743D01*
X104908257Y-107035906D01*
X105077775Y-107149174D01*
X105266133Y-107227195D01*
X105466092Y-107266969D01*
X105669970Y-107266969D01*
X105686125Y-107263755D01*
X107332430Y-108910060D01*
X105584193Y-108910060D01*
X105459711Y-108922320D01*
X105340013Y-108958630D01*
X105229699Y-109017595D01*
X105133008Y-109096947D01*
X105053656Y-109193638D01*
X104994691Y-109303952D01*
X104958381Y-109423650D01*
X104946121Y-109548132D01*
X104946121Y-112748132D01*
X104958381Y-112872614D01*
X104994691Y-112992312D01*
X105053656Y-113102626D01*
X105133008Y-113199317D01*
X105229699Y-113278669D01*
X105340013Y-113337634D01*
X105459711Y-113373944D01*
X105584193Y-113386204D01*
X107584193Y-113386204D01*
X107708675Y-113373944D01*
X107828373Y-113337634D01*
X107938687Y-113278669D01*
X108035378Y-113199317D01*
X108114730Y-113102626D01*
X108173695Y-112992312D01*
X108210005Y-112872614D01*
X108222265Y-112748132D01*
X108222265Y-109799895D01*
X108465000Y-110042630D01*
X108465000Y-110101939D01*
X108504774Y-110301898D01*
X108582795Y-110490256D01*
X108696063Y-110659774D01*
X108840226Y-110803937D01*
X109009744Y-110917205D01*
X109198102Y-110995226D01*
X109398061Y-111035000D01*
X109601939Y-111035000D01*
X109801898Y-110995226D01*
X109990256Y-110917205D01*
X110159774Y-110803937D01*
X110303937Y-110659774D01*
X110326288Y-110626324D01*
X110327815Y-110628185D01*
X110424506Y-110707537D01*
X110534820Y-110766502D01*
X110654518Y-110802812D01*
X110779000Y-110815072D01*
X111979000Y-110815072D01*
X112103482Y-110802812D01*
X112223180Y-110766502D01*
X112333494Y-110707537D01*
X112430185Y-110628185D01*
X112509537Y-110531494D01*
X112568502Y-110421180D01*
X112604812Y-110301482D01*
X112617072Y-110177000D01*
X112617072Y-109277000D01*
X112604812Y-109152518D01*
X112568502Y-109032820D01*
X112509537Y-108922506D01*
X112430185Y-108825815D01*
X112333494Y-108746463D01*
X112223180Y-108687498D01*
X112103482Y-108651188D01*
X111979000Y-108638928D01*
X110779000Y-108638928D01*
X110654518Y-108651188D01*
X110534820Y-108687498D01*
X110470506Y-108721875D01*
X107725631Y-105977000D01*
X110140928Y-105977000D01*
X110140928Y-106877000D01*
X110153188Y-107001482D01*
X110189498Y-107121180D01*
X110248463Y-107231494D01*
X110327815Y-107328185D01*
X110424506Y-107407537D01*
X110534820Y-107466502D01*
X110654518Y-107502812D01*
X110779000Y-107515072D01*
X111979000Y-107515072D01*
X112103482Y-107502812D01*
X112223180Y-107466502D01*
X112333494Y-107407537D01*
X112430185Y-107328185D01*
X112509537Y-107231494D01*
X112532251Y-107189000D01*
X113402077Y-107189000D01*
X113439500Y-107192686D01*
X113476923Y-107189000D01*
X113476926Y-107189000D01*
X113588878Y-107177974D01*
X113732515Y-107134402D01*
X113864892Y-107063645D01*
X113980922Y-106968422D01*
X114004784Y-106939346D01*
X124170131Y-96774000D01*
X132677576Y-96774000D01*
X132714999Y-96777686D01*
X132752422Y-96774000D01*
X149494577Y-96774000D01*
X149532000Y-96777686D01*
X149569000Y-96774042D01*
X149606000Y-96777686D01*
X149643423Y-96774000D01*
X152108577Y-96774000D01*
X152146000Y-96777686D01*
X152183423Y-96774000D01*
X152968289Y-96774000D01*
X153010226Y-96815937D01*
X153179744Y-96929205D01*
X153368102Y-97007226D01*
X153568061Y-97047000D01*
X153771939Y-97047000D01*
X153971898Y-97007226D01*
X154160256Y-96929205D01*
X154329774Y-96815937D01*
X154473937Y-96671774D01*
X154587205Y-96502256D01*
X154665226Y-96313898D01*
X154705000Y-96113939D01*
X154705000Y-95910061D01*
X154665226Y-95710102D01*
X154587205Y-95521744D01*
X154473937Y-95352226D01*
X154329774Y-95208063D01*
X154160256Y-95094795D01*
X153971898Y-95016774D01*
X153771939Y-94977000D01*
X153568061Y-94977000D01*
X153368102Y-95016774D01*
X153179744Y-95094795D01*
X153010226Y-95208063D01*
X152968289Y-95250000D01*
X152461630Y-95250000D01*
X151948134Y-94736504D01*
X152004180Y-94719502D01*
X152114494Y-94660537D01*
X152211185Y-94581185D01*
X152290537Y-94484494D01*
X152349502Y-94374180D01*
X152355827Y-94353329D01*
X157393601Y-94353329D01*
X157452879Y-94586944D01*
X157691068Y-94697691D01*
X157946286Y-94759843D01*
X158208726Y-94771008D01*
X158468300Y-94730761D01*
X158715035Y-94640646D01*
X158815507Y-94586944D01*
X158874785Y-94353329D01*
X158134193Y-93612737D01*
X157393601Y-94353329D01*
X152355827Y-94353329D01*
X152385812Y-94254482D01*
X152398072Y-94130000D01*
X152398072Y-93507665D01*
X156796317Y-93507665D01*
X156836564Y-93767239D01*
X156926679Y-94013974D01*
X156980381Y-94114446D01*
X157213996Y-94173724D01*
X157954588Y-93433132D01*
X158313798Y-93433132D01*
X159054390Y-94173724D01*
X159288005Y-94114446D01*
X159398752Y-93876257D01*
X159460904Y-93621039D01*
X159472069Y-93358599D01*
X159431822Y-93099025D01*
X159341707Y-92852290D01*
X159288005Y-92751818D01*
X159054390Y-92692540D01*
X158313798Y-93433132D01*
X157954588Y-93433132D01*
X157213996Y-92692540D01*
X156980381Y-92751818D01*
X156869634Y-92990007D01*
X156807482Y-93245225D01*
X156796317Y-93507665D01*
X152398072Y-93507665D01*
X152398072Y-93230000D01*
X152385812Y-93105518D01*
X152349502Y-92985820D01*
X152290537Y-92875506D01*
X152211185Y-92778815D01*
X152114494Y-92699463D01*
X152004180Y-92640498D01*
X151884482Y-92604188D01*
X151760000Y-92591928D01*
X150560000Y-92591928D01*
X150435518Y-92604188D01*
X150315820Y-92640498D01*
X150205506Y-92699463D01*
X150108815Y-92778815D01*
X150029463Y-92875506D01*
X149970498Y-92985820D01*
X149934188Y-93105518D01*
X149921928Y-93230000D01*
X149921928Y-94130000D01*
X149933747Y-94250000D01*
X149851402Y-94250000D01*
X149651443Y-94289774D01*
X149463085Y-94367795D01*
X149325838Y-94459500D01*
X144202993Y-94459500D01*
X144279444Y-94427833D01*
X144710019Y-94140132D01*
X145076193Y-93773958D01*
X145363894Y-93343383D01*
X145562066Y-92864954D01*
X145663093Y-92357056D01*
X145663093Y-91839208D01*
X145562066Y-91331310D01*
X145363894Y-90852881D01*
X145076193Y-90422306D01*
X144710019Y-90056132D01*
X144279444Y-89768431D01*
X143801015Y-89570259D01*
X143293117Y-89469232D01*
X142775269Y-89469232D01*
X142267371Y-89570259D01*
X141788942Y-89768431D01*
X141358367Y-90056132D01*
X140992193Y-90422306D01*
X140704492Y-90852881D01*
X140506320Y-91331310D01*
X140405293Y-91839208D01*
X140405293Y-92357056D01*
X140506320Y-92864954D01*
X140704492Y-93343383D01*
X140992193Y-93773958D01*
X141358367Y-94140132D01*
X141788942Y-94427833D01*
X141865393Y-94459500D01*
X138933934Y-94459500D01*
X138082566Y-93608132D01*
X138102915Y-93608132D01*
X138394644Y-93550103D01*
X138669446Y-93436276D01*
X138916762Y-93271025D01*
X139127086Y-93060701D01*
X139292337Y-92813385D01*
X139406164Y-92538583D01*
X139464193Y-92246854D01*
X139464193Y-91949410D01*
X139406164Y-91657681D01*
X139292337Y-91382879D01*
X139251007Y-91321024D01*
X139319819Y-91324059D01*
X139662497Y-91271471D01*
X139988332Y-91153041D01*
X140284800Y-90973319D01*
X140476436Y-90797874D01*
X141812393Y-89308948D01*
X141901274Y-89220067D01*
X141976020Y-89108202D01*
X142055637Y-88999719D01*
X142072172Y-88964301D01*
X142093885Y-88931805D01*
X142145368Y-88807514D01*
X142202294Y-88685577D01*
X142211603Y-88647608D01*
X142226557Y-88611505D01*
X142252803Y-88479558D01*
X142284846Y-88348859D01*
X142286568Y-88309809D01*
X142294193Y-88271477D01*
X142294193Y-88136934D01*
X142300122Y-88002506D01*
X142294193Y-87963871D01*
X142294193Y-87924787D01*
X142267944Y-87792823D01*
X142247534Y-87659828D01*
X142234182Y-87623093D01*
X142226557Y-87584759D01*
X142217664Y-87563289D01*
X143772416Y-87563289D01*
X143780033Y-87822994D01*
X143857606Y-88160893D01*
X143999612Y-88477166D01*
X144200589Y-88759658D01*
X144452817Y-88997513D01*
X144746601Y-89181591D01*
X145070652Y-89304816D01*
X145412516Y-89362456D01*
X145759055Y-89352292D01*
X146096954Y-89274719D01*
X146413227Y-89132713D01*
X146528870Y-89050439D01*
X148066562Y-90588132D01*
X147965471Y-90588132D01*
X147673742Y-90646161D01*
X147398940Y-90759988D01*
X147151624Y-90925239D01*
X146941300Y-91135563D01*
X146776049Y-91382879D01*
X146662222Y-91657681D01*
X146604193Y-91949410D01*
X146604193Y-92246854D01*
X146662222Y-92538583D01*
X146776049Y-92813385D01*
X146941300Y-93060701D01*
X147151624Y-93271025D01*
X147398940Y-93436276D01*
X147673742Y-93550103D01*
X147965471Y-93608132D01*
X148262915Y-93608132D01*
X148554644Y-93550103D01*
X148829446Y-93436276D01*
X149076762Y-93271025D01*
X149287086Y-93060701D01*
X149452337Y-92813385D01*
X149566164Y-92538583D01*
X149624193Y-92246854D01*
X149624193Y-91949410D01*
X149566164Y-91657681D01*
X149452337Y-91382879D01*
X149291387Y-91142000D01*
X150006749Y-91142000D01*
X150029463Y-91184494D01*
X150108815Y-91281185D01*
X150205506Y-91360537D01*
X150315820Y-91419502D01*
X150435518Y-91455812D01*
X150560000Y-91468072D01*
X151760000Y-91468072D01*
X151884482Y-91455812D01*
X152004180Y-91419502D01*
X152114494Y-91360537D01*
X152211185Y-91281185D01*
X152290537Y-91184494D01*
X152349502Y-91074180D01*
X152385812Y-90954482D01*
X152398072Y-90830000D01*
X152398072Y-89930000D01*
X152385812Y-89805518D01*
X152349502Y-89685820D01*
X152290537Y-89575506D01*
X152211185Y-89478815D01*
X152114494Y-89399463D01*
X152004180Y-89340498D01*
X151884482Y-89304188D01*
X151760000Y-89291928D01*
X150560000Y-89291928D01*
X150435518Y-89304188D01*
X150315820Y-89340498D01*
X150205506Y-89399463D01*
X150108815Y-89478815D01*
X150029463Y-89575506D01*
X150006749Y-89618000D01*
X149251692Y-89618000D01*
X147294080Y-87660388D01*
X147322292Y-87251307D01*
X147334193Y-87191477D01*
X147334193Y-87078743D01*
X147335970Y-87052976D01*
X147334193Y-86992388D01*
X147334193Y-86844787D01*
X147329115Y-86819260D01*
X147328353Y-86793269D01*
X147295352Y-86649519D01*
X147266557Y-86504759D01*
X147256600Y-86480720D01*
X147250780Y-86455370D01*
X147190370Y-86320826D01*
X147133885Y-86184459D01*
X147119423Y-86162815D01*
X147108774Y-86139098D01*
X147023289Y-86018941D01*
X146941274Y-85896197D01*
X146922871Y-85877794D01*
X146907797Y-85856606D01*
X146800504Y-85755427D01*
X146696128Y-85651051D01*
X146674487Y-85636591D01*
X146655569Y-85618751D01*
X146530600Y-85540448D01*
X146407866Y-85458440D01*
X146383821Y-85448480D01*
X146361785Y-85434673D01*
X146223933Y-85382253D01*
X146087566Y-85325768D01*
X146062039Y-85320690D01*
X146037734Y-85311448D01*
X145892301Y-85286927D01*
X145747538Y-85258132D01*
X145721516Y-85258132D01*
X145695870Y-85253808D01*
X145548430Y-85258132D01*
X145400848Y-85258132D01*
X145375326Y-85263209D01*
X145349331Y-85263971D01*
X145205568Y-85296976D01*
X145060820Y-85325768D01*
X145036780Y-85335726D01*
X145011432Y-85341545D01*
X144876882Y-85401957D01*
X144740520Y-85458440D01*
X144718880Y-85472899D01*
X144695159Y-85483550D01*
X144574989Y-85569045D01*
X144452258Y-85651051D01*
X144433855Y-85669454D01*
X144412667Y-85684528D01*
X144311481Y-85791828D01*
X144207112Y-85896197D01*
X144192654Y-85917835D01*
X144174812Y-85936755D01*
X144096503Y-86061734D01*
X144014501Y-86184459D01*
X144004541Y-86208504D01*
X143990734Y-86230540D01*
X143938312Y-86368396D01*
X143881829Y-86504759D01*
X143876752Y-86530284D01*
X143867509Y-86554590D01*
X143842987Y-86700030D01*
X143814193Y-86844787D01*
X143814193Y-86957518D01*
X143772416Y-87563289D01*
X142217664Y-87563289D01*
X142175067Y-87460452D01*
X142129104Y-87333993D01*
X142108843Y-87300570D01*
X142093885Y-87264459D01*
X142019128Y-87152578D01*
X141949382Y-87037525D01*
X141922991Y-87008698D01*
X141901274Y-86976197D01*
X141806127Y-86881050D01*
X141715276Y-86781815D01*
X141683768Y-86758691D01*
X141656128Y-86731051D01*
X141544243Y-86656291D01*
X141435781Y-86576690D01*
X141400369Y-86560158D01*
X141367866Y-86538440D01*
X141243546Y-86486945D01*
X141121639Y-86430033D01*
X141083679Y-86420727D01*
X141047566Y-86405768D01*
X140915581Y-86379514D01*
X140784921Y-86347481D01*
X140745882Y-86345759D01*
X140707538Y-86338132D01*
X140572951Y-86338132D01*
X140438568Y-86332205D01*
X140399946Y-86338132D01*
X140360848Y-86338132D01*
X140228837Y-86364391D01*
X140095890Y-86384793D01*
X140059169Y-86398140D01*
X140020820Y-86405768D01*
X139896462Y-86457279D01*
X139770056Y-86503223D01*
X139736647Y-86523476D01*
X139700520Y-86538440D01*
X139588593Y-86613227D01*
X139473587Y-86682945D01*
X139444771Y-86709327D01*
X139412258Y-86731051D01*
X139317080Y-86826229D01*
X139281951Y-86858390D01*
X139256030Y-86887279D01*
X139167112Y-86976197D01*
X139140466Y-87016075D01*
X137856477Y-88447085D01*
X137702751Y-88656546D01*
X137556094Y-88970688D01*
X137473542Y-89307406D01*
X137458266Y-89653758D01*
X137510854Y-89996436D01*
X137629284Y-90322271D01*
X137792068Y-90590798D01*
X137513742Y-90646161D01*
X137238940Y-90759988D01*
X136991624Y-90925239D01*
X136781300Y-91135563D01*
X136616049Y-91382879D01*
X136502222Y-91657681D01*
X136444193Y-91949410D01*
X136444193Y-91969760D01*
X131889500Y-87415068D01*
X131889500Y-86860503D01*
X131981205Y-86723256D01*
X132059226Y-86534898D01*
X132099000Y-86334939D01*
X132099000Y-86131061D01*
X132059226Y-85931102D01*
X131981205Y-85742744D01*
X131867937Y-85573226D01*
X131723774Y-85429063D01*
X131554256Y-85315795D01*
X131365898Y-85237774D01*
X131165939Y-85198000D01*
X130962061Y-85198000D01*
X130762102Y-85237774D01*
X130573744Y-85315795D01*
X130404226Y-85429063D01*
X130260063Y-85573226D01*
X130146795Y-85742744D01*
X130068774Y-85931102D01*
X130029000Y-86131061D01*
X130029000Y-86334939D01*
X130068774Y-86534898D01*
X130146795Y-86723256D01*
X130238500Y-86860503D01*
X130238501Y-87716440D01*
X130234506Y-87757000D01*
X130250445Y-87918826D01*
X130297647Y-88074433D01*
X130374301Y-88217842D01*
X130430052Y-88285774D01*
X130477460Y-88343541D01*
X130508961Y-88369393D01*
X131476496Y-89336928D01*
X131162500Y-89336928D01*
X131038018Y-89349188D01*
X130918320Y-89385498D01*
X130808006Y-89444463D01*
X130711315Y-89523815D01*
X130631963Y-89620506D01*
X130609249Y-89663000D01*
X130246692Y-89663000D01*
X128244080Y-87660388D01*
X128272292Y-87251307D01*
X128284193Y-87191477D01*
X128284193Y-87078743D01*
X128285970Y-87052976D01*
X128284193Y-86992388D01*
X128284193Y-86844787D01*
X128279115Y-86819260D01*
X128278353Y-86793269D01*
X128245352Y-86649519D01*
X128216557Y-86504759D01*
X128206600Y-86480720D01*
X128200780Y-86455370D01*
X128140370Y-86320826D01*
X128083885Y-86184459D01*
X128069423Y-86162815D01*
X128058774Y-86139098D01*
X127973289Y-86018941D01*
X127891274Y-85896197D01*
X127872871Y-85877794D01*
X127857797Y-85856606D01*
X127750504Y-85755427D01*
X127646128Y-85651051D01*
X127624487Y-85636591D01*
X127605569Y-85618751D01*
X127480600Y-85540448D01*
X127357866Y-85458440D01*
X127333821Y-85448480D01*
X127311785Y-85434673D01*
X127173933Y-85382253D01*
X127037566Y-85325768D01*
X127012039Y-85320690D01*
X126987734Y-85311448D01*
X126842301Y-85286927D01*
X126697538Y-85258132D01*
X126671516Y-85258132D01*
X126645870Y-85253808D01*
X126498430Y-85258132D01*
X126350848Y-85258132D01*
X126325326Y-85263209D01*
X126299331Y-85263971D01*
X126155568Y-85296976D01*
X126010820Y-85325768D01*
X125986780Y-85335726D01*
X125961432Y-85341545D01*
X125826882Y-85401957D01*
X125690520Y-85458440D01*
X125668880Y-85472899D01*
X125645159Y-85483550D01*
X125524989Y-85569045D01*
X125402258Y-85651051D01*
X125383855Y-85669454D01*
X125362667Y-85684528D01*
X125261481Y-85791828D01*
X125157112Y-85896197D01*
X125142654Y-85917835D01*
X125124812Y-85936755D01*
X125046503Y-86061734D01*
X124964501Y-86184459D01*
X124954541Y-86208504D01*
X124940734Y-86230540D01*
X124888312Y-86368396D01*
X124831829Y-86504759D01*
X124826752Y-86530284D01*
X124817509Y-86554590D01*
X124792987Y-86700030D01*
X124764193Y-86844787D01*
X124764193Y-86957518D01*
X124722416Y-87563289D01*
X124730033Y-87822994D01*
X124807606Y-88160893D01*
X124949612Y-88477166D01*
X125150589Y-88759658D01*
X125402817Y-88997513D01*
X125696601Y-89181591D01*
X126020652Y-89304816D01*
X126362516Y-89362456D01*
X126709055Y-89352292D01*
X127046954Y-89274719D01*
X127363227Y-89132713D01*
X127478870Y-89050439D01*
X129016562Y-90588132D01*
X128915471Y-90588132D01*
X128623742Y-90646161D01*
X128348940Y-90759988D01*
X128101624Y-90925239D01*
X127891300Y-91135563D01*
X127726049Y-91382879D01*
X127612222Y-91657681D01*
X127554193Y-91949410D01*
X127554193Y-92246854D01*
X127612222Y-92538583D01*
X127726049Y-92813385D01*
X127891300Y-93060701D01*
X128101624Y-93271025D01*
X128348940Y-93436276D01*
X128623742Y-93550103D01*
X128915471Y-93608132D01*
X129212915Y-93608132D01*
X129504644Y-93550103D01*
X129779446Y-93436276D01*
X130026762Y-93271025D01*
X130237086Y-93060701D01*
X130402337Y-92813385D01*
X130516164Y-92538583D01*
X130574193Y-92246854D01*
X130574193Y-91949410D01*
X130516164Y-91657681D01*
X130402337Y-91382879D01*
X130271455Y-91187000D01*
X130609249Y-91187000D01*
X130631963Y-91229494D01*
X130711315Y-91326185D01*
X130808006Y-91405537D01*
X130918320Y-91464502D01*
X131038018Y-91500812D01*
X131162500Y-91513072D01*
X132362500Y-91513072D01*
X132486982Y-91500812D01*
X132606680Y-91464502D01*
X132716994Y-91405537D01*
X132813685Y-91326185D01*
X132893037Y-91229494D01*
X132952002Y-91119180D01*
X132988312Y-90999482D01*
X133000572Y-90875000D01*
X133000572Y-90861005D01*
X137389566Y-95250000D01*
X133030631Y-95250000D01*
X132559457Y-94778827D01*
X132606680Y-94764502D01*
X132716994Y-94705537D01*
X132813685Y-94626185D01*
X132893037Y-94529494D01*
X132952002Y-94419180D01*
X132988312Y-94299482D01*
X133000572Y-94175000D01*
X133000572Y-93275000D01*
X132988312Y-93150518D01*
X132952002Y-93030820D01*
X132893037Y-92920506D01*
X132813685Y-92823815D01*
X132716994Y-92744463D01*
X132606680Y-92685498D01*
X132486982Y-92649188D01*
X132362500Y-92636928D01*
X131162500Y-92636928D01*
X131038018Y-92649188D01*
X130918320Y-92685498D01*
X130808006Y-92744463D01*
X130711315Y-92823815D01*
X130631963Y-92920506D01*
X130572998Y-93030820D01*
X130536688Y-93150518D01*
X130524428Y-93275000D01*
X130524428Y-94175000D01*
X130536688Y-94299482D01*
X130572998Y-94419180D01*
X130631963Y-94529494D01*
X130711315Y-94626185D01*
X130808006Y-94705537D01*
X130918320Y-94764502D01*
X131000500Y-94789431D01*
X131000500Y-95022076D01*
X130996814Y-95059500D01*
X131000500Y-95096923D01*
X131000500Y-95096925D01*
X131011526Y-95208877D01*
X131024001Y-95250000D01*
X123891922Y-95250000D01*
X123854499Y-95246314D01*
X123817076Y-95250000D01*
X123817074Y-95250000D01*
X123705122Y-95261026D01*
X123561485Y-95304598D01*
X123429108Y-95375355D01*
X123313078Y-95470578D01*
X123289221Y-95499648D01*
X113123870Y-105665000D01*
X112532251Y-105665000D01*
X112509537Y-105622506D01*
X112430185Y-105525815D01*
X112333494Y-105446463D01*
X112223180Y-105387498D01*
X112103482Y-105351188D01*
X111979000Y-105338928D01*
X110779000Y-105338928D01*
X110654518Y-105351188D01*
X110534820Y-105387498D01*
X110424506Y-105446463D01*
X110327815Y-105525815D01*
X110248463Y-105622506D01*
X110189498Y-105732820D01*
X110153188Y-105852518D01*
X110140928Y-105977000D01*
X107725631Y-105977000D01*
X106711417Y-104962787D01*
X106687555Y-104933711D01*
X106571525Y-104838488D01*
X106439148Y-104767731D01*
X106295511Y-104724159D01*
X106183559Y-104713133D01*
X106183556Y-104713133D01*
X106146133Y-104709447D01*
X106108710Y-104713133D01*
X105019873Y-104713133D01*
X105056361Y-104625044D01*
X105119193Y-104309165D01*
X105119193Y-103987099D01*
X105056361Y-103671220D01*
X104933111Y-103373669D01*
X104790342Y-103160000D01*
X113132419Y-103160000D01*
X113160674Y-103157217D01*
X113166801Y-103157260D01*
X113175972Y-103156360D01*
X113370069Y-103135959D01*
X113428658Y-103123932D01*
X113487423Y-103112723D01*
X113496245Y-103110059D01*
X113682683Y-103052347D01*
X113737838Y-103029162D01*
X113793291Y-103006758D01*
X113801427Y-103002432D01*
X113973104Y-102909607D01*
X114022699Y-102876154D01*
X114072753Y-102843400D01*
X114079894Y-102837576D01*
X114230272Y-102713172D01*
X114272411Y-102670737D01*
X114315161Y-102628874D01*
X114321034Y-102621773D01*
X114444384Y-102470531D01*
X114477477Y-102420723D01*
X114511284Y-102371349D01*
X114515667Y-102363243D01*
X114607292Y-102190920D01*
X114630090Y-102135608D01*
X114653652Y-102080634D01*
X114656377Y-102071831D01*
X114712786Y-101884994D01*
X114724405Y-101826314D01*
X114736842Y-101767804D01*
X114737805Y-101758639D01*
X114756850Y-101564406D01*
X114756850Y-101564402D01*
X114760000Y-101532419D01*
X114760000Y-91949410D01*
X117394193Y-91949410D01*
X117394193Y-92246854D01*
X117452222Y-92538583D01*
X117566049Y-92813385D01*
X117731300Y-93060701D01*
X117941624Y-93271025D01*
X118188940Y-93436276D01*
X118463742Y-93550103D01*
X118755471Y-93608132D01*
X119052915Y-93608132D01*
X119344644Y-93550103D01*
X119619446Y-93436276D01*
X119866762Y-93271025D01*
X120077086Y-93060701D01*
X120242337Y-92813385D01*
X120356164Y-92538583D01*
X120414193Y-92246854D01*
X120414193Y-91949410D01*
X120392273Y-91839208D01*
X121355293Y-91839208D01*
X121355293Y-92357056D01*
X121456320Y-92864954D01*
X121654492Y-93343383D01*
X121942193Y-93773958D01*
X122308367Y-94140132D01*
X122738942Y-94427833D01*
X123217371Y-94626005D01*
X123725269Y-94727032D01*
X124243117Y-94727032D01*
X124751015Y-94626005D01*
X125229444Y-94427833D01*
X125660019Y-94140132D01*
X126026193Y-93773958D01*
X126313894Y-93343383D01*
X126512066Y-92864954D01*
X126613093Y-92357056D01*
X126613093Y-91839208D01*
X126512066Y-91331310D01*
X126313894Y-90852881D01*
X126026193Y-90422306D01*
X125660019Y-90056132D01*
X125229444Y-89768431D01*
X124751015Y-89570259D01*
X124243117Y-89469232D01*
X123725269Y-89469232D01*
X123217371Y-89570259D01*
X122738942Y-89768431D01*
X122308367Y-90056132D01*
X121942193Y-90422306D01*
X121654492Y-90852881D01*
X121456320Y-91331310D01*
X121355293Y-91839208D01*
X120392273Y-91839208D01*
X120356164Y-91657681D01*
X120242337Y-91382879D01*
X120201007Y-91321024D01*
X120269819Y-91324059D01*
X120612497Y-91271471D01*
X120938332Y-91153041D01*
X121234800Y-90973319D01*
X121426436Y-90797874D01*
X122762393Y-89308948D01*
X122851274Y-89220067D01*
X122926020Y-89108202D01*
X123005637Y-88999719D01*
X123022172Y-88964301D01*
X123043885Y-88931805D01*
X123095368Y-88807514D01*
X123152294Y-88685577D01*
X123161603Y-88647608D01*
X123176557Y-88611505D01*
X123202803Y-88479558D01*
X123234846Y-88348859D01*
X123236568Y-88309809D01*
X123244193Y-88271477D01*
X123244193Y-88136934D01*
X123250122Y-88002506D01*
X123244193Y-87963871D01*
X123244193Y-87924787D01*
X123217944Y-87792823D01*
X123197534Y-87659828D01*
X123184182Y-87623093D01*
X123176557Y-87584759D01*
X123125067Y-87460452D01*
X123079104Y-87333993D01*
X123058843Y-87300570D01*
X123043885Y-87264459D01*
X122969128Y-87152578D01*
X122899382Y-87037525D01*
X122872991Y-87008698D01*
X122851274Y-86976197D01*
X122756127Y-86881050D01*
X122665276Y-86781815D01*
X122633768Y-86758691D01*
X122606128Y-86731051D01*
X122494243Y-86656291D01*
X122385781Y-86576690D01*
X122350369Y-86560158D01*
X122317866Y-86538440D01*
X122193546Y-86486945D01*
X122071639Y-86430033D01*
X122033679Y-86420727D01*
X121997566Y-86405768D01*
X121865581Y-86379514D01*
X121734921Y-86347481D01*
X121695882Y-86345759D01*
X121657538Y-86338132D01*
X121522951Y-86338132D01*
X121388568Y-86332205D01*
X121349946Y-86338132D01*
X121310848Y-86338132D01*
X121178837Y-86364391D01*
X121045890Y-86384793D01*
X121009169Y-86398140D01*
X120970820Y-86405768D01*
X120846462Y-86457279D01*
X120720056Y-86503223D01*
X120686647Y-86523476D01*
X120650520Y-86538440D01*
X120538593Y-86613227D01*
X120423587Y-86682945D01*
X120394771Y-86709327D01*
X120362258Y-86731051D01*
X120267080Y-86826229D01*
X120231951Y-86858390D01*
X120206030Y-86887279D01*
X120117112Y-86976197D01*
X120090466Y-87016075D01*
X118806477Y-88447085D01*
X118652751Y-88656546D01*
X118506094Y-88970688D01*
X118423542Y-89307406D01*
X118408266Y-89653758D01*
X118460854Y-89996436D01*
X118579284Y-90322271D01*
X118742068Y-90590798D01*
X118463742Y-90646161D01*
X118188940Y-90759988D01*
X117941624Y-90925239D01*
X117731300Y-91135563D01*
X117566049Y-91382879D01*
X117452222Y-91657681D01*
X117394193Y-91949410D01*
X114760000Y-91949410D01*
X114760000Y-87667581D01*
X114758048Y-87647759D01*
X114895987Y-87618415D01*
X115101678Y-87530003D01*
X115286169Y-87403161D01*
X115442369Y-87242764D01*
X115564276Y-87054976D01*
X115644119Y-86831874D01*
X116785881Y-86831874D01*
X116865724Y-87054976D01*
X116987631Y-87242764D01*
X117143831Y-87403161D01*
X117328322Y-87530003D01*
X117534013Y-87618415D01*
X117753000Y-87665000D01*
X118303000Y-87665000D01*
X118303000Y-86657000D01*
X118557000Y-86657000D01*
X118557000Y-87665000D01*
X119107000Y-87665000D01*
X119325987Y-87618415D01*
X119531678Y-87530003D01*
X119716169Y-87403161D01*
X119872369Y-87242764D01*
X119994276Y-87054976D01*
X120074119Y-86831874D01*
X119947954Y-86657000D01*
X118557000Y-86657000D01*
X118303000Y-86657000D01*
X116912046Y-86657000D01*
X116785881Y-86831874D01*
X115644119Y-86831874D01*
X115517954Y-86657000D01*
X114377000Y-86657000D01*
X114377000Y-86677000D01*
X114123000Y-86677000D01*
X114123000Y-86657000D01*
X114103000Y-86657000D01*
X114103000Y-86403000D01*
X114123000Y-86403000D01*
X114123000Y-85395000D01*
X114377000Y-85395000D01*
X114377000Y-86403000D01*
X115517954Y-86403000D01*
X115644119Y-86228126D01*
X116785881Y-86228126D01*
X116912046Y-86403000D01*
X118303000Y-86403000D01*
X118303000Y-86383000D01*
X118557000Y-86383000D01*
X118557000Y-86403000D01*
X119947954Y-86403000D01*
X120074119Y-86228126D01*
X119994276Y-86005024D01*
X119872369Y-85817236D01*
X119716169Y-85656839D01*
X119531678Y-85529997D01*
X119325987Y-85441585D01*
X119107000Y-85395000D01*
X118816904Y-85395000D01*
X118823108Y-85380022D01*
X118860000Y-85194552D01*
X118860000Y-85005448D01*
X118823108Y-84819978D01*
X118750741Y-84645269D01*
X118645681Y-84488036D01*
X118511964Y-84354319D01*
X118354731Y-84249259D01*
X118180022Y-84176892D01*
X117994552Y-84140000D01*
X117805448Y-84140000D01*
X117619978Y-84176892D01*
X117445269Y-84249259D01*
X117288036Y-84354319D01*
X117154319Y-84488036D01*
X117049259Y-84645269D01*
X116976892Y-84819978D01*
X116940000Y-85005448D01*
X116940000Y-85194552D01*
X116976892Y-85380022D01*
X117049259Y-85554731D01*
X117128206Y-85672884D01*
X116987631Y-85817236D01*
X116865724Y-86005024D01*
X116785881Y-86228126D01*
X115644119Y-86228126D01*
X115564276Y-86005024D01*
X115442369Y-85817236D01*
X115286169Y-85656839D01*
X115101678Y-85529997D01*
X114895987Y-85441585D01*
X114677000Y-85395000D01*
X114377000Y-85395000D01*
X114123000Y-85395000D01*
X113823000Y-85395000D01*
X113760000Y-85408402D01*
X113760000Y-81815162D01*
X130153899Y-81815162D01*
X130153899Y-82019040D01*
X130193673Y-82218999D01*
X130271694Y-82407357D01*
X130384962Y-82576875D01*
X130529125Y-82721038D01*
X130698643Y-82834306D01*
X130887001Y-82912327D01*
X131086960Y-82952101D01*
X131290838Y-82952101D01*
X131453989Y-82919649D01*
X131465774Y-82978898D01*
X131543795Y-83167256D01*
X131657063Y-83336774D01*
X131801226Y-83480937D01*
X131970744Y-83594205D01*
X132159102Y-83672226D01*
X132359061Y-83712000D01*
X132562939Y-83712000D01*
X132762898Y-83672226D01*
X132951256Y-83594205D01*
X133120774Y-83480937D01*
X133160048Y-83441663D01*
X161352061Y-83548857D01*
X159436465Y-85464454D01*
X159426146Y-85472923D01*
X159416447Y-85424164D01*
X159315925Y-85181483D01*
X159169990Y-84963075D01*
X158984250Y-84777335D01*
X158765842Y-84631400D01*
X158523161Y-84530878D01*
X158265531Y-84479632D01*
X158002855Y-84479632D01*
X157745225Y-84530878D01*
X157502544Y-84631400D01*
X157284136Y-84777335D01*
X157098396Y-84963075D01*
X156952461Y-85181483D01*
X156851939Y-85424164D01*
X156800693Y-85681794D01*
X156800693Y-85944470D01*
X156851939Y-86202100D01*
X156952461Y-86444781D01*
X157098396Y-86663189D01*
X157284136Y-86848929D01*
X157502544Y-86994864D01*
X157715641Y-87083132D01*
X157502544Y-87171400D01*
X157284136Y-87317335D01*
X157098396Y-87503075D01*
X156952461Y-87721483D01*
X156851939Y-87964164D01*
X156800693Y-88221794D01*
X156800693Y-88484470D01*
X156851939Y-88742100D01*
X156952461Y-88984781D01*
X157098396Y-89203189D01*
X157284136Y-89388929D01*
X157502544Y-89534864D01*
X157715641Y-89623132D01*
X157502544Y-89711400D01*
X157284136Y-89857335D01*
X157098396Y-90043075D01*
X156952461Y-90261483D01*
X156851939Y-90504164D01*
X156800693Y-90761794D01*
X156800693Y-91024470D01*
X156851939Y-91282100D01*
X156952461Y-91524781D01*
X157098396Y-91743189D01*
X157284136Y-91928929D01*
X157502544Y-92074864D01*
X157719763Y-92164839D01*
X157553351Y-92225618D01*
X157452879Y-92279320D01*
X157393601Y-92512935D01*
X158134193Y-93253527D01*
X158874785Y-92512935D01*
X158815507Y-92279320D01*
X158577318Y-92168573D01*
X158553571Y-92162790D01*
X158765842Y-92074864D01*
X158984250Y-91928929D01*
X159169990Y-91743189D01*
X159315925Y-91524781D01*
X159416447Y-91282100D01*
X159467693Y-91024470D01*
X159467693Y-90761794D01*
X159416447Y-90504164D01*
X159315925Y-90261483D01*
X159169990Y-90043075D01*
X158984250Y-89857335D01*
X158765842Y-89711400D01*
X158552745Y-89623132D01*
X158765842Y-89534864D01*
X158984250Y-89388929D01*
X159169990Y-89203189D01*
X159303130Y-89003930D01*
X159307599Y-89026398D01*
X159385620Y-89214756D01*
X159477326Y-89352004D01*
X159477325Y-97397274D01*
X159473331Y-97437825D01*
X159477325Y-97478375D01*
X159477325Y-97478377D01*
X159489269Y-97599650D01*
X159512142Y-97675051D01*
X159536472Y-97755258D01*
X159613126Y-97898667D01*
X159647039Y-97939990D01*
X159716284Y-98024366D01*
X159747791Y-98050223D01*
X160389572Y-98692004D01*
X160421774Y-98853898D01*
X160499795Y-99042256D01*
X160613063Y-99211774D01*
X160757226Y-99355937D01*
X160926744Y-99469205D01*
X161115102Y-99547226D01*
X161315061Y-99587000D01*
X161518939Y-99587000D01*
X161718898Y-99547226D01*
X161907256Y-99469205D01*
X162076774Y-99355937D01*
X162220937Y-99211774D01*
X162334205Y-99042256D01*
X162412226Y-98853898D01*
X162452000Y-98653939D01*
X162452000Y-98450061D01*
X162412226Y-98250102D01*
X162334205Y-98061744D01*
X162220937Y-97892226D01*
X162076774Y-97748063D01*
X161907256Y-97634795D01*
X161718898Y-97556774D01*
X161557004Y-97524572D01*
X161128325Y-97095893D01*
X161128325Y-89352003D01*
X161220030Y-89214756D01*
X161298051Y-89026398D01*
X161337825Y-88826439D01*
X161337825Y-88622561D01*
X161321949Y-88542747D01*
X161396686Y-88542747D01*
X161596645Y-88502973D01*
X161785003Y-88424952D01*
X161954521Y-88311684D01*
X161989989Y-88276216D01*
X167077172Y-88323320D01*
X167004774Y-88498102D01*
X166965000Y-88698061D01*
X166965000Y-88901939D01*
X167004774Y-89101898D01*
X167082795Y-89290256D01*
X167196063Y-89459774D01*
X167340226Y-89603937D01*
X167509744Y-89717205D01*
X167698102Y-89795226D01*
X167898061Y-89835000D01*
X167938001Y-89835000D01*
X167938000Y-90498289D01*
X167896063Y-90540226D01*
X167782795Y-90709744D01*
X167704774Y-90898102D01*
X167665000Y-91098061D01*
X167665000Y-91301939D01*
X167704774Y-91501898D01*
X167782795Y-91690256D01*
X167896063Y-91859774D01*
X168040226Y-92003937D01*
X168209744Y-92117205D01*
X168398102Y-92195226D01*
X168598061Y-92235000D01*
X168801939Y-92235000D01*
X169001898Y-92195226D01*
X169190256Y-92117205D01*
X169359774Y-92003937D01*
X169503937Y-91859774D01*
X169617205Y-91690256D01*
X169695226Y-91501898D01*
X169735000Y-91301939D01*
X169735000Y-91098061D01*
X169695226Y-90898102D01*
X169617205Y-90709744D01*
X169503937Y-90540226D01*
X169462000Y-90498289D01*
X169462000Y-89537415D01*
X169465685Y-89499999D01*
X169462000Y-89462583D01*
X169462000Y-89462574D01*
X169450974Y-89350622D01*
X169407402Y-89206985D01*
X169336645Y-89074608D01*
X169241422Y-88958578D01*
X169212351Y-88934720D01*
X169035000Y-88757369D01*
X169035000Y-88698061D01*
X168995226Y-88498102D01*
X168929934Y-88340475D01*
X174179452Y-88389082D01*
X174248124Y-88457754D01*
X174219226Y-88477063D01*
X174176821Y-88519468D01*
X174069622Y-88530026D01*
X173925985Y-88573598D01*
X173864364Y-88606535D01*
X173793607Y-88644355D01*
X173778753Y-88656546D01*
X173677578Y-88739578D01*
X173653716Y-88768654D01*
X171457370Y-90965000D01*
X171398061Y-90965000D01*
X171198102Y-91004774D01*
X171009744Y-91082795D01*
X170840226Y-91196063D01*
X170696063Y-91340226D01*
X170582795Y-91509744D01*
X170504774Y-91698102D01*
X170465000Y-91898061D01*
X170465000Y-92101939D01*
X170504774Y-92301898D01*
X170582795Y-92490256D01*
X170696063Y-92659774D01*
X170840226Y-92803937D01*
X171009744Y-92917205D01*
X171198102Y-92995226D01*
X171398061Y-93035000D01*
X171601939Y-93035000D01*
X171801898Y-92995226D01*
X171990256Y-92917205D01*
X172159774Y-92803937D01*
X172303937Y-92659774D01*
X172417205Y-92490256D01*
X172495226Y-92301898D01*
X172535000Y-92101939D01*
X172535000Y-92042630D01*
X174383158Y-90194472D01*
X174388744Y-90198205D01*
X174577102Y-90276226D01*
X174777061Y-90316000D01*
X174980939Y-90316000D01*
X175180898Y-90276226D01*
X175369256Y-90198205D01*
X175538774Y-90084937D01*
X175682937Y-89940774D01*
X175702246Y-89911876D01*
X179559000Y-93768631D01*
X179559000Y-93827939D01*
X179598774Y-94027898D01*
X179676795Y-94216256D01*
X179790063Y-94385774D01*
X179934226Y-94529937D01*
X180103744Y-94643205D01*
X180292102Y-94721226D01*
X180455310Y-94753690D01*
X180487774Y-94916898D01*
X180565795Y-95105256D01*
X180679063Y-95274774D01*
X180823226Y-95418937D01*
X180992744Y-95532205D01*
X181181102Y-95610226D01*
X181381061Y-95650000D01*
X181448001Y-95650000D01*
X181448001Y-97292565D01*
X176516996Y-102223571D01*
X176355102Y-102255774D01*
X176166744Y-102333795D01*
X175997226Y-102447063D01*
X175853063Y-102591226D01*
X175739795Y-102760744D01*
X175661774Y-102949102D01*
X175622000Y-103149061D01*
X175622000Y-103352939D01*
X175661774Y-103552898D01*
X175739795Y-103741256D01*
X175853063Y-103910774D01*
X175997226Y-104054937D01*
X176166744Y-104168205D01*
X176355102Y-104246226D01*
X176555061Y-104286000D01*
X176758939Y-104286000D01*
X176958898Y-104246226D01*
X177147256Y-104168205D01*
X177316774Y-104054937D01*
X177460937Y-103910774D01*
X177574205Y-103741256D01*
X177652226Y-103552898D01*
X177684429Y-103391004D01*
X182828547Y-98246887D01*
X182860042Y-98221040D01*
X182885890Y-98189544D01*
X182885893Y-98189541D01*
X182963200Y-98095342D01*
X183039854Y-97951933D01*
X183057966Y-97892226D01*
X183087057Y-97796325D01*
X183099001Y-97675052D01*
X183099001Y-97675050D01*
X183102995Y-97634499D01*
X183099001Y-97593949D01*
X183099001Y-89146543D01*
X183102994Y-89106000D01*
X183099001Y-89065457D01*
X183099001Y-89065448D01*
X183087057Y-88944175D01*
X183039854Y-88788567D01*
X182963200Y-88645159D01*
X182963199Y-88645157D01*
X182905622Y-88575000D01*
X182860042Y-88519460D01*
X182828540Y-88493607D01*
X181240429Y-86905496D01*
X181208226Y-86743602D01*
X181130205Y-86555244D01*
X181016937Y-86385726D01*
X180872774Y-86241563D01*
X180703256Y-86128295D01*
X180514898Y-86050274D01*
X180314939Y-86010500D01*
X180111061Y-86010500D01*
X179911102Y-86050274D01*
X179722744Y-86128295D01*
X179553226Y-86241563D01*
X179409063Y-86385726D01*
X179295795Y-86555244D01*
X179217774Y-86743602D01*
X179178000Y-86943561D01*
X179178000Y-87147439D01*
X179217774Y-87347398D01*
X179295795Y-87535756D01*
X179409063Y-87705274D01*
X179553226Y-87849437D01*
X179722744Y-87962705D01*
X179911102Y-88040726D01*
X180072996Y-88072929D01*
X181448002Y-89447935D01*
X181448002Y-91943235D01*
X175841821Y-86337055D01*
X175923205Y-86215256D01*
X176001226Y-86026898D01*
X176041000Y-85826939D01*
X176041000Y-85623061D01*
X176001226Y-85423102D01*
X175923205Y-85234744D01*
X175809937Y-85065226D01*
X175665774Y-84921063D01*
X175496256Y-84807795D01*
X175402000Y-84768753D01*
X175402000Y-83018072D01*
X175490000Y-83018072D01*
X175614482Y-83005812D01*
X175734180Y-82969502D01*
X175844494Y-82910537D01*
X175941185Y-82831185D01*
X176020537Y-82734494D01*
X176079502Y-82624180D01*
X176115812Y-82504482D01*
X176128072Y-82380000D01*
X176128072Y-80962500D01*
X180220497Y-80962500D01*
X180357744Y-81054205D01*
X180546102Y-81132226D01*
X180746061Y-81172000D01*
X180949939Y-81172000D01*
X181149898Y-81132226D01*
X181338256Y-81054205D01*
X181507774Y-80940937D01*
X181651937Y-80796774D01*
X181765205Y-80627256D01*
X181843226Y-80438898D01*
X181883000Y-80238939D01*
X181883000Y-80035061D01*
X181843226Y-79835102D01*
X181765205Y-79646744D01*
X181673500Y-79509497D01*
X181673500Y-79224281D01*
X185030096Y-76072952D01*
X185024193Y-76102627D01*
X185024193Y-76493637D01*
X185100475Y-76877135D01*
X185250108Y-77238382D01*
X185467342Y-77563496D01*
X185743829Y-77839983D01*
X186068943Y-78057217D01*
X186430190Y-78206850D01*
X186813688Y-78283132D01*
X187204698Y-78283132D01*
X187588196Y-78206850D01*
X187949443Y-78057217D01*
X188274557Y-77839983D01*
X188551044Y-77563496D01*
X188768278Y-77238382D01*
X188917911Y-76877135D01*
X188994193Y-76493637D01*
X188994193Y-76102627D01*
X188917911Y-75719129D01*
X188768278Y-75357882D01*
X188551044Y-75032768D01*
X188274557Y-74756281D01*
X187949443Y-74539047D01*
X187588196Y-74389414D01*
X187204698Y-74313132D01*
X186904544Y-74313132D01*
X190042589Y-71366990D01*
X190196624Y-71521025D01*
X190443940Y-71686276D01*
X190718742Y-71800103D01*
X191010471Y-71858132D01*
X191307915Y-71858132D01*
X191599644Y-71800103D01*
X191874446Y-71686276D01*
X192121762Y-71521025D01*
X192332086Y-71310701D01*
X192497337Y-71063385D01*
X192611164Y-70788583D01*
X192669193Y-70496854D01*
X192669193Y-70199410D01*
X192611164Y-69907681D01*
X192497337Y-69632879D01*
X192332086Y-69385563D01*
X192121762Y-69175239D01*
X191874446Y-69009988D01*
X191599644Y-68896161D01*
X191307915Y-68838132D01*
X191010471Y-68838132D01*
X190718742Y-68896161D01*
X190443940Y-69009988D01*
X190196624Y-69175239D01*
X189986300Y-69385563D01*
X189894736Y-69522599D01*
X189894243Y-69522632D01*
X189881204Y-69522632D01*
X189853781Y-69525333D01*
X189785658Y-69529880D01*
X189772994Y-69533289D01*
X189759931Y-69534576D01*
X189694567Y-69554404D01*
X189628640Y-69572153D01*
X189616880Y-69577970D01*
X189604323Y-69581779D01*
X189544095Y-69613972D01*
X189482886Y-69644248D01*
X189472485Y-69652248D01*
X189460915Y-69658433D01*
X189408128Y-69701754D01*
X189386297Y-69718547D01*
X189376793Y-69727470D01*
X189335216Y-69761591D01*
X189317648Y-69782998D01*
X180303037Y-78246338D01*
X180261460Y-78280459D01*
X180218144Y-78333240D01*
X180173172Y-78384644D01*
X180166622Y-78396019D01*
X180158302Y-78406158D01*
X180126123Y-78466360D01*
X180092035Y-78525565D01*
X180087831Y-78537998D01*
X180081648Y-78549566D01*
X180061827Y-78614906D01*
X180039951Y-78679607D01*
X180038254Y-78692618D01*
X180034445Y-78705174D01*
X180027752Y-78773132D01*
X180018919Y-78840850D01*
X180022501Y-78894517D01*
X180022501Y-79311500D01*
X176128933Y-79311500D01*
X176102356Y-79284924D01*
X176103513Y-79281111D01*
X176132185Y-78990000D01*
X176103513Y-78698889D01*
X176018599Y-78418966D01*
X175880706Y-78160986D01*
X175695134Y-77934866D01*
X175469014Y-77749294D01*
X175211034Y-77611401D01*
X174931111Y-77526487D01*
X174712950Y-77505000D01*
X174567050Y-77505000D01*
X174348889Y-77526487D01*
X174068966Y-77611401D01*
X173810986Y-77749294D01*
X173584866Y-77934866D01*
X173399294Y-78160986D01*
X173370000Y-78215791D01*
X173340706Y-78160986D01*
X173155134Y-77934866D01*
X172929014Y-77749294D01*
X172671034Y-77611401D01*
X172391111Y-77526487D01*
X172172950Y-77505000D01*
X172027050Y-77505000D01*
X171808889Y-77526487D01*
X171528966Y-77611401D01*
X171270986Y-77749294D01*
X171044866Y-77934866D01*
X170859294Y-78160986D01*
X170824799Y-78225523D01*
X170755178Y-78108645D01*
X170560269Y-77892412D01*
X170326920Y-77718359D01*
X170064099Y-77593175D01*
X169916890Y-77548524D01*
X169687000Y-77669845D01*
X169687000Y-78863000D01*
X169707000Y-78863000D01*
X169707000Y-79117000D01*
X169687000Y-79117000D01*
X169687000Y-79137000D01*
X169433000Y-79137000D01*
X169433000Y-79117000D01*
X168239186Y-79117000D01*
X168118519Y-79346891D01*
X168215843Y-79621252D01*
X168364822Y-79871355D01*
X168559731Y-80087588D01*
X168788756Y-80258416D01*
X168730986Y-80289294D01*
X168504866Y-80474866D01*
X168319294Y-80700986D01*
X168181401Y-80958966D01*
X168096487Y-81238889D01*
X168067815Y-81530000D01*
X168096487Y-81821111D01*
X168181401Y-82101034D01*
X168319294Y-82359014D01*
X168504866Y-82585134D01*
X168730986Y-82770706D01*
X168988966Y-82908599D01*
X169268889Y-82993513D01*
X169487050Y-83015000D01*
X169632950Y-83015000D01*
X169851111Y-82993513D01*
X170131034Y-82908599D01*
X170389014Y-82770706D01*
X170615134Y-82585134D01*
X170800706Y-82359014D01*
X170830000Y-82304209D01*
X170859294Y-82359014D01*
X171044866Y-82585134D01*
X171270986Y-82770706D01*
X171338000Y-82806526D01*
X171338001Y-84559567D01*
X171334314Y-84597000D01*
X171349027Y-84746378D01*
X171392599Y-84890015D01*
X171463355Y-85022392D01*
X171533402Y-85107744D01*
X171558579Y-85138422D01*
X171587649Y-85162279D01*
X172066000Y-85640631D01*
X172066000Y-85699939D01*
X172091014Y-85825695D01*
X168912595Y-85797386D01*
X169019256Y-85753205D01*
X169188774Y-85639937D01*
X169332937Y-85495774D01*
X169446205Y-85326256D01*
X169524226Y-85137898D01*
X169564000Y-84937939D01*
X169564000Y-84734061D01*
X169524226Y-84534102D01*
X169446205Y-84345744D01*
X169332937Y-84176226D01*
X169188774Y-84032063D01*
X169019256Y-83918795D01*
X168830898Y-83840774D01*
X168673689Y-83809504D01*
X166890771Y-81630382D01*
X166844566Y-81573440D01*
X166814435Y-81548432D01*
X166786780Y-81520693D01*
X166756814Y-81500606D01*
X166729066Y-81477575D01*
X166694633Y-81458924D01*
X166662100Y-81437116D01*
X166628800Y-81423264D01*
X166597084Y-81406085D01*
X166559668Y-81394508D01*
X166523511Y-81379468D01*
X166488148Y-81372379D01*
X166453690Y-81361717D01*
X166414740Y-81357663D01*
X166376338Y-81349964D01*
X166302943Y-81349854D01*
X131894513Y-81159004D01*
X131848673Y-81113164D01*
X131679155Y-80999896D01*
X131490797Y-80921875D01*
X131290838Y-80882101D01*
X131086960Y-80882101D01*
X130887001Y-80921875D01*
X130698643Y-80999896D01*
X130529125Y-81113164D01*
X130384962Y-81257327D01*
X130271694Y-81426845D01*
X130193673Y-81615203D01*
X130153899Y-81815162D01*
X113760000Y-81815162D01*
X113760000Y-79011598D01*
X113823000Y-79025000D01*
X114123000Y-79025000D01*
X114123000Y-78017000D01*
X114377000Y-78017000D01*
X114377000Y-79025000D01*
X114677000Y-79025000D01*
X114895987Y-78978415D01*
X115101678Y-78890003D01*
X115286169Y-78763161D01*
X115442369Y-78602764D01*
X115564276Y-78414976D01*
X115644119Y-78191874D01*
X116785881Y-78191874D01*
X116865724Y-78414976D01*
X116987631Y-78602764D01*
X117128206Y-78747116D01*
X117049259Y-78865269D01*
X116976892Y-79039978D01*
X116940000Y-79225448D01*
X116940000Y-79414552D01*
X116976892Y-79600022D01*
X117049259Y-79774731D01*
X117154319Y-79931964D01*
X117288036Y-80065681D01*
X117445269Y-80170741D01*
X117619978Y-80243108D01*
X117805448Y-80280000D01*
X117994552Y-80280000D01*
X118180022Y-80243108D01*
X118354731Y-80170741D01*
X118511964Y-80065681D01*
X118645681Y-79931964D01*
X118750741Y-79774731D01*
X118823108Y-79600022D01*
X118860000Y-79414552D01*
X118860000Y-79225448D01*
X118823108Y-79039978D01*
X118816904Y-79025000D01*
X119107000Y-79025000D01*
X119325987Y-78978415D01*
X119531678Y-78890003D01*
X119716169Y-78763161D01*
X119842818Y-78633109D01*
X168118519Y-78633109D01*
X168239186Y-78863000D01*
X169433000Y-78863000D01*
X169433000Y-77669845D01*
X169203110Y-77548524D01*
X169055901Y-77593175D01*
X168793080Y-77718359D01*
X168559731Y-77892412D01*
X168364822Y-78108645D01*
X168215843Y-78358748D01*
X168118519Y-78633109D01*
X119842818Y-78633109D01*
X119872369Y-78602764D01*
X119994276Y-78414976D01*
X120074119Y-78191874D01*
X119947954Y-78017000D01*
X118557000Y-78017000D01*
X118557000Y-78037000D01*
X118303000Y-78037000D01*
X118303000Y-78017000D01*
X116912046Y-78017000D01*
X116785881Y-78191874D01*
X115644119Y-78191874D01*
X115517954Y-78017000D01*
X114377000Y-78017000D01*
X114123000Y-78017000D01*
X114103000Y-78017000D01*
X114103000Y-77763000D01*
X114123000Y-77763000D01*
X114123000Y-77743000D01*
X114377000Y-77743000D01*
X114377000Y-77763000D01*
X115517954Y-77763000D01*
X115644119Y-77588126D01*
X116785881Y-77588126D01*
X116912046Y-77763000D01*
X118303000Y-77763000D01*
X118303000Y-76755000D01*
X118557000Y-76755000D01*
X118557000Y-77763000D01*
X119947954Y-77763000D01*
X120074119Y-77588126D01*
X119994276Y-77365024D01*
X119872369Y-77177236D01*
X119716169Y-77016839D01*
X119531678Y-76889997D01*
X119325987Y-76801585D01*
X119107000Y-76755000D01*
X118557000Y-76755000D01*
X118303000Y-76755000D01*
X117753000Y-76755000D01*
X117534013Y-76801585D01*
X117328322Y-76889997D01*
X117143831Y-77016839D01*
X116987631Y-77177236D01*
X116865724Y-77365024D01*
X116785881Y-77588126D01*
X115644119Y-77588126D01*
X115564276Y-77365024D01*
X115442369Y-77177236D01*
X115286169Y-77016839D01*
X115101678Y-76889997D01*
X114895987Y-76801585D01*
X114756122Y-76771832D01*
X114756851Y-76764400D01*
X114756851Y-76764392D01*
X114760000Y-76732419D01*
X114760000Y-76102627D01*
X119824193Y-76102627D01*
X119824193Y-76493637D01*
X119900475Y-76877135D01*
X120050108Y-77238382D01*
X120267342Y-77563496D01*
X120543829Y-77839983D01*
X120868943Y-78057217D01*
X121230190Y-78206850D01*
X121613688Y-78283132D01*
X122004698Y-78283132D01*
X122388196Y-78206850D01*
X122749443Y-78057217D01*
X123074557Y-77839983D01*
X123351044Y-77563496D01*
X123568278Y-77238382D01*
X123717911Y-76877135D01*
X123794193Y-76493637D01*
X123794193Y-76102627D01*
X123717911Y-75719129D01*
X123568278Y-75357882D01*
X123351044Y-75032768D01*
X123074557Y-74756281D01*
X122749443Y-74539047D01*
X122388196Y-74389414D01*
X122004698Y-74313132D01*
X121613688Y-74313132D01*
X121230190Y-74389414D01*
X120868943Y-74539047D01*
X120543829Y-74756281D01*
X120267342Y-75032768D01*
X120050108Y-75357882D01*
X119900475Y-75719129D01*
X119824193Y-76102627D01*
X114760000Y-76102627D01*
X114760000Y-73699410D01*
X116149193Y-73699410D01*
X116149193Y-73996854D01*
X116207222Y-74288583D01*
X116321049Y-74563385D01*
X116486300Y-74810701D01*
X116696624Y-75021025D01*
X116943940Y-75186276D01*
X117218742Y-75300103D01*
X117510471Y-75358132D01*
X117807915Y-75358132D01*
X118099644Y-75300103D01*
X118374446Y-75186276D01*
X118621762Y-75021025D01*
X118832086Y-74810701D01*
X118997337Y-74563385D01*
X119111164Y-74288583D01*
X119169193Y-73996854D01*
X119169193Y-73699410D01*
X119111164Y-73407681D01*
X118997337Y-73132879D01*
X118832086Y-72885563D01*
X118621762Y-72675239D01*
X118374446Y-72509988D01*
X118099644Y-72396161D01*
X117807915Y-72338132D01*
X117510471Y-72338132D01*
X117218742Y-72396161D01*
X116943940Y-72509988D01*
X116696624Y-72675239D01*
X116486300Y-72885563D01*
X116321049Y-73132879D01*
X116207222Y-73407681D01*
X116149193Y-73699410D01*
X114760000Y-73699410D01*
X114760000Y-71223132D01*
X116146121Y-71223132D01*
X116158381Y-71347614D01*
X116194691Y-71467312D01*
X116253656Y-71577626D01*
X116333008Y-71674317D01*
X116429699Y-71753669D01*
X116540013Y-71812634D01*
X116659711Y-71848944D01*
X116784193Y-71861204D01*
X117373443Y-71858132D01*
X117532193Y-71699382D01*
X117532193Y-70475132D01*
X117786193Y-70475132D01*
X117786193Y-71699382D01*
X117944943Y-71858132D01*
X118534193Y-71861204D01*
X118658675Y-71848944D01*
X118778373Y-71812634D01*
X118888687Y-71753669D01*
X118985378Y-71674317D01*
X119064730Y-71577626D01*
X119123695Y-71467312D01*
X119160005Y-71347614D01*
X119172265Y-71223132D01*
X119169193Y-70633882D01*
X119010443Y-70475132D01*
X117786193Y-70475132D01*
X117532193Y-70475132D01*
X116307943Y-70475132D01*
X116149193Y-70633882D01*
X116146121Y-71223132D01*
X114760000Y-71223132D01*
X114760000Y-69473132D01*
X116146121Y-69473132D01*
X116149193Y-70062382D01*
X116307943Y-70221132D01*
X117532193Y-70221132D01*
X117532193Y-68996882D01*
X117786193Y-68996882D01*
X117786193Y-70221132D01*
X119010443Y-70221132D01*
X119169193Y-70062382D01*
X119172265Y-69473132D01*
X119160005Y-69348650D01*
X119123695Y-69228952D01*
X119064730Y-69118638D01*
X118985378Y-69021947D01*
X118888687Y-68942595D01*
X118778373Y-68883630D01*
X118658675Y-68847320D01*
X118534193Y-68835060D01*
X117944943Y-68838132D01*
X117786193Y-68996882D01*
X117532193Y-68996882D01*
X117373443Y-68838132D01*
X116784193Y-68835060D01*
X116659711Y-68847320D01*
X116540013Y-68883630D01*
X116429699Y-68942595D01*
X116333008Y-69021947D01*
X116253656Y-69118638D01*
X116194691Y-69228952D01*
X116158381Y-69348650D01*
X116146121Y-69473132D01*
X114760000Y-69473132D01*
X114760000Y-67232279D01*
X114769580Y-67134576D01*
X114788580Y-67071644D01*
X114819445Y-67013595D01*
X114860989Y-66962657D01*
X114911644Y-66920752D01*
X114969471Y-66889485D01*
X115032272Y-66870044D01*
X115127835Y-66860000D01*
X121315511Y-66860000D01*
X121250108Y-66957882D01*
M02*
