M48
; DRILL file {KiCad (5.1.4)-1} date 16/09/2020 16:25:45
; FORMAT={-:-/ absolute / inch / decimal}
; #@! TF.CreationDate,2020-09-16T16:25:45+03:00
; #@! TF.GenerationSoftware,Kicad,Pcbnew,(5.1.4)-1
; #@! TF.FileFunction,Plated,1,2,PTH
FMAT,2
INCH
T1C0.0157
T2C0.0236
T3C0.0320
T4C0.0394
T5C0.0472
T6C0.0579
T7C0.0591
T8C0.0669
%
G90
G05
T1
X4.1562Y-4.1824
X4.311Y-4.3307
X4.3622Y-4.5039
X4.7313Y-4.0463
X5.125Y-3.19
X5.16Y-3.395
X5.1649Y-3.2251
X5.21Y-3.365
X5.215Y-3.255
X5.51Y-4.0722
X5.9037Y-3.7514
X6.05Y-3.78
X6.3111Y-3.4931
X6.3502Y-3.4052
X6.3502Y-3.4452
X6.355Y-3.88
X6.4178Y-3.2922
X6.565Y-3.13
X6.5956Y-3.34
X6.6142Y-3.4961
X6.635Y-3.34
X6.635Y-3.95
X6.6417Y-3.5906
X6.6575Y-3.7165
X6.7049Y-3.5001
X6.752Y-3.622
X6.815Y-3.37
X6.8441Y-3.7846
X6.845Y-3.34
X6.885Y-3.515
X6.89Y-3.375
X6.955Y-4.065
X7.02Y-4.085
X7.095Y-3.427
X7.11Y-3.69
X7.12Y-2.99
X7.12Y-3.155
X7.145Y-3.725
X7.27Y-4.455
X7.285Y-3.94
X7.52Y-4.48
T3
X6.2258Y-3.3785
X6.2258Y-3.4785
X6.2258Y-3.5785
X6.2258Y-3.6785
T4
X3.8773Y-4.1003
X3.8773Y-4.6712
X3.9758Y-4.6712
X4.0742Y-4.1003
X4.0742Y-4.6712
X6.6756Y-3.1098
X6.6756Y-3.2098
X6.7756Y-3.1098
X6.7756Y-3.2098
X6.8756Y-3.1098
X6.8756Y-3.2098
T5
X4.6323Y-2.7696
X4.6323Y-2.9074
X7.526Y-2.7696
T6
X6.2313Y-4.2759
X6.2828Y-4.2184
X6.4797Y-4.1987
X6.4813Y-4.1759
X5.4813Y-4.2759
X5.5328Y-4.2184
X5.7297Y-4.1987
X5.7313Y-4.1759
X4.7313Y-3.5259
X4.7828Y-3.4684
X4.9797Y-3.4487
X4.9813Y-3.4259
X6.9813Y-4.2759
X7.0328Y-4.2184
X7.2297Y-4.1987
X7.2313Y-4.1759
X5.4813Y-3.5259
X5.5328Y-3.4684
X5.7297Y-3.4487
X5.7313Y-3.4259
X4.7313Y-4.2759
X4.7828Y-4.2184
X4.9797Y-4.1987
X4.9813Y-4.1759
T8
X4.7956Y-3.0039
X4.8429Y-2.6732
X7.3153Y-2.6732
X7.3626Y-3.0039
T2
G00X4.4862Y-3.0665
M15
G01X4.5098Y-3.0665
M16
G05
G00X4.4862Y-3.4067
M15
G01X4.5098Y-3.4067
M16
G05
G00X4.6409Y-3.0665
M15
G01X4.6843Y-3.0665
M16
G05
G00X4.6409Y-3.4067
M15
G01X4.6843Y-3.4067
M16
G05
T7
G00X3.7553Y-4.4015
M15
G01X3.7553Y-4.3503
M16
G05
G00X4.1962Y-4.4015
M15
G01X4.1962Y-4.3503
M16
G05
T0
M30
