G04 #@! TF.GenerationSoftware,KiCad,Pcbnew,(5.1.4)-1*
G04 #@! TF.CreationDate,2020-09-16T16:25:40+03:00*
G04 #@! TF.ProjectId,MacroBoardPcb,4d616372-6f42-46f6-9172-645063622e6b,rev?*
G04 #@! TF.SameCoordinates,Original*
G04 #@! TF.FileFunction,Profile,NP*
%FSLAX46Y46*%
G04 Gerber Fmt 4.6, Leading zero omitted, Abs format (unit mm)*
G04 Created by KiCad (PCBNEW (5.1.4)-1) date 2020-09-16 16:25:40*
%MOMM*%
%LPD*%
G04 APERTURE LIST*
%ADD10C,0.050000*%
G04 APERTURE END LIST*
D10*
X113100000Y-77300000D02*
X113100000Y-87100000D01*
X113800000Y-77000000D02*
X113400000Y-77000000D01*
X114100000Y-67200000D02*
X114100000Y-76700000D01*
X114100000Y-87700000D02*
X114100000Y-101500000D01*
X113400000Y-87400000D02*
X113800000Y-87400000D01*
X114100000Y-76700000D02*
G75*
G02X113800000Y-77000000I-300000J0D01*
G01*
X113100000Y-77300000D02*
G75*
G02X113400000Y-77000000I300000J0D01*
G01*
X113400000Y-87400000D02*
G75*
G02X113100000Y-87100000I0J300000D01*
G01*
X113800000Y-87400000D02*
G75*
G02X114100000Y-87700000I0J-300000D01*
G01*
X94700000Y-102500000D02*
X113100000Y-102500000D01*
X93700000Y-119900000D02*
X93700000Y-103500000D01*
X194100000Y-120900000D02*
X94700000Y-120900000D01*
X195100000Y-67200000D02*
X195100000Y-119900000D01*
X115100000Y-66200000D02*
X194100000Y-66200000D01*
X114100000Y-67200000D02*
G75*
G02X115100000Y-66200000I1000000J0D01*
G01*
X114100000Y-101500000D02*
G75*
G02X113100000Y-102500000I-1000000J0D01*
G01*
X93700000Y-103500000D02*
G75*
G02X94700000Y-102500000I1000000J0D01*
G01*
X94700000Y-120900000D02*
G75*
G02X93700000Y-119900000I0J1000000D01*
G01*
X195100000Y-119900000D02*
G75*
G02X194100000Y-120900000I-1000000J0D01*
G01*
X194100000Y-66200000D02*
G75*
G02X195100000Y-67200000I0J-1000000D01*
G01*
M02*
