G04 #@! TF.GenerationSoftware,KiCad,Pcbnew,(5.1.4)-1*
G04 #@! TF.CreationDate,2020-09-16T16:25:40+03:00*
G04 #@! TF.ProjectId,MacroBoardPcb,4d616372-6f42-46f6-9172-645063622e6b,rev?*
G04 #@! TF.SameCoordinates,Original*
G04 #@! TF.FileFunction,Soldermask,Bot*
G04 #@! TF.FilePolarity,Negative*
%FSLAX46Y46*%
G04 Gerber Fmt 4.6, Leading zero omitted, Abs format (unit mm)*
G04 Created by KiCad (PCBNEW (5.1.4)-1) date 2020-09-16 16:25:40*
%MOMM*%
%LPD*%
G04 APERTURE LIST*
%ADD10C,0.100000*%
G04 APERTURE END LIST*
D10*
G36*
X99535193Y-119699132D02*
G01*
X97433193Y-119699132D01*
X97433193Y-117597132D01*
X99535193Y-117597132D01*
X99535193Y-119699132D01*
X99535193Y-119699132D01*
G37*
G36*
X101290757Y-117637521D02*
G01*
X101482026Y-117716747D01*
X101482028Y-117716748D01*
X101654166Y-117831767D01*
X101800558Y-117978159D01*
X101915578Y-118150299D01*
X101994804Y-118341568D01*
X102035193Y-118544616D01*
X102035193Y-118751648D01*
X101994804Y-118954696D01*
X101915578Y-119145965D01*
X101915577Y-119145967D01*
X101800558Y-119318105D01*
X101654166Y-119464497D01*
X101482028Y-119579516D01*
X101482027Y-119579517D01*
X101482026Y-119579517D01*
X101290757Y-119658743D01*
X101087709Y-119699132D01*
X100880677Y-119699132D01*
X100677629Y-119658743D01*
X100486360Y-119579517D01*
X100486359Y-119579517D01*
X100486358Y-119579516D01*
X100314220Y-119464497D01*
X100167828Y-119318105D01*
X100052809Y-119145967D01*
X100052808Y-119145965D01*
X99973582Y-118954696D01*
X99933193Y-118751648D01*
X99933193Y-118544616D01*
X99973582Y-118341568D01*
X100052808Y-118150299D01*
X100167828Y-117978159D01*
X100314220Y-117831767D01*
X100486358Y-117716748D01*
X100486360Y-117716747D01*
X100677629Y-117637521D01*
X100880677Y-117597132D01*
X101087709Y-117597132D01*
X101290757Y-117637521D01*
X101290757Y-117637521D01*
G37*
G36*
X103790757Y-117637521D02*
G01*
X103982026Y-117716747D01*
X103982028Y-117716748D01*
X104154166Y-117831767D01*
X104300558Y-117978159D01*
X104415578Y-118150299D01*
X104494804Y-118341568D01*
X104535193Y-118544616D01*
X104535193Y-118751648D01*
X104494804Y-118954696D01*
X104415578Y-119145965D01*
X104415577Y-119145967D01*
X104300558Y-119318105D01*
X104154166Y-119464497D01*
X103982028Y-119579516D01*
X103982027Y-119579517D01*
X103982026Y-119579517D01*
X103790757Y-119658743D01*
X103587709Y-119699132D01*
X103380677Y-119699132D01*
X103177629Y-119658743D01*
X102986360Y-119579517D01*
X102986359Y-119579517D01*
X102986358Y-119579516D01*
X102814220Y-119464497D01*
X102667828Y-119318105D01*
X102552809Y-119145967D01*
X102552808Y-119145965D01*
X102473582Y-118954696D01*
X102433193Y-118751648D01*
X102433193Y-118544616D01*
X102473582Y-118341568D01*
X102552808Y-118150299D01*
X102667828Y-117978159D01*
X102814220Y-117831767D01*
X102986358Y-117716748D01*
X102986360Y-117716747D01*
X103177629Y-117637521D01*
X103380677Y-117597132D01*
X103587709Y-117597132D01*
X103790757Y-117637521D01*
X103790757Y-117637521D01*
G37*
G36*
X162680667Y-109181816D02*
G01*
X162898667Y-109272115D01*
X163052816Y-109335965D01*
X163387741Y-109559755D01*
X163672570Y-109844584D01*
X163896360Y-110179509D01*
X163928755Y-110257718D01*
X164050509Y-110551658D01*
X164129093Y-110946726D01*
X164129093Y-111349538D01*
X164050509Y-111744606D01*
X163999644Y-111867404D01*
X163896360Y-112116755D01*
X163672570Y-112451680D01*
X163387741Y-112736509D01*
X163052816Y-112960299D01*
X162898667Y-113024149D01*
X162680667Y-113114448D01*
X162285599Y-113193032D01*
X161882787Y-113193032D01*
X161487719Y-113114448D01*
X161269719Y-113024149D01*
X161115570Y-112960299D01*
X160780645Y-112736509D01*
X160495816Y-112451680D01*
X160272026Y-112116755D01*
X160168742Y-111867404D01*
X160117877Y-111744606D01*
X160039293Y-111349538D01*
X160039293Y-110946726D01*
X160117877Y-110551658D01*
X160239631Y-110257718D01*
X160272026Y-110179509D01*
X160495816Y-109844584D01*
X160780645Y-109559755D01*
X161115570Y-109335965D01*
X161269719Y-109272115D01*
X161487719Y-109181816D01*
X161882787Y-109103232D01*
X162285599Y-109103232D01*
X162680667Y-109181816D01*
X162680667Y-109181816D01*
G37*
G36*
X124580667Y-109181816D02*
G01*
X124798667Y-109272115D01*
X124952816Y-109335965D01*
X125287741Y-109559755D01*
X125572570Y-109844584D01*
X125796360Y-110179509D01*
X125828755Y-110257718D01*
X125950509Y-110551658D01*
X126029093Y-110946726D01*
X126029093Y-111349538D01*
X125950509Y-111744606D01*
X125899644Y-111867404D01*
X125796360Y-112116755D01*
X125572570Y-112451680D01*
X125287741Y-112736509D01*
X124952816Y-112960299D01*
X124798667Y-113024149D01*
X124580667Y-113114448D01*
X124185599Y-113193032D01*
X123782787Y-113193032D01*
X123387719Y-113114448D01*
X123169719Y-113024149D01*
X123015570Y-112960299D01*
X122680645Y-112736509D01*
X122395816Y-112451680D01*
X122172026Y-112116755D01*
X122068742Y-111867404D01*
X122017877Y-111744606D01*
X121939293Y-111349538D01*
X121939293Y-110946726D01*
X122017877Y-110551658D01*
X122139631Y-110257718D01*
X122172026Y-110179509D01*
X122395816Y-109844584D01*
X122680645Y-109559755D01*
X123015570Y-109335965D01*
X123169719Y-109272115D01*
X123387719Y-109181816D01*
X123782787Y-109103232D01*
X124185599Y-109103232D01*
X124580667Y-109181816D01*
X124580667Y-109181816D01*
G37*
G36*
X181730667Y-109181816D02*
G01*
X181948667Y-109272115D01*
X182102816Y-109335965D01*
X182437741Y-109559755D01*
X182722570Y-109844584D01*
X182946360Y-110179509D01*
X182978755Y-110257718D01*
X183100509Y-110551658D01*
X183179093Y-110946726D01*
X183179093Y-111349538D01*
X183100509Y-111744606D01*
X183049644Y-111867404D01*
X182946360Y-112116755D01*
X182722570Y-112451680D01*
X182437741Y-112736509D01*
X182102816Y-112960299D01*
X181948667Y-113024149D01*
X181730667Y-113114448D01*
X181335599Y-113193032D01*
X180932787Y-113193032D01*
X180537719Y-113114448D01*
X180319719Y-113024149D01*
X180165570Y-112960299D01*
X179830645Y-112736509D01*
X179545816Y-112451680D01*
X179322026Y-112116755D01*
X179218742Y-111867404D01*
X179167877Y-111744606D01*
X179089293Y-111349538D01*
X179089293Y-110946726D01*
X179167877Y-110551658D01*
X179289631Y-110257718D01*
X179322026Y-110179509D01*
X179545816Y-109844584D01*
X179830645Y-109559755D01*
X180165570Y-109335965D01*
X180319719Y-109272115D01*
X180537719Y-109181816D01*
X180932787Y-109103232D01*
X181335599Y-109103232D01*
X181730667Y-109181816D01*
X181730667Y-109181816D01*
G37*
G36*
X143630667Y-109181816D02*
G01*
X143848667Y-109272115D01*
X144002816Y-109335965D01*
X144337741Y-109559755D01*
X144622570Y-109844584D01*
X144846360Y-110179509D01*
X144878755Y-110257718D01*
X145000509Y-110551658D01*
X145079093Y-110946726D01*
X145079093Y-111349538D01*
X145000509Y-111744606D01*
X144949644Y-111867404D01*
X144846360Y-112116755D01*
X144622570Y-112451680D01*
X144337741Y-112736509D01*
X144002816Y-112960299D01*
X143848667Y-113024149D01*
X143630667Y-113114448D01*
X143235599Y-113193032D01*
X142832787Y-113193032D01*
X142437719Y-113114448D01*
X142219719Y-113024149D01*
X142065570Y-112960299D01*
X141730645Y-112736509D01*
X141445816Y-112451680D01*
X141222026Y-112116755D01*
X141118742Y-111867404D01*
X141067877Y-111744606D01*
X140989293Y-111349538D01*
X140989293Y-110946726D01*
X141067877Y-110551658D01*
X141189631Y-110257718D01*
X141222026Y-110179509D01*
X141445816Y-109844584D01*
X141730645Y-109559755D01*
X142065570Y-109335965D01*
X142219719Y-109272115D01*
X142437719Y-109181816D01*
X142832787Y-109103232D01*
X143235599Y-109103232D01*
X143630667Y-109181816D01*
X143630667Y-109181816D01*
G37*
G36*
X107635193Y-112799132D02*
G01*
X105533193Y-112799132D01*
X105533193Y-109497132D01*
X107635193Y-109497132D01*
X107635193Y-112799132D01*
X107635193Y-112799132D01*
G37*
G36*
X96435193Y-112799132D02*
G01*
X94333193Y-112799132D01*
X94333193Y-109497132D01*
X96435193Y-109497132D01*
X96435193Y-112799132D01*
X96435193Y-112799132D01*
G37*
G36*
X119174297Y-110257717D02*
G01*
X119342819Y-110327521D01*
X119494484Y-110428860D01*
X119623465Y-110557841D01*
X119724804Y-110709506D01*
X119794608Y-110878028D01*
X119830193Y-111056929D01*
X119830193Y-111239335D01*
X119794608Y-111418236D01*
X119724804Y-111586758D01*
X119623465Y-111738423D01*
X119494484Y-111867404D01*
X119342819Y-111968743D01*
X119174297Y-112038547D01*
X118995396Y-112074132D01*
X118812990Y-112074132D01*
X118634089Y-112038547D01*
X118465567Y-111968743D01*
X118313902Y-111867404D01*
X118184921Y-111738423D01*
X118083582Y-111586758D01*
X118013778Y-111418236D01*
X117978193Y-111239335D01*
X117978193Y-111056929D01*
X118013778Y-110878028D01*
X118083582Y-110709506D01*
X118184921Y-110557841D01*
X118313902Y-110428860D01*
X118465567Y-110327521D01*
X118634089Y-110257717D01*
X118812990Y-110222132D01*
X118995396Y-110222132D01*
X119174297Y-110257717D01*
X119174297Y-110257717D01*
G37*
G36*
X186484297Y-110257717D02*
G01*
X186652819Y-110327521D01*
X186804484Y-110428860D01*
X186933465Y-110557841D01*
X187034804Y-110709506D01*
X187104608Y-110878028D01*
X187140193Y-111056929D01*
X187140193Y-111239335D01*
X187104608Y-111418236D01*
X187034804Y-111586758D01*
X186933465Y-111738423D01*
X186804484Y-111867404D01*
X186652819Y-111968743D01*
X186484297Y-112038547D01*
X186305396Y-112074132D01*
X186122990Y-112074132D01*
X185944089Y-112038547D01*
X185775567Y-111968743D01*
X185623902Y-111867404D01*
X185494921Y-111738423D01*
X185393582Y-111586758D01*
X185323778Y-111418236D01*
X185288193Y-111239335D01*
X185288193Y-111056929D01*
X185323778Y-110878028D01*
X185393582Y-110709506D01*
X185494921Y-110557841D01*
X185623902Y-110428860D01*
X185775567Y-110327521D01*
X185944089Y-110257717D01*
X186122990Y-110222132D01*
X186305396Y-110222132D01*
X186484297Y-110257717D01*
X186484297Y-110257717D01*
G37*
G36*
X129334297Y-110257717D02*
G01*
X129502819Y-110327521D01*
X129654484Y-110428860D01*
X129783465Y-110557841D01*
X129884804Y-110709506D01*
X129954608Y-110878028D01*
X129990193Y-111056929D01*
X129990193Y-111239335D01*
X129954608Y-111418236D01*
X129884804Y-111586758D01*
X129783465Y-111738423D01*
X129654484Y-111867404D01*
X129502819Y-111968743D01*
X129334297Y-112038547D01*
X129155396Y-112074132D01*
X128972990Y-112074132D01*
X128794089Y-112038547D01*
X128625567Y-111968743D01*
X128473902Y-111867404D01*
X128344921Y-111738423D01*
X128243582Y-111586758D01*
X128173778Y-111418236D01*
X128138193Y-111239335D01*
X128138193Y-111056929D01*
X128173778Y-110878028D01*
X128243582Y-110709506D01*
X128344921Y-110557841D01*
X128473902Y-110428860D01*
X128625567Y-110327521D01*
X128794089Y-110257717D01*
X128972990Y-110222132D01*
X129155396Y-110222132D01*
X129334297Y-110257717D01*
X129334297Y-110257717D01*
G37*
G36*
X138224297Y-110257717D02*
G01*
X138392819Y-110327521D01*
X138544484Y-110428860D01*
X138673465Y-110557841D01*
X138774804Y-110709506D01*
X138844608Y-110878028D01*
X138880193Y-111056929D01*
X138880193Y-111239335D01*
X138844608Y-111418236D01*
X138774804Y-111586758D01*
X138673465Y-111738423D01*
X138544484Y-111867404D01*
X138392819Y-111968743D01*
X138224297Y-112038547D01*
X138045396Y-112074132D01*
X137862990Y-112074132D01*
X137684089Y-112038547D01*
X137515567Y-111968743D01*
X137363902Y-111867404D01*
X137234921Y-111738423D01*
X137133582Y-111586758D01*
X137063778Y-111418236D01*
X137028193Y-111239335D01*
X137028193Y-111056929D01*
X137063778Y-110878028D01*
X137133582Y-110709506D01*
X137234921Y-110557841D01*
X137363902Y-110428860D01*
X137515567Y-110327521D01*
X137684089Y-110257717D01*
X137862990Y-110222132D01*
X138045396Y-110222132D01*
X138224297Y-110257717D01*
X138224297Y-110257717D01*
G37*
G36*
X148384297Y-110257717D02*
G01*
X148552819Y-110327521D01*
X148704484Y-110428860D01*
X148833465Y-110557841D01*
X148934804Y-110709506D01*
X149004608Y-110878028D01*
X149040193Y-111056929D01*
X149040193Y-111239335D01*
X149004608Y-111418236D01*
X148934804Y-111586758D01*
X148833465Y-111738423D01*
X148704484Y-111867404D01*
X148552819Y-111968743D01*
X148384297Y-112038547D01*
X148205396Y-112074132D01*
X148022990Y-112074132D01*
X147844089Y-112038547D01*
X147675567Y-111968743D01*
X147523902Y-111867404D01*
X147394921Y-111738423D01*
X147293582Y-111586758D01*
X147223778Y-111418236D01*
X147188193Y-111239335D01*
X147188193Y-111056929D01*
X147223778Y-110878028D01*
X147293582Y-110709506D01*
X147394921Y-110557841D01*
X147523902Y-110428860D01*
X147675567Y-110327521D01*
X147844089Y-110257717D01*
X148022990Y-110222132D01*
X148205396Y-110222132D01*
X148384297Y-110257717D01*
X148384297Y-110257717D01*
G37*
G36*
X176324297Y-110257717D02*
G01*
X176492819Y-110327521D01*
X176644484Y-110428860D01*
X176773465Y-110557841D01*
X176874804Y-110709506D01*
X176944608Y-110878028D01*
X176980193Y-111056929D01*
X176980193Y-111239335D01*
X176944608Y-111418236D01*
X176874804Y-111586758D01*
X176773465Y-111738423D01*
X176644484Y-111867404D01*
X176492819Y-111968743D01*
X176324297Y-112038547D01*
X176145396Y-112074132D01*
X175962990Y-112074132D01*
X175784089Y-112038547D01*
X175615567Y-111968743D01*
X175463902Y-111867404D01*
X175334921Y-111738423D01*
X175233582Y-111586758D01*
X175163778Y-111418236D01*
X175128193Y-111239335D01*
X175128193Y-111056929D01*
X175163778Y-110878028D01*
X175233582Y-110709506D01*
X175334921Y-110557841D01*
X175463902Y-110428860D01*
X175615567Y-110327521D01*
X175784089Y-110257717D01*
X175962990Y-110222132D01*
X176145396Y-110222132D01*
X176324297Y-110257717D01*
X176324297Y-110257717D01*
G37*
G36*
X157274297Y-110257717D02*
G01*
X157442819Y-110327521D01*
X157594484Y-110428860D01*
X157723465Y-110557841D01*
X157824804Y-110709506D01*
X157894608Y-110878028D01*
X157930193Y-111056929D01*
X157930193Y-111239335D01*
X157894608Y-111418236D01*
X157824804Y-111586758D01*
X157723465Y-111738423D01*
X157594484Y-111867404D01*
X157442819Y-111968743D01*
X157274297Y-112038547D01*
X157095396Y-112074132D01*
X156912990Y-112074132D01*
X156734089Y-112038547D01*
X156565567Y-111968743D01*
X156413902Y-111867404D01*
X156284921Y-111738423D01*
X156183582Y-111586758D01*
X156113778Y-111418236D01*
X156078193Y-111239335D01*
X156078193Y-111056929D01*
X156113778Y-110878028D01*
X156183582Y-110709506D01*
X156284921Y-110557841D01*
X156413902Y-110428860D01*
X156565567Y-110327521D01*
X156734089Y-110257717D01*
X156912990Y-110222132D01*
X157095396Y-110222132D01*
X157274297Y-110257717D01*
X157274297Y-110257717D01*
G37*
G36*
X167434297Y-110257717D02*
G01*
X167602819Y-110327521D01*
X167754484Y-110428860D01*
X167883465Y-110557841D01*
X167984804Y-110709506D01*
X168054608Y-110878028D01*
X168090193Y-111056929D01*
X168090193Y-111239335D01*
X168054608Y-111418236D01*
X167984804Y-111586758D01*
X167883465Y-111738423D01*
X167754484Y-111867404D01*
X167602819Y-111968743D01*
X167434297Y-112038547D01*
X167255396Y-112074132D01*
X167072990Y-112074132D01*
X166894089Y-112038547D01*
X166725567Y-111968743D01*
X166573902Y-111867404D01*
X166444921Y-111738423D01*
X166343582Y-111586758D01*
X166273778Y-111418236D01*
X166238193Y-111239335D01*
X166238193Y-111056929D01*
X166273778Y-110878028D01*
X166343582Y-110709506D01*
X166444921Y-110557841D01*
X166573902Y-110428860D01*
X166725567Y-110327521D01*
X166894089Y-110257717D01*
X167072990Y-110222132D01*
X167255396Y-110222132D01*
X167434297Y-110257717D01*
X167434297Y-110257717D01*
G37*
G36*
X121507398Y-105972013D02*
G01*
X121512838Y-105972132D01*
X121600021Y-105972132D01*
X121616290Y-105975368D01*
X121635149Y-105977647D01*
X121651725Y-105978378D01*
X121736416Y-105999142D01*
X121741711Y-106000316D01*
X121827220Y-106017325D01*
X121842555Y-106023677D01*
X121860594Y-106029587D01*
X121876714Y-106033539D01*
X121955697Y-106070412D01*
X121960687Y-106072609D01*
X122041238Y-106105974D01*
X122055034Y-106115192D01*
X122071586Y-106124514D01*
X122086619Y-106131532D01*
X122156887Y-106183103D01*
X122161385Y-106186254D01*
X122233849Y-106234673D01*
X122245576Y-106246400D01*
X122260002Y-106258780D01*
X122273372Y-106268593D01*
X122273373Y-106268594D01*
X122332214Y-106332865D01*
X122336022Y-106336846D01*
X122397652Y-106398476D01*
X122406867Y-106412267D01*
X122418589Y-106427210D01*
X122429798Y-106439453D01*
X122474992Y-106514006D01*
X122477939Y-106518633D01*
X122526351Y-106591087D01*
X122532698Y-106606409D01*
X122541285Y-106623363D01*
X122549884Y-106637549D01*
X122579671Y-106719500D01*
X122581645Y-106724580D01*
X122615000Y-106805105D01*
X122615000Y-106805106D01*
X122618234Y-106821365D01*
X122623351Y-106839674D01*
X122629018Y-106855266D01*
X122642248Y-106941477D01*
X122643194Y-106946845D01*
X122660193Y-107032305D01*
X122660193Y-107048884D01*
X122661637Y-107067824D01*
X122664156Y-107084236D01*
X122660313Y-107171381D01*
X122660193Y-107176821D01*
X122660193Y-107263957D01*
X122656959Y-107280215D01*
X122654681Y-107299073D01*
X122653949Y-107315663D01*
X122633181Y-107400369D01*
X122632005Y-107405669D01*
X122615000Y-107491159D01*
X122608650Y-107506489D01*
X122602742Y-107524525D01*
X122598788Y-107540652D01*
X122561904Y-107619658D01*
X122559704Y-107624655D01*
X122526351Y-107705177D01*
X122517137Y-107718967D01*
X122507815Y-107735519D01*
X122500795Y-107750556D01*
X122449204Y-107820852D01*
X122446059Y-107825342D01*
X122397654Y-107897786D01*
X122340653Y-107954787D01*
X122336004Y-107959695D01*
X121904504Y-108440602D01*
X121010916Y-109436508D01*
X120882872Y-109553734D01*
X120783823Y-109613778D01*
X120684776Y-109673821D01*
X120467059Y-109752955D01*
X120238088Y-109788093D01*
X120006663Y-109777886D01*
X119781674Y-109722725D01*
X119676920Y-109673821D01*
X119571772Y-109624734D01*
X119475031Y-109553734D01*
X119385016Y-109487671D01*
X119310587Y-109406373D01*
X119228591Y-109316811D01*
X119146757Y-109181817D01*
X119108504Y-109118715D01*
X119029370Y-108900998D01*
X118994232Y-108672027D01*
X119004439Y-108440602D01*
X119059600Y-108215613D01*
X119111165Y-108105160D01*
X119157591Y-108005712D01*
X119157593Y-108005709D01*
X119260307Y-107865754D01*
X120015438Y-107024159D01*
X120546980Y-106431753D01*
X120557874Y-106417721D01*
X120570732Y-106398478D01*
X120627766Y-106341444D01*
X120632416Y-106336535D01*
X120647471Y-106319756D01*
X120668894Y-106300143D01*
X120672875Y-106296335D01*
X120734539Y-106234671D01*
X120748336Y-106225452D01*
X120763295Y-106213717D01*
X120775514Y-106202530D01*
X120807578Y-106183093D01*
X120850023Y-106157363D01*
X120854614Y-106154440D01*
X120927148Y-106105974D01*
X120942493Y-106099618D01*
X120959441Y-106091033D01*
X120973609Y-106082444D01*
X120973610Y-106082444D01*
X120973611Y-106082443D01*
X121055505Y-106052677D01*
X121060603Y-106050695D01*
X121141166Y-106017325D01*
X121157445Y-106014087D01*
X121175735Y-106008976D01*
X121191328Y-106003309D01*
X121277493Y-105990086D01*
X121282856Y-105989141D01*
X121368366Y-105972132D01*
X121384959Y-105972132D01*
X121403902Y-105970687D01*
X121420299Y-105968171D01*
X121507398Y-105972013D01*
X121507398Y-105972013D01*
G37*
G36*
X178657398Y-105972013D02*
G01*
X178662838Y-105972132D01*
X178750021Y-105972132D01*
X178766290Y-105975368D01*
X178785149Y-105977647D01*
X178801725Y-105978378D01*
X178886416Y-105999142D01*
X178891711Y-106000316D01*
X178977220Y-106017325D01*
X178992555Y-106023677D01*
X179010594Y-106029587D01*
X179026714Y-106033539D01*
X179105697Y-106070412D01*
X179110687Y-106072609D01*
X179191238Y-106105974D01*
X179205034Y-106115192D01*
X179221586Y-106124514D01*
X179236619Y-106131532D01*
X179306887Y-106183103D01*
X179311385Y-106186254D01*
X179383849Y-106234673D01*
X179395576Y-106246400D01*
X179410002Y-106258780D01*
X179423372Y-106268593D01*
X179423373Y-106268594D01*
X179482214Y-106332865D01*
X179486022Y-106336846D01*
X179547652Y-106398476D01*
X179556867Y-106412267D01*
X179568589Y-106427210D01*
X179579798Y-106439453D01*
X179624992Y-106514006D01*
X179627939Y-106518633D01*
X179676351Y-106591087D01*
X179682698Y-106606409D01*
X179691285Y-106623363D01*
X179699884Y-106637549D01*
X179729671Y-106719500D01*
X179731645Y-106724580D01*
X179765000Y-106805105D01*
X179765000Y-106805106D01*
X179768234Y-106821365D01*
X179773351Y-106839674D01*
X179779018Y-106855266D01*
X179792248Y-106941477D01*
X179793194Y-106946845D01*
X179810193Y-107032305D01*
X179810193Y-107048884D01*
X179811637Y-107067824D01*
X179814156Y-107084236D01*
X179810313Y-107171381D01*
X179810193Y-107176821D01*
X179810193Y-107263957D01*
X179806959Y-107280215D01*
X179804681Y-107299073D01*
X179803949Y-107315663D01*
X179783181Y-107400369D01*
X179782005Y-107405669D01*
X179765000Y-107491159D01*
X179758650Y-107506489D01*
X179752742Y-107524525D01*
X179748788Y-107540652D01*
X179711904Y-107619658D01*
X179709704Y-107624655D01*
X179676351Y-107705177D01*
X179667137Y-107718967D01*
X179657815Y-107735519D01*
X179650795Y-107750556D01*
X179599204Y-107820852D01*
X179596059Y-107825342D01*
X179547654Y-107897786D01*
X179490653Y-107954787D01*
X179486004Y-107959695D01*
X179054504Y-108440602D01*
X178160916Y-109436508D01*
X178032872Y-109553734D01*
X177933823Y-109613778D01*
X177834776Y-109673821D01*
X177617059Y-109752955D01*
X177388088Y-109788093D01*
X177156663Y-109777886D01*
X176931674Y-109722725D01*
X176826920Y-109673821D01*
X176721772Y-109624734D01*
X176625031Y-109553734D01*
X176535016Y-109487671D01*
X176460587Y-109406373D01*
X176378591Y-109316811D01*
X176296757Y-109181817D01*
X176258504Y-109118715D01*
X176179370Y-108900998D01*
X176144232Y-108672027D01*
X176154439Y-108440602D01*
X176209600Y-108215613D01*
X176261165Y-108105160D01*
X176307591Y-108005712D01*
X176307593Y-108005709D01*
X176410307Y-107865754D01*
X177165438Y-107024159D01*
X177696980Y-106431753D01*
X177707874Y-106417721D01*
X177720732Y-106398478D01*
X177777766Y-106341444D01*
X177782416Y-106336535D01*
X177797471Y-106319756D01*
X177818894Y-106300143D01*
X177822875Y-106296335D01*
X177884539Y-106234671D01*
X177898336Y-106225452D01*
X177913295Y-106213717D01*
X177925514Y-106202530D01*
X177957578Y-106183093D01*
X178000023Y-106157363D01*
X178004614Y-106154440D01*
X178077148Y-106105974D01*
X178092493Y-106099618D01*
X178109441Y-106091033D01*
X178123609Y-106082444D01*
X178123610Y-106082444D01*
X178123611Y-106082443D01*
X178205505Y-106052677D01*
X178210603Y-106050695D01*
X178291166Y-106017325D01*
X178307445Y-106014087D01*
X178325735Y-106008976D01*
X178341328Y-106003309D01*
X178427493Y-105990086D01*
X178432856Y-105989141D01*
X178518366Y-105972132D01*
X178534959Y-105972132D01*
X178553902Y-105970687D01*
X178570299Y-105968171D01*
X178657398Y-105972013D01*
X178657398Y-105972013D01*
G37*
G36*
X159607398Y-105972013D02*
G01*
X159612838Y-105972132D01*
X159700021Y-105972132D01*
X159716290Y-105975368D01*
X159735149Y-105977647D01*
X159751725Y-105978378D01*
X159836416Y-105999142D01*
X159841711Y-106000316D01*
X159927220Y-106017325D01*
X159942555Y-106023677D01*
X159960594Y-106029587D01*
X159976714Y-106033539D01*
X160055697Y-106070412D01*
X160060687Y-106072609D01*
X160141238Y-106105974D01*
X160155034Y-106115192D01*
X160171586Y-106124514D01*
X160186619Y-106131532D01*
X160256887Y-106183103D01*
X160261385Y-106186254D01*
X160333849Y-106234673D01*
X160345576Y-106246400D01*
X160360002Y-106258780D01*
X160373372Y-106268593D01*
X160373373Y-106268594D01*
X160432214Y-106332865D01*
X160436022Y-106336846D01*
X160497652Y-106398476D01*
X160506867Y-106412267D01*
X160518589Y-106427210D01*
X160529798Y-106439453D01*
X160574992Y-106514006D01*
X160577939Y-106518633D01*
X160626351Y-106591087D01*
X160632698Y-106606409D01*
X160641285Y-106623363D01*
X160649884Y-106637549D01*
X160679671Y-106719500D01*
X160681645Y-106724580D01*
X160715000Y-106805105D01*
X160715000Y-106805106D01*
X160718234Y-106821365D01*
X160723351Y-106839674D01*
X160729018Y-106855266D01*
X160742248Y-106941477D01*
X160743194Y-106946845D01*
X160760193Y-107032305D01*
X160760193Y-107048884D01*
X160761637Y-107067824D01*
X160764156Y-107084236D01*
X160760313Y-107171381D01*
X160760193Y-107176821D01*
X160760193Y-107263957D01*
X160756959Y-107280215D01*
X160754681Y-107299073D01*
X160753949Y-107315663D01*
X160733181Y-107400369D01*
X160732005Y-107405669D01*
X160715000Y-107491159D01*
X160708650Y-107506489D01*
X160702742Y-107524525D01*
X160698788Y-107540652D01*
X160661904Y-107619658D01*
X160659704Y-107624655D01*
X160626351Y-107705177D01*
X160617137Y-107718967D01*
X160607815Y-107735519D01*
X160600795Y-107750556D01*
X160549204Y-107820852D01*
X160546059Y-107825342D01*
X160497654Y-107897786D01*
X160440653Y-107954787D01*
X160436004Y-107959695D01*
X160004504Y-108440602D01*
X159110916Y-109436508D01*
X158982872Y-109553734D01*
X158883823Y-109613778D01*
X158784776Y-109673821D01*
X158567059Y-109752955D01*
X158338088Y-109788093D01*
X158106663Y-109777886D01*
X157881674Y-109722725D01*
X157776920Y-109673821D01*
X157671772Y-109624734D01*
X157575031Y-109553734D01*
X157485016Y-109487671D01*
X157410587Y-109406373D01*
X157328591Y-109316811D01*
X157246757Y-109181817D01*
X157208504Y-109118715D01*
X157129370Y-108900998D01*
X157094232Y-108672027D01*
X157104439Y-108440602D01*
X157159600Y-108215613D01*
X157211165Y-108105160D01*
X157257591Y-108005712D01*
X157257593Y-108005709D01*
X157360307Y-107865754D01*
X158115438Y-107024159D01*
X158646980Y-106431753D01*
X158657874Y-106417721D01*
X158670732Y-106398478D01*
X158727766Y-106341444D01*
X158732416Y-106336535D01*
X158747471Y-106319756D01*
X158768894Y-106300143D01*
X158772875Y-106296335D01*
X158834539Y-106234671D01*
X158848336Y-106225452D01*
X158863295Y-106213717D01*
X158875514Y-106202530D01*
X158907578Y-106183093D01*
X158950023Y-106157363D01*
X158954614Y-106154440D01*
X159027148Y-106105974D01*
X159042493Y-106099618D01*
X159059441Y-106091033D01*
X159073609Y-106082444D01*
X159073610Y-106082444D01*
X159073611Y-106082443D01*
X159155505Y-106052677D01*
X159160603Y-106050695D01*
X159241166Y-106017325D01*
X159257445Y-106014087D01*
X159275735Y-106008976D01*
X159291328Y-106003309D01*
X159377493Y-105990086D01*
X159382856Y-105989141D01*
X159468366Y-105972132D01*
X159484959Y-105972132D01*
X159503902Y-105970687D01*
X159520299Y-105968171D01*
X159607398Y-105972013D01*
X159607398Y-105972013D01*
G37*
G36*
X140557398Y-105972013D02*
G01*
X140562838Y-105972132D01*
X140650021Y-105972132D01*
X140666290Y-105975368D01*
X140685149Y-105977647D01*
X140701725Y-105978378D01*
X140786416Y-105999142D01*
X140791711Y-106000316D01*
X140877220Y-106017325D01*
X140892555Y-106023677D01*
X140910594Y-106029587D01*
X140926714Y-106033539D01*
X141005697Y-106070412D01*
X141010687Y-106072609D01*
X141091238Y-106105974D01*
X141105034Y-106115192D01*
X141121586Y-106124514D01*
X141136619Y-106131532D01*
X141206887Y-106183103D01*
X141211385Y-106186254D01*
X141283849Y-106234673D01*
X141295576Y-106246400D01*
X141310002Y-106258780D01*
X141323372Y-106268593D01*
X141323373Y-106268594D01*
X141382214Y-106332865D01*
X141386022Y-106336846D01*
X141447652Y-106398476D01*
X141456867Y-106412267D01*
X141468589Y-106427210D01*
X141479798Y-106439453D01*
X141524992Y-106514006D01*
X141527939Y-106518633D01*
X141576351Y-106591087D01*
X141582698Y-106606409D01*
X141591285Y-106623363D01*
X141599884Y-106637549D01*
X141629671Y-106719500D01*
X141631645Y-106724580D01*
X141665000Y-106805105D01*
X141665000Y-106805106D01*
X141668234Y-106821365D01*
X141673351Y-106839674D01*
X141679018Y-106855266D01*
X141692248Y-106941477D01*
X141693194Y-106946845D01*
X141710193Y-107032305D01*
X141710193Y-107048884D01*
X141711637Y-107067824D01*
X141714156Y-107084236D01*
X141710313Y-107171381D01*
X141710193Y-107176821D01*
X141710193Y-107263957D01*
X141706959Y-107280215D01*
X141704681Y-107299073D01*
X141703949Y-107315663D01*
X141683181Y-107400369D01*
X141682005Y-107405669D01*
X141665000Y-107491159D01*
X141658650Y-107506489D01*
X141652742Y-107524525D01*
X141648788Y-107540652D01*
X141611904Y-107619658D01*
X141609704Y-107624655D01*
X141576351Y-107705177D01*
X141567137Y-107718967D01*
X141557815Y-107735519D01*
X141550795Y-107750556D01*
X141499204Y-107820852D01*
X141496059Y-107825342D01*
X141447654Y-107897786D01*
X141390653Y-107954787D01*
X141386004Y-107959695D01*
X140954504Y-108440602D01*
X140060916Y-109436508D01*
X139932872Y-109553734D01*
X139833823Y-109613778D01*
X139734776Y-109673821D01*
X139517059Y-109752955D01*
X139288088Y-109788093D01*
X139056663Y-109777886D01*
X138831674Y-109722725D01*
X138726920Y-109673821D01*
X138621772Y-109624734D01*
X138525031Y-109553734D01*
X138435016Y-109487671D01*
X138360587Y-109406373D01*
X138278591Y-109316811D01*
X138196757Y-109181817D01*
X138158504Y-109118715D01*
X138079370Y-108900998D01*
X138044232Y-108672027D01*
X138054439Y-108440602D01*
X138109600Y-108215613D01*
X138161165Y-108105160D01*
X138207591Y-108005712D01*
X138207593Y-108005709D01*
X138310307Y-107865754D01*
X139065438Y-107024159D01*
X139596980Y-106431753D01*
X139607874Y-106417721D01*
X139620732Y-106398478D01*
X139677766Y-106341444D01*
X139682416Y-106336535D01*
X139697471Y-106319756D01*
X139718894Y-106300143D01*
X139722875Y-106296335D01*
X139784539Y-106234671D01*
X139798336Y-106225452D01*
X139813295Y-106213717D01*
X139825514Y-106202530D01*
X139857578Y-106183093D01*
X139900023Y-106157363D01*
X139904614Y-106154440D01*
X139977148Y-106105974D01*
X139992493Y-106099618D01*
X140009441Y-106091033D01*
X140023609Y-106082444D01*
X140023610Y-106082444D01*
X140023611Y-106082443D01*
X140105505Y-106052677D01*
X140110603Y-106050695D01*
X140191166Y-106017325D01*
X140207445Y-106014087D01*
X140225735Y-106008976D01*
X140241328Y-106003309D01*
X140327493Y-105990086D01*
X140332856Y-105989141D01*
X140418366Y-105972132D01*
X140434959Y-105972132D01*
X140453902Y-105970687D01*
X140470299Y-105968171D01*
X140557398Y-105972013D01*
X140557398Y-105972013D01*
G37*
G36*
X164712320Y-104890393D02*
G01*
X164733093Y-104892132D01*
X164740020Y-104892132D01*
X164834947Y-104911014D01*
X164838541Y-104911674D01*
X164933923Y-104927756D01*
X164940396Y-104930217D01*
X164960421Y-104935973D01*
X164967220Y-104937325D01*
X165029607Y-104963166D01*
X165056636Y-104974362D01*
X165060037Y-104975713D01*
X165150448Y-105010093D01*
X165156320Y-105013772D01*
X165174829Y-105023319D01*
X165181238Y-105025974D01*
X165261756Y-105079774D01*
X165264747Y-105081710D01*
X165346750Y-105133091D01*
X165351777Y-105137832D01*
X165368089Y-105150823D01*
X165373845Y-105154669D01*
X165442303Y-105223127D01*
X165444882Y-105225631D01*
X165515283Y-105292021D01*
X165519288Y-105297651D01*
X165532752Y-105313576D01*
X165537652Y-105318476D01*
X165591437Y-105398971D01*
X165593484Y-105401939D01*
X165649573Y-105480777D01*
X165652407Y-105487090D01*
X165662501Y-105505325D01*
X165666351Y-105511087D01*
X165703413Y-105600562D01*
X165704817Y-105603817D01*
X165744458Y-105692105D01*
X165746008Y-105698857D01*
X165752345Y-105718694D01*
X165755000Y-105725105D01*
X165773885Y-105820049D01*
X165774631Y-105823533D01*
X165796291Y-105917883D01*
X165796291Y-105917886D01*
X165796493Y-105924786D01*
X165798840Y-105945502D01*
X165800193Y-105952306D01*
X165800193Y-106049118D01*
X165800246Y-106052716D01*
X165801381Y-106091409D01*
X165800488Y-106104357D01*
X165800193Y-106112929D01*
X165800193Y-106183958D01*
X165794274Y-106213717D01*
X165793797Y-106216111D01*
X165791693Y-106231882D01*
X165753431Y-106786677D01*
X165724569Y-106957862D01*
X165642231Y-107174387D01*
X165519234Y-107370689D01*
X165360304Y-107539222D01*
X165171548Y-107673512D01*
X164960220Y-107768397D01*
X164734442Y-107820230D01*
X164502891Y-107827021D01*
X164502890Y-107827021D01*
X164457205Y-107819318D01*
X164274463Y-107788508D01*
X164057938Y-107706170D01*
X163861636Y-107583173D01*
X163693103Y-107424243D01*
X163558813Y-107235487D01*
X163463928Y-107024159D01*
X163412095Y-106798381D01*
X163407005Y-106624855D01*
X163447897Y-106031926D01*
X163448193Y-106023328D01*
X163448193Y-105952307D01*
X163467075Y-105857382D01*
X163467737Y-105853777D01*
X163473424Y-105820049D01*
X163483817Y-105758402D01*
X163486278Y-105751931D01*
X163492035Y-105731899D01*
X163493386Y-105725106D01*
X163496036Y-105718708D01*
X163530457Y-105635608D01*
X163531746Y-105632362D01*
X163566155Y-105541877D01*
X163569829Y-105536013D01*
X163579380Y-105517497D01*
X163582035Y-105511087D01*
X163635850Y-105430547D01*
X163637770Y-105427581D01*
X163689152Y-105345575D01*
X163693904Y-105340536D01*
X163706882Y-105324239D01*
X163710730Y-105318480D01*
X163779186Y-105250024D01*
X163781739Y-105247394D01*
X163802216Y-105225680D01*
X163848082Y-105177042D01*
X163853714Y-105173035D01*
X163869640Y-105159570D01*
X163874539Y-105154671D01*
X163955017Y-105100898D01*
X163957999Y-105098842D01*
X164036838Y-105042752D01*
X164043148Y-105039919D01*
X164061387Y-105029823D01*
X164067144Y-105025976D01*
X164067147Y-105025975D01*
X164067148Y-105025974D01*
X164156622Y-104988913D01*
X164159880Y-104987507D01*
X164248166Y-104947867D01*
X164254918Y-104946317D01*
X164274755Y-104939980D01*
X164281166Y-104937325D01*
X164376092Y-104918443D01*
X164379639Y-104917683D01*
X164473944Y-104896033D01*
X164476323Y-104895963D01*
X164480858Y-104895830D01*
X164501574Y-104893483D01*
X164508367Y-104892132D01*
X164605152Y-104892132D01*
X164608777Y-104892079D01*
X164705495Y-104889242D01*
X164712320Y-104890393D01*
X164712320Y-104890393D01*
G37*
G36*
X183762320Y-104890393D02*
G01*
X183783093Y-104892132D01*
X183790020Y-104892132D01*
X183884947Y-104911014D01*
X183888541Y-104911674D01*
X183983923Y-104927756D01*
X183990396Y-104930217D01*
X184010421Y-104935973D01*
X184017220Y-104937325D01*
X184079607Y-104963166D01*
X184106636Y-104974362D01*
X184110037Y-104975713D01*
X184200448Y-105010093D01*
X184206320Y-105013772D01*
X184224829Y-105023319D01*
X184231238Y-105025974D01*
X184311756Y-105079774D01*
X184314747Y-105081710D01*
X184396750Y-105133091D01*
X184401777Y-105137832D01*
X184418089Y-105150823D01*
X184423845Y-105154669D01*
X184492303Y-105223127D01*
X184494882Y-105225631D01*
X184565283Y-105292021D01*
X184569288Y-105297651D01*
X184582752Y-105313576D01*
X184587652Y-105318476D01*
X184641437Y-105398971D01*
X184643484Y-105401939D01*
X184699573Y-105480777D01*
X184702407Y-105487090D01*
X184712501Y-105505325D01*
X184716351Y-105511087D01*
X184753413Y-105600562D01*
X184754817Y-105603817D01*
X184794458Y-105692105D01*
X184796008Y-105698857D01*
X184802345Y-105718694D01*
X184805000Y-105725105D01*
X184823885Y-105820049D01*
X184824631Y-105823533D01*
X184846291Y-105917883D01*
X184846291Y-105917886D01*
X184846493Y-105924786D01*
X184848840Y-105945502D01*
X184850193Y-105952306D01*
X184850193Y-106049118D01*
X184850246Y-106052716D01*
X184851381Y-106091409D01*
X184850488Y-106104357D01*
X184850193Y-106112929D01*
X184850193Y-106183958D01*
X184844274Y-106213717D01*
X184843797Y-106216111D01*
X184841693Y-106231882D01*
X184803431Y-106786677D01*
X184774569Y-106957862D01*
X184692231Y-107174387D01*
X184569234Y-107370689D01*
X184410304Y-107539222D01*
X184221548Y-107673512D01*
X184010220Y-107768397D01*
X183784442Y-107820230D01*
X183552891Y-107827021D01*
X183552890Y-107827021D01*
X183507205Y-107819318D01*
X183324463Y-107788508D01*
X183107938Y-107706170D01*
X182911636Y-107583173D01*
X182743103Y-107424243D01*
X182608813Y-107235487D01*
X182513928Y-107024159D01*
X182462095Y-106798381D01*
X182457005Y-106624855D01*
X182497897Y-106031926D01*
X182498193Y-106023328D01*
X182498193Y-105952307D01*
X182517075Y-105857382D01*
X182517737Y-105853777D01*
X182523424Y-105820049D01*
X182533817Y-105758402D01*
X182536278Y-105751931D01*
X182542035Y-105731899D01*
X182543386Y-105725106D01*
X182546036Y-105718708D01*
X182580457Y-105635608D01*
X182581746Y-105632362D01*
X182616155Y-105541877D01*
X182619829Y-105536013D01*
X182629380Y-105517497D01*
X182632035Y-105511087D01*
X182685850Y-105430547D01*
X182687770Y-105427581D01*
X182739152Y-105345575D01*
X182743904Y-105340536D01*
X182756882Y-105324239D01*
X182760730Y-105318480D01*
X182829186Y-105250024D01*
X182831739Y-105247394D01*
X182852216Y-105225680D01*
X182898082Y-105177042D01*
X182903714Y-105173035D01*
X182919640Y-105159570D01*
X182924539Y-105154671D01*
X183005017Y-105100898D01*
X183007999Y-105098842D01*
X183086838Y-105042752D01*
X183093148Y-105039919D01*
X183111387Y-105029823D01*
X183117144Y-105025976D01*
X183117147Y-105025975D01*
X183117148Y-105025974D01*
X183206622Y-104988913D01*
X183209880Y-104987507D01*
X183298166Y-104947867D01*
X183304918Y-104946317D01*
X183324755Y-104939980D01*
X183331166Y-104937325D01*
X183426092Y-104918443D01*
X183429639Y-104917683D01*
X183523944Y-104896033D01*
X183526323Y-104895963D01*
X183530858Y-104895830D01*
X183551574Y-104893483D01*
X183558367Y-104892132D01*
X183655152Y-104892132D01*
X183658777Y-104892079D01*
X183755495Y-104889242D01*
X183762320Y-104890393D01*
X183762320Y-104890393D01*
G37*
G36*
X145662320Y-104890393D02*
G01*
X145683093Y-104892132D01*
X145690020Y-104892132D01*
X145784947Y-104911014D01*
X145788541Y-104911674D01*
X145883923Y-104927756D01*
X145890396Y-104930217D01*
X145910421Y-104935973D01*
X145917220Y-104937325D01*
X145979607Y-104963166D01*
X146006636Y-104974362D01*
X146010037Y-104975713D01*
X146100448Y-105010093D01*
X146106320Y-105013772D01*
X146124829Y-105023319D01*
X146131238Y-105025974D01*
X146211756Y-105079774D01*
X146214747Y-105081710D01*
X146296750Y-105133091D01*
X146301777Y-105137832D01*
X146318089Y-105150823D01*
X146323845Y-105154669D01*
X146392303Y-105223127D01*
X146394882Y-105225631D01*
X146465283Y-105292021D01*
X146469288Y-105297651D01*
X146482752Y-105313576D01*
X146487652Y-105318476D01*
X146541437Y-105398971D01*
X146543484Y-105401939D01*
X146599573Y-105480777D01*
X146602407Y-105487090D01*
X146612501Y-105505325D01*
X146616351Y-105511087D01*
X146653413Y-105600562D01*
X146654817Y-105603817D01*
X146694458Y-105692105D01*
X146696008Y-105698857D01*
X146702345Y-105718694D01*
X146705000Y-105725105D01*
X146723885Y-105820049D01*
X146724631Y-105823533D01*
X146746291Y-105917883D01*
X146746291Y-105917886D01*
X146746493Y-105924786D01*
X146748840Y-105945502D01*
X146750193Y-105952306D01*
X146750193Y-106049118D01*
X146750246Y-106052716D01*
X146751381Y-106091409D01*
X146750488Y-106104357D01*
X146750193Y-106112929D01*
X146750193Y-106183958D01*
X146744274Y-106213717D01*
X146743797Y-106216111D01*
X146741693Y-106231882D01*
X146703431Y-106786677D01*
X146674569Y-106957862D01*
X146592231Y-107174387D01*
X146469234Y-107370689D01*
X146310304Y-107539222D01*
X146121548Y-107673512D01*
X145910220Y-107768397D01*
X145684442Y-107820230D01*
X145452891Y-107827021D01*
X145452890Y-107827021D01*
X145407205Y-107819318D01*
X145224463Y-107788508D01*
X145007938Y-107706170D01*
X144811636Y-107583173D01*
X144643103Y-107424243D01*
X144508813Y-107235487D01*
X144413928Y-107024159D01*
X144362095Y-106798381D01*
X144357005Y-106624855D01*
X144397897Y-106031926D01*
X144398193Y-106023328D01*
X144398193Y-105952307D01*
X144417075Y-105857382D01*
X144417737Y-105853777D01*
X144423424Y-105820049D01*
X144433817Y-105758402D01*
X144436278Y-105751931D01*
X144442035Y-105731899D01*
X144443386Y-105725106D01*
X144446036Y-105718708D01*
X144480457Y-105635608D01*
X144481746Y-105632362D01*
X144516155Y-105541877D01*
X144519829Y-105536013D01*
X144529380Y-105517497D01*
X144532035Y-105511087D01*
X144585850Y-105430547D01*
X144587770Y-105427581D01*
X144639152Y-105345575D01*
X144643904Y-105340536D01*
X144656882Y-105324239D01*
X144660730Y-105318480D01*
X144729186Y-105250024D01*
X144731739Y-105247394D01*
X144752216Y-105225680D01*
X144798082Y-105177042D01*
X144803714Y-105173035D01*
X144819640Y-105159570D01*
X144824539Y-105154671D01*
X144905017Y-105100898D01*
X144907999Y-105098842D01*
X144986838Y-105042752D01*
X144993148Y-105039919D01*
X145011387Y-105029823D01*
X145017144Y-105025976D01*
X145017147Y-105025975D01*
X145017148Y-105025974D01*
X145106622Y-104988913D01*
X145109880Y-104987507D01*
X145198166Y-104947867D01*
X145204918Y-104946317D01*
X145224755Y-104939980D01*
X145231166Y-104937325D01*
X145326092Y-104918443D01*
X145329639Y-104917683D01*
X145423944Y-104896033D01*
X145426323Y-104895963D01*
X145430858Y-104895830D01*
X145451574Y-104893483D01*
X145458367Y-104892132D01*
X145555152Y-104892132D01*
X145558777Y-104892079D01*
X145655495Y-104889242D01*
X145662320Y-104890393D01*
X145662320Y-104890393D01*
G37*
G36*
X126612320Y-104890393D02*
G01*
X126633093Y-104892132D01*
X126640020Y-104892132D01*
X126734947Y-104911014D01*
X126738541Y-104911674D01*
X126833923Y-104927756D01*
X126840396Y-104930217D01*
X126860421Y-104935973D01*
X126867220Y-104937325D01*
X126929607Y-104963166D01*
X126956636Y-104974362D01*
X126960037Y-104975713D01*
X127050448Y-105010093D01*
X127056320Y-105013772D01*
X127074829Y-105023319D01*
X127081238Y-105025974D01*
X127161756Y-105079774D01*
X127164747Y-105081710D01*
X127246750Y-105133091D01*
X127251777Y-105137832D01*
X127268089Y-105150823D01*
X127273845Y-105154669D01*
X127342303Y-105223127D01*
X127344882Y-105225631D01*
X127415283Y-105292021D01*
X127419288Y-105297651D01*
X127432752Y-105313576D01*
X127437652Y-105318476D01*
X127491437Y-105398971D01*
X127493484Y-105401939D01*
X127549573Y-105480777D01*
X127552407Y-105487090D01*
X127562501Y-105505325D01*
X127566351Y-105511087D01*
X127603413Y-105600562D01*
X127604817Y-105603817D01*
X127644458Y-105692105D01*
X127646008Y-105698857D01*
X127652345Y-105718694D01*
X127655000Y-105725105D01*
X127673885Y-105820049D01*
X127674631Y-105823533D01*
X127696291Y-105917883D01*
X127696291Y-105917886D01*
X127696493Y-105924786D01*
X127698840Y-105945502D01*
X127700193Y-105952306D01*
X127700193Y-106049118D01*
X127700246Y-106052716D01*
X127701381Y-106091409D01*
X127700488Y-106104357D01*
X127700193Y-106112929D01*
X127700193Y-106183958D01*
X127694274Y-106213717D01*
X127693797Y-106216111D01*
X127691693Y-106231882D01*
X127653431Y-106786677D01*
X127624569Y-106957862D01*
X127542231Y-107174387D01*
X127419234Y-107370689D01*
X127260304Y-107539222D01*
X127071548Y-107673512D01*
X126860220Y-107768397D01*
X126634442Y-107820230D01*
X126402891Y-107827021D01*
X126402890Y-107827021D01*
X126357205Y-107819318D01*
X126174463Y-107788508D01*
X125957938Y-107706170D01*
X125761636Y-107583173D01*
X125593103Y-107424243D01*
X125458813Y-107235487D01*
X125363928Y-107024159D01*
X125312095Y-106798381D01*
X125307005Y-106624855D01*
X125347897Y-106031926D01*
X125348193Y-106023328D01*
X125348193Y-105952307D01*
X125367075Y-105857382D01*
X125367737Y-105853777D01*
X125373424Y-105820049D01*
X125383817Y-105758402D01*
X125386278Y-105751931D01*
X125392035Y-105731899D01*
X125393386Y-105725106D01*
X125396036Y-105718708D01*
X125430457Y-105635608D01*
X125431746Y-105632362D01*
X125466155Y-105541877D01*
X125469829Y-105536013D01*
X125479380Y-105517497D01*
X125482035Y-105511087D01*
X125535850Y-105430547D01*
X125537770Y-105427581D01*
X125589152Y-105345575D01*
X125593904Y-105340536D01*
X125606882Y-105324239D01*
X125610730Y-105318480D01*
X125679186Y-105250024D01*
X125681739Y-105247394D01*
X125702216Y-105225680D01*
X125748082Y-105177042D01*
X125753714Y-105173035D01*
X125769640Y-105159570D01*
X125774539Y-105154671D01*
X125855017Y-105100898D01*
X125857999Y-105098842D01*
X125936838Y-105042752D01*
X125943148Y-105039919D01*
X125961387Y-105029823D01*
X125967144Y-105025976D01*
X125967147Y-105025975D01*
X125967148Y-105025974D01*
X126056622Y-104988913D01*
X126059880Y-104987507D01*
X126148166Y-104947867D01*
X126154918Y-104946317D01*
X126174755Y-104939980D01*
X126181166Y-104937325D01*
X126276092Y-104918443D01*
X126279639Y-104917683D01*
X126373944Y-104896033D01*
X126376323Y-104895963D01*
X126380858Y-104895830D01*
X126401574Y-104893483D01*
X126408367Y-104892132D01*
X126505152Y-104892132D01*
X126508777Y-104892079D01*
X126605495Y-104889242D01*
X126612320Y-104890393D01*
X126612320Y-104890393D01*
G37*
G36*
X103790757Y-103137521D02*
G01*
X103982026Y-103216747D01*
X103982028Y-103216748D01*
X104154166Y-103331767D01*
X104300558Y-103478159D01*
X104415578Y-103650299D01*
X104494804Y-103841568D01*
X104535193Y-104044616D01*
X104535193Y-104251648D01*
X104494804Y-104454696D01*
X104415578Y-104645965D01*
X104415577Y-104645967D01*
X104300558Y-104818105D01*
X104154166Y-104964497D01*
X103982028Y-105079516D01*
X103982027Y-105079517D01*
X103982026Y-105079517D01*
X103790757Y-105158743D01*
X103587709Y-105199132D01*
X103380677Y-105199132D01*
X103177629Y-105158743D01*
X102986360Y-105079517D01*
X102986359Y-105079517D01*
X102986358Y-105079516D01*
X102814220Y-104964497D01*
X102667828Y-104818105D01*
X102552809Y-104645967D01*
X102552808Y-104645965D01*
X102473582Y-104454696D01*
X102433193Y-104251648D01*
X102433193Y-104044616D01*
X102473582Y-103841568D01*
X102552808Y-103650299D01*
X102667828Y-103478159D01*
X102814220Y-103331767D01*
X102986358Y-103216748D01*
X102986360Y-103216747D01*
X103177629Y-103137521D01*
X103380677Y-103097132D01*
X103587709Y-103097132D01*
X103790757Y-103137521D01*
X103790757Y-103137521D01*
G37*
G36*
X98790757Y-103137521D02*
G01*
X98982026Y-103216747D01*
X98982028Y-103216748D01*
X99154166Y-103331767D01*
X99300558Y-103478159D01*
X99415578Y-103650299D01*
X99494804Y-103841568D01*
X99535193Y-104044616D01*
X99535193Y-104251648D01*
X99494804Y-104454696D01*
X99415578Y-104645965D01*
X99415577Y-104645967D01*
X99300558Y-104818105D01*
X99154166Y-104964497D01*
X98982028Y-105079516D01*
X98982027Y-105079517D01*
X98982026Y-105079517D01*
X98790757Y-105158743D01*
X98587709Y-105199132D01*
X98380677Y-105199132D01*
X98177629Y-105158743D01*
X97986360Y-105079517D01*
X97986359Y-105079517D01*
X97986358Y-105079516D01*
X97814220Y-104964497D01*
X97667828Y-104818105D01*
X97552809Y-104645967D01*
X97552808Y-104645965D01*
X97473582Y-104454696D01*
X97433193Y-104251648D01*
X97433193Y-104044616D01*
X97473582Y-103841568D01*
X97552808Y-103650299D01*
X97667828Y-103478159D01*
X97814220Y-103331767D01*
X97986358Y-103216748D01*
X97986360Y-103216747D01*
X98177629Y-103137521D01*
X98380677Y-103097132D01*
X98587709Y-103097132D01*
X98790757Y-103137521D01*
X98790757Y-103137521D01*
G37*
G36*
X176799468Y-100293565D02*
G01*
X176838138Y-100305296D01*
X176873777Y-100324346D01*
X176905017Y-100349983D01*
X176930654Y-100381223D01*
X176949704Y-100416862D01*
X176961435Y-100455532D01*
X176966000Y-100501888D01*
X176966000Y-101578112D01*
X176961435Y-101624468D01*
X176949704Y-101663138D01*
X176930654Y-101698777D01*
X176905017Y-101730017D01*
X176873777Y-101755654D01*
X176838138Y-101774704D01*
X176799468Y-101786435D01*
X176753112Y-101791000D01*
X176101888Y-101791000D01*
X176055532Y-101786435D01*
X176016862Y-101774704D01*
X175981223Y-101755654D01*
X175949983Y-101730017D01*
X175924346Y-101698777D01*
X175905296Y-101663138D01*
X175893565Y-101624468D01*
X175889000Y-101578112D01*
X175889000Y-100501888D01*
X175893565Y-100455532D01*
X175905296Y-100416862D01*
X175924346Y-100381223D01*
X175949983Y-100349983D01*
X175981223Y-100324346D01*
X176016862Y-100305296D01*
X176055532Y-100293565D01*
X176101888Y-100289000D01*
X176753112Y-100289000D01*
X176799468Y-100293565D01*
X176799468Y-100293565D01*
G37*
G36*
X174924468Y-100293565D02*
G01*
X174963138Y-100305296D01*
X174998777Y-100324346D01*
X175030017Y-100349983D01*
X175055654Y-100381223D01*
X175074704Y-100416862D01*
X175086435Y-100455532D01*
X175091000Y-100501888D01*
X175091000Y-101578112D01*
X175086435Y-101624468D01*
X175074704Y-101663138D01*
X175055654Y-101698777D01*
X175030017Y-101730017D01*
X174998777Y-101755654D01*
X174963138Y-101774704D01*
X174924468Y-101786435D01*
X174878112Y-101791000D01*
X174226888Y-101791000D01*
X174180532Y-101786435D01*
X174141862Y-101774704D01*
X174106223Y-101755654D01*
X174074983Y-101730017D01*
X174049346Y-101698777D01*
X174030296Y-101663138D01*
X174018565Y-101624468D01*
X174014000Y-101578112D01*
X174014000Y-100501888D01*
X174018565Y-100455532D01*
X174030296Y-100416862D01*
X174049346Y-100381223D01*
X174074983Y-100349983D01*
X174106223Y-100324346D01*
X174141862Y-100305296D01*
X174180532Y-100293565D01*
X174226888Y-100289000D01*
X174878112Y-100289000D01*
X174924468Y-100293565D01*
X174924468Y-100293565D01*
G37*
G36*
X175536000Y-99431000D02*
G01*
X166884000Y-99431000D01*
X166884000Y-97829000D01*
X175536000Y-97829000D01*
X175536000Y-99431000D01*
X175536000Y-99431000D01*
G37*
G36*
X160477468Y-98066565D02*
G01*
X160516138Y-98078296D01*
X160551777Y-98097346D01*
X160583017Y-98122983D01*
X160608654Y-98154223D01*
X160627704Y-98189862D01*
X160639435Y-98228532D01*
X160644000Y-98274888D01*
X160644000Y-98926112D01*
X160639435Y-98972468D01*
X160627704Y-99011138D01*
X160608654Y-99046777D01*
X160583017Y-99078017D01*
X160551777Y-99103654D01*
X160516138Y-99122704D01*
X160477468Y-99134435D01*
X160431112Y-99139000D01*
X159354888Y-99139000D01*
X159308532Y-99134435D01*
X159269862Y-99122704D01*
X159234223Y-99103654D01*
X159202983Y-99078017D01*
X159177346Y-99046777D01*
X159158296Y-99011138D01*
X159146565Y-98972468D01*
X159142000Y-98926112D01*
X159142000Y-98274888D01*
X159146565Y-98228532D01*
X159158296Y-98189862D01*
X159177346Y-98154223D01*
X159202983Y-98122983D01*
X159234223Y-98097346D01*
X159269862Y-98078296D01*
X159308532Y-98066565D01*
X159354888Y-98062000D01*
X160431112Y-98062000D01*
X160477468Y-98066565D01*
X160477468Y-98066565D01*
G37*
G36*
X163525468Y-98063565D02*
G01*
X163564138Y-98075296D01*
X163599777Y-98094346D01*
X163631017Y-98119983D01*
X163656654Y-98151223D01*
X163675704Y-98186862D01*
X163687435Y-98225532D01*
X163692000Y-98271888D01*
X163692000Y-98923112D01*
X163687435Y-98969468D01*
X163675704Y-99008138D01*
X163656654Y-99043777D01*
X163631017Y-99075017D01*
X163599777Y-99100654D01*
X163564138Y-99119704D01*
X163525468Y-99131435D01*
X163479112Y-99136000D01*
X162402888Y-99136000D01*
X162356532Y-99131435D01*
X162317862Y-99119704D01*
X162282223Y-99100654D01*
X162250983Y-99075017D01*
X162225346Y-99043777D01*
X162206296Y-99008138D01*
X162194565Y-98969468D01*
X162190000Y-98923112D01*
X162190000Y-98271888D01*
X162194565Y-98225532D01*
X162206296Y-98186862D01*
X162225346Y-98151223D01*
X162250983Y-98119983D01*
X162282223Y-98094346D01*
X162317862Y-98075296D01*
X162356532Y-98063565D01*
X162402888Y-98059000D01*
X163479112Y-98059000D01*
X163525468Y-98063565D01*
X163525468Y-98063565D01*
G37*
G36*
X160477468Y-96191565D02*
G01*
X160516138Y-96203296D01*
X160551777Y-96222346D01*
X160583017Y-96247983D01*
X160608654Y-96279223D01*
X160627704Y-96314862D01*
X160639435Y-96353532D01*
X160644000Y-96399888D01*
X160644000Y-97051112D01*
X160639435Y-97097468D01*
X160627704Y-97136138D01*
X160608654Y-97171777D01*
X160583017Y-97203017D01*
X160551777Y-97228654D01*
X160516138Y-97247704D01*
X160477468Y-97259435D01*
X160431112Y-97264000D01*
X159354888Y-97264000D01*
X159308532Y-97259435D01*
X159269862Y-97247704D01*
X159234223Y-97228654D01*
X159202983Y-97203017D01*
X159177346Y-97171777D01*
X159158296Y-97136138D01*
X159146565Y-97097468D01*
X159142000Y-97051112D01*
X159142000Y-96399888D01*
X159146565Y-96353532D01*
X159158296Y-96314862D01*
X159177346Y-96279223D01*
X159202983Y-96247983D01*
X159234223Y-96222346D01*
X159269862Y-96203296D01*
X159308532Y-96191565D01*
X159354888Y-96187000D01*
X160431112Y-96187000D01*
X160477468Y-96191565D01*
X160477468Y-96191565D01*
G37*
G36*
X163525468Y-96188565D02*
G01*
X163564138Y-96200296D01*
X163599777Y-96219346D01*
X163631017Y-96244983D01*
X163656654Y-96276223D01*
X163675704Y-96311862D01*
X163687435Y-96350532D01*
X163692000Y-96396888D01*
X163692000Y-97048112D01*
X163687435Y-97094468D01*
X163675704Y-97133138D01*
X163656654Y-97168777D01*
X163631017Y-97200017D01*
X163599777Y-97225654D01*
X163564138Y-97244704D01*
X163525468Y-97256435D01*
X163479112Y-97261000D01*
X162402888Y-97261000D01*
X162356532Y-97256435D01*
X162317862Y-97244704D01*
X162282223Y-97225654D01*
X162250983Y-97200017D01*
X162225346Y-97168777D01*
X162206296Y-97133138D01*
X162194565Y-97094468D01*
X162190000Y-97048112D01*
X162190000Y-96396888D01*
X162194565Y-96350532D01*
X162206296Y-96311862D01*
X162225346Y-96276223D01*
X162250983Y-96244983D01*
X162282223Y-96219346D01*
X162317862Y-96200296D01*
X162356532Y-96188565D01*
X162402888Y-96184000D01*
X163479112Y-96184000D01*
X163525468Y-96188565D01*
X163525468Y-96188565D01*
G37*
G36*
X166311000Y-97256000D02*
G01*
X164709000Y-97256000D01*
X164709000Y-88604000D01*
X166311000Y-88604000D01*
X166311000Y-97256000D01*
X166311000Y-97256000D01*
G37*
G36*
X177711000Y-97256000D02*
G01*
X176109000Y-97256000D01*
X176109000Y-88604000D01*
X177711000Y-88604000D01*
X177711000Y-97256000D01*
X177711000Y-97256000D01*
G37*
G36*
X158228618Y-92687731D02*
G01*
X158352814Y-92712434D01*
X158489215Y-92768933D01*
X158611972Y-92850957D01*
X158716368Y-92955353D01*
X158798392Y-93078110D01*
X158854891Y-93214511D01*
X158883693Y-93359313D01*
X158883693Y-93506951D01*
X158854891Y-93651753D01*
X158798392Y-93788154D01*
X158716368Y-93910911D01*
X158611972Y-94015307D01*
X158489215Y-94097331D01*
X158352814Y-94153830D01*
X158228618Y-94178533D01*
X158208013Y-94182632D01*
X158060373Y-94182632D01*
X158039768Y-94178533D01*
X157915572Y-94153830D01*
X157779171Y-94097331D01*
X157656414Y-94015307D01*
X157552018Y-93910911D01*
X157469994Y-93788154D01*
X157413495Y-93651753D01*
X157384693Y-93506951D01*
X157384693Y-93359313D01*
X157413495Y-93214511D01*
X157469994Y-93078110D01*
X157552018Y-92955353D01*
X157656414Y-92850957D01*
X157779171Y-92768933D01*
X157915572Y-92712434D01*
X158039768Y-92687731D01*
X158060373Y-92683632D01*
X158208013Y-92683632D01*
X158228618Y-92687731D01*
X158228618Y-92687731D01*
G37*
G36*
X124580667Y-90131816D02*
G01*
X124754934Y-90204000D01*
X124952816Y-90285965D01*
X125287741Y-90509755D01*
X125572570Y-90794584D01*
X125796360Y-91129509D01*
X125828755Y-91207718D01*
X125950509Y-91501658D01*
X126029093Y-91896726D01*
X126029093Y-92299538D01*
X125950509Y-92694606D01*
X125899644Y-92817404D01*
X125796360Y-93066755D01*
X125572570Y-93401680D01*
X125287741Y-93686509D01*
X124952816Y-93910299D01*
X124813180Y-93968138D01*
X124580667Y-94064448D01*
X124185599Y-94143032D01*
X123782787Y-94143032D01*
X123387719Y-94064448D01*
X123155206Y-93968138D01*
X123015570Y-93910299D01*
X122680645Y-93686509D01*
X122395816Y-93401680D01*
X122172026Y-93066755D01*
X122068742Y-92817404D01*
X122017877Y-92694606D01*
X121939293Y-92299538D01*
X121939293Y-91896726D01*
X122017877Y-91501658D01*
X122139631Y-91207718D01*
X122172026Y-91129509D01*
X122395816Y-90794584D01*
X122680645Y-90509755D01*
X123015570Y-90285965D01*
X123213452Y-90204000D01*
X123387719Y-90131816D01*
X123782787Y-90053232D01*
X124185599Y-90053232D01*
X124580667Y-90131816D01*
X124580667Y-90131816D01*
G37*
G36*
X143630667Y-90131816D02*
G01*
X143804934Y-90204000D01*
X144002816Y-90285965D01*
X144337741Y-90509755D01*
X144622570Y-90794584D01*
X144846360Y-91129509D01*
X144878755Y-91207718D01*
X145000509Y-91501658D01*
X145079093Y-91896726D01*
X145079093Y-92299538D01*
X145000509Y-92694606D01*
X144949644Y-92817404D01*
X144846360Y-93066755D01*
X144622570Y-93401680D01*
X144337741Y-93686509D01*
X144002816Y-93910299D01*
X143863180Y-93968138D01*
X143630667Y-94064448D01*
X143235599Y-94143032D01*
X142832787Y-94143032D01*
X142437719Y-94064448D01*
X142205206Y-93968138D01*
X142065570Y-93910299D01*
X141730645Y-93686509D01*
X141445816Y-93401680D01*
X141222026Y-93066755D01*
X141118742Y-92817404D01*
X141067877Y-92694606D01*
X140989293Y-92299538D01*
X140989293Y-91896726D01*
X141067877Y-91501658D01*
X141189631Y-91207718D01*
X141222026Y-91129509D01*
X141445816Y-90794584D01*
X141730645Y-90509755D01*
X142065570Y-90285965D01*
X142263452Y-90204000D01*
X142437719Y-90131816D01*
X142832787Y-90053232D01*
X143235599Y-90053232D01*
X143630667Y-90131816D01*
X143630667Y-90131816D01*
G37*
G36*
X187745468Y-92598565D02*
G01*
X187784138Y-92610296D01*
X187819777Y-92629346D01*
X187851017Y-92654983D01*
X187876654Y-92686223D01*
X187895704Y-92721862D01*
X187907435Y-92760532D01*
X187912000Y-92806888D01*
X187912000Y-93883112D01*
X187907435Y-93929468D01*
X187895704Y-93968138D01*
X187876654Y-94003777D01*
X187851017Y-94035017D01*
X187819777Y-94060654D01*
X187784138Y-94079704D01*
X187745468Y-94091435D01*
X187699112Y-94096000D01*
X187047888Y-94096000D01*
X187001532Y-94091435D01*
X186962862Y-94079704D01*
X186927223Y-94060654D01*
X186895983Y-94035017D01*
X186870346Y-94003777D01*
X186851296Y-93968138D01*
X186839565Y-93929468D01*
X186835000Y-93883112D01*
X186835000Y-92806888D01*
X186839565Y-92760532D01*
X186851296Y-92721862D01*
X186870346Y-92686223D01*
X186895983Y-92654983D01*
X186927223Y-92629346D01*
X186962862Y-92610296D01*
X187001532Y-92598565D01*
X187047888Y-92594000D01*
X187699112Y-92594000D01*
X187745468Y-92598565D01*
X187745468Y-92598565D01*
G37*
G36*
X185870468Y-92598565D02*
G01*
X185909138Y-92610296D01*
X185944777Y-92629346D01*
X185976017Y-92654983D01*
X186001654Y-92686223D01*
X186020704Y-92721862D01*
X186032435Y-92760532D01*
X186037000Y-92806888D01*
X186037000Y-93883112D01*
X186032435Y-93929468D01*
X186020704Y-93968138D01*
X186001654Y-94003777D01*
X185976017Y-94035017D01*
X185944777Y-94060654D01*
X185909138Y-94079704D01*
X185870468Y-94091435D01*
X185824112Y-94096000D01*
X185172888Y-94096000D01*
X185126532Y-94091435D01*
X185087862Y-94079704D01*
X185052223Y-94060654D01*
X185020983Y-94035017D01*
X184995346Y-94003777D01*
X184976296Y-93968138D01*
X184964565Y-93929468D01*
X184960000Y-93883112D01*
X184960000Y-92806888D01*
X184964565Y-92760532D01*
X184976296Y-92721862D01*
X184995346Y-92686223D01*
X185020983Y-92654983D01*
X185052223Y-92629346D01*
X185087862Y-92610296D01*
X185126532Y-92598565D01*
X185172888Y-92594000D01*
X185824112Y-92594000D01*
X185870468Y-92598565D01*
X185870468Y-92598565D01*
G37*
G36*
X129334297Y-91207717D02*
G01*
X129502819Y-91277521D01*
X129654484Y-91378860D01*
X129783465Y-91507841D01*
X129884804Y-91659506D01*
X129954608Y-91828028D01*
X129990193Y-92006929D01*
X129990193Y-92189335D01*
X129954608Y-92368236D01*
X129884804Y-92536758D01*
X129783465Y-92688423D01*
X129654484Y-92817404D01*
X129502819Y-92918743D01*
X129334297Y-92988547D01*
X129155396Y-93024132D01*
X128972990Y-93024132D01*
X128794089Y-92988547D01*
X128625567Y-92918743D01*
X128473902Y-92817404D01*
X128344921Y-92688423D01*
X128243582Y-92536758D01*
X128173778Y-92368236D01*
X128138193Y-92189335D01*
X128138193Y-92006929D01*
X128173778Y-91828028D01*
X128243582Y-91659506D01*
X128344921Y-91507841D01*
X128473902Y-91378860D01*
X128625567Y-91277521D01*
X128794089Y-91207717D01*
X128972990Y-91172132D01*
X129155396Y-91172132D01*
X129334297Y-91207717D01*
X129334297Y-91207717D01*
G37*
G36*
X119174297Y-91207717D02*
G01*
X119342819Y-91277521D01*
X119494484Y-91378860D01*
X119623465Y-91507841D01*
X119724804Y-91659506D01*
X119794608Y-91828028D01*
X119830193Y-92006929D01*
X119830193Y-92189335D01*
X119794608Y-92368236D01*
X119724804Y-92536758D01*
X119623465Y-92688423D01*
X119494484Y-92817404D01*
X119342819Y-92918743D01*
X119174297Y-92988547D01*
X118995396Y-93024132D01*
X118812990Y-93024132D01*
X118634089Y-92988547D01*
X118465567Y-92918743D01*
X118313902Y-92817404D01*
X118184921Y-92688423D01*
X118083582Y-92536758D01*
X118013778Y-92368236D01*
X117978193Y-92189335D01*
X117978193Y-92006929D01*
X118013778Y-91828028D01*
X118083582Y-91659506D01*
X118184921Y-91507841D01*
X118313902Y-91378860D01*
X118465567Y-91277521D01*
X118634089Y-91207717D01*
X118812990Y-91172132D01*
X118995396Y-91172132D01*
X119174297Y-91207717D01*
X119174297Y-91207717D01*
G37*
G36*
X138224297Y-91207717D02*
G01*
X138392819Y-91277521D01*
X138544484Y-91378860D01*
X138673465Y-91507841D01*
X138774804Y-91659506D01*
X138844608Y-91828028D01*
X138880193Y-92006929D01*
X138880193Y-92189335D01*
X138844608Y-92368236D01*
X138774804Y-92536758D01*
X138673465Y-92688423D01*
X138544484Y-92817404D01*
X138392819Y-92918743D01*
X138224297Y-92988547D01*
X138045396Y-93024132D01*
X137862990Y-93024132D01*
X137684089Y-92988547D01*
X137515567Y-92918743D01*
X137363902Y-92817404D01*
X137234921Y-92688423D01*
X137133582Y-92536758D01*
X137063778Y-92368236D01*
X137028193Y-92189335D01*
X137028193Y-92006929D01*
X137063778Y-91828028D01*
X137133582Y-91659506D01*
X137234921Y-91507841D01*
X137363902Y-91378860D01*
X137515567Y-91277521D01*
X137684089Y-91207717D01*
X137862990Y-91172132D01*
X138045396Y-91172132D01*
X138224297Y-91207717D01*
X138224297Y-91207717D01*
G37*
G36*
X148384297Y-91207717D02*
G01*
X148552819Y-91277521D01*
X148704484Y-91378860D01*
X148833465Y-91507841D01*
X148934804Y-91659506D01*
X149004608Y-91828028D01*
X149040193Y-92006929D01*
X149040193Y-92189335D01*
X149004608Y-92368236D01*
X148934804Y-92536758D01*
X148833465Y-92688423D01*
X148704484Y-92817404D01*
X148552819Y-92918743D01*
X148384297Y-92988547D01*
X148205396Y-93024132D01*
X148022990Y-93024132D01*
X147844089Y-92988547D01*
X147675567Y-92918743D01*
X147523902Y-92817404D01*
X147394921Y-92688423D01*
X147293582Y-92536758D01*
X147223778Y-92368236D01*
X147188193Y-92189335D01*
X147188193Y-92006929D01*
X147223778Y-91828028D01*
X147293582Y-91659506D01*
X147394921Y-91507841D01*
X147523902Y-91378860D01*
X147675567Y-91277521D01*
X147844089Y-91207717D01*
X148022990Y-91172132D01*
X148205396Y-91172132D01*
X148384297Y-91207717D01*
X148384297Y-91207717D01*
G37*
G36*
X187522729Y-90892924D02*
G01*
X186460654Y-91954999D01*
X185540001Y-91034346D01*
X186602076Y-89972271D01*
X187522729Y-90892924D01*
X187522729Y-90892924D01*
G37*
G36*
X158228618Y-90147731D02*
G01*
X158352814Y-90172434D01*
X158489215Y-90228933D01*
X158611972Y-90310957D01*
X158716368Y-90415353D01*
X158798392Y-90538110D01*
X158854891Y-90674511D01*
X158883693Y-90819313D01*
X158883693Y-90966951D01*
X158854891Y-91111753D01*
X158798392Y-91248154D01*
X158716368Y-91370911D01*
X158611972Y-91475307D01*
X158489215Y-91557331D01*
X158352814Y-91613830D01*
X158228618Y-91638533D01*
X158208013Y-91642632D01*
X158060373Y-91642632D01*
X158039768Y-91638533D01*
X157915572Y-91613830D01*
X157779171Y-91557331D01*
X157656414Y-91475307D01*
X157552018Y-91370911D01*
X157469994Y-91248154D01*
X157413495Y-91111753D01*
X157384693Y-90966951D01*
X157384693Y-90819313D01*
X157413495Y-90674511D01*
X157469994Y-90538110D01*
X157552018Y-90415353D01*
X157656414Y-90310957D01*
X157779171Y-90228933D01*
X157915572Y-90172434D01*
X158039768Y-90147731D01*
X158060373Y-90143632D01*
X158208013Y-90143632D01*
X158228618Y-90147731D01*
X158228618Y-90147731D01*
G37*
G36*
X180797468Y-90446565D02*
G01*
X180836138Y-90458296D01*
X180871777Y-90477346D01*
X180903017Y-90502983D01*
X180928654Y-90534223D01*
X180947704Y-90569862D01*
X180959435Y-90608532D01*
X180964000Y-90654888D01*
X180964000Y-91306112D01*
X180959435Y-91352468D01*
X180947704Y-91391138D01*
X180928654Y-91426777D01*
X180903017Y-91458017D01*
X180871777Y-91483654D01*
X180836138Y-91502704D01*
X180797468Y-91514435D01*
X180751112Y-91519000D01*
X179674888Y-91519000D01*
X179628532Y-91514435D01*
X179589862Y-91502704D01*
X179554223Y-91483654D01*
X179522983Y-91458017D01*
X179497346Y-91426777D01*
X179478296Y-91391138D01*
X179466565Y-91352468D01*
X179462000Y-91306112D01*
X179462000Y-90654888D01*
X179466565Y-90608532D01*
X179478296Y-90569862D01*
X179497346Y-90534223D01*
X179522983Y-90502983D01*
X179554223Y-90477346D01*
X179589862Y-90458296D01*
X179628532Y-90446565D01*
X179674888Y-90442000D01*
X180751112Y-90442000D01*
X180797468Y-90446565D01*
X180797468Y-90446565D01*
G37*
G36*
X163525468Y-90065565D02*
G01*
X163564138Y-90077296D01*
X163599777Y-90096346D01*
X163631017Y-90121983D01*
X163656654Y-90153223D01*
X163675704Y-90188862D01*
X163687435Y-90227532D01*
X163692000Y-90273888D01*
X163692000Y-90925112D01*
X163687435Y-90971468D01*
X163675704Y-91010138D01*
X163656654Y-91045777D01*
X163631017Y-91077017D01*
X163599777Y-91102654D01*
X163564138Y-91121704D01*
X163525468Y-91133435D01*
X163479112Y-91138000D01*
X162402888Y-91138000D01*
X162356532Y-91133435D01*
X162317862Y-91121704D01*
X162282223Y-91102654D01*
X162250983Y-91077017D01*
X162225346Y-91045777D01*
X162206296Y-91010138D01*
X162194565Y-90971468D01*
X162190000Y-90925112D01*
X162190000Y-90273888D01*
X162194565Y-90227532D01*
X162206296Y-90188862D01*
X162225346Y-90153223D01*
X162250983Y-90121983D01*
X162282223Y-90096346D01*
X162317862Y-90077296D01*
X162356532Y-90065565D01*
X162402888Y-90061000D01*
X163479112Y-90061000D01*
X163525468Y-90065565D01*
X163525468Y-90065565D01*
G37*
G36*
X186320648Y-89690843D02*
G01*
X185258573Y-90752918D01*
X184337920Y-89832265D01*
X185399995Y-88770190D01*
X186320648Y-89690843D01*
X186320648Y-89690843D01*
G37*
G36*
X121507398Y-86922013D02*
G01*
X121512838Y-86922132D01*
X121600021Y-86922132D01*
X121616290Y-86925368D01*
X121635149Y-86927647D01*
X121651725Y-86928378D01*
X121736416Y-86949142D01*
X121741711Y-86950316D01*
X121827220Y-86967325D01*
X121842555Y-86973677D01*
X121860594Y-86979587D01*
X121876714Y-86983539D01*
X121955697Y-87020412D01*
X121960687Y-87022609D01*
X122041238Y-87055974D01*
X122055034Y-87065192D01*
X122071586Y-87074514D01*
X122086619Y-87081532D01*
X122156887Y-87133103D01*
X122161385Y-87136254D01*
X122233849Y-87184673D01*
X122245576Y-87196400D01*
X122260002Y-87208780D01*
X122267870Y-87214555D01*
X122273373Y-87218594D01*
X122332214Y-87282865D01*
X122336022Y-87286846D01*
X122397652Y-87348476D01*
X122406867Y-87362267D01*
X122418589Y-87377210D01*
X122429798Y-87389453D01*
X122474992Y-87464006D01*
X122477939Y-87468633D01*
X122526351Y-87541087D01*
X122532698Y-87556409D01*
X122541285Y-87573363D01*
X122549884Y-87587549D01*
X122579671Y-87669500D01*
X122581645Y-87674580D01*
X122615000Y-87755105D01*
X122615000Y-87755106D01*
X122618234Y-87771365D01*
X122623351Y-87789674D01*
X122629018Y-87805266D01*
X122642248Y-87891477D01*
X122643194Y-87896845D01*
X122660193Y-87982305D01*
X122660193Y-87998884D01*
X122661637Y-88017824D01*
X122664156Y-88034236D01*
X122660313Y-88121381D01*
X122660193Y-88126821D01*
X122660193Y-88213957D01*
X122656959Y-88230215D01*
X122654681Y-88249073D01*
X122653949Y-88265663D01*
X122633181Y-88350369D01*
X122632005Y-88355669D01*
X122615000Y-88441159D01*
X122608650Y-88456489D01*
X122602742Y-88474525D01*
X122598788Y-88490652D01*
X122561904Y-88569658D01*
X122559704Y-88574655D01*
X122526351Y-88655177D01*
X122517137Y-88668967D01*
X122507815Y-88685519D01*
X122500795Y-88700556D01*
X122449204Y-88770852D01*
X122446059Y-88775342D01*
X122397654Y-88847786D01*
X122340653Y-88904787D01*
X122336004Y-88909695D01*
X121952340Y-89337289D01*
X121010916Y-90386508D01*
X120882872Y-90503734D01*
X120826160Y-90538113D01*
X120684776Y-90623821D01*
X120467059Y-90702955D01*
X120238088Y-90738093D01*
X120006663Y-90727886D01*
X119781674Y-90672725D01*
X119676920Y-90623821D01*
X119571772Y-90574734D01*
X119516503Y-90534171D01*
X119385016Y-90437671D01*
X119269008Y-90310957D01*
X119228591Y-90266811D01*
X119159734Y-90153223D01*
X119108504Y-90068715D01*
X119029370Y-89850998D01*
X118994232Y-89622027D01*
X119004439Y-89390602D01*
X119059600Y-89165613D01*
X119128825Y-89017331D01*
X119157591Y-88955712D01*
X119157593Y-88955709D01*
X119260307Y-88815754D01*
X120015438Y-87974159D01*
X120546980Y-87381753D01*
X120557874Y-87367721D01*
X120570732Y-87348478D01*
X120627766Y-87291444D01*
X120632416Y-87286535D01*
X120647471Y-87269756D01*
X120668894Y-87250143D01*
X120672875Y-87246335D01*
X120734539Y-87184671D01*
X120748336Y-87175452D01*
X120763295Y-87163717D01*
X120775514Y-87152530D01*
X120807578Y-87133093D01*
X120850023Y-87107363D01*
X120854614Y-87104440D01*
X120927148Y-87055974D01*
X120942493Y-87049618D01*
X120959441Y-87041033D01*
X120973609Y-87032444D01*
X120973610Y-87032444D01*
X120973611Y-87032443D01*
X121055505Y-87002677D01*
X121060603Y-87000695D01*
X121141166Y-86967325D01*
X121157445Y-86964087D01*
X121175735Y-86958976D01*
X121191328Y-86953309D01*
X121277493Y-86940086D01*
X121282856Y-86939141D01*
X121368366Y-86922132D01*
X121384959Y-86922132D01*
X121403902Y-86920687D01*
X121420299Y-86918171D01*
X121507398Y-86922013D01*
X121507398Y-86922013D01*
G37*
G36*
X140557398Y-86922013D02*
G01*
X140562838Y-86922132D01*
X140650021Y-86922132D01*
X140666290Y-86925368D01*
X140685149Y-86927647D01*
X140701725Y-86928378D01*
X140786416Y-86949142D01*
X140791711Y-86950316D01*
X140877220Y-86967325D01*
X140892555Y-86973677D01*
X140910594Y-86979587D01*
X140926714Y-86983539D01*
X141005697Y-87020412D01*
X141010687Y-87022609D01*
X141091238Y-87055974D01*
X141105034Y-87065192D01*
X141121586Y-87074514D01*
X141136619Y-87081532D01*
X141206887Y-87133103D01*
X141211385Y-87136254D01*
X141283849Y-87184673D01*
X141295576Y-87196400D01*
X141310002Y-87208780D01*
X141317870Y-87214555D01*
X141323373Y-87218594D01*
X141382214Y-87282865D01*
X141386022Y-87286846D01*
X141447652Y-87348476D01*
X141456867Y-87362267D01*
X141468589Y-87377210D01*
X141479798Y-87389453D01*
X141524992Y-87464006D01*
X141527939Y-87468633D01*
X141576351Y-87541087D01*
X141582698Y-87556409D01*
X141591285Y-87573363D01*
X141599884Y-87587549D01*
X141629671Y-87669500D01*
X141631645Y-87674580D01*
X141665000Y-87755105D01*
X141665000Y-87755106D01*
X141668234Y-87771365D01*
X141673351Y-87789674D01*
X141679018Y-87805266D01*
X141692248Y-87891477D01*
X141693194Y-87896845D01*
X141710193Y-87982305D01*
X141710193Y-87998884D01*
X141711637Y-88017824D01*
X141714156Y-88034236D01*
X141710313Y-88121381D01*
X141710193Y-88126821D01*
X141710193Y-88213957D01*
X141706959Y-88230215D01*
X141704681Y-88249073D01*
X141703949Y-88265663D01*
X141683181Y-88350369D01*
X141682005Y-88355669D01*
X141665000Y-88441159D01*
X141658650Y-88456489D01*
X141652742Y-88474525D01*
X141648788Y-88490652D01*
X141611904Y-88569658D01*
X141609704Y-88574655D01*
X141576351Y-88655177D01*
X141567137Y-88668967D01*
X141557815Y-88685519D01*
X141550795Y-88700556D01*
X141499204Y-88770852D01*
X141496059Y-88775342D01*
X141447654Y-88847786D01*
X141390653Y-88904787D01*
X141386004Y-88909695D01*
X141002340Y-89337289D01*
X140060916Y-90386508D01*
X139932872Y-90503734D01*
X139876160Y-90538113D01*
X139734776Y-90623821D01*
X139517059Y-90702955D01*
X139288088Y-90738093D01*
X139056663Y-90727886D01*
X138831674Y-90672725D01*
X138726920Y-90623821D01*
X138621772Y-90574734D01*
X138566503Y-90534171D01*
X138435016Y-90437671D01*
X138319008Y-90310957D01*
X138278591Y-90266811D01*
X138209734Y-90153223D01*
X138158504Y-90068715D01*
X138079370Y-89850998D01*
X138044232Y-89622027D01*
X138054439Y-89390602D01*
X138109600Y-89165613D01*
X138178825Y-89017331D01*
X138207591Y-88955712D01*
X138207593Y-88955709D01*
X138310307Y-88815754D01*
X139065438Y-87974159D01*
X139596980Y-87381753D01*
X139607874Y-87367721D01*
X139620732Y-87348478D01*
X139677766Y-87291444D01*
X139682416Y-87286535D01*
X139697471Y-87269756D01*
X139718894Y-87250143D01*
X139722875Y-87246335D01*
X139784539Y-87184671D01*
X139798336Y-87175452D01*
X139813295Y-87163717D01*
X139825514Y-87152530D01*
X139857578Y-87133093D01*
X139900023Y-87107363D01*
X139904614Y-87104440D01*
X139977148Y-87055974D01*
X139992493Y-87049618D01*
X140009441Y-87041033D01*
X140023609Y-87032444D01*
X140023610Y-87032444D01*
X140023611Y-87032443D01*
X140105505Y-87002677D01*
X140110603Y-87000695D01*
X140191166Y-86967325D01*
X140207445Y-86964087D01*
X140225735Y-86958976D01*
X140241328Y-86953309D01*
X140327493Y-86940086D01*
X140332856Y-86939141D01*
X140418366Y-86922132D01*
X140434959Y-86922132D01*
X140453902Y-86920687D01*
X140470299Y-86918171D01*
X140557398Y-86922013D01*
X140557398Y-86922013D01*
G37*
G36*
X189078364Y-89337289D02*
G01*
X188016289Y-90399364D01*
X187095636Y-89478711D01*
X188157711Y-88416636D01*
X189078364Y-89337289D01*
X189078364Y-89337289D01*
G37*
G36*
X180797468Y-88571565D02*
G01*
X180836138Y-88583296D01*
X180871777Y-88602346D01*
X180903017Y-88627983D01*
X180928654Y-88659223D01*
X180947704Y-88694862D01*
X180959435Y-88733532D01*
X180964000Y-88779888D01*
X180964000Y-89431112D01*
X180959435Y-89477468D01*
X180947704Y-89516138D01*
X180928654Y-89551777D01*
X180903017Y-89583017D01*
X180871777Y-89608654D01*
X180836138Y-89627704D01*
X180797468Y-89639435D01*
X180751112Y-89644000D01*
X179674888Y-89644000D01*
X179628532Y-89639435D01*
X179589862Y-89627704D01*
X179554223Y-89608654D01*
X179522983Y-89583017D01*
X179497346Y-89551777D01*
X179478296Y-89516138D01*
X179466565Y-89477468D01*
X179462000Y-89431112D01*
X179462000Y-88779888D01*
X179466565Y-88733532D01*
X179478296Y-88694862D01*
X179497346Y-88659223D01*
X179522983Y-88627983D01*
X179554223Y-88602346D01*
X179589862Y-88583296D01*
X179628532Y-88571565D01*
X179674888Y-88567000D01*
X180751112Y-88567000D01*
X180797468Y-88571565D01*
X180797468Y-88571565D01*
G37*
G36*
X163525468Y-88190565D02*
G01*
X163564138Y-88202296D01*
X163599777Y-88221346D01*
X163631017Y-88246983D01*
X163656654Y-88278223D01*
X163675704Y-88313862D01*
X163687435Y-88352532D01*
X163692000Y-88398888D01*
X163692000Y-89050112D01*
X163687435Y-89096468D01*
X163675704Y-89135138D01*
X163656654Y-89170777D01*
X163631017Y-89202017D01*
X163599777Y-89227654D01*
X163564138Y-89246704D01*
X163525468Y-89258435D01*
X163479112Y-89263000D01*
X162402888Y-89263000D01*
X162356532Y-89258435D01*
X162317862Y-89246704D01*
X162282223Y-89227654D01*
X162250983Y-89202017D01*
X162225346Y-89170777D01*
X162206296Y-89135138D01*
X162194565Y-89096468D01*
X162190000Y-89050112D01*
X162190000Y-88398888D01*
X162194565Y-88352532D01*
X162206296Y-88313862D01*
X162225346Y-88278223D01*
X162250983Y-88246983D01*
X162282223Y-88221346D01*
X162317862Y-88202296D01*
X162356532Y-88190565D01*
X162402888Y-88186000D01*
X163479112Y-88186000D01*
X163525468Y-88190565D01*
X163525468Y-88190565D01*
G37*
G36*
X187876283Y-88135208D02*
G01*
X186814208Y-89197283D01*
X185893555Y-88276630D01*
X186955630Y-87214555D01*
X187876283Y-88135208D01*
X187876283Y-88135208D01*
G37*
G36*
X158228618Y-87607731D02*
G01*
X158352814Y-87632434D01*
X158489215Y-87688933D01*
X158611972Y-87770957D01*
X158716368Y-87875353D01*
X158798392Y-87998110D01*
X158854891Y-88134511D01*
X158869209Y-88206495D01*
X158883160Y-88276630D01*
X158883693Y-88279313D01*
X158883693Y-88426951D01*
X158854891Y-88571753D01*
X158798392Y-88708154D01*
X158716368Y-88830911D01*
X158611972Y-88935307D01*
X158489215Y-89017331D01*
X158352814Y-89073830D01*
X158228618Y-89098533D01*
X158208013Y-89102632D01*
X158060373Y-89102632D01*
X158039768Y-89098533D01*
X157915572Y-89073830D01*
X157779171Y-89017331D01*
X157656414Y-88935307D01*
X157552018Y-88830911D01*
X157469994Y-88708154D01*
X157413495Y-88571753D01*
X157384693Y-88426951D01*
X157384693Y-88279313D01*
X157385227Y-88276630D01*
X157399177Y-88206495D01*
X157413495Y-88134511D01*
X157469994Y-87998110D01*
X157552018Y-87875353D01*
X157656414Y-87770957D01*
X157779171Y-87688933D01*
X157915572Y-87632434D01*
X158039768Y-87607731D01*
X158060373Y-87603632D01*
X158208013Y-87603632D01*
X158228618Y-87607731D01*
X158228618Y-87607731D01*
G37*
G36*
X126612320Y-85840393D02*
G01*
X126633093Y-85842132D01*
X126640020Y-85842132D01*
X126734947Y-85861014D01*
X126738541Y-85861674D01*
X126833923Y-85877756D01*
X126840396Y-85880217D01*
X126860421Y-85885973D01*
X126867220Y-85887325D01*
X126929607Y-85913166D01*
X126956636Y-85924362D01*
X126960037Y-85925713D01*
X127050448Y-85960093D01*
X127056320Y-85963772D01*
X127074829Y-85973319D01*
X127081238Y-85975974D01*
X127161756Y-86029774D01*
X127164747Y-86031710D01*
X127246750Y-86083091D01*
X127251777Y-86087832D01*
X127268089Y-86100823D01*
X127273845Y-86104669D01*
X127342303Y-86173127D01*
X127344882Y-86175631D01*
X127415283Y-86242021D01*
X127419288Y-86247651D01*
X127432752Y-86263576D01*
X127437652Y-86268476D01*
X127491437Y-86348971D01*
X127493484Y-86351939D01*
X127549573Y-86430777D01*
X127552407Y-86437090D01*
X127562501Y-86455325D01*
X127566351Y-86461087D01*
X127603413Y-86550562D01*
X127604817Y-86553817D01*
X127644458Y-86642105D01*
X127646008Y-86648857D01*
X127652345Y-86668694D01*
X127655000Y-86675105D01*
X127673885Y-86770049D01*
X127674631Y-86773533D01*
X127696291Y-86867883D01*
X127696291Y-86867886D01*
X127696493Y-86874786D01*
X127698840Y-86895502D01*
X127700193Y-86902306D01*
X127700193Y-86999118D01*
X127700246Y-87002716D01*
X127701381Y-87041409D01*
X127700488Y-87054357D01*
X127700193Y-87062929D01*
X127700193Y-87133958D01*
X127694274Y-87163717D01*
X127693797Y-87166111D01*
X127691693Y-87181882D01*
X127653431Y-87736677D01*
X127624569Y-87907862D01*
X127542231Y-88124387D01*
X127419234Y-88320689D01*
X127260304Y-88489222D01*
X127071548Y-88623512D01*
X126860220Y-88718397D01*
X126634442Y-88770230D01*
X126402891Y-88777021D01*
X126402890Y-88777021D01*
X126357205Y-88769318D01*
X126174463Y-88738508D01*
X125957938Y-88656170D01*
X125761636Y-88533173D01*
X125593103Y-88374243D01*
X125458813Y-88185487D01*
X125363928Y-87974159D01*
X125312095Y-87748381D01*
X125307005Y-87574855D01*
X125347897Y-86981926D01*
X125348193Y-86973328D01*
X125348193Y-86902307D01*
X125367075Y-86807382D01*
X125367737Y-86803777D01*
X125373424Y-86770049D01*
X125383817Y-86708402D01*
X125386278Y-86701931D01*
X125392035Y-86681899D01*
X125393386Y-86675106D01*
X125396036Y-86668708D01*
X125430457Y-86585608D01*
X125431746Y-86582362D01*
X125466155Y-86491877D01*
X125469829Y-86486013D01*
X125479380Y-86467497D01*
X125482035Y-86461087D01*
X125535850Y-86380547D01*
X125537770Y-86377581D01*
X125589152Y-86295575D01*
X125593904Y-86290536D01*
X125606882Y-86274239D01*
X125610730Y-86268480D01*
X125679186Y-86200024D01*
X125681739Y-86197394D01*
X125702216Y-86175680D01*
X125748082Y-86127042D01*
X125753714Y-86123035D01*
X125769640Y-86109570D01*
X125774539Y-86104671D01*
X125855017Y-86050898D01*
X125857999Y-86048842D01*
X125936838Y-85992752D01*
X125943148Y-85989919D01*
X125961387Y-85979823D01*
X125967144Y-85975976D01*
X125967147Y-85975975D01*
X125967148Y-85975974D01*
X126056622Y-85938913D01*
X126059880Y-85937507D01*
X126148166Y-85897867D01*
X126154918Y-85896317D01*
X126174755Y-85889980D01*
X126181166Y-85887325D01*
X126276092Y-85868443D01*
X126279639Y-85867683D01*
X126373944Y-85846033D01*
X126376323Y-85845963D01*
X126380858Y-85845830D01*
X126401574Y-85843483D01*
X126408367Y-85842132D01*
X126505152Y-85842132D01*
X126508777Y-85842079D01*
X126605495Y-85839242D01*
X126612320Y-85840393D01*
X126612320Y-85840393D01*
G37*
G36*
X145662320Y-85840393D02*
G01*
X145683093Y-85842132D01*
X145690020Y-85842132D01*
X145784947Y-85861014D01*
X145788541Y-85861674D01*
X145883923Y-85877756D01*
X145890396Y-85880217D01*
X145910421Y-85885973D01*
X145917220Y-85887325D01*
X145979607Y-85913166D01*
X146006636Y-85924362D01*
X146010037Y-85925713D01*
X146100448Y-85960093D01*
X146106320Y-85963772D01*
X146124829Y-85973319D01*
X146131238Y-85975974D01*
X146211756Y-86029774D01*
X146214747Y-86031710D01*
X146296750Y-86083091D01*
X146301777Y-86087832D01*
X146318089Y-86100823D01*
X146323845Y-86104669D01*
X146392303Y-86173127D01*
X146394882Y-86175631D01*
X146465283Y-86242021D01*
X146469288Y-86247651D01*
X146482752Y-86263576D01*
X146487652Y-86268476D01*
X146541437Y-86348971D01*
X146543484Y-86351939D01*
X146599573Y-86430777D01*
X146602407Y-86437090D01*
X146612501Y-86455325D01*
X146616351Y-86461087D01*
X146653413Y-86550562D01*
X146654817Y-86553817D01*
X146694458Y-86642105D01*
X146696008Y-86648857D01*
X146702345Y-86668694D01*
X146705000Y-86675105D01*
X146723885Y-86770049D01*
X146724631Y-86773533D01*
X146746291Y-86867883D01*
X146746291Y-86867886D01*
X146746493Y-86874786D01*
X146748840Y-86895502D01*
X146750193Y-86902306D01*
X146750193Y-86999118D01*
X146750246Y-87002716D01*
X146751381Y-87041409D01*
X146750488Y-87054357D01*
X146750193Y-87062929D01*
X146750193Y-87133958D01*
X146744274Y-87163717D01*
X146743797Y-87166111D01*
X146741693Y-87181882D01*
X146703431Y-87736677D01*
X146674569Y-87907862D01*
X146592231Y-88124387D01*
X146469234Y-88320689D01*
X146310304Y-88489222D01*
X146121548Y-88623512D01*
X145910220Y-88718397D01*
X145684442Y-88770230D01*
X145452891Y-88777021D01*
X145452890Y-88777021D01*
X145407205Y-88769318D01*
X145224463Y-88738508D01*
X145007938Y-88656170D01*
X144811636Y-88533173D01*
X144643103Y-88374243D01*
X144508813Y-88185487D01*
X144413928Y-87974159D01*
X144362095Y-87748381D01*
X144357005Y-87574855D01*
X144397897Y-86981926D01*
X144398193Y-86973328D01*
X144398193Y-86902307D01*
X144417075Y-86807382D01*
X144417737Y-86803777D01*
X144423424Y-86770049D01*
X144433817Y-86708402D01*
X144436278Y-86701931D01*
X144442035Y-86681899D01*
X144443386Y-86675106D01*
X144446036Y-86668708D01*
X144480457Y-86585608D01*
X144481746Y-86582362D01*
X144516155Y-86491877D01*
X144519829Y-86486013D01*
X144529380Y-86467497D01*
X144532035Y-86461087D01*
X144585850Y-86380547D01*
X144587770Y-86377581D01*
X144639152Y-86295575D01*
X144643904Y-86290536D01*
X144656882Y-86274239D01*
X144660730Y-86268480D01*
X144729186Y-86200024D01*
X144731739Y-86197394D01*
X144752216Y-86175680D01*
X144798082Y-86127042D01*
X144803714Y-86123035D01*
X144819640Y-86109570D01*
X144824539Y-86104671D01*
X144905017Y-86050898D01*
X144907999Y-86048842D01*
X144986838Y-85992752D01*
X144993148Y-85989919D01*
X145011387Y-85979823D01*
X145017144Y-85975976D01*
X145017147Y-85975975D01*
X145017148Y-85975974D01*
X145106622Y-85938913D01*
X145109880Y-85937507D01*
X145198166Y-85897867D01*
X145204918Y-85896317D01*
X145224755Y-85889980D01*
X145231166Y-85887325D01*
X145326092Y-85868443D01*
X145329639Y-85867683D01*
X145423944Y-85846033D01*
X145426323Y-85845963D01*
X145430858Y-85845830D01*
X145451574Y-85843483D01*
X145458367Y-85842132D01*
X145555152Y-85842132D01*
X145558777Y-85842079D01*
X145655495Y-85839242D01*
X145662320Y-85840393D01*
X145662320Y-85840393D01*
G37*
G36*
X175536000Y-88031000D02*
G01*
X166884000Y-88031000D01*
X166884000Y-86429000D01*
X175536000Y-86429000D01*
X175536000Y-88031000D01*
X175536000Y-88031000D01*
G37*
G36*
X185870468Y-85105565D02*
G01*
X185909138Y-85117296D01*
X185944777Y-85136346D01*
X185976017Y-85161983D01*
X186001654Y-85193223D01*
X186020704Y-85228862D01*
X186032435Y-85267532D01*
X186037000Y-85313888D01*
X186037000Y-86390112D01*
X186032435Y-86436468D01*
X186020704Y-86475138D01*
X186001654Y-86510777D01*
X185976017Y-86542017D01*
X185944777Y-86567654D01*
X185909138Y-86586704D01*
X185870468Y-86598435D01*
X185824112Y-86603000D01*
X185172888Y-86603000D01*
X185126532Y-86598435D01*
X185087862Y-86586704D01*
X185052223Y-86567654D01*
X185020983Y-86542017D01*
X184995346Y-86510777D01*
X184976296Y-86475138D01*
X184964565Y-86436468D01*
X184960000Y-86390112D01*
X184960000Y-85313888D01*
X184964565Y-85267532D01*
X184976296Y-85228862D01*
X184995346Y-85193223D01*
X185020983Y-85161983D01*
X185052223Y-85136346D01*
X185087862Y-85117296D01*
X185126532Y-85105565D01*
X185172888Y-85101000D01*
X185824112Y-85101000D01*
X185870468Y-85105565D01*
X185870468Y-85105565D01*
G37*
G36*
X187745468Y-85105565D02*
G01*
X187784138Y-85117296D01*
X187819777Y-85136346D01*
X187851017Y-85161983D01*
X187876654Y-85193223D01*
X187895704Y-85228862D01*
X187907435Y-85267532D01*
X187912000Y-85313888D01*
X187912000Y-86390112D01*
X187907435Y-86436468D01*
X187895704Y-86475138D01*
X187876654Y-86510777D01*
X187851017Y-86542017D01*
X187819777Y-86567654D01*
X187784138Y-86586704D01*
X187745468Y-86598435D01*
X187699112Y-86603000D01*
X187047888Y-86603000D01*
X187001532Y-86598435D01*
X186962862Y-86586704D01*
X186927223Y-86567654D01*
X186895983Y-86542017D01*
X186870346Y-86510777D01*
X186851296Y-86475138D01*
X186839565Y-86436468D01*
X186835000Y-86390112D01*
X186835000Y-85313888D01*
X186839565Y-85267532D01*
X186851296Y-85228862D01*
X186870346Y-85193223D01*
X186895983Y-85161983D01*
X186927223Y-85136346D01*
X186962862Y-85117296D01*
X187001532Y-85105565D01*
X187047888Y-85101000D01*
X187699112Y-85101000D01*
X187745468Y-85105565D01*
X187745468Y-85105565D01*
G37*
G36*
X158228618Y-85067731D02*
G01*
X158352814Y-85092434D01*
X158489215Y-85148933D01*
X158611972Y-85230957D01*
X158716368Y-85335353D01*
X158798392Y-85458110D01*
X158854891Y-85594511D01*
X158879594Y-85718707D01*
X158883693Y-85739312D01*
X158883693Y-85886952D01*
X158883091Y-85889976D01*
X158854891Y-86031753D01*
X158798392Y-86168154D01*
X158716368Y-86290911D01*
X158611972Y-86395307D01*
X158489215Y-86477331D01*
X158352814Y-86533830D01*
X158233195Y-86557623D01*
X158208013Y-86562632D01*
X158060373Y-86562632D01*
X158035191Y-86557623D01*
X157915572Y-86533830D01*
X157779171Y-86477331D01*
X157656414Y-86395307D01*
X157552018Y-86290911D01*
X157469994Y-86168154D01*
X157413495Y-86031753D01*
X157385295Y-85889976D01*
X157384693Y-85886952D01*
X157384693Y-85739312D01*
X157388792Y-85718707D01*
X157413495Y-85594511D01*
X157469994Y-85458110D01*
X157552018Y-85335353D01*
X157656414Y-85230957D01*
X157779171Y-85148933D01*
X157915572Y-85092434D01*
X158039768Y-85067731D01*
X158060373Y-85063632D01*
X158208013Y-85063632D01*
X158228618Y-85067731D01*
X158228618Y-85067731D01*
G37*
G36*
X120121000Y-85786000D02*
G01*
X118569000Y-85786000D01*
X118569000Y-78634000D01*
X120121000Y-78634000D01*
X120121000Y-85786000D01*
X120121000Y-85786000D01*
G37*
G36*
X176524468Y-84113565D02*
G01*
X176563138Y-84125296D01*
X176598777Y-84144346D01*
X176630017Y-84169983D01*
X176655654Y-84201223D01*
X176674704Y-84236862D01*
X176686435Y-84275532D01*
X176691000Y-84321888D01*
X176691000Y-85398112D01*
X176686435Y-85444468D01*
X176674704Y-85483138D01*
X176655654Y-85518777D01*
X176630017Y-85550017D01*
X176598777Y-85575654D01*
X176563138Y-85594704D01*
X176524468Y-85606435D01*
X176478112Y-85611000D01*
X175826888Y-85611000D01*
X175780532Y-85606435D01*
X175741862Y-85594704D01*
X175706223Y-85575654D01*
X175674983Y-85550017D01*
X175649346Y-85518777D01*
X175630296Y-85483138D01*
X175618565Y-85444468D01*
X175614000Y-85398112D01*
X175614000Y-84321888D01*
X175618565Y-84275532D01*
X175630296Y-84236862D01*
X175649346Y-84201223D01*
X175674983Y-84169983D01*
X175706223Y-84144346D01*
X175741862Y-84125296D01*
X175780532Y-84113565D01*
X175826888Y-84109000D01*
X176478112Y-84109000D01*
X176524468Y-84113565D01*
X176524468Y-84113565D01*
G37*
G36*
X178399468Y-84113565D02*
G01*
X178438138Y-84125296D01*
X178473777Y-84144346D01*
X178505017Y-84169983D01*
X178530654Y-84201223D01*
X178549704Y-84236862D01*
X178561435Y-84275532D01*
X178566000Y-84321888D01*
X178566000Y-85398112D01*
X178561435Y-85444468D01*
X178549704Y-85483138D01*
X178530654Y-85518777D01*
X178505017Y-85550017D01*
X178473777Y-85575654D01*
X178438138Y-85594704D01*
X178399468Y-85606435D01*
X178353112Y-85611000D01*
X177701888Y-85611000D01*
X177655532Y-85606435D01*
X177616862Y-85594704D01*
X177581223Y-85575654D01*
X177549983Y-85550017D01*
X177524346Y-85518777D01*
X177505296Y-85483138D01*
X177493565Y-85444468D01*
X177489000Y-85398112D01*
X177489000Y-84321888D01*
X177493565Y-84275532D01*
X177505296Y-84236862D01*
X177524346Y-84201223D01*
X177549983Y-84169983D01*
X177581223Y-84144346D01*
X177616862Y-84125296D01*
X177655532Y-84113565D01*
X177701888Y-84109000D01*
X178353112Y-84109000D01*
X178399468Y-84113565D01*
X178399468Y-84113565D01*
G37*
G36*
X172179468Y-84093565D02*
G01*
X172218138Y-84105296D01*
X172253777Y-84124346D01*
X172285017Y-84149983D01*
X172310654Y-84181223D01*
X172329704Y-84216862D01*
X172341435Y-84255532D01*
X172346000Y-84301888D01*
X172346000Y-85378112D01*
X172341435Y-85424468D01*
X172329704Y-85463138D01*
X172310654Y-85498777D01*
X172285017Y-85530017D01*
X172253777Y-85555654D01*
X172218138Y-85574704D01*
X172179468Y-85586435D01*
X172133112Y-85591000D01*
X171481888Y-85591000D01*
X171435532Y-85586435D01*
X171396862Y-85574704D01*
X171361223Y-85555654D01*
X171329983Y-85530017D01*
X171304346Y-85498777D01*
X171285296Y-85463138D01*
X171273565Y-85424468D01*
X171269000Y-85378112D01*
X171269000Y-84301888D01*
X171273565Y-84255532D01*
X171285296Y-84216862D01*
X171304346Y-84181223D01*
X171329983Y-84149983D01*
X171361223Y-84124346D01*
X171396862Y-84105296D01*
X171435532Y-84093565D01*
X171481888Y-84089000D01*
X172133112Y-84089000D01*
X172179468Y-84093565D01*
X172179468Y-84093565D01*
G37*
G36*
X170304468Y-84093565D02*
G01*
X170343138Y-84105296D01*
X170378777Y-84124346D01*
X170410017Y-84149983D01*
X170435654Y-84181223D01*
X170454704Y-84216862D01*
X170466435Y-84255532D01*
X170471000Y-84301888D01*
X170471000Y-85378112D01*
X170466435Y-85424468D01*
X170454704Y-85463138D01*
X170435654Y-85498777D01*
X170410017Y-85530017D01*
X170378777Y-85555654D01*
X170343138Y-85574704D01*
X170304468Y-85586435D01*
X170258112Y-85591000D01*
X169606888Y-85591000D01*
X169560532Y-85586435D01*
X169521862Y-85574704D01*
X169486223Y-85555654D01*
X169454983Y-85530017D01*
X169429346Y-85498777D01*
X169410296Y-85463138D01*
X169398565Y-85424468D01*
X169394000Y-85378112D01*
X169394000Y-84301888D01*
X169398565Y-84255532D01*
X169410296Y-84216862D01*
X169429346Y-84181223D01*
X169454983Y-84149983D01*
X169486223Y-84124346D01*
X169521862Y-84105296D01*
X169560532Y-84093565D01*
X169606888Y-84089000D01*
X170258112Y-84089000D01*
X170304468Y-84093565D01*
X170304468Y-84093565D01*
G37*
G36*
X130595468Y-84089565D02*
G01*
X130634138Y-84101296D01*
X130669777Y-84120346D01*
X130701017Y-84145983D01*
X130726654Y-84177223D01*
X130745704Y-84212862D01*
X130757435Y-84251532D01*
X130762000Y-84297888D01*
X130762000Y-85374112D01*
X130757435Y-85420468D01*
X130745704Y-85459138D01*
X130726654Y-85494777D01*
X130701017Y-85526017D01*
X130669777Y-85551654D01*
X130634138Y-85570704D01*
X130595468Y-85582435D01*
X130549112Y-85587000D01*
X129897888Y-85587000D01*
X129851532Y-85582435D01*
X129812862Y-85570704D01*
X129777223Y-85551654D01*
X129745983Y-85526017D01*
X129720346Y-85494777D01*
X129701296Y-85459138D01*
X129689565Y-85420468D01*
X129685000Y-85374112D01*
X129685000Y-84297888D01*
X129689565Y-84251532D01*
X129701296Y-84212862D01*
X129720346Y-84177223D01*
X129745983Y-84145983D01*
X129777223Y-84120346D01*
X129812862Y-84101296D01*
X129851532Y-84089565D01*
X129897888Y-84085000D01*
X130549112Y-84085000D01*
X130595468Y-84089565D01*
X130595468Y-84089565D01*
G37*
G36*
X128720468Y-84089565D02*
G01*
X128759138Y-84101296D01*
X128794777Y-84120346D01*
X128826017Y-84145983D01*
X128851654Y-84177223D01*
X128870704Y-84212862D01*
X128882435Y-84251532D01*
X128887000Y-84297888D01*
X128887000Y-85374112D01*
X128882435Y-85420468D01*
X128870704Y-85459138D01*
X128851654Y-85494777D01*
X128826017Y-85526017D01*
X128794777Y-85551654D01*
X128759138Y-85570704D01*
X128720468Y-85582435D01*
X128674112Y-85587000D01*
X128022888Y-85587000D01*
X127976532Y-85582435D01*
X127937862Y-85570704D01*
X127902223Y-85551654D01*
X127870983Y-85526017D01*
X127845346Y-85494777D01*
X127826296Y-85459138D01*
X127814565Y-85420468D01*
X127810000Y-85374112D01*
X127810000Y-84297888D01*
X127814565Y-84251532D01*
X127826296Y-84212862D01*
X127845346Y-84177223D01*
X127870983Y-84145983D01*
X127902223Y-84120346D01*
X127937862Y-84101296D01*
X127976532Y-84089565D01*
X128022888Y-84085000D01*
X128674112Y-84085000D01*
X128720468Y-84089565D01*
X128720468Y-84089565D01*
G37*
G36*
X118009672Y-84738449D02*
G01*
X118009674Y-84738450D01*
X118009675Y-84738450D01*
X118078103Y-84766793D01*
X118139686Y-84807942D01*
X118192058Y-84860314D01*
X118233207Y-84921897D01*
X118261550Y-84990325D01*
X118261551Y-84990328D01*
X118276000Y-85062966D01*
X118276000Y-85137034D01*
X118274142Y-85146377D01*
X118261550Y-85209675D01*
X118233207Y-85278103D01*
X118192058Y-85339686D01*
X118139686Y-85392058D01*
X118078103Y-85433207D01*
X118009675Y-85461550D01*
X118009674Y-85461550D01*
X118009672Y-85461551D01*
X117937034Y-85476000D01*
X117862966Y-85476000D01*
X117790328Y-85461551D01*
X117790326Y-85461550D01*
X117790325Y-85461550D01*
X117721897Y-85433207D01*
X117660314Y-85392058D01*
X117607942Y-85339686D01*
X117566793Y-85278103D01*
X117538450Y-85209675D01*
X117525859Y-85146377D01*
X117524000Y-85137034D01*
X117524000Y-85062966D01*
X117538449Y-84990328D01*
X117538450Y-84990325D01*
X117566793Y-84921897D01*
X117607942Y-84860314D01*
X117660314Y-84807942D01*
X117721897Y-84766793D01*
X117790325Y-84738450D01*
X117790326Y-84738450D01*
X117790328Y-84738449D01*
X117862966Y-84724000D01*
X117937034Y-84724000D01*
X118009672Y-84738449D01*
X118009672Y-84738449D01*
G37*
G36*
X166409468Y-83073565D02*
G01*
X166448138Y-83085296D01*
X166483777Y-83104346D01*
X166515017Y-83129983D01*
X166540654Y-83161223D01*
X166559704Y-83196862D01*
X166571435Y-83235532D01*
X166576000Y-83281888D01*
X166576000Y-84358112D01*
X166571435Y-84404468D01*
X166559704Y-84443138D01*
X166540654Y-84478777D01*
X166515017Y-84510017D01*
X166483777Y-84535654D01*
X166448138Y-84554704D01*
X166409468Y-84566435D01*
X166363112Y-84571000D01*
X165711888Y-84571000D01*
X165665532Y-84566435D01*
X165626862Y-84554704D01*
X165591223Y-84535654D01*
X165559983Y-84510017D01*
X165534346Y-84478777D01*
X165515296Y-84443138D01*
X165503565Y-84404468D01*
X165499000Y-84358112D01*
X165499000Y-83281888D01*
X165503565Y-83235532D01*
X165515296Y-83196862D01*
X165534346Y-83161223D01*
X165559983Y-83129983D01*
X165591223Y-83104346D01*
X165626862Y-83085296D01*
X165665532Y-83073565D01*
X165711888Y-83069000D01*
X166363112Y-83069000D01*
X166409468Y-83073565D01*
X166409468Y-83073565D01*
G37*
G36*
X164534468Y-83073565D02*
G01*
X164573138Y-83085296D01*
X164608777Y-83104346D01*
X164640017Y-83129983D01*
X164665654Y-83161223D01*
X164684704Y-83196862D01*
X164696435Y-83235532D01*
X164701000Y-83281888D01*
X164701000Y-84358112D01*
X164696435Y-84404468D01*
X164684704Y-84443138D01*
X164665654Y-84478777D01*
X164640017Y-84510017D01*
X164608777Y-84535654D01*
X164573138Y-84554704D01*
X164534468Y-84566435D01*
X164488112Y-84571000D01*
X163836888Y-84571000D01*
X163790532Y-84566435D01*
X163751862Y-84554704D01*
X163716223Y-84535654D01*
X163684983Y-84510017D01*
X163659346Y-84478777D01*
X163640296Y-84443138D01*
X163628565Y-84404468D01*
X163624000Y-84358112D01*
X163624000Y-83281888D01*
X163628565Y-83235532D01*
X163640296Y-83196862D01*
X163659346Y-83161223D01*
X163684983Y-83129983D01*
X163716223Y-83104346D01*
X163751862Y-83085296D01*
X163790532Y-83073565D01*
X163836888Y-83069000D01*
X164488112Y-83069000D01*
X164534468Y-83073565D01*
X164534468Y-83073565D01*
G37*
G36*
X127166468Y-82343315D02*
G01*
X127205138Y-82355046D01*
X127240777Y-82374096D01*
X127272017Y-82399733D01*
X127297654Y-82430973D01*
X127316704Y-82466612D01*
X127328435Y-82505282D01*
X127333000Y-82551638D01*
X127333000Y-83627862D01*
X127328435Y-83674218D01*
X127316704Y-83712888D01*
X127297654Y-83748527D01*
X127272017Y-83779767D01*
X127240777Y-83805404D01*
X127205138Y-83824454D01*
X127166468Y-83836185D01*
X127120112Y-83840750D01*
X126468888Y-83840750D01*
X126422532Y-83836185D01*
X126383862Y-83824454D01*
X126348223Y-83805404D01*
X126316983Y-83779767D01*
X126291346Y-83748527D01*
X126272296Y-83712888D01*
X126260565Y-83674218D01*
X126256000Y-83627862D01*
X126256000Y-82551638D01*
X126260565Y-82505282D01*
X126272296Y-82466612D01*
X126291346Y-82430973D01*
X126316983Y-82399733D01*
X126348223Y-82374096D01*
X126383862Y-82355046D01*
X126422532Y-82343315D01*
X126468888Y-82338750D01*
X127120112Y-82338750D01*
X127166468Y-82343315D01*
X127166468Y-82343315D01*
G37*
G36*
X125291468Y-82343315D02*
G01*
X125330138Y-82355046D01*
X125365777Y-82374096D01*
X125397017Y-82399733D01*
X125422654Y-82430973D01*
X125441704Y-82466612D01*
X125453435Y-82505282D01*
X125458000Y-82551638D01*
X125458000Y-83627862D01*
X125453435Y-83674218D01*
X125441704Y-83712888D01*
X125422654Y-83748527D01*
X125397017Y-83779767D01*
X125365777Y-83805404D01*
X125330138Y-83824454D01*
X125291468Y-83836185D01*
X125245112Y-83840750D01*
X124593888Y-83840750D01*
X124547532Y-83836185D01*
X124508862Y-83824454D01*
X124473223Y-83805404D01*
X124441983Y-83779767D01*
X124416346Y-83748527D01*
X124397296Y-83712888D01*
X124385565Y-83674218D01*
X124381000Y-83627862D01*
X124381000Y-82551638D01*
X124385565Y-82505282D01*
X124397296Y-82466612D01*
X124416346Y-82430973D01*
X124441983Y-82399733D01*
X124473223Y-82374096D01*
X124508862Y-82355046D01*
X124547532Y-82343315D01*
X124593888Y-82338750D01*
X125245112Y-82338750D01*
X125291468Y-82343315D01*
X125291468Y-82343315D01*
G37*
G36*
X184871000Y-82641000D02*
G01*
X182969000Y-82641000D01*
X182969000Y-81439000D01*
X184871000Y-81439000D01*
X184871000Y-82641000D01*
X184871000Y-82641000D01*
G37*
G36*
X178671000Y-82641000D02*
G01*
X176769000Y-82641000D01*
X176769000Y-81439000D01*
X178671000Y-81439000D01*
X178671000Y-82641000D01*
X178671000Y-82641000D01*
G37*
G36*
X169670443Y-80635519D02*
G01*
X169736627Y-80642037D01*
X169906466Y-80693557D01*
X170062991Y-80777222D01*
X170098729Y-80806552D01*
X170200186Y-80889814D01*
X170283448Y-80991271D01*
X170312778Y-81027009D01*
X170396443Y-81183534D01*
X170447963Y-81353373D01*
X170465359Y-81530000D01*
X170447963Y-81706627D01*
X170396443Y-81876466D01*
X170312778Y-82032991D01*
X170283448Y-82068729D01*
X170200186Y-82170186D01*
X170098729Y-82253448D01*
X170062991Y-82282778D01*
X170062989Y-82282779D01*
X169919933Y-82359245D01*
X169906466Y-82366443D01*
X169736627Y-82417963D01*
X169670443Y-82424481D01*
X169604260Y-82431000D01*
X169515740Y-82431000D01*
X169449557Y-82424481D01*
X169383373Y-82417963D01*
X169213534Y-82366443D01*
X169200068Y-82359245D01*
X169057011Y-82282779D01*
X169057009Y-82282778D01*
X169021271Y-82253448D01*
X168919814Y-82170186D01*
X168836552Y-82068729D01*
X168807222Y-82032991D01*
X168723557Y-81876466D01*
X168672037Y-81706627D01*
X168654641Y-81530000D01*
X168672037Y-81353373D01*
X168723557Y-81183534D01*
X168807222Y-81027009D01*
X168836552Y-80991271D01*
X168919814Y-80889814D01*
X169021271Y-80806552D01*
X169057009Y-80777222D01*
X169213534Y-80693557D01*
X169383373Y-80642037D01*
X169449557Y-80635519D01*
X169515740Y-80629000D01*
X169604260Y-80629000D01*
X169670443Y-80635519D01*
X169670443Y-80635519D01*
G37*
G36*
X175541000Y-82431000D02*
G01*
X173739000Y-82431000D01*
X173739000Y-80629000D01*
X175541000Y-80629000D01*
X175541000Y-82431000D01*
X175541000Y-82431000D01*
G37*
G36*
X172210443Y-80635519D02*
G01*
X172276627Y-80642037D01*
X172446466Y-80693557D01*
X172602991Y-80777222D01*
X172638729Y-80806552D01*
X172740186Y-80889814D01*
X172823448Y-80991271D01*
X172852778Y-81027009D01*
X172936443Y-81183534D01*
X172987963Y-81353373D01*
X173005359Y-81530000D01*
X172987963Y-81706627D01*
X172936443Y-81876466D01*
X172852778Y-82032991D01*
X172823448Y-82068729D01*
X172740186Y-82170186D01*
X172638729Y-82253448D01*
X172602991Y-82282778D01*
X172602989Y-82282779D01*
X172459933Y-82359245D01*
X172446466Y-82366443D01*
X172276627Y-82417963D01*
X172210443Y-82424481D01*
X172144260Y-82431000D01*
X172055740Y-82431000D01*
X171989557Y-82424481D01*
X171923373Y-82417963D01*
X171753534Y-82366443D01*
X171740068Y-82359245D01*
X171597011Y-82282779D01*
X171597009Y-82282778D01*
X171561271Y-82253448D01*
X171459814Y-82170186D01*
X171376552Y-82068729D01*
X171347222Y-82032991D01*
X171263557Y-81876466D01*
X171212037Y-81706627D01*
X171194641Y-81530000D01*
X171212037Y-81353373D01*
X171263557Y-81183534D01*
X171347222Y-81027009D01*
X171376552Y-80991271D01*
X171459814Y-80889814D01*
X171561271Y-80806552D01*
X171597009Y-80777222D01*
X171753534Y-80693557D01*
X171923373Y-80642037D01*
X171989557Y-80635519D01*
X172055740Y-80629000D01*
X172144260Y-80629000D01*
X172210443Y-80635519D01*
X172210443Y-80635519D01*
G37*
G36*
X125283468Y-80406565D02*
G01*
X125322138Y-80418296D01*
X125357777Y-80437346D01*
X125389017Y-80462983D01*
X125414654Y-80494223D01*
X125433704Y-80529862D01*
X125445435Y-80568532D01*
X125450000Y-80614888D01*
X125450000Y-81691112D01*
X125445435Y-81737468D01*
X125433704Y-81776138D01*
X125414654Y-81811777D01*
X125389017Y-81843017D01*
X125357777Y-81868654D01*
X125322138Y-81887704D01*
X125283468Y-81899435D01*
X125237112Y-81904000D01*
X124585888Y-81904000D01*
X124539532Y-81899435D01*
X124500862Y-81887704D01*
X124465223Y-81868654D01*
X124433983Y-81843017D01*
X124408346Y-81811777D01*
X124389296Y-81776138D01*
X124377565Y-81737468D01*
X124373000Y-81691112D01*
X124373000Y-80614888D01*
X124377565Y-80568532D01*
X124389296Y-80529862D01*
X124408346Y-80494223D01*
X124433983Y-80462983D01*
X124465223Y-80437346D01*
X124500862Y-80418296D01*
X124539532Y-80406565D01*
X124585888Y-80402000D01*
X125237112Y-80402000D01*
X125283468Y-80406565D01*
X125283468Y-80406565D01*
G37*
G36*
X127158468Y-80406565D02*
G01*
X127197138Y-80418296D01*
X127232777Y-80437346D01*
X127264017Y-80462983D01*
X127289654Y-80494223D01*
X127308704Y-80529862D01*
X127320435Y-80568532D01*
X127325000Y-80614888D01*
X127325000Y-81691112D01*
X127320435Y-81737468D01*
X127308704Y-81776138D01*
X127289654Y-81811777D01*
X127264017Y-81843017D01*
X127232777Y-81868654D01*
X127197138Y-81887704D01*
X127158468Y-81899435D01*
X127112112Y-81904000D01*
X126460888Y-81904000D01*
X126414532Y-81899435D01*
X126375862Y-81887704D01*
X126340223Y-81868654D01*
X126308983Y-81843017D01*
X126283346Y-81811777D01*
X126264296Y-81776138D01*
X126252565Y-81737468D01*
X126248000Y-81691112D01*
X126248000Y-80614888D01*
X126252565Y-80568532D01*
X126264296Y-80529862D01*
X126283346Y-80494223D01*
X126308983Y-80462983D01*
X126340223Y-80437346D01*
X126375862Y-80418296D01*
X126414532Y-80406565D01*
X126460888Y-80402000D01*
X127112112Y-80402000D01*
X127158468Y-80406565D01*
X127158468Y-80406565D01*
G37*
G36*
X128720468Y-78755565D02*
G01*
X128759138Y-78767296D01*
X128794777Y-78786346D01*
X128826017Y-78811983D01*
X128851654Y-78843223D01*
X128870704Y-78878862D01*
X128882435Y-78917532D01*
X128887000Y-78963888D01*
X128887000Y-80040112D01*
X128882435Y-80086468D01*
X128870704Y-80125138D01*
X128851654Y-80160777D01*
X128826017Y-80192017D01*
X128794777Y-80217654D01*
X128759138Y-80236704D01*
X128720468Y-80248435D01*
X128674112Y-80253000D01*
X128022888Y-80253000D01*
X127976532Y-80248435D01*
X127937862Y-80236704D01*
X127902223Y-80217654D01*
X127870983Y-80192017D01*
X127845346Y-80160777D01*
X127826296Y-80125138D01*
X127814565Y-80086468D01*
X127810000Y-80040112D01*
X127810000Y-78963888D01*
X127814565Y-78917532D01*
X127826296Y-78878862D01*
X127845346Y-78843223D01*
X127870983Y-78811983D01*
X127902223Y-78786346D01*
X127937862Y-78767296D01*
X127976532Y-78755565D01*
X128022888Y-78751000D01*
X128674112Y-78751000D01*
X128720468Y-78755565D01*
X128720468Y-78755565D01*
G37*
G36*
X130595468Y-78755565D02*
G01*
X130634138Y-78767296D01*
X130669777Y-78786346D01*
X130701017Y-78811983D01*
X130726654Y-78843223D01*
X130745704Y-78878862D01*
X130757435Y-78917532D01*
X130762000Y-78963888D01*
X130762000Y-80040112D01*
X130757435Y-80086468D01*
X130745704Y-80125138D01*
X130726654Y-80160777D01*
X130701017Y-80192017D01*
X130669777Y-80217654D01*
X130634138Y-80236704D01*
X130595468Y-80248435D01*
X130549112Y-80253000D01*
X129897888Y-80253000D01*
X129851532Y-80248435D01*
X129812862Y-80236704D01*
X129777223Y-80217654D01*
X129745983Y-80192017D01*
X129720346Y-80160777D01*
X129701296Y-80125138D01*
X129689565Y-80086468D01*
X129685000Y-80040112D01*
X129685000Y-78963888D01*
X129689565Y-78917532D01*
X129701296Y-78878862D01*
X129720346Y-78843223D01*
X129745983Y-78811983D01*
X129777223Y-78786346D01*
X129812862Y-78767296D01*
X129851532Y-78755565D01*
X129897888Y-78751000D01*
X130549112Y-78751000D01*
X130595468Y-78755565D01*
X130595468Y-78755565D01*
G37*
G36*
X174750442Y-78095518D02*
G01*
X174816627Y-78102037D01*
X174986466Y-78153557D01*
X175142991Y-78237222D01*
X175178729Y-78266552D01*
X175280186Y-78349814D01*
X175363448Y-78451271D01*
X175392778Y-78487009D01*
X175476443Y-78643534D01*
X175527963Y-78813373D01*
X175545359Y-78990000D01*
X175527963Y-79166627D01*
X175476443Y-79336466D01*
X175392778Y-79492991D01*
X175363448Y-79528729D01*
X175280186Y-79630186D01*
X175199990Y-79696000D01*
X175142991Y-79742778D01*
X174986466Y-79826443D01*
X174816627Y-79877963D01*
X174750443Y-79884481D01*
X174684260Y-79891000D01*
X174595740Y-79891000D01*
X174529557Y-79884481D01*
X174463373Y-79877963D01*
X174293534Y-79826443D01*
X174137009Y-79742778D01*
X174080010Y-79696000D01*
X173999814Y-79630186D01*
X173916552Y-79528729D01*
X173887222Y-79492991D01*
X173803557Y-79336466D01*
X173752037Y-79166627D01*
X173734641Y-78990000D01*
X173752037Y-78813373D01*
X173803557Y-78643534D01*
X173887222Y-78487009D01*
X173916552Y-78451271D01*
X173999814Y-78349814D01*
X174101271Y-78266552D01*
X174137009Y-78237222D01*
X174293534Y-78153557D01*
X174463373Y-78102037D01*
X174529558Y-78095518D01*
X174595740Y-78089000D01*
X174684260Y-78089000D01*
X174750442Y-78095518D01*
X174750442Y-78095518D01*
G37*
G36*
X169670442Y-78095518D02*
G01*
X169736627Y-78102037D01*
X169906466Y-78153557D01*
X170062991Y-78237222D01*
X170098729Y-78266552D01*
X170200186Y-78349814D01*
X170283448Y-78451271D01*
X170312778Y-78487009D01*
X170396443Y-78643534D01*
X170447963Y-78813373D01*
X170465359Y-78990000D01*
X170447963Y-79166627D01*
X170396443Y-79336466D01*
X170312778Y-79492991D01*
X170283448Y-79528729D01*
X170200186Y-79630186D01*
X170119990Y-79696000D01*
X170062991Y-79742778D01*
X169906466Y-79826443D01*
X169736627Y-79877963D01*
X169670443Y-79884481D01*
X169604260Y-79891000D01*
X169515740Y-79891000D01*
X169449557Y-79884481D01*
X169383373Y-79877963D01*
X169213534Y-79826443D01*
X169057009Y-79742778D01*
X169000010Y-79696000D01*
X168919814Y-79630186D01*
X168836552Y-79528729D01*
X168807222Y-79492991D01*
X168723557Y-79336466D01*
X168672037Y-79166627D01*
X168654641Y-78990000D01*
X168672037Y-78813373D01*
X168723557Y-78643534D01*
X168807222Y-78487009D01*
X168836552Y-78451271D01*
X168919814Y-78349814D01*
X169021271Y-78266552D01*
X169057009Y-78237222D01*
X169213534Y-78153557D01*
X169383373Y-78102037D01*
X169449558Y-78095518D01*
X169515740Y-78089000D01*
X169604260Y-78089000D01*
X169670442Y-78095518D01*
X169670442Y-78095518D01*
G37*
G36*
X172210442Y-78095518D02*
G01*
X172276627Y-78102037D01*
X172446466Y-78153557D01*
X172602991Y-78237222D01*
X172638729Y-78266552D01*
X172740186Y-78349814D01*
X172823448Y-78451271D01*
X172852778Y-78487009D01*
X172936443Y-78643534D01*
X172987963Y-78813373D01*
X173005359Y-78990000D01*
X172987963Y-79166627D01*
X172936443Y-79336466D01*
X172852778Y-79492991D01*
X172823448Y-79528729D01*
X172740186Y-79630186D01*
X172659990Y-79696000D01*
X172602991Y-79742778D01*
X172446466Y-79826443D01*
X172276627Y-79877963D01*
X172210443Y-79884481D01*
X172144260Y-79891000D01*
X172055740Y-79891000D01*
X171989557Y-79884481D01*
X171923373Y-79877963D01*
X171753534Y-79826443D01*
X171597009Y-79742778D01*
X171540010Y-79696000D01*
X171459814Y-79630186D01*
X171376552Y-79528729D01*
X171347222Y-79492991D01*
X171263557Y-79336466D01*
X171212037Y-79166627D01*
X171194641Y-78990000D01*
X171212037Y-78813373D01*
X171263557Y-78643534D01*
X171347222Y-78487009D01*
X171376552Y-78451271D01*
X171459814Y-78349814D01*
X171561271Y-78266552D01*
X171597009Y-78237222D01*
X171753534Y-78153557D01*
X171923373Y-78102037D01*
X171989558Y-78095518D01*
X172055740Y-78089000D01*
X172144260Y-78089000D01*
X172210442Y-78095518D01*
X172210442Y-78095518D01*
G37*
G36*
X118009672Y-78958449D02*
G01*
X118009674Y-78958450D01*
X118009675Y-78958450D01*
X118078103Y-78986793D01*
X118139686Y-79027942D01*
X118192058Y-79080314D01*
X118233207Y-79141897D01*
X118261550Y-79210325D01*
X118276000Y-79282967D01*
X118276000Y-79357033D01*
X118261550Y-79429675D01*
X118233207Y-79498103D01*
X118192058Y-79559686D01*
X118139686Y-79612058D01*
X118078103Y-79653207D01*
X118009675Y-79681550D01*
X118009674Y-79681550D01*
X118009672Y-79681551D01*
X117937034Y-79696000D01*
X117862966Y-79696000D01*
X117790328Y-79681551D01*
X117790326Y-79681550D01*
X117790325Y-79681550D01*
X117721897Y-79653207D01*
X117660314Y-79612058D01*
X117607942Y-79559686D01*
X117566793Y-79498103D01*
X117538450Y-79429675D01*
X117524000Y-79357033D01*
X117524000Y-79282967D01*
X117538450Y-79210325D01*
X117566793Y-79141897D01*
X117607942Y-79080314D01*
X117660314Y-79027942D01*
X117721897Y-78986793D01*
X117790325Y-78958450D01*
X117790326Y-78958450D01*
X117790328Y-78958449D01*
X117862966Y-78944000D01*
X117937034Y-78944000D01*
X118009672Y-78958449D01*
X118009672Y-78958449D01*
G37*
G36*
X184871000Y-78941000D02*
G01*
X182969000Y-78941000D01*
X182969000Y-77739000D01*
X184871000Y-77739000D01*
X184871000Y-78941000D01*
X184871000Y-78941000D01*
G37*
G36*
X178671000Y-78941000D02*
G01*
X176769000Y-78941000D01*
X176769000Y-77739000D01*
X178671000Y-77739000D01*
X178671000Y-78941000D01*
X178671000Y-78941000D01*
G37*
G36*
X122127626Y-74933025D02*
G01*
X122217850Y-74950971D01*
X122323460Y-74994717D01*
X122472814Y-75056581D01*
X122472815Y-75056582D01*
X122702279Y-75209904D01*
X122897421Y-75405046D01*
X122999868Y-75558369D01*
X123050744Y-75634511D01*
X123156354Y-75889476D01*
X123210193Y-76160144D01*
X123210193Y-76436120D01*
X123156354Y-76706788D01*
X123050744Y-76961753D01*
X123050743Y-76961754D01*
X122897421Y-77191218D01*
X122702279Y-77386360D01*
X122548956Y-77488807D01*
X122472814Y-77539683D01*
X122323460Y-77601547D01*
X122217850Y-77645293D01*
X122127626Y-77663239D01*
X121947181Y-77699132D01*
X121671205Y-77699132D01*
X121490760Y-77663239D01*
X121400536Y-77645293D01*
X121294926Y-77601547D01*
X121145572Y-77539683D01*
X121069430Y-77488807D01*
X120916107Y-77386360D01*
X120720965Y-77191218D01*
X120567643Y-76961754D01*
X120567642Y-76961753D01*
X120462032Y-76706788D01*
X120408193Y-76436120D01*
X120408193Y-76160144D01*
X120462032Y-75889476D01*
X120567642Y-75634511D01*
X120618518Y-75558369D01*
X120720965Y-75405046D01*
X120916107Y-75209904D01*
X121145571Y-75056582D01*
X121145572Y-75056581D01*
X121294926Y-74994717D01*
X121400536Y-74950971D01*
X121490760Y-74933025D01*
X121671205Y-74897132D01*
X121947181Y-74897132D01*
X122127626Y-74933025D01*
X122127626Y-74933025D01*
G37*
G36*
X187327626Y-74933025D02*
G01*
X187417850Y-74950971D01*
X187523460Y-74994717D01*
X187672814Y-75056581D01*
X187672815Y-75056582D01*
X187902279Y-75209904D01*
X188097421Y-75405046D01*
X188199868Y-75558369D01*
X188250744Y-75634511D01*
X188356354Y-75889476D01*
X188410193Y-76160144D01*
X188410193Y-76436120D01*
X188356354Y-76706788D01*
X188250744Y-76961753D01*
X188250743Y-76961754D01*
X188097421Y-77191218D01*
X187902279Y-77386360D01*
X187748956Y-77488807D01*
X187672814Y-77539683D01*
X187523460Y-77601547D01*
X187417850Y-77645293D01*
X187327626Y-77663239D01*
X187147181Y-77699132D01*
X186871205Y-77699132D01*
X186690760Y-77663239D01*
X186600536Y-77645293D01*
X186494926Y-77601547D01*
X186345572Y-77539683D01*
X186269430Y-77488807D01*
X186116107Y-77386360D01*
X185920965Y-77191218D01*
X185767643Y-76961754D01*
X185767642Y-76961753D01*
X185662032Y-76706788D01*
X185608193Y-76436120D01*
X185608193Y-76160144D01*
X185662032Y-75889476D01*
X185767642Y-75634511D01*
X185818518Y-75558369D01*
X185920965Y-75405046D01*
X186116107Y-75209904D01*
X186345571Y-75056582D01*
X186345572Y-75056581D01*
X186494926Y-74994717D01*
X186600536Y-74950971D01*
X186690760Y-74933025D01*
X186871205Y-74897132D01*
X187147181Y-74897132D01*
X187327626Y-74933025D01*
X187327626Y-74933025D01*
G37*
G36*
X117929297Y-72957717D02*
G01*
X118097819Y-73027521D01*
X118249484Y-73128860D01*
X118378465Y-73257841D01*
X118479804Y-73409506D01*
X118549608Y-73578028D01*
X118585193Y-73756929D01*
X118585193Y-73939335D01*
X118549608Y-74118236D01*
X118479804Y-74286758D01*
X118378465Y-74438423D01*
X118249484Y-74567404D01*
X118097819Y-74668743D01*
X117929297Y-74738547D01*
X117750396Y-74774132D01*
X117567990Y-74774132D01*
X117389089Y-74738547D01*
X117220567Y-74668743D01*
X117068902Y-74567404D01*
X116939921Y-74438423D01*
X116838582Y-74286758D01*
X116768778Y-74118236D01*
X116733193Y-73939335D01*
X116733193Y-73756929D01*
X116768778Y-73578028D01*
X116838582Y-73409506D01*
X116939921Y-73257841D01*
X117068902Y-73128860D01*
X117220567Y-73027521D01*
X117389089Y-72957717D01*
X117567990Y-72922132D01*
X117750396Y-72922132D01*
X117929297Y-72957717D01*
X117929297Y-72957717D01*
G37*
G36*
X191429297Y-69457717D02*
G01*
X191597819Y-69527521D01*
X191749484Y-69628860D01*
X191878465Y-69757841D01*
X191979804Y-69909506D01*
X192049608Y-70078028D01*
X192085193Y-70256929D01*
X192085193Y-70439335D01*
X192049608Y-70618236D01*
X191979804Y-70786758D01*
X191878465Y-70938423D01*
X191749484Y-71067404D01*
X191597819Y-71168743D01*
X191429297Y-71238547D01*
X191250396Y-71274132D01*
X191067990Y-71274132D01*
X190889089Y-71238547D01*
X190720567Y-71168743D01*
X190568902Y-71067404D01*
X190439921Y-70938423D01*
X190338582Y-70786758D01*
X190268778Y-70618236D01*
X190233193Y-70439335D01*
X190233193Y-70256929D01*
X190268778Y-70078028D01*
X190338582Y-69909506D01*
X190439921Y-69757841D01*
X190568902Y-69628860D01*
X190720567Y-69527521D01*
X190889089Y-69457717D01*
X191067990Y-69422132D01*
X191250396Y-69422132D01*
X191429297Y-69457717D01*
X191429297Y-69457717D01*
G37*
G36*
X118585193Y-71274132D02*
G01*
X116733193Y-71274132D01*
X116733193Y-69422132D01*
X118585193Y-69422132D01*
X118585193Y-71274132D01*
X118585193Y-71274132D01*
G37*
G36*
X186127626Y-66533025D02*
G01*
X186217850Y-66550971D01*
X186323460Y-66594717D01*
X186472814Y-66656581D01*
X186472815Y-66656582D01*
X186702279Y-66809904D01*
X186897421Y-67005046D01*
X186999868Y-67158369D01*
X187050744Y-67234511D01*
X187156354Y-67489476D01*
X187210193Y-67760144D01*
X187210193Y-68036120D01*
X187156354Y-68306788D01*
X187050744Y-68561753D01*
X187050743Y-68561754D01*
X186897421Y-68791218D01*
X186702279Y-68986360D01*
X186548956Y-69088807D01*
X186472814Y-69139683D01*
X186323460Y-69201547D01*
X186217850Y-69245293D01*
X186127626Y-69263239D01*
X185947181Y-69299132D01*
X185671205Y-69299132D01*
X185490760Y-69263239D01*
X185400536Y-69245293D01*
X185294926Y-69201547D01*
X185145572Y-69139683D01*
X185069430Y-69088807D01*
X184916107Y-68986360D01*
X184720965Y-68791218D01*
X184567643Y-68561754D01*
X184567642Y-68561753D01*
X184462032Y-68306788D01*
X184408193Y-68036120D01*
X184408193Y-67760144D01*
X184462032Y-67489476D01*
X184567642Y-67234511D01*
X184618518Y-67158369D01*
X184720965Y-67005046D01*
X184916107Y-66809904D01*
X185145571Y-66656582D01*
X185145572Y-66656581D01*
X185294926Y-66594717D01*
X185400536Y-66550971D01*
X185490760Y-66533025D01*
X185671205Y-66497132D01*
X185947181Y-66497132D01*
X186127626Y-66533025D01*
X186127626Y-66533025D01*
G37*
G36*
X123327626Y-66533025D02*
G01*
X123417850Y-66550971D01*
X123523460Y-66594717D01*
X123672814Y-66656581D01*
X123672815Y-66656582D01*
X123902279Y-66809904D01*
X124097421Y-67005046D01*
X124199868Y-67158369D01*
X124250744Y-67234511D01*
X124356354Y-67489476D01*
X124410193Y-67760144D01*
X124410193Y-68036120D01*
X124356354Y-68306788D01*
X124250744Y-68561753D01*
X124250743Y-68561754D01*
X124097421Y-68791218D01*
X123902279Y-68986360D01*
X123748956Y-69088807D01*
X123672814Y-69139683D01*
X123523460Y-69201547D01*
X123417850Y-69245293D01*
X123327626Y-69263239D01*
X123147181Y-69299132D01*
X122871205Y-69299132D01*
X122690760Y-69263239D01*
X122600536Y-69245293D01*
X122494926Y-69201547D01*
X122345572Y-69139683D01*
X122269430Y-69088807D01*
X122116107Y-68986360D01*
X121920965Y-68791218D01*
X121767643Y-68561754D01*
X121767642Y-68561753D01*
X121662032Y-68306788D01*
X121608193Y-68036120D01*
X121608193Y-67760144D01*
X121662032Y-67489476D01*
X121767642Y-67234511D01*
X121818518Y-67158369D01*
X121920965Y-67005046D01*
X122116107Y-66809904D01*
X122345571Y-66656582D01*
X122345572Y-66656581D01*
X122494926Y-66594717D01*
X122600536Y-66550971D01*
X122690760Y-66533025D01*
X122871205Y-66497132D01*
X123147181Y-66497132D01*
X123327626Y-66533025D01*
X123327626Y-66533025D01*
G37*
M02*
