M48
; DRILL file {KiCad (5.1.4)-1} date 16/09/2020 16:25:45
; FORMAT={-:-/ absolute / inch / decimal}
; #@! TF.CreationDate,2020-09-16T16:25:45+03:00
; #@! TF.GenerationSoftware,Kicad,Pcbnew,(5.1.4)-1
; #@! TF.FileFunction,NonPlated,1,2,NPTH
FMAT,2
INCH
T1C0.0256
T2C0.0689
T3C0.1570
%
G90
G05
T1
X4.6417Y-3.1228
X4.6417Y-3.3504
T2
X6.9313Y-4.3759
X7.3313Y-4.3759
X5.4313Y-3.6259
X5.8313Y-3.6259
X4.6813Y-4.3759
X5.0813Y-4.3759
X6.1813Y-4.3759
X6.5813Y-4.3759
X5.4313Y-4.3759
X5.8313Y-4.3759
X4.6813Y-3.6259
X5.0813Y-3.6259
T3
X7.1313Y-4.3759
X5.6313Y-3.6259
X4.8813Y-4.3759
X6.3813Y-4.3759
X5.6313Y-4.3759
X4.8813Y-3.6259
T0
M30
