G04 #@! TF.GenerationSoftware,KiCad,Pcbnew,(5.1.4)-1*
G04 #@! TF.CreationDate,2020-09-16T16:25:40+03:00*
G04 #@! TF.ProjectId,MacroBoardPcb,4d616372-6f42-46f6-9172-645063622e6b,rev?*
G04 #@! TF.SameCoordinates,Original*
G04 #@! TF.FileFunction,Soldermask,Top*
G04 #@! TF.FilePolarity,Negative*
%FSLAX46Y46*%
G04 Gerber Fmt 4.6, Leading zero omitted, Abs format (unit mm)*
G04 Created by KiCad (PCBNEW (5.1.4)-1) date 2020-09-16 16:25:40*
%MOMM*%
%LPD*%
G04 APERTURE LIST*
%ADD10C,0.150000*%
%ADD11C,0.100000*%
G04 APERTURE END LIST*
D10*
X185385729Y-119752380D02*
X185510729Y-118752380D01*
X185754776Y-119466666D01*
X186177395Y-118752380D01*
X186052395Y-119752380D01*
X186528586Y-119752380D02*
X186653586Y-118752380D01*
X186605967Y-119133333D02*
X186707157Y-119085714D01*
X186897633Y-119085714D01*
X186986919Y-119133333D01*
X187028586Y-119180952D01*
X187064300Y-119276190D01*
X187028586Y-119561904D01*
X186969062Y-119657142D01*
X186915491Y-119704761D01*
X186814300Y-119752380D01*
X186623824Y-119752380D01*
X186534538Y-119704761D01*
X187576205Y-119752380D02*
X187486919Y-119704761D01*
X187445252Y-119657142D01*
X187409538Y-119561904D01*
X187445252Y-119276190D01*
X187504776Y-119180952D01*
X187558348Y-119133333D01*
X187659538Y-119085714D01*
X187802395Y-119085714D01*
X187891681Y-119133333D01*
X187933348Y-119180952D01*
X187969062Y-119276190D01*
X187933348Y-119561904D01*
X187873824Y-119657142D01*
X187820252Y-119704761D01*
X187719062Y-119752380D01*
X187576205Y-119752380D01*
X188766681Y-119752380D02*
X188832157Y-119228571D01*
X188796443Y-119133333D01*
X188707157Y-119085714D01*
X188516681Y-119085714D01*
X188415491Y-119133333D01*
X188772633Y-119704761D02*
X188671443Y-119752380D01*
X188433348Y-119752380D01*
X188344062Y-119704761D01*
X188308348Y-119609523D01*
X188320252Y-119514285D01*
X188379776Y-119419047D01*
X188480967Y-119371428D01*
X188719062Y-119371428D01*
X188820252Y-119323809D01*
X189242872Y-119752380D02*
X189326205Y-119085714D01*
X189302395Y-119276190D02*
X189361919Y-119180952D01*
X189415491Y-119133333D01*
X189516681Y-119085714D01*
X189611919Y-119085714D01*
X190290491Y-119752380D02*
X190415491Y-118752380D01*
X190296443Y-119704761D02*
X190195252Y-119752380D01*
X190004776Y-119752380D01*
X189915491Y-119704761D01*
X189873824Y-119657142D01*
X189838110Y-119561904D01*
X189873824Y-119276190D01*
X189933348Y-119180952D01*
X189986919Y-119133333D01*
X190088110Y-119085714D01*
X190278586Y-119085714D01*
X190367872Y-119133333D01*
X191528586Y-119752380D02*
X191653586Y-118752380D01*
X192034538Y-118752380D01*
X192123824Y-118800000D01*
X192165491Y-118847619D01*
X192201205Y-118942857D01*
X192183348Y-119085714D01*
X192123824Y-119180952D01*
X192070252Y-119228571D01*
X191969062Y-119276190D01*
X191588110Y-119276190D01*
X192963110Y-119704761D02*
X192861919Y-119752380D01*
X192671443Y-119752380D01*
X192582157Y-119704761D01*
X192540491Y-119657142D01*
X192504776Y-119561904D01*
X192540491Y-119276190D01*
X192600014Y-119180952D01*
X192653586Y-119133333D01*
X192754776Y-119085714D01*
X192945252Y-119085714D01*
X193034538Y-119133333D01*
X193385729Y-119752380D02*
X193510729Y-118752380D01*
X193463110Y-119133333D02*
X193564300Y-119085714D01*
X193754776Y-119085714D01*
X193844062Y-119133333D01*
X193885729Y-119180952D01*
X193921443Y-119276190D01*
X193885729Y-119561904D01*
X193826205Y-119657142D01*
X193772633Y-119704761D01*
X193671443Y-119752380D01*
X193480967Y-119752380D01*
X193391681Y-119704761D01*
D11*
G36*
X99535193Y-119699132D02*
G01*
X97433193Y-119699132D01*
X97433193Y-117597132D01*
X99535193Y-117597132D01*
X99535193Y-119699132D01*
X99535193Y-119699132D01*
G37*
G36*
X103790757Y-117637521D02*
G01*
X103982026Y-117716747D01*
X103982028Y-117716748D01*
X104154166Y-117831767D01*
X104300558Y-117978159D01*
X104415578Y-118150299D01*
X104494804Y-118341568D01*
X104535193Y-118544616D01*
X104535193Y-118751648D01*
X104494804Y-118954696D01*
X104415578Y-119145965D01*
X104415577Y-119145967D01*
X104300558Y-119318105D01*
X104154166Y-119464497D01*
X103982028Y-119579516D01*
X103982027Y-119579517D01*
X103982026Y-119579517D01*
X103790757Y-119658743D01*
X103587709Y-119699132D01*
X103380677Y-119699132D01*
X103177629Y-119658743D01*
X102986360Y-119579517D01*
X102986359Y-119579517D01*
X102986358Y-119579516D01*
X102814220Y-119464497D01*
X102667828Y-119318105D01*
X102552809Y-119145967D01*
X102552808Y-119145965D01*
X102473582Y-118954696D01*
X102433193Y-118751648D01*
X102433193Y-118544616D01*
X102473582Y-118341568D01*
X102552808Y-118150299D01*
X102667828Y-117978159D01*
X102814220Y-117831767D01*
X102986358Y-117716748D01*
X102986360Y-117716747D01*
X103177629Y-117637521D01*
X103380677Y-117597132D01*
X103587709Y-117597132D01*
X103790757Y-117637521D01*
X103790757Y-117637521D01*
G37*
G36*
X101290757Y-117637521D02*
G01*
X101482026Y-117716747D01*
X101482028Y-117716748D01*
X101654166Y-117831767D01*
X101800558Y-117978159D01*
X101915578Y-118150299D01*
X101994804Y-118341568D01*
X102035193Y-118544616D01*
X102035193Y-118751648D01*
X101994804Y-118954696D01*
X101915578Y-119145965D01*
X101915577Y-119145967D01*
X101800558Y-119318105D01*
X101654166Y-119464497D01*
X101482028Y-119579516D01*
X101482027Y-119579517D01*
X101482026Y-119579517D01*
X101290757Y-119658743D01*
X101087709Y-119699132D01*
X100880677Y-119699132D01*
X100677629Y-119658743D01*
X100486360Y-119579517D01*
X100486359Y-119579517D01*
X100486358Y-119579516D01*
X100314220Y-119464497D01*
X100167828Y-119318105D01*
X100052809Y-119145967D01*
X100052808Y-119145965D01*
X99973582Y-118954696D01*
X99933193Y-118751648D01*
X99933193Y-118544616D01*
X99973582Y-118341568D01*
X100052808Y-118150299D01*
X100167828Y-117978159D01*
X100314220Y-117831767D01*
X100486358Y-117716748D01*
X100486360Y-117716747D01*
X100677629Y-117637521D01*
X100880677Y-117597132D01*
X101087709Y-117597132D01*
X101290757Y-117637521D01*
X101290757Y-117637521D01*
G37*
G36*
X151791000Y-113276000D02*
G01*
X150489000Y-113276000D01*
X150489000Y-112274000D01*
X151791000Y-112274000D01*
X151791000Y-113276000D01*
X151791000Y-113276000D01*
G37*
G36*
X189563500Y-113276000D02*
G01*
X188261500Y-113276000D01*
X188261500Y-112274000D01*
X189563500Y-112274000D01*
X189563500Y-113276000D01*
X189563500Y-113276000D01*
G37*
G36*
X170711000Y-113276000D02*
G01*
X169409000Y-113276000D01*
X169409000Y-112274000D01*
X170711000Y-112274000D01*
X170711000Y-113276000D01*
X170711000Y-113276000D01*
G37*
G36*
X132441000Y-113276000D02*
G01*
X131139000Y-113276000D01*
X131139000Y-112274000D01*
X132441000Y-112274000D01*
X132441000Y-113276000D01*
X132441000Y-113276000D01*
G37*
G36*
X143630667Y-109181816D02*
G01*
X143737336Y-109226000D01*
X144002816Y-109335965D01*
X144337741Y-109559755D01*
X144622570Y-109844584D01*
X144846360Y-110179509D01*
X144878755Y-110257718D01*
X145000509Y-110551658D01*
X145079093Y-110946726D01*
X145079093Y-111349538D01*
X145000509Y-111744606D01*
X144949644Y-111867404D01*
X144846360Y-112116755D01*
X144622570Y-112451680D01*
X144337741Y-112736509D01*
X144002816Y-112960299D01*
X143848667Y-113024149D01*
X143630667Y-113114448D01*
X143235599Y-113193032D01*
X142832787Y-113193032D01*
X142437719Y-113114448D01*
X142219719Y-113024149D01*
X142065570Y-112960299D01*
X141730645Y-112736509D01*
X141445816Y-112451680D01*
X141222026Y-112116755D01*
X141118742Y-111867404D01*
X141067877Y-111744606D01*
X140989293Y-111349538D01*
X140989293Y-110946726D01*
X141067877Y-110551658D01*
X141189631Y-110257718D01*
X141222026Y-110179509D01*
X141445816Y-109844584D01*
X141730645Y-109559755D01*
X142065570Y-109335965D01*
X142331050Y-109226000D01*
X142437719Y-109181816D01*
X142832787Y-109103232D01*
X143235599Y-109103232D01*
X143630667Y-109181816D01*
X143630667Y-109181816D01*
G37*
G36*
X181730667Y-109181816D02*
G01*
X181837336Y-109226000D01*
X182102816Y-109335965D01*
X182437741Y-109559755D01*
X182722570Y-109844584D01*
X182946360Y-110179509D01*
X182978755Y-110257718D01*
X183100509Y-110551658D01*
X183179093Y-110946726D01*
X183179093Y-111349538D01*
X183100509Y-111744606D01*
X183049644Y-111867404D01*
X182946360Y-112116755D01*
X182722570Y-112451680D01*
X182437741Y-112736509D01*
X182102816Y-112960299D01*
X181948667Y-113024149D01*
X181730667Y-113114448D01*
X181335599Y-113193032D01*
X180932787Y-113193032D01*
X180537719Y-113114448D01*
X180319719Y-113024149D01*
X180165570Y-112960299D01*
X179830645Y-112736509D01*
X179545816Y-112451680D01*
X179322026Y-112116755D01*
X179218742Y-111867404D01*
X179167877Y-111744606D01*
X179089293Y-111349538D01*
X179089293Y-110946726D01*
X179167877Y-110551658D01*
X179289631Y-110257718D01*
X179322026Y-110179509D01*
X179545816Y-109844584D01*
X179830645Y-109559755D01*
X180165570Y-109335965D01*
X180431050Y-109226000D01*
X180537719Y-109181816D01*
X180932787Y-109103232D01*
X181335599Y-109103232D01*
X181730667Y-109181816D01*
X181730667Y-109181816D01*
G37*
G36*
X162680667Y-109181816D02*
G01*
X162787336Y-109226000D01*
X163052816Y-109335965D01*
X163387741Y-109559755D01*
X163672570Y-109844584D01*
X163896360Y-110179509D01*
X163928755Y-110257718D01*
X164050509Y-110551658D01*
X164129093Y-110946726D01*
X164129093Y-111349538D01*
X164050509Y-111744606D01*
X163999644Y-111867404D01*
X163896360Y-112116755D01*
X163672570Y-112451680D01*
X163387741Y-112736509D01*
X163052816Y-112960299D01*
X162898667Y-113024149D01*
X162680667Y-113114448D01*
X162285599Y-113193032D01*
X161882787Y-113193032D01*
X161487719Y-113114448D01*
X161269719Y-113024149D01*
X161115570Y-112960299D01*
X160780645Y-112736509D01*
X160495816Y-112451680D01*
X160272026Y-112116755D01*
X160168742Y-111867404D01*
X160117877Y-111744606D01*
X160039293Y-111349538D01*
X160039293Y-110946726D01*
X160117877Y-110551658D01*
X160239631Y-110257718D01*
X160272026Y-110179509D01*
X160495816Y-109844584D01*
X160780645Y-109559755D01*
X161115570Y-109335965D01*
X161381050Y-109226000D01*
X161487719Y-109181816D01*
X161882787Y-109103232D01*
X162285599Y-109103232D01*
X162680667Y-109181816D01*
X162680667Y-109181816D01*
G37*
G36*
X124580667Y-109181816D02*
G01*
X124687336Y-109226000D01*
X124952816Y-109335965D01*
X125287741Y-109559755D01*
X125572570Y-109844584D01*
X125796360Y-110179509D01*
X125828755Y-110257718D01*
X125950509Y-110551658D01*
X126029093Y-110946726D01*
X126029093Y-111349538D01*
X125950509Y-111744606D01*
X125899644Y-111867404D01*
X125796360Y-112116755D01*
X125572570Y-112451680D01*
X125287741Y-112736509D01*
X124952816Y-112960299D01*
X124798667Y-113024149D01*
X124580667Y-113114448D01*
X124185599Y-113193032D01*
X123782787Y-113193032D01*
X123387719Y-113114448D01*
X123169719Y-113024149D01*
X123015570Y-112960299D01*
X122680645Y-112736509D01*
X122395816Y-112451680D01*
X122172026Y-112116755D01*
X122068742Y-111867404D01*
X122017877Y-111744606D01*
X121939293Y-111349538D01*
X121939293Y-110946726D01*
X122017877Y-110551658D01*
X122139631Y-110257718D01*
X122172026Y-110179509D01*
X122395816Y-109844584D01*
X122680645Y-109559755D01*
X123015570Y-109335965D01*
X123281050Y-109226000D01*
X123387719Y-109181816D01*
X123782787Y-109103232D01*
X124185599Y-109103232D01*
X124580667Y-109181816D01*
X124580667Y-109181816D01*
G37*
G36*
X96435193Y-112799132D02*
G01*
X94333193Y-112799132D01*
X94333193Y-109497132D01*
X96435193Y-109497132D01*
X96435193Y-112799132D01*
X96435193Y-112799132D01*
G37*
G36*
X107635193Y-112799132D02*
G01*
X105533193Y-112799132D01*
X105533193Y-109497132D01*
X107635193Y-109497132D01*
X107635193Y-112799132D01*
X107635193Y-112799132D01*
G37*
G36*
X148384297Y-110257717D02*
G01*
X148552819Y-110327521D01*
X148704484Y-110428860D01*
X148833465Y-110557841D01*
X148934804Y-110709506D01*
X149004608Y-110878028D01*
X149040193Y-111056929D01*
X149040193Y-111239335D01*
X149004608Y-111418236D01*
X148934804Y-111586758D01*
X148833465Y-111738423D01*
X148704484Y-111867404D01*
X148552819Y-111968743D01*
X148384297Y-112038547D01*
X148205396Y-112074132D01*
X148022990Y-112074132D01*
X147844089Y-112038547D01*
X147675567Y-111968743D01*
X147523902Y-111867404D01*
X147394921Y-111738423D01*
X147293582Y-111586758D01*
X147223778Y-111418236D01*
X147188193Y-111239335D01*
X147188193Y-111056929D01*
X147223778Y-110878028D01*
X147293582Y-110709506D01*
X147394921Y-110557841D01*
X147523902Y-110428860D01*
X147675567Y-110327521D01*
X147844089Y-110257717D01*
X148022990Y-110222132D01*
X148205396Y-110222132D01*
X148384297Y-110257717D01*
X148384297Y-110257717D01*
G37*
G36*
X167434297Y-110257717D02*
G01*
X167602819Y-110327521D01*
X167754484Y-110428860D01*
X167883465Y-110557841D01*
X167984804Y-110709506D01*
X168054608Y-110878028D01*
X168090193Y-111056929D01*
X168090193Y-111239335D01*
X168054608Y-111418236D01*
X167984804Y-111586758D01*
X167883465Y-111738423D01*
X167754484Y-111867404D01*
X167602819Y-111968743D01*
X167434297Y-112038547D01*
X167255396Y-112074132D01*
X167072990Y-112074132D01*
X166894089Y-112038547D01*
X166725567Y-111968743D01*
X166573902Y-111867404D01*
X166444921Y-111738423D01*
X166343582Y-111586758D01*
X166273778Y-111418236D01*
X166238193Y-111239335D01*
X166238193Y-111056929D01*
X166273778Y-110878028D01*
X166343582Y-110709506D01*
X166444921Y-110557841D01*
X166573902Y-110428860D01*
X166725567Y-110327521D01*
X166894089Y-110257717D01*
X167072990Y-110222132D01*
X167255396Y-110222132D01*
X167434297Y-110257717D01*
X167434297Y-110257717D01*
G37*
G36*
X157274297Y-110257717D02*
G01*
X157442819Y-110327521D01*
X157594484Y-110428860D01*
X157723465Y-110557841D01*
X157824804Y-110709506D01*
X157894608Y-110878028D01*
X157930193Y-111056929D01*
X157930193Y-111239335D01*
X157894608Y-111418236D01*
X157824804Y-111586758D01*
X157723465Y-111738423D01*
X157594484Y-111867404D01*
X157442819Y-111968743D01*
X157274297Y-112038547D01*
X157095396Y-112074132D01*
X156912990Y-112074132D01*
X156734089Y-112038547D01*
X156565567Y-111968743D01*
X156413902Y-111867404D01*
X156284921Y-111738423D01*
X156183582Y-111586758D01*
X156113778Y-111418236D01*
X156078193Y-111239335D01*
X156078193Y-111056929D01*
X156113778Y-110878028D01*
X156183582Y-110709506D01*
X156284921Y-110557841D01*
X156413902Y-110428860D01*
X156565567Y-110327521D01*
X156734089Y-110257717D01*
X156912990Y-110222132D01*
X157095396Y-110222132D01*
X157274297Y-110257717D01*
X157274297Y-110257717D01*
G37*
G36*
X176324297Y-110257717D02*
G01*
X176492819Y-110327521D01*
X176644484Y-110428860D01*
X176773465Y-110557841D01*
X176874804Y-110709506D01*
X176944608Y-110878028D01*
X176980193Y-111056929D01*
X176980193Y-111239335D01*
X176944608Y-111418236D01*
X176874804Y-111586758D01*
X176773465Y-111738423D01*
X176644484Y-111867404D01*
X176492819Y-111968743D01*
X176324297Y-112038547D01*
X176145396Y-112074132D01*
X175962990Y-112074132D01*
X175784089Y-112038547D01*
X175615567Y-111968743D01*
X175463902Y-111867404D01*
X175334921Y-111738423D01*
X175233582Y-111586758D01*
X175163778Y-111418236D01*
X175128193Y-111239335D01*
X175128193Y-111056929D01*
X175163778Y-110878028D01*
X175233582Y-110709506D01*
X175334921Y-110557841D01*
X175463902Y-110428860D01*
X175615567Y-110327521D01*
X175784089Y-110257717D01*
X175962990Y-110222132D01*
X176145396Y-110222132D01*
X176324297Y-110257717D01*
X176324297Y-110257717D01*
G37*
G36*
X186484297Y-110257717D02*
G01*
X186652819Y-110327521D01*
X186804484Y-110428860D01*
X186933465Y-110557841D01*
X187034804Y-110709506D01*
X187104608Y-110878028D01*
X187140193Y-111056929D01*
X187140193Y-111239335D01*
X187104608Y-111418236D01*
X187034804Y-111586758D01*
X186933465Y-111738423D01*
X186804484Y-111867404D01*
X186652819Y-111968743D01*
X186484297Y-112038547D01*
X186305396Y-112074132D01*
X186122990Y-112074132D01*
X185944089Y-112038547D01*
X185775567Y-111968743D01*
X185623902Y-111867404D01*
X185494921Y-111738423D01*
X185393582Y-111586758D01*
X185323778Y-111418236D01*
X185288193Y-111239335D01*
X185288193Y-111056929D01*
X185323778Y-110878028D01*
X185393582Y-110709506D01*
X185494921Y-110557841D01*
X185623902Y-110428860D01*
X185775567Y-110327521D01*
X185944089Y-110257717D01*
X186122990Y-110222132D01*
X186305396Y-110222132D01*
X186484297Y-110257717D01*
X186484297Y-110257717D01*
G37*
G36*
X119174297Y-110257717D02*
G01*
X119342819Y-110327521D01*
X119494484Y-110428860D01*
X119623465Y-110557841D01*
X119724804Y-110709506D01*
X119794608Y-110878028D01*
X119830193Y-111056929D01*
X119830193Y-111239335D01*
X119794608Y-111418236D01*
X119724804Y-111586758D01*
X119623465Y-111738423D01*
X119494484Y-111867404D01*
X119342819Y-111968743D01*
X119174297Y-112038547D01*
X118995396Y-112074132D01*
X118812990Y-112074132D01*
X118634089Y-112038547D01*
X118465567Y-111968743D01*
X118313902Y-111867404D01*
X118184921Y-111738423D01*
X118083582Y-111586758D01*
X118013778Y-111418236D01*
X117978193Y-111239335D01*
X117978193Y-111056929D01*
X118013778Y-110878028D01*
X118083582Y-110709506D01*
X118184921Y-110557841D01*
X118313902Y-110428860D01*
X118465567Y-110327521D01*
X118634089Y-110257717D01*
X118812990Y-110222132D01*
X118995396Y-110222132D01*
X119174297Y-110257717D01*
X119174297Y-110257717D01*
G37*
G36*
X129334297Y-110257717D02*
G01*
X129502819Y-110327521D01*
X129654484Y-110428860D01*
X129783465Y-110557841D01*
X129884804Y-110709506D01*
X129954608Y-110878028D01*
X129990193Y-111056929D01*
X129990193Y-111239335D01*
X129954608Y-111418236D01*
X129884804Y-111586758D01*
X129783465Y-111738423D01*
X129654484Y-111867404D01*
X129502819Y-111968743D01*
X129334297Y-112038547D01*
X129155396Y-112074132D01*
X128972990Y-112074132D01*
X128794089Y-112038547D01*
X128625567Y-111968743D01*
X128473902Y-111867404D01*
X128344921Y-111738423D01*
X128243582Y-111586758D01*
X128173778Y-111418236D01*
X128138193Y-111239335D01*
X128138193Y-111056929D01*
X128173778Y-110878028D01*
X128243582Y-110709506D01*
X128344921Y-110557841D01*
X128473902Y-110428860D01*
X128625567Y-110327521D01*
X128794089Y-110257717D01*
X128972990Y-110222132D01*
X129155396Y-110222132D01*
X129334297Y-110257717D01*
X129334297Y-110257717D01*
G37*
G36*
X138224297Y-110257717D02*
G01*
X138392819Y-110327521D01*
X138544484Y-110428860D01*
X138673465Y-110557841D01*
X138774804Y-110709506D01*
X138844608Y-110878028D01*
X138880193Y-111056929D01*
X138880193Y-111239335D01*
X138844608Y-111418236D01*
X138774804Y-111586758D01*
X138673465Y-111738423D01*
X138544484Y-111867404D01*
X138392819Y-111968743D01*
X138224297Y-112038547D01*
X138045396Y-112074132D01*
X137862990Y-112074132D01*
X137684089Y-112038547D01*
X137515567Y-111968743D01*
X137363902Y-111867404D01*
X137234921Y-111738423D01*
X137133582Y-111586758D01*
X137063778Y-111418236D01*
X137028193Y-111239335D01*
X137028193Y-111056929D01*
X137063778Y-110878028D01*
X137133582Y-110709506D01*
X137234921Y-110557841D01*
X137363902Y-110428860D01*
X137515567Y-110327521D01*
X137684089Y-110257717D01*
X137862990Y-110222132D01*
X138045396Y-110222132D01*
X138224297Y-110257717D01*
X138224297Y-110257717D01*
G37*
G36*
X112030000Y-110228000D02*
G01*
X110728000Y-110228000D01*
X110728000Y-109226000D01*
X112030000Y-109226000D01*
X112030000Y-110228000D01*
X112030000Y-110228000D01*
G37*
G36*
X170711000Y-109976000D02*
G01*
X169409000Y-109976000D01*
X169409000Y-108974000D01*
X170711000Y-108974000D01*
X170711000Y-109976000D01*
X170711000Y-109976000D01*
G37*
G36*
X189563500Y-109976000D02*
G01*
X188261500Y-109976000D01*
X188261500Y-108974000D01*
X189563500Y-108974000D01*
X189563500Y-109976000D01*
X189563500Y-109976000D01*
G37*
G36*
X151791000Y-109976000D02*
G01*
X150489000Y-109976000D01*
X150489000Y-108974000D01*
X151791000Y-108974000D01*
X151791000Y-109976000D01*
X151791000Y-109976000D01*
G37*
G36*
X132441000Y-109976000D02*
G01*
X131139000Y-109976000D01*
X131139000Y-108974000D01*
X132441000Y-108974000D01*
X132441000Y-109976000D01*
X132441000Y-109976000D01*
G37*
G36*
X112030000Y-106928000D02*
G01*
X110728000Y-106928000D01*
X110728000Y-105926000D01*
X112030000Y-105926000D01*
X112030000Y-106928000D01*
X112030000Y-106928000D01*
G37*
G36*
X103790757Y-103137521D02*
G01*
X103982026Y-103216747D01*
X103982028Y-103216748D01*
X104154166Y-103331767D01*
X104300558Y-103478159D01*
X104415578Y-103650299D01*
X104494804Y-103841568D01*
X104535193Y-104044616D01*
X104535193Y-104251648D01*
X104494804Y-104454696D01*
X104415578Y-104645965D01*
X104415577Y-104645967D01*
X104300558Y-104818105D01*
X104154166Y-104964497D01*
X103982028Y-105079516D01*
X103982027Y-105079517D01*
X103982026Y-105079517D01*
X103790757Y-105158743D01*
X103587709Y-105199132D01*
X103380677Y-105199132D01*
X103177629Y-105158743D01*
X102986360Y-105079517D01*
X102986359Y-105079517D01*
X102986358Y-105079516D01*
X102814220Y-104964497D01*
X102667828Y-104818105D01*
X102552809Y-104645967D01*
X102552808Y-104645965D01*
X102473582Y-104454696D01*
X102433193Y-104251648D01*
X102433193Y-104044616D01*
X102473582Y-103841568D01*
X102552808Y-103650299D01*
X102667828Y-103478159D01*
X102814220Y-103331767D01*
X102986358Y-103216748D01*
X102986360Y-103216747D01*
X103177629Y-103137521D01*
X103380677Y-103097132D01*
X103587709Y-103097132D01*
X103790757Y-103137521D01*
X103790757Y-103137521D01*
G37*
G36*
X98790757Y-103137521D02*
G01*
X98982026Y-103216747D01*
X98982028Y-103216748D01*
X99154166Y-103331767D01*
X99300558Y-103478159D01*
X99415578Y-103650299D01*
X99494804Y-103841568D01*
X99535193Y-104044616D01*
X99535193Y-104251648D01*
X99494804Y-104454696D01*
X99415578Y-104645965D01*
X99415577Y-104645967D01*
X99300558Y-104818105D01*
X99154166Y-104964497D01*
X98982028Y-105079516D01*
X98982027Y-105079517D01*
X98982026Y-105079517D01*
X98790757Y-105158743D01*
X98587709Y-105199132D01*
X98380677Y-105199132D01*
X98177629Y-105158743D01*
X97986360Y-105079517D01*
X97986359Y-105079517D01*
X97986358Y-105079516D01*
X97814220Y-104964497D01*
X97667828Y-104818105D01*
X97552809Y-104645967D01*
X97552808Y-104645965D01*
X97473582Y-104454696D01*
X97433193Y-104251648D01*
X97433193Y-104044616D01*
X97473582Y-103841568D01*
X97552808Y-103650299D01*
X97667828Y-103478159D01*
X97814220Y-103331767D01*
X97986358Y-103216748D01*
X97986360Y-103216747D01*
X98177629Y-103137521D01*
X98380677Y-103097132D01*
X98587709Y-103097132D01*
X98790757Y-103137521D01*
X98790757Y-103137521D01*
G37*
G36*
X132413500Y-94226000D02*
G01*
X131111500Y-94226000D01*
X131111500Y-93224000D01*
X132413500Y-93224000D01*
X132413500Y-94226000D01*
X132413500Y-94226000D01*
G37*
G36*
X151811000Y-94181000D02*
G01*
X150509000Y-94181000D01*
X150509000Y-93179000D01*
X151811000Y-93179000D01*
X151811000Y-94181000D01*
X151811000Y-94181000D01*
G37*
G36*
X143630667Y-90131816D02*
G01*
X143848667Y-90222115D01*
X144002816Y-90285965D01*
X144337741Y-90509755D01*
X144622570Y-90794584D01*
X144846360Y-91129509D01*
X144878755Y-91207718D01*
X145000509Y-91501658D01*
X145079093Y-91896726D01*
X145079093Y-92299538D01*
X145000509Y-92694606D01*
X144949644Y-92817404D01*
X144846360Y-93066755D01*
X144622570Y-93401680D01*
X144337741Y-93686509D01*
X144002816Y-93910299D01*
X143848667Y-93974149D01*
X143630667Y-94064448D01*
X143235599Y-94143032D01*
X142832787Y-94143032D01*
X142437719Y-94064448D01*
X142219719Y-93974149D01*
X142065570Y-93910299D01*
X141730645Y-93686509D01*
X141445816Y-93401680D01*
X141222026Y-93066755D01*
X141118742Y-92817404D01*
X141067877Y-92694606D01*
X140989293Y-92299538D01*
X140989293Y-91896726D01*
X141067877Y-91501658D01*
X141189631Y-91207718D01*
X141222026Y-91129509D01*
X141445816Y-90794584D01*
X141730645Y-90509755D01*
X142065570Y-90285965D01*
X142219719Y-90222115D01*
X142437719Y-90131816D01*
X142832787Y-90053232D01*
X143235599Y-90053232D01*
X143630667Y-90131816D01*
X143630667Y-90131816D01*
G37*
G36*
X124580667Y-90131816D02*
G01*
X124798667Y-90222115D01*
X124952816Y-90285965D01*
X125287741Y-90509755D01*
X125572570Y-90794584D01*
X125796360Y-91129509D01*
X125828755Y-91207718D01*
X125950509Y-91501658D01*
X126029093Y-91896726D01*
X126029093Y-92299538D01*
X125950509Y-92694606D01*
X125899644Y-92817404D01*
X125796360Y-93066755D01*
X125572570Y-93401680D01*
X125287741Y-93686509D01*
X124952816Y-93910299D01*
X124798667Y-93974149D01*
X124580667Y-94064448D01*
X124185599Y-94143032D01*
X123782787Y-94143032D01*
X123387719Y-94064448D01*
X123169719Y-93974149D01*
X123015570Y-93910299D01*
X122680645Y-93686509D01*
X122395816Y-93401680D01*
X122172026Y-93066755D01*
X122068742Y-92817404D01*
X122017877Y-92694606D01*
X121939293Y-92299538D01*
X121939293Y-91896726D01*
X122017877Y-91501658D01*
X122139631Y-91207718D01*
X122172026Y-91129509D01*
X122395816Y-90794584D01*
X122680645Y-90509755D01*
X123015570Y-90285965D01*
X123169719Y-90222115D01*
X123387719Y-90131816D01*
X123782787Y-90053232D01*
X124185599Y-90053232D01*
X124580667Y-90131816D01*
X124580667Y-90131816D01*
G37*
G36*
X119174297Y-91207717D02*
G01*
X119342819Y-91277521D01*
X119494484Y-91378860D01*
X119623465Y-91507841D01*
X119724804Y-91659506D01*
X119794608Y-91828028D01*
X119830193Y-92006929D01*
X119830193Y-92189335D01*
X119794608Y-92368236D01*
X119724804Y-92536758D01*
X119623465Y-92688423D01*
X119494484Y-92817404D01*
X119342819Y-92918743D01*
X119174297Y-92988547D01*
X118995396Y-93024132D01*
X118812990Y-93024132D01*
X118634089Y-92988547D01*
X118465567Y-92918743D01*
X118313902Y-92817404D01*
X118184921Y-92688423D01*
X118083582Y-92536758D01*
X118013778Y-92368236D01*
X117978193Y-92189335D01*
X117978193Y-92006929D01*
X118013778Y-91828028D01*
X118083582Y-91659506D01*
X118184921Y-91507841D01*
X118313902Y-91378860D01*
X118465567Y-91277521D01*
X118634089Y-91207717D01*
X118812990Y-91172132D01*
X118995396Y-91172132D01*
X119174297Y-91207717D01*
X119174297Y-91207717D01*
G37*
G36*
X148384297Y-91207717D02*
G01*
X148552819Y-91277521D01*
X148704484Y-91378860D01*
X148833465Y-91507841D01*
X148934804Y-91659506D01*
X149004608Y-91828028D01*
X149040193Y-92006929D01*
X149040193Y-92189335D01*
X149004608Y-92368236D01*
X148934804Y-92536758D01*
X148833465Y-92688423D01*
X148704484Y-92817404D01*
X148552819Y-92918743D01*
X148384297Y-92988547D01*
X148205396Y-93024132D01*
X148022990Y-93024132D01*
X147844089Y-92988547D01*
X147675567Y-92918743D01*
X147523902Y-92817404D01*
X147394921Y-92688423D01*
X147293582Y-92536758D01*
X147223778Y-92368236D01*
X147188193Y-92189335D01*
X147188193Y-92006929D01*
X147223778Y-91828028D01*
X147293582Y-91659506D01*
X147394921Y-91507841D01*
X147523902Y-91378860D01*
X147675567Y-91277521D01*
X147844089Y-91207717D01*
X148022990Y-91172132D01*
X148205396Y-91172132D01*
X148384297Y-91207717D01*
X148384297Y-91207717D01*
G37*
G36*
X138224297Y-91207717D02*
G01*
X138392819Y-91277521D01*
X138544484Y-91378860D01*
X138673465Y-91507841D01*
X138774804Y-91659506D01*
X138844608Y-91828028D01*
X138880193Y-92006929D01*
X138880193Y-92189335D01*
X138844608Y-92368236D01*
X138774804Y-92536758D01*
X138673465Y-92688423D01*
X138544484Y-92817404D01*
X138392819Y-92918743D01*
X138224297Y-92988547D01*
X138045396Y-93024132D01*
X137862990Y-93024132D01*
X137684089Y-92988547D01*
X137515567Y-92918743D01*
X137363902Y-92817404D01*
X137234921Y-92688423D01*
X137133582Y-92536758D01*
X137063778Y-92368236D01*
X137028193Y-92189335D01*
X137028193Y-92006929D01*
X137063778Y-91828028D01*
X137133582Y-91659506D01*
X137234921Y-91507841D01*
X137363902Y-91378860D01*
X137515567Y-91277521D01*
X137684089Y-91207717D01*
X137862990Y-91172132D01*
X138045396Y-91172132D01*
X138224297Y-91207717D01*
X138224297Y-91207717D01*
G37*
G36*
X129334297Y-91207717D02*
G01*
X129502819Y-91277521D01*
X129654484Y-91378860D01*
X129783465Y-91507841D01*
X129884804Y-91659506D01*
X129954608Y-91828028D01*
X129990193Y-92006929D01*
X129990193Y-92189335D01*
X129954608Y-92368236D01*
X129884804Y-92536758D01*
X129783465Y-92688423D01*
X129654484Y-92817404D01*
X129502819Y-92918743D01*
X129334297Y-92988547D01*
X129155396Y-93024132D01*
X128972990Y-93024132D01*
X128794089Y-92988547D01*
X128625567Y-92918743D01*
X128473902Y-92817404D01*
X128344921Y-92688423D01*
X128243582Y-92536758D01*
X128173778Y-92368236D01*
X128138193Y-92189335D01*
X128138193Y-92006929D01*
X128173778Y-91828028D01*
X128243582Y-91659506D01*
X128344921Y-91507841D01*
X128473902Y-91378860D01*
X128625567Y-91277521D01*
X128794089Y-91207717D01*
X128972990Y-91172132D01*
X129155396Y-91172132D01*
X129334297Y-91207717D01*
X129334297Y-91207717D01*
G37*
G36*
X132413500Y-90926000D02*
G01*
X131111500Y-90926000D01*
X131111500Y-89924000D01*
X132413500Y-89924000D01*
X132413500Y-90926000D01*
X132413500Y-90926000D01*
G37*
G36*
X151811000Y-90881000D02*
G01*
X150509000Y-90881000D01*
X150509000Y-89879000D01*
X151811000Y-89879000D01*
X151811000Y-90881000D01*
X151811000Y-90881000D01*
G37*
G36*
X119088015Y-85986973D02*
G01*
X119191879Y-86018479D01*
X119219055Y-86033005D01*
X119287600Y-86069643D01*
X119371501Y-86138499D01*
X119440357Y-86222400D01*
X119476995Y-86290945D01*
X119491521Y-86318121D01*
X119523027Y-86421985D01*
X119533666Y-86530000D01*
X119523027Y-86638015D01*
X119491521Y-86741879D01*
X119491519Y-86741882D01*
X119440357Y-86837600D01*
X119371501Y-86921501D01*
X119287600Y-86990357D01*
X119219055Y-87026995D01*
X119191879Y-87041521D01*
X119088015Y-87073027D01*
X119007067Y-87081000D01*
X117852933Y-87081000D01*
X117771985Y-87073027D01*
X117668121Y-87041521D01*
X117640945Y-87026995D01*
X117572400Y-86990357D01*
X117488499Y-86921501D01*
X117419643Y-86837600D01*
X117368481Y-86741882D01*
X117368479Y-86741879D01*
X117336973Y-86638015D01*
X117326334Y-86530000D01*
X117336973Y-86421985D01*
X117368479Y-86318121D01*
X117383005Y-86290945D01*
X117419643Y-86222400D01*
X117488499Y-86138499D01*
X117572400Y-86069643D01*
X117640945Y-86033005D01*
X117668121Y-86018479D01*
X117771985Y-85986973D01*
X117852933Y-85979000D01*
X119007067Y-85979000D01*
X119088015Y-85986973D01*
X119088015Y-85986973D01*
G37*
G36*
X114658015Y-85986973D02*
G01*
X114761879Y-86018479D01*
X114789055Y-86033005D01*
X114857600Y-86069643D01*
X114941501Y-86138499D01*
X115010357Y-86222400D01*
X115046995Y-86290945D01*
X115061521Y-86318121D01*
X115093027Y-86421985D01*
X115103666Y-86530000D01*
X115093027Y-86638015D01*
X115061521Y-86741879D01*
X115061519Y-86741882D01*
X115010357Y-86837600D01*
X114941501Y-86921501D01*
X114857600Y-86990357D01*
X114789055Y-87026995D01*
X114761879Y-87041521D01*
X114658015Y-87073027D01*
X114577067Y-87081000D01*
X113922933Y-87081000D01*
X113841985Y-87073027D01*
X113738121Y-87041521D01*
X113710945Y-87026995D01*
X113642400Y-86990357D01*
X113558499Y-86921501D01*
X113489643Y-86837600D01*
X113438481Y-86741882D01*
X113438479Y-86741879D01*
X113406973Y-86638015D01*
X113396334Y-86530000D01*
X113406973Y-86421985D01*
X113438479Y-86318121D01*
X113453005Y-86290945D01*
X113489643Y-86222400D01*
X113558499Y-86138499D01*
X113642400Y-86069643D01*
X113710945Y-86033005D01*
X113738121Y-86018479D01*
X113841985Y-85986973D01*
X113922933Y-85979000D01*
X114577067Y-85979000D01*
X114658015Y-85986973D01*
X114658015Y-85986973D01*
G37*
G36*
X118009672Y-84738449D02*
G01*
X118009674Y-84738450D01*
X118009675Y-84738450D01*
X118078103Y-84766793D01*
X118139686Y-84807942D01*
X118192058Y-84860314D01*
X118233207Y-84921897D01*
X118261550Y-84990325D01*
X118276000Y-85062967D01*
X118276000Y-85137033D01*
X118261550Y-85209675D01*
X118233207Y-85278103D01*
X118192058Y-85339686D01*
X118139686Y-85392058D01*
X118078103Y-85433207D01*
X118009675Y-85461550D01*
X118009674Y-85461550D01*
X118009672Y-85461551D01*
X117937034Y-85476000D01*
X117862966Y-85476000D01*
X117790328Y-85461551D01*
X117790326Y-85461550D01*
X117790325Y-85461550D01*
X117721897Y-85433207D01*
X117660314Y-85392058D01*
X117607942Y-85339686D01*
X117566793Y-85278103D01*
X117538450Y-85209675D01*
X117524000Y-85137033D01*
X117524000Y-85062967D01*
X117538450Y-84990325D01*
X117566793Y-84921897D01*
X117607942Y-84860314D01*
X117660314Y-84807942D01*
X117721897Y-84766793D01*
X117790325Y-84738450D01*
X117790326Y-84738450D01*
X117790328Y-84738449D01*
X117862966Y-84724000D01*
X117937034Y-84724000D01*
X118009672Y-84738449D01*
X118009672Y-84738449D01*
G37*
G36*
X172210443Y-80635519D02*
G01*
X172276627Y-80642037D01*
X172446466Y-80693557D01*
X172602991Y-80777222D01*
X172638729Y-80806552D01*
X172740186Y-80889814D01*
X172823448Y-80991271D01*
X172852778Y-81027009D01*
X172936443Y-81183534D01*
X172987963Y-81353373D01*
X173005359Y-81530000D01*
X172987963Y-81706627D01*
X172936443Y-81876466D01*
X172852778Y-82032991D01*
X172823448Y-82068729D01*
X172740186Y-82170186D01*
X172638729Y-82253448D01*
X172602991Y-82282778D01*
X172446466Y-82366443D01*
X172276627Y-82417963D01*
X172210443Y-82424481D01*
X172144260Y-82431000D01*
X172055740Y-82431000D01*
X171989557Y-82424481D01*
X171923373Y-82417963D01*
X171753534Y-82366443D01*
X171597009Y-82282778D01*
X171561271Y-82253448D01*
X171459814Y-82170186D01*
X171376552Y-82068729D01*
X171347222Y-82032991D01*
X171263557Y-81876466D01*
X171212037Y-81706627D01*
X171194641Y-81530000D01*
X171212037Y-81353373D01*
X171263557Y-81183534D01*
X171347222Y-81027009D01*
X171376552Y-80991271D01*
X171459814Y-80889814D01*
X171561271Y-80806552D01*
X171597009Y-80777222D01*
X171753534Y-80693557D01*
X171923373Y-80642037D01*
X171989557Y-80635519D01*
X172055740Y-80629000D01*
X172144260Y-80629000D01*
X172210443Y-80635519D01*
X172210443Y-80635519D01*
G37*
G36*
X169670443Y-80635519D02*
G01*
X169736627Y-80642037D01*
X169906466Y-80693557D01*
X170062991Y-80777222D01*
X170098729Y-80806552D01*
X170200186Y-80889814D01*
X170283448Y-80991271D01*
X170312778Y-81027009D01*
X170396443Y-81183534D01*
X170447963Y-81353373D01*
X170465359Y-81530000D01*
X170447963Y-81706627D01*
X170396443Y-81876466D01*
X170312778Y-82032991D01*
X170283448Y-82068729D01*
X170200186Y-82170186D01*
X170098729Y-82253448D01*
X170062991Y-82282778D01*
X169906466Y-82366443D01*
X169736627Y-82417963D01*
X169670443Y-82424481D01*
X169604260Y-82431000D01*
X169515740Y-82431000D01*
X169449557Y-82424481D01*
X169383373Y-82417963D01*
X169213534Y-82366443D01*
X169057009Y-82282778D01*
X169021271Y-82253448D01*
X168919814Y-82170186D01*
X168836552Y-82068729D01*
X168807222Y-82032991D01*
X168723557Y-81876466D01*
X168672037Y-81706627D01*
X168654641Y-81530000D01*
X168672037Y-81353373D01*
X168723557Y-81183534D01*
X168807222Y-81027009D01*
X168836552Y-80991271D01*
X168919814Y-80889814D01*
X169021271Y-80806552D01*
X169057009Y-80777222D01*
X169213534Y-80693557D01*
X169383373Y-80642037D01*
X169449557Y-80635519D01*
X169515740Y-80629000D01*
X169604260Y-80629000D01*
X169670443Y-80635519D01*
X169670443Y-80635519D01*
G37*
G36*
X175541000Y-82431000D02*
G01*
X173739000Y-82431000D01*
X173739000Y-80629000D01*
X175541000Y-80629000D01*
X175541000Y-82431000D01*
X175541000Y-82431000D01*
G37*
G36*
X172210442Y-78095518D02*
G01*
X172276627Y-78102037D01*
X172446466Y-78153557D01*
X172602991Y-78237222D01*
X172638729Y-78266552D01*
X172740186Y-78349814D01*
X172808476Y-78433027D01*
X172852778Y-78487009D01*
X172936443Y-78643534D01*
X172987963Y-78813373D01*
X173005359Y-78990000D01*
X172987963Y-79166627D01*
X172936443Y-79336466D01*
X172852778Y-79492991D01*
X172823448Y-79528729D01*
X172740186Y-79630186D01*
X172659990Y-79696000D01*
X172602991Y-79742778D01*
X172446466Y-79826443D01*
X172276627Y-79877963D01*
X172210443Y-79884481D01*
X172144260Y-79891000D01*
X172055740Y-79891000D01*
X171989557Y-79884481D01*
X171923373Y-79877963D01*
X171753534Y-79826443D01*
X171597009Y-79742778D01*
X171540010Y-79696000D01*
X171459814Y-79630186D01*
X171376552Y-79528729D01*
X171347222Y-79492991D01*
X171263557Y-79336466D01*
X171212037Y-79166627D01*
X171194641Y-78990000D01*
X171212037Y-78813373D01*
X171263557Y-78643534D01*
X171347222Y-78487009D01*
X171391524Y-78433027D01*
X171459814Y-78349814D01*
X171561271Y-78266552D01*
X171597009Y-78237222D01*
X171753534Y-78153557D01*
X171923373Y-78102037D01*
X171989558Y-78095518D01*
X172055740Y-78089000D01*
X172144260Y-78089000D01*
X172210442Y-78095518D01*
X172210442Y-78095518D01*
G37*
G36*
X174750442Y-78095518D02*
G01*
X174816627Y-78102037D01*
X174986466Y-78153557D01*
X175142991Y-78237222D01*
X175178729Y-78266552D01*
X175280186Y-78349814D01*
X175348476Y-78433027D01*
X175392778Y-78487009D01*
X175476443Y-78643534D01*
X175527963Y-78813373D01*
X175545359Y-78990000D01*
X175527963Y-79166627D01*
X175476443Y-79336466D01*
X175392778Y-79492991D01*
X175363448Y-79528729D01*
X175280186Y-79630186D01*
X175199990Y-79696000D01*
X175142991Y-79742778D01*
X174986466Y-79826443D01*
X174816627Y-79877963D01*
X174750443Y-79884481D01*
X174684260Y-79891000D01*
X174595740Y-79891000D01*
X174529557Y-79884481D01*
X174463373Y-79877963D01*
X174293534Y-79826443D01*
X174137009Y-79742778D01*
X174080010Y-79696000D01*
X173999814Y-79630186D01*
X173916552Y-79528729D01*
X173887222Y-79492991D01*
X173803557Y-79336466D01*
X173752037Y-79166627D01*
X173734641Y-78990000D01*
X173752037Y-78813373D01*
X173803557Y-78643534D01*
X173887222Y-78487009D01*
X173931524Y-78433027D01*
X173999814Y-78349814D01*
X174101271Y-78266552D01*
X174137009Y-78237222D01*
X174293534Y-78153557D01*
X174463373Y-78102037D01*
X174529558Y-78095518D01*
X174595740Y-78089000D01*
X174684260Y-78089000D01*
X174750442Y-78095518D01*
X174750442Y-78095518D01*
G37*
G36*
X169670442Y-78095518D02*
G01*
X169736627Y-78102037D01*
X169906466Y-78153557D01*
X170062991Y-78237222D01*
X170098729Y-78266552D01*
X170200186Y-78349814D01*
X170268476Y-78433027D01*
X170312778Y-78487009D01*
X170396443Y-78643534D01*
X170447963Y-78813373D01*
X170465359Y-78990000D01*
X170447963Y-79166627D01*
X170396443Y-79336466D01*
X170312778Y-79492991D01*
X170283448Y-79528729D01*
X170200186Y-79630186D01*
X170119990Y-79696000D01*
X170062991Y-79742778D01*
X169906466Y-79826443D01*
X169736627Y-79877963D01*
X169670443Y-79884481D01*
X169604260Y-79891000D01*
X169515740Y-79891000D01*
X169449557Y-79884481D01*
X169383373Y-79877963D01*
X169213534Y-79826443D01*
X169057009Y-79742778D01*
X169000010Y-79696000D01*
X168919814Y-79630186D01*
X168836552Y-79528729D01*
X168807222Y-79492991D01*
X168723557Y-79336466D01*
X168672037Y-79166627D01*
X168654641Y-78990000D01*
X168672037Y-78813373D01*
X168723557Y-78643534D01*
X168807222Y-78487009D01*
X168851524Y-78433027D01*
X168919814Y-78349814D01*
X169021271Y-78266552D01*
X169057009Y-78237222D01*
X169213534Y-78153557D01*
X169383373Y-78102037D01*
X169449558Y-78095518D01*
X169515740Y-78089000D01*
X169604260Y-78089000D01*
X169670442Y-78095518D01*
X169670442Y-78095518D01*
G37*
G36*
X118009672Y-78958449D02*
G01*
X118009674Y-78958450D01*
X118009675Y-78958450D01*
X118078103Y-78986793D01*
X118139686Y-79027942D01*
X118192058Y-79080314D01*
X118233207Y-79141897D01*
X118261550Y-79210325D01*
X118276000Y-79282967D01*
X118276000Y-79357033D01*
X118261550Y-79429675D01*
X118233207Y-79498103D01*
X118192058Y-79559686D01*
X118139686Y-79612058D01*
X118078103Y-79653207D01*
X118009675Y-79681550D01*
X118009674Y-79681550D01*
X118009672Y-79681551D01*
X117937034Y-79696000D01*
X117862966Y-79696000D01*
X117790328Y-79681551D01*
X117790326Y-79681550D01*
X117790325Y-79681550D01*
X117721897Y-79653207D01*
X117660314Y-79612058D01*
X117607942Y-79559686D01*
X117566793Y-79498103D01*
X117538450Y-79429675D01*
X117524000Y-79357033D01*
X117524000Y-79282967D01*
X117538450Y-79210325D01*
X117566793Y-79141897D01*
X117607942Y-79080314D01*
X117660314Y-79027942D01*
X117721897Y-78986793D01*
X117790325Y-78958450D01*
X117790326Y-78958450D01*
X117790328Y-78958449D01*
X117862966Y-78944000D01*
X117937034Y-78944000D01*
X118009672Y-78958449D01*
X118009672Y-78958449D01*
G37*
G36*
X119088015Y-77346973D02*
G01*
X119191879Y-77378479D01*
X119206623Y-77386360D01*
X119287600Y-77429643D01*
X119371501Y-77498499D01*
X119440357Y-77582400D01*
X119473974Y-77645293D01*
X119491521Y-77678121D01*
X119523027Y-77781985D01*
X119533666Y-77890000D01*
X119523027Y-77998015D01*
X119491521Y-78101879D01*
X119476995Y-78129055D01*
X119440357Y-78197600D01*
X119371501Y-78281501D01*
X119287600Y-78350357D01*
X119219055Y-78386995D01*
X119191879Y-78401521D01*
X119088015Y-78433027D01*
X119007067Y-78441000D01*
X117852933Y-78441000D01*
X117771985Y-78433027D01*
X117668121Y-78401521D01*
X117640945Y-78386995D01*
X117572400Y-78350357D01*
X117488499Y-78281501D01*
X117419643Y-78197600D01*
X117383005Y-78129055D01*
X117368479Y-78101879D01*
X117336973Y-77998015D01*
X117326334Y-77890000D01*
X117336973Y-77781985D01*
X117368479Y-77678121D01*
X117386026Y-77645293D01*
X117419643Y-77582400D01*
X117488499Y-77498499D01*
X117572400Y-77429643D01*
X117653377Y-77386360D01*
X117668121Y-77378479D01*
X117771985Y-77346973D01*
X117852933Y-77339000D01*
X119007067Y-77339000D01*
X119088015Y-77346973D01*
X119088015Y-77346973D01*
G37*
G36*
X114658015Y-77346973D02*
G01*
X114761879Y-77378479D01*
X114776623Y-77386360D01*
X114857600Y-77429643D01*
X114941501Y-77498499D01*
X115010357Y-77582400D01*
X115043974Y-77645293D01*
X115061521Y-77678121D01*
X115093027Y-77781985D01*
X115103666Y-77890000D01*
X115093027Y-77998015D01*
X115061521Y-78101879D01*
X115046995Y-78129055D01*
X115010357Y-78197600D01*
X114941501Y-78281501D01*
X114857600Y-78350357D01*
X114789055Y-78386995D01*
X114761879Y-78401521D01*
X114658015Y-78433027D01*
X114577067Y-78441000D01*
X113922933Y-78441000D01*
X113841985Y-78433027D01*
X113738121Y-78401521D01*
X113710945Y-78386995D01*
X113642400Y-78350357D01*
X113558499Y-78281501D01*
X113489643Y-78197600D01*
X113453005Y-78129055D01*
X113438479Y-78101879D01*
X113406973Y-77998015D01*
X113396334Y-77890000D01*
X113406973Y-77781985D01*
X113438479Y-77678121D01*
X113456026Y-77645293D01*
X113489643Y-77582400D01*
X113558499Y-77498499D01*
X113642400Y-77429643D01*
X113723377Y-77386360D01*
X113738121Y-77378479D01*
X113841985Y-77346973D01*
X113922933Y-77339000D01*
X114577067Y-77339000D01*
X114658015Y-77346973D01*
X114658015Y-77346973D01*
G37*
G36*
X187327626Y-74933025D02*
G01*
X187417850Y-74950971D01*
X187523460Y-74994717D01*
X187672814Y-75056581D01*
X187672815Y-75056582D01*
X187902279Y-75209904D01*
X188097421Y-75405046D01*
X188199868Y-75558369D01*
X188250744Y-75634511D01*
X188356354Y-75889476D01*
X188410193Y-76160144D01*
X188410193Y-76436120D01*
X188356354Y-76706788D01*
X188250744Y-76961753D01*
X188250743Y-76961754D01*
X188097421Y-77191218D01*
X187902279Y-77386360D01*
X187748956Y-77488807D01*
X187672814Y-77539683D01*
X187569686Y-77582400D01*
X187417850Y-77645293D01*
X187327626Y-77663239D01*
X187147181Y-77699132D01*
X186871205Y-77699132D01*
X186690760Y-77663239D01*
X186600536Y-77645293D01*
X186448700Y-77582400D01*
X186345572Y-77539683D01*
X186269430Y-77488807D01*
X186116107Y-77386360D01*
X185920965Y-77191218D01*
X185767643Y-76961754D01*
X185767642Y-76961753D01*
X185662032Y-76706788D01*
X185608193Y-76436120D01*
X185608193Y-76160144D01*
X185662032Y-75889476D01*
X185767642Y-75634511D01*
X185818518Y-75558369D01*
X185920965Y-75405046D01*
X186116107Y-75209904D01*
X186345571Y-75056582D01*
X186345572Y-75056581D01*
X186494926Y-74994717D01*
X186600536Y-74950971D01*
X186690760Y-74933025D01*
X186871205Y-74897132D01*
X187147181Y-74897132D01*
X187327626Y-74933025D01*
X187327626Y-74933025D01*
G37*
G36*
X122127626Y-74933025D02*
G01*
X122217850Y-74950971D01*
X122323460Y-74994717D01*
X122472814Y-75056581D01*
X122472815Y-75056582D01*
X122702279Y-75209904D01*
X122897421Y-75405046D01*
X122999868Y-75558369D01*
X123050744Y-75634511D01*
X123156354Y-75889476D01*
X123210193Y-76160144D01*
X123210193Y-76436120D01*
X123156354Y-76706788D01*
X123050744Y-76961753D01*
X123050743Y-76961754D01*
X122897421Y-77191218D01*
X122702279Y-77386360D01*
X122548956Y-77488807D01*
X122472814Y-77539683D01*
X122369686Y-77582400D01*
X122217850Y-77645293D01*
X122127626Y-77663239D01*
X121947181Y-77699132D01*
X121671205Y-77699132D01*
X121490760Y-77663239D01*
X121400536Y-77645293D01*
X121248700Y-77582400D01*
X121145572Y-77539683D01*
X121069430Y-77488807D01*
X120916107Y-77386360D01*
X120720965Y-77191218D01*
X120567643Y-76961754D01*
X120567642Y-76961753D01*
X120462032Y-76706788D01*
X120408193Y-76436120D01*
X120408193Y-76160144D01*
X120462032Y-75889476D01*
X120567642Y-75634511D01*
X120618518Y-75558369D01*
X120720965Y-75405046D01*
X120916107Y-75209904D01*
X121145571Y-75056582D01*
X121145572Y-75056581D01*
X121294926Y-74994717D01*
X121400536Y-74950971D01*
X121490760Y-74933025D01*
X121671205Y-74897132D01*
X121947181Y-74897132D01*
X122127626Y-74933025D01*
X122127626Y-74933025D01*
G37*
G36*
X117929297Y-72957717D02*
G01*
X118097819Y-73027521D01*
X118249484Y-73128860D01*
X118378465Y-73257841D01*
X118479804Y-73409506D01*
X118549608Y-73578028D01*
X118585193Y-73756929D01*
X118585193Y-73939335D01*
X118549608Y-74118236D01*
X118479804Y-74286758D01*
X118378465Y-74438423D01*
X118249484Y-74567404D01*
X118097819Y-74668743D01*
X117929297Y-74738547D01*
X117750396Y-74774132D01*
X117567990Y-74774132D01*
X117389089Y-74738547D01*
X117220567Y-74668743D01*
X117068902Y-74567404D01*
X116939921Y-74438423D01*
X116838582Y-74286758D01*
X116768778Y-74118236D01*
X116733193Y-73939335D01*
X116733193Y-73756929D01*
X116768778Y-73578028D01*
X116838582Y-73409506D01*
X116939921Y-73257841D01*
X117068902Y-73128860D01*
X117220567Y-73027521D01*
X117389089Y-72957717D01*
X117567990Y-72922132D01*
X117750396Y-72922132D01*
X117929297Y-72957717D01*
X117929297Y-72957717D01*
G37*
G36*
X191429297Y-69457717D02*
G01*
X191597819Y-69527521D01*
X191749484Y-69628860D01*
X191878465Y-69757841D01*
X191979804Y-69909506D01*
X192049608Y-70078028D01*
X192085193Y-70256929D01*
X192085193Y-70439335D01*
X192049608Y-70618236D01*
X191979804Y-70786758D01*
X191878465Y-70938423D01*
X191749484Y-71067404D01*
X191597819Y-71168743D01*
X191429297Y-71238547D01*
X191250396Y-71274132D01*
X191067990Y-71274132D01*
X190889089Y-71238547D01*
X190720567Y-71168743D01*
X190568902Y-71067404D01*
X190439921Y-70938423D01*
X190338582Y-70786758D01*
X190268778Y-70618236D01*
X190233193Y-70439335D01*
X190233193Y-70256929D01*
X190268778Y-70078028D01*
X190338582Y-69909506D01*
X190439921Y-69757841D01*
X190568902Y-69628860D01*
X190720567Y-69527521D01*
X190889089Y-69457717D01*
X191067990Y-69422132D01*
X191250396Y-69422132D01*
X191429297Y-69457717D01*
X191429297Y-69457717D01*
G37*
G36*
X118585193Y-71274132D02*
G01*
X116733193Y-71274132D01*
X116733193Y-69422132D01*
X118585193Y-69422132D01*
X118585193Y-71274132D01*
X118585193Y-71274132D01*
G37*
G36*
X186127626Y-66533025D02*
G01*
X186217850Y-66550971D01*
X186323460Y-66594717D01*
X186472814Y-66656581D01*
X186472815Y-66656582D01*
X186702279Y-66809904D01*
X186897421Y-67005046D01*
X186999868Y-67158369D01*
X187050744Y-67234511D01*
X187156354Y-67489476D01*
X187210193Y-67760144D01*
X187210193Y-68036120D01*
X187156354Y-68306788D01*
X187050744Y-68561753D01*
X187050743Y-68561754D01*
X186897421Y-68791218D01*
X186702279Y-68986360D01*
X186548956Y-69088807D01*
X186472814Y-69139683D01*
X186323460Y-69201547D01*
X186217850Y-69245293D01*
X186127626Y-69263239D01*
X185947181Y-69299132D01*
X185671205Y-69299132D01*
X185490760Y-69263239D01*
X185400536Y-69245293D01*
X185294926Y-69201547D01*
X185145572Y-69139683D01*
X185069430Y-69088807D01*
X184916107Y-68986360D01*
X184720965Y-68791218D01*
X184567643Y-68561754D01*
X184567642Y-68561753D01*
X184462032Y-68306788D01*
X184408193Y-68036120D01*
X184408193Y-67760144D01*
X184462032Y-67489476D01*
X184567642Y-67234511D01*
X184618518Y-67158369D01*
X184720965Y-67005046D01*
X184916107Y-66809904D01*
X185145571Y-66656582D01*
X185145572Y-66656581D01*
X185294926Y-66594717D01*
X185400536Y-66550971D01*
X185490760Y-66533025D01*
X185671205Y-66497132D01*
X185947181Y-66497132D01*
X186127626Y-66533025D01*
X186127626Y-66533025D01*
G37*
G36*
X123327626Y-66533025D02*
G01*
X123417850Y-66550971D01*
X123523460Y-66594717D01*
X123672814Y-66656581D01*
X123672815Y-66656582D01*
X123902279Y-66809904D01*
X124097421Y-67005046D01*
X124199868Y-67158369D01*
X124250744Y-67234511D01*
X124356354Y-67489476D01*
X124410193Y-67760144D01*
X124410193Y-68036120D01*
X124356354Y-68306788D01*
X124250744Y-68561753D01*
X124250743Y-68561754D01*
X124097421Y-68791218D01*
X123902279Y-68986360D01*
X123748956Y-69088807D01*
X123672814Y-69139683D01*
X123523460Y-69201547D01*
X123417850Y-69245293D01*
X123327626Y-69263239D01*
X123147181Y-69299132D01*
X122871205Y-69299132D01*
X122690760Y-69263239D01*
X122600536Y-69245293D01*
X122494926Y-69201547D01*
X122345572Y-69139683D01*
X122269430Y-69088807D01*
X122116107Y-68986360D01*
X121920965Y-68791218D01*
X121767643Y-68561754D01*
X121767642Y-68561753D01*
X121662032Y-68306788D01*
X121608193Y-68036120D01*
X121608193Y-67760144D01*
X121662032Y-67489476D01*
X121767642Y-67234511D01*
X121818518Y-67158369D01*
X121920965Y-67005046D01*
X122116107Y-66809904D01*
X122345571Y-66656582D01*
X122345572Y-66656581D01*
X122494926Y-66594717D01*
X122600536Y-66550971D01*
X122690760Y-66533025D01*
X122871205Y-66497132D01*
X123147181Y-66497132D01*
X123327626Y-66533025D01*
X123327626Y-66533025D01*
G37*
M02*
